G04 #@! TF.GenerationSoftware,KiCad,Pcbnew,(5.1.4)-1*
G04 #@! TF.CreationDate,2023-02-15T19:59:47+01:00*
G04 #@! TF.ProjectId,plate,706c6174-652e-46b6-9963-61645f706362,1.0*
G04 #@! TF.SameCoordinates,Original*
G04 #@! TF.FileFunction,Copper,L2,Bot*
G04 #@! TF.FilePolarity,Positive*
%FSLAX46Y46*%
G04 Gerber Fmt 4.6, Leading zero omitted, Abs format (unit mm)*
G04 Created by KiCad (PCBNEW (5.1.4)-1) date 2023-02-15 19:59:47*
%MOMM*%
%LPD*%
G04 APERTURE LIST*
%ADD10C,4.400000*%
%ADD11C,0.700000*%
%ADD12C,2.200000*%
G04 APERTURE END LIST*
D10*
X141034000Y-145669000D03*
D11*
X142684000Y-145669000D03*
X142200726Y-146835726D03*
X141034000Y-147319000D03*
X139867274Y-146835726D03*
X139384000Y-145669000D03*
X139867274Y-144502274D03*
X141034000Y-144019000D03*
X142200726Y-144502274D03*
D10*
X217234000Y-145669000D03*
D11*
X218884000Y-145669000D03*
X218400726Y-146835726D03*
X217234000Y-147319000D03*
X216067274Y-146835726D03*
X215584000Y-145669000D03*
X216067274Y-144502274D03*
X217234000Y-144019000D03*
X218400726Y-144502274D03*
D10*
X45783500Y-145669000D03*
D11*
X47433500Y-145669000D03*
X46950226Y-146835726D03*
X45783500Y-147319000D03*
X44616774Y-146835726D03*
X44133500Y-145669000D03*
X44616774Y-144502274D03*
X45783500Y-144019000D03*
X46950226Y-144502274D03*
D12*
X263970000Y-194183000D03*
X257620000Y-196723000D03*
X230568000Y-156083000D03*
X224218000Y-158623000D03*
X40068500Y-156083000D03*
X33718500Y-158623000D03*
X325818000Y-156083000D03*
X319468000Y-158623000D03*
D10*
X307150000Y-153035000D03*
D11*
X308800000Y-153035000D03*
X308316726Y-154201726D03*
X307150000Y-154685000D03*
X305983274Y-154201726D03*
X305500000Y-153035000D03*
X305983274Y-151868274D03*
X307150000Y-151385000D03*
X308316726Y-151868274D03*
D12*
X225870000Y-194183000D03*
X219520000Y-196723000D03*
X187770000Y-194183000D03*
X181420000Y-196723000D03*
X376618000Y-225298000D03*
X382968000Y-222758000D03*
X382968000Y-184658000D03*
X376618000Y-187198000D03*
D11*
X62444226Y-209335274D03*
X61277500Y-208852000D03*
X60110774Y-209335274D03*
X59627500Y-210502000D03*
X60110774Y-211668726D03*
X61277500Y-212152000D03*
X62444226Y-211668726D03*
X62927500Y-210502000D03*
D10*
X61277500Y-210502000D03*
D12*
X221044000Y-175133000D03*
X214694000Y-177673000D03*
X325818000Y-175133000D03*
X319468000Y-177673000D03*
X363918000Y-175133000D03*
X357568000Y-177673000D03*
X73469500Y-194183000D03*
X67119500Y-196723000D03*
X201994000Y-175133000D03*
X195644000Y-177673000D03*
X240094000Y-175133000D03*
X233744000Y-177673000D03*
X344868000Y-175133000D03*
X338518000Y-177673000D03*
X111570000Y-194183000D03*
X105220000Y-196723000D03*
X130620000Y-194183000D03*
X124270000Y-196723000D03*
X92519500Y-194183000D03*
X86169500Y-196723000D03*
X168720000Y-194183000D03*
X162370000Y-196723000D03*
X149670000Y-194183000D03*
X143320000Y-196723000D03*
X182944000Y-175133000D03*
X176594000Y-177673000D03*
X163894000Y-175133000D03*
X157544000Y-177673000D03*
X259144000Y-175133000D03*
X252794000Y-177673000D03*
X144844000Y-175133000D03*
X138494000Y-177673000D03*
X278194000Y-175133000D03*
X271844000Y-177673000D03*
X135318000Y-213233000D03*
X128968000Y-215773000D03*
X154368000Y-213233000D03*
X148018000Y-215773000D03*
X211518000Y-213233000D03*
X205168000Y-215773000D03*
X173418000Y-213233000D03*
X167068000Y-215773000D03*
X192468000Y-213233000D03*
X186118000Y-215773000D03*
X230568000Y-213233000D03*
X224218000Y-215773000D03*
X249618000Y-213233000D03*
X243268000Y-215773000D03*
X363918000Y-194183000D03*
X357568000Y-196723000D03*
X344868000Y-194183000D03*
X338518000Y-196723000D03*
X325818000Y-194183000D03*
X319468000Y-196723000D03*
X283020000Y-194183000D03*
X276670000Y-196723000D03*
X116268000Y-213233000D03*
X109918000Y-215773000D03*
X206820000Y-194183000D03*
X200470000Y-196723000D03*
X78168500Y-213233000D03*
X71818500Y-215773000D03*
X244920000Y-194183000D03*
X238570000Y-196723000D03*
X97218500Y-213233000D03*
X90868500Y-215773000D03*
X344868000Y-156083000D03*
X338518000Y-158623000D03*
X363918000Y-156083000D03*
X357568000Y-158623000D03*
X382968000Y-156083000D03*
X376618000Y-158623000D03*
X135318000Y-156083000D03*
X128968000Y-158623000D03*
X68643500Y-175133000D03*
X62293500Y-177673000D03*
X116268000Y-156083000D03*
X109918000Y-158623000D03*
X87693500Y-175133000D03*
X81343500Y-177673000D03*
X106744000Y-175133000D03*
X100394000Y-177673000D03*
X125794000Y-175133000D03*
X119444000Y-177673000D03*
X192468000Y-156083000D03*
X186118000Y-158623000D03*
X211518000Y-156083000D03*
X205168000Y-158623000D03*
X173418000Y-156083000D03*
X167068000Y-158623000D03*
X97218500Y-156083000D03*
X90868500Y-158623000D03*
X268668000Y-156083000D03*
X262318000Y-158623000D03*
X249618000Y-156083000D03*
X243268000Y-158623000D03*
X154368000Y-156083000D03*
X148018000Y-158623000D03*
X344868000Y-232283000D03*
X338518000Y-234823000D03*
X325818000Y-232283000D03*
X319468000Y-234823000D03*
X363918000Y-213233000D03*
X357568000Y-215773000D03*
X344868000Y-213233000D03*
X338518000Y-215773000D03*
X68516500Y-232283000D03*
X62166500Y-234823000D03*
X287718000Y-232283000D03*
X281368000Y-234823000D03*
X87566500Y-232283000D03*
X81216500Y-234823000D03*
X268668000Y-213233000D03*
X262318000Y-215773000D03*
X225742000Y-232283000D03*
X219392000Y-234823000D03*
X306768000Y-213233000D03*
X300418000Y-215773000D03*
X306768000Y-232283000D03*
X300418000Y-234823000D03*
X287718000Y-213233000D03*
X281368000Y-215773000D03*
X244792000Y-232283000D03*
X238442000Y-234823000D03*
X325818000Y-213233000D03*
X319468000Y-215773000D03*
X44767500Y-175133000D03*
X38417500Y-177673000D03*
X38417500Y-234823000D03*
X44767500Y-232283000D03*
D10*
X289624000Y-182753000D03*
D11*
X291274000Y-182753000D03*
X290790726Y-183919726D03*
X289624000Y-184403000D03*
X288457274Y-183919726D03*
X287974000Y-182753000D03*
X288457274Y-181586274D03*
X289624000Y-181103000D03*
X290790726Y-181586274D03*
D10*
X379222000Y-167386000D03*
D11*
X380872000Y-167386000D03*
X380388726Y-168552726D03*
X379222000Y-169036000D03*
X378055274Y-168552726D03*
X377572000Y-167386000D03*
X378055274Y-166219274D03*
X379222000Y-165736000D03*
X380388726Y-166219274D03*
D10*
X142303500Y-225996500D03*
D11*
X143953500Y-225996500D03*
X143470226Y-227163226D03*
X142303500Y-227646500D03*
X141136774Y-227163226D03*
X140653500Y-225996500D03*
X141136774Y-224829774D03*
X142303500Y-224346500D03*
X143470226Y-224829774D03*
D10*
X379031500Y-204343000D03*
D11*
X380681500Y-204343000D03*
X380198226Y-205509726D03*
X379031500Y-205993000D03*
X377864774Y-205509726D03*
X377381500Y-204343000D03*
X377864774Y-203176274D03*
X379031500Y-202693000D03*
X380198226Y-203176274D03*
D12*
X297244000Y-156083000D03*
X290894000Y-158623000D03*
X43243500Y-215773000D03*
X49593500Y-213233000D03*
D10*
X174688500Y-183896000D03*
D11*
X176338500Y-183896000D03*
X175855226Y-185062726D03*
X174688500Y-185546000D03*
X173521774Y-185062726D03*
X173038500Y-183896000D03*
X173521774Y-182729274D03*
X174688500Y-182246000D03*
X175855226Y-182729274D03*
D12*
X298006000Y-187198000D03*
X304356000Y-184658000D03*
X40830500Y-196723000D03*
X47180500Y-194183000D03*
X150304000Y-234823000D03*
X156654000Y-232283000D03*
X259906000Y-234823000D03*
X266256000Y-232283000D03*
X78168500Y-156083000D03*
X71818500Y-158623000D03*
X59118500Y-156083000D03*
X52768500Y-158623000D03*
X363918000Y-232283000D03*
X357568000Y-234823000D03*
X230568000Y-137033000D03*
X224218000Y-139573000D03*
X192468000Y-137033000D03*
X186118000Y-139573000D03*
X306768000Y-137033000D03*
X300418000Y-139573000D03*
X135318000Y-137033000D03*
X128968000Y-139573000D03*
X78168500Y-137033000D03*
X71818500Y-139573000D03*
X249618000Y-137033000D03*
X243268000Y-139573000D03*
X154368000Y-137033000D03*
X148018000Y-139573000D03*
X116268000Y-137033000D03*
X109918000Y-139573000D03*
X173418000Y-137033000D03*
X167068000Y-139573000D03*
X268668000Y-137033000D03*
X262318000Y-139573000D03*
X287718000Y-137033000D03*
X281368000Y-139573000D03*
X97218500Y-137033000D03*
X90868500Y-139573000D03*
X211518000Y-137033000D03*
X205168000Y-139573000D03*
X59118500Y-137033000D03*
X52768500Y-139573000D03*
X40068500Y-137033000D03*
X33718500Y-139573000D03*
M02*
