M48
; DRILL file {KiCad (5.1.4)-1} date 15/02/2023 20:00:05
; FORMAT={-:-/ absolute / metric / decimal}
; #@! TF.CreationDate,2023-02-15T20:00:05+01:00
; #@! TF.GenerationSoftware,Kicad,Pcbnew,(5.1.4)-1
; #@! TF.FileFunction,Plated,1,2,PTH
FMAT,2
METRIC
T1C0.400
T2C1.500
T3C2.200
%
G90
G05
T1
X140.653Y-225.996
X141.137Y-224.83
X141.137Y-227.163
X142.303Y-224.346
X142.303Y-227.647
X143.47Y-224.83
X143.47Y-227.163
X143.953Y-225.996
X59.627Y-210.502
X60.111Y-209.335
X60.111Y-211.669
X61.277Y-208.852
X61.277Y-212.152
X62.444Y-209.335
X62.444Y-211.669
X62.927Y-210.502
X377.572Y-167.386
X378.055Y-166.219
X378.055Y-168.553
X379.222Y-165.736
X379.222Y-169.036
X380.389Y-166.219
X380.389Y-168.553
X380.872Y-167.386
X305.5Y-153.035
X305.983Y-151.868
X305.983Y-154.202
X307.15Y-151.385
X307.15Y-154.685
X308.317Y-151.868
X308.317Y-154.202
X308.8Y-153.035
X139.384Y-145.669
X139.867Y-144.502
X139.867Y-146.836
X141.034Y-144.019
X141.034Y-147.319
X142.201Y-144.502
X142.201Y-146.836
X142.684Y-145.669
X287.974Y-182.753
X288.457Y-181.586
X288.457Y-183.92
X289.624Y-181.103
X289.624Y-184.403
X290.791Y-181.586
X290.791Y-183.92
X291.274Y-182.753
X377.381Y-204.343
X377.865Y-203.176
X377.865Y-205.51
X379.031Y-202.693
X379.031Y-205.993
X380.198Y-203.176
X380.198Y-205.51
X380.681Y-204.343
X215.584Y-145.669
X216.067Y-144.502
X216.067Y-146.836
X217.234Y-144.019
X217.234Y-147.319
X218.401Y-144.502
X218.401Y-146.836
X218.884Y-145.669
X44.133Y-145.669
X44.617Y-144.502
X44.617Y-146.836
X45.783Y-144.019
X45.783Y-147.319
X46.95Y-144.502
X46.95Y-146.836
X47.433Y-145.669
X173.038Y-183.896
X173.522Y-182.729
X173.522Y-185.063
X174.689Y-182.246
X174.689Y-185.546
X175.855Y-182.729
X175.855Y-185.063
X176.338Y-183.896
T2
X148.018Y-215.773
X154.368Y-213.233
X71.819Y-158.623
X78.168Y-156.083
X357.568Y-177.673
X363.918Y-175.133
X167.068Y-215.773
X173.418Y-213.233
X338.518Y-215.773
X344.868Y-213.233
X338.518Y-196.723
X344.868Y-194.183
X148.018Y-158.623
X154.368Y-156.083
X195.644Y-177.673
X201.994Y-175.133
X319.468Y-158.623
X325.818Y-156.083
X357.568Y-196.723
X363.918Y-194.183
X338.518Y-158.623
X344.868Y-156.083
X62.166Y-234.823
X68.516Y-232.283
X219.392Y-234.823
X225.742Y-232.283
X71.819Y-215.773
X78.168Y-213.233
X376.618Y-158.623
X382.968Y-156.083
X259.906Y-234.823
X266.256Y-232.283
X128.968Y-158.623
X135.318Y-156.083
X38.417Y-177.673
X44.767Y-175.133
X90.868Y-158.623
X97.218Y-156.083
X224.218Y-139.573
X230.568Y-137.033
X205.168Y-139.573
X211.518Y-137.033
X243.268Y-158.623
X249.618Y-156.083
X338.518Y-177.673
X344.868Y-175.133
X300.418Y-215.773
X306.768Y-213.233
X281.368Y-139.573
X287.718Y-137.033
X376.618Y-225.298
X382.968Y-222.758
X300.418Y-234.823
X306.768Y-232.283
X128.968Y-139.573
X135.318Y-137.033
X262.318Y-158.623
X268.668Y-156.083
X233.744Y-177.673
X240.094Y-175.133
X200.47Y-196.723
X206.82Y-194.183
X290.894Y-158.623
X297.244Y-156.083
X205.168Y-158.623
X211.518Y-156.083
X252.794Y-177.673
X259.144Y-175.133
X281.368Y-215.773
X287.718Y-213.233
X52.768Y-158.623
X59.118Y-156.083
X81.343Y-177.673
X87.694Y-175.133
X86.169Y-196.723
X92.519Y-194.183
X219.52Y-196.723
X225.87Y-194.183
X186.118Y-215.773
X192.468Y-213.233
X148.018Y-139.573
X154.368Y-137.033
X162.37Y-196.723
X168.72Y-194.183
X181.42Y-196.723
X187.77Y-194.183
X319.468Y-196.723
X325.818Y-194.183
X357.568Y-215.773
X363.918Y-213.233
X90.868Y-215.773
X97.218Y-213.233
X128.968Y-215.773
X135.318Y-213.233
X281.368Y-234.823
X287.718Y-232.283
X186.118Y-139.573
X192.468Y-137.033
X33.718Y-139.573
X40.069Y-137.033
X138.494Y-177.673
X144.844Y-175.133
X300.418Y-139.573
X306.768Y-137.033
X319.468Y-234.823
X325.818Y-232.283
X150.304Y-234.823
X156.654Y-232.283
X167.068Y-139.573
X173.418Y-137.033
X186.118Y-158.623
X192.468Y-156.083
X376.618Y-187.198
X382.968Y-184.658
X40.831Y-196.723
X47.18Y-194.183
X109.918Y-158.623
X116.268Y-156.083
X176.594Y-177.673
X182.944Y-175.133
X238.57Y-196.723
X244.92Y-194.183
X238.442Y-234.823
X244.792Y-232.283
X243.268Y-139.573
X249.618Y-137.033
X124.27Y-196.723
X130.62Y-194.183
X271.844Y-177.673
X278.194Y-175.133
X319.468Y-177.673
X325.818Y-175.133
X205.168Y-215.773
X211.518Y-213.233
X257.62Y-196.723
X263.97Y-194.183
X338.518Y-234.823
X344.868Y-232.283
X100.394Y-177.673
X106.744Y-175.133
X105.22Y-196.723
X111.57Y-194.183
X33.718Y-158.623
X40.069Y-156.083
X243.268Y-215.773
X249.618Y-213.233
X109.918Y-139.573
X116.268Y-137.033
X143.32Y-196.723
X149.67Y-194.183
X224.218Y-158.623
X230.568Y-156.083
X276.67Y-196.723
X283.02Y-194.183
X43.243Y-215.773
X49.593Y-213.233
X109.918Y-215.773
X116.268Y-213.233
X81.216Y-234.823
X87.566Y-232.283
X319.468Y-215.773
X325.818Y-213.233
X90.868Y-139.573
X97.218Y-137.033
X357.568Y-158.623
X363.918Y-156.083
X52.768Y-139.573
X59.118Y-137.033
X298.006Y-187.198
X304.356Y-184.658
X262.318Y-215.773
X268.668Y-213.233
X357.568Y-234.823
X363.918Y-232.283
X262.318Y-139.573
X268.668Y-137.033
X167.068Y-158.623
X173.418Y-156.083
X67.12Y-196.723
X73.469Y-194.183
X38.417Y-234.823
X44.767Y-232.283
X71.819Y-139.573
X78.168Y-137.033
X214.694Y-177.673
X221.044Y-175.133
X62.293Y-177.673
X68.644Y-175.133
X157.544Y-177.673
X163.894Y-175.133
X224.218Y-215.773
X230.568Y-213.233
X119.444Y-177.673
X125.794Y-175.133
T3
X142.303Y-225.996
X61.277Y-210.502
X379.222Y-167.386
X307.15Y-153.035
X141.034Y-145.669
X289.624Y-182.753
X379.031Y-204.343
X217.234Y-145.669
X45.783Y-145.669
X174.689Y-183.896
T0
M30
