G04 #@! TF.GenerationSoftware,KiCad,Pcbnew,(5.1.4)-1*
G04 #@! TF.CreationDate,2023-02-23T21:20:58+01:00*
G04 #@! TF.ProjectId,pcb,7063622e-6b69-4636-9164-5f7063625858,1.0*
G04 #@! TF.SameCoordinates,Original*
G04 #@! TF.FileFunction,Legend,Bot*
G04 #@! TF.FilePolarity,Positive*
%FSLAX46Y46*%
G04 Gerber Fmt 4.6, Leading zero omitted, Abs format (unit mm)*
G04 Created by KiCad (PCBNEW (5.1.4)-1) date 2023-02-23 21:20:58*
%MOMM*%
%LPD*%
G04 APERTURE LIST*
%ADD10C,0.300000*%
%ADD11C,0.120000*%
%ADD12C,0.150000*%
G04 APERTURE END LIST*
D10*
X178549714Y-78016571D02*
X179049714Y-77302285D01*
X179406857Y-78016571D02*
X179406857Y-76516571D01*
X178835428Y-76516571D01*
X178692571Y-76588000D01*
X178621142Y-76659428D01*
X178549714Y-76802285D01*
X178549714Y-77016571D01*
X178621142Y-77159428D01*
X178692571Y-77230857D01*
X178835428Y-77302285D01*
X179406857Y-77302285D01*
X177049714Y-77873714D02*
X177121142Y-77945142D01*
X177335428Y-78016571D01*
X177478285Y-78016571D01*
X177692571Y-77945142D01*
X177835428Y-77802285D01*
X177906857Y-77659428D01*
X177978285Y-77373714D01*
X177978285Y-77159428D01*
X177906857Y-76873714D01*
X177835428Y-76730857D01*
X177692571Y-76588000D01*
X177478285Y-76516571D01*
X177335428Y-76516571D01*
X177121142Y-76588000D01*
X177049714Y-76659428D01*
X176406857Y-78016571D02*
X176406857Y-76516571D01*
X175549714Y-78016571D02*
X176192571Y-77159428D01*
X175549714Y-76516571D02*
X176406857Y-77373714D01*
X173906857Y-77016571D02*
X173549714Y-78016571D01*
X173192571Y-77016571D01*
X172335428Y-76516571D02*
X172192571Y-76516571D01*
X172049714Y-76588000D01*
X171978285Y-76659428D01*
X171906857Y-76802285D01*
X171835428Y-77088000D01*
X171835428Y-77445142D01*
X171906857Y-77730857D01*
X171978285Y-77873714D01*
X172049714Y-77945142D01*
X172192571Y-78016571D01*
X172335428Y-78016571D01*
X172478285Y-77945142D01*
X172549714Y-77873714D01*
X172621142Y-77730857D01*
X172692571Y-77445142D01*
X172692571Y-77088000D01*
X172621142Y-76802285D01*
X172549714Y-76659428D01*
X172478285Y-76588000D01*
X172335428Y-76516571D01*
X171192571Y-77873714D02*
X171121142Y-77945142D01*
X171192571Y-78016571D01*
X171264000Y-77945142D01*
X171192571Y-77873714D01*
X171192571Y-78016571D01*
X169692571Y-78016571D02*
X170549714Y-78016571D01*
X170121142Y-78016571D02*
X170121142Y-76516571D01*
X170264000Y-76730857D01*
X170406857Y-76873714D01*
X170549714Y-76945142D01*
X178978285Y-79066571D02*
X178978285Y-80138000D01*
X179049714Y-80352285D01*
X179192571Y-80495142D01*
X179406857Y-80566571D01*
X179549714Y-80566571D01*
X177621142Y-80566571D02*
X177621142Y-79780857D01*
X177692571Y-79638000D01*
X177835428Y-79566571D01*
X178121142Y-79566571D01*
X178264000Y-79638000D01*
X177621142Y-80495142D02*
X177764000Y-80566571D01*
X178121142Y-80566571D01*
X178264000Y-80495142D01*
X178335428Y-80352285D01*
X178335428Y-80209428D01*
X178264000Y-80066571D01*
X178121142Y-79995142D01*
X177764000Y-79995142D01*
X177621142Y-79923714D01*
X176906857Y-79566571D02*
X176906857Y-80566571D01*
X176906857Y-79709428D02*
X176835428Y-79638000D01*
X176692571Y-79566571D01*
X176478285Y-79566571D01*
X176335428Y-79638000D01*
X176264000Y-79780857D01*
X176264000Y-80566571D01*
X175549714Y-80423714D02*
X175478285Y-80495142D01*
X175549714Y-80566571D01*
X175621142Y-80495142D01*
X175549714Y-80423714D01*
X175549714Y-80566571D01*
X173764000Y-79209428D02*
X173692571Y-79138000D01*
X173549714Y-79066571D01*
X173192571Y-79066571D01*
X173049714Y-79138000D01*
X172978285Y-79209428D01*
X172906857Y-79352285D01*
X172906857Y-79495142D01*
X172978285Y-79709428D01*
X173835428Y-80566571D01*
X172906857Y-80566571D01*
X171978285Y-79066571D02*
X171835428Y-79066571D01*
X171692571Y-79138000D01*
X171621142Y-79209428D01*
X171549714Y-79352285D01*
X171478285Y-79638000D01*
X171478285Y-79995142D01*
X171549714Y-80280857D01*
X171621142Y-80423714D01*
X171692571Y-80495142D01*
X171835428Y-80566571D01*
X171978285Y-80566571D01*
X172121142Y-80495142D01*
X172192571Y-80423714D01*
X172264000Y-80280857D01*
X172335428Y-79995142D01*
X172335428Y-79638000D01*
X172264000Y-79352285D01*
X172192571Y-79209428D01*
X172121142Y-79138000D01*
X171978285Y-79066571D01*
X170906857Y-79209428D02*
X170835428Y-79138000D01*
X170692571Y-79066571D01*
X170335428Y-79066571D01*
X170192571Y-79138000D01*
X170121142Y-79209428D01*
X170049714Y-79352285D01*
X170049714Y-79495142D01*
X170121142Y-79709428D01*
X170978285Y-80566571D01*
X170049714Y-80566571D01*
X169549714Y-79066571D02*
X168621142Y-79066571D01*
X169121142Y-79638000D01*
X168906857Y-79638000D01*
X168764000Y-79709428D01*
X168692571Y-79780857D01*
X168621142Y-79923714D01*
X168621142Y-80280857D01*
X168692571Y-80423714D01*
X168764000Y-80495142D01*
X168906857Y-80566571D01*
X169335428Y-80566571D01*
X169478285Y-80495142D01*
X169549714Y-80423714D01*
X178549714Y-74656071D02*
X179049714Y-73941785D01*
X179406857Y-74656071D02*
X179406857Y-73156071D01*
X178835428Y-73156071D01*
X178692571Y-73227500D01*
X178621142Y-73298928D01*
X178549714Y-73441785D01*
X178549714Y-73656071D01*
X178621142Y-73798928D01*
X178692571Y-73870357D01*
X178835428Y-73941785D01*
X179406857Y-73941785D01*
X177264000Y-74656071D02*
X177264000Y-73870357D01*
X177335428Y-73727500D01*
X177478285Y-73656071D01*
X177764000Y-73656071D01*
X177906857Y-73727500D01*
X177264000Y-74584642D02*
X177406857Y-74656071D01*
X177764000Y-74656071D01*
X177906857Y-74584642D01*
X177978285Y-74441785D01*
X177978285Y-74298928D01*
X177906857Y-74156071D01*
X177764000Y-74084642D01*
X177406857Y-74084642D01*
X177264000Y-74013214D01*
X175906857Y-73656071D02*
X175906857Y-74656071D01*
X176549714Y-73656071D02*
X176549714Y-74441785D01*
X176478285Y-74584642D01*
X176335428Y-74656071D01*
X176121142Y-74656071D01*
X175978285Y-74584642D01*
X175906857Y-74513214D01*
X176049714Y-73084642D02*
X176264000Y-73298928D01*
X174978285Y-74656071D02*
X175121142Y-74584642D01*
X175192571Y-74441785D01*
X175192571Y-73156071D01*
X172406857Y-74656071D02*
X172906857Y-73941785D01*
X173264000Y-74656071D02*
X173264000Y-73156071D01*
X172692571Y-73156071D01*
X172549714Y-73227500D01*
X172478285Y-73298928D01*
X172406857Y-73441785D01*
X172406857Y-73656071D01*
X172478285Y-73798928D01*
X172549714Y-73870357D01*
X172692571Y-73941785D01*
X173264000Y-73941785D01*
X171192571Y-74584642D02*
X171335428Y-74656071D01*
X171621142Y-74656071D01*
X171764000Y-74584642D01*
X171835428Y-74441785D01*
X171835428Y-73870357D01*
X171764000Y-73727500D01*
X171621142Y-73656071D01*
X171335428Y-73656071D01*
X171192571Y-73727500D01*
X171121142Y-73870357D01*
X171121142Y-74013214D01*
X171835428Y-74156071D01*
X170478285Y-74656071D02*
X170478285Y-73656071D01*
X170478285Y-73156071D02*
X170549714Y-73227500D01*
X170478285Y-73298928D01*
X170406857Y-73227500D01*
X170478285Y-73156071D01*
X170478285Y-73298928D01*
X169764000Y-73656071D02*
X169764000Y-74656071D01*
X169764000Y-73798928D02*
X169692571Y-73727500D01*
X169549714Y-73656071D01*
X169335428Y-73656071D01*
X169192571Y-73727500D01*
X169121142Y-73870357D01*
X169121142Y-74656071D01*
X168192571Y-74656071D02*
X168335428Y-74584642D01*
X168406857Y-74513214D01*
X168478285Y-74370357D01*
X168478285Y-73941785D01*
X168406857Y-73798928D01*
X168335428Y-73727500D01*
X168192571Y-73656071D01*
X167978285Y-73656071D01*
X167835428Y-73727500D01*
X167764000Y-73798928D01*
X167692571Y-73941785D01*
X167692571Y-74370357D01*
X167764000Y-74513214D01*
X167835428Y-74584642D01*
X167978285Y-74656071D01*
X168192571Y-74656071D01*
X167121142Y-74584642D02*
X166978285Y-74656071D01*
X166692571Y-74656071D01*
X166549714Y-74584642D01*
X166478285Y-74441785D01*
X166478285Y-74370357D01*
X166549714Y-74227500D01*
X166692571Y-74156071D01*
X166906857Y-74156071D01*
X167049714Y-74084642D01*
X167121142Y-73941785D01*
X167121142Y-73870357D01*
X167049714Y-73727500D01*
X166906857Y-73656071D01*
X166692571Y-73656071D01*
X166549714Y-73727500D01*
X165192571Y-74656071D02*
X165192571Y-73870357D01*
X165264000Y-73727500D01*
X165406857Y-73656071D01*
X165692571Y-73656071D01*
X165835428Y-73727500D01*
X165192571Y-74584642D02*
X165335428Y-74656071D01*
X165692571Y-74656071D01*
X165835428Y-74584642D01*
X165906857Y-74441785D01*
X165906857Y-74298928D01*
X165835428Y-74156071D01*
X165692571Y-74084642D01*
X165335428Y-74084642D01*
X165192571Y-74013214D01*
D11*
X203348000Y-55783564D02*
X203348000Y-54579436D01*
X201528000Y-55783564D02*
X201528000Y-54579436D01*
X209010064Y-66145500D02*
X207805936Y-66145500D01*
X209010064Y-67965500D02*
X207805936Y-67965500D01*
X194098000Y-55910564D02*
X194098000Y-54706436D01*
X195918000Y-55910564D02*
X195918000Y-54706436D01*
X209010064Y-71712500D02*
X207805936Y-71712500D01*
X209010064Y-69892500D02*
X207805936Y-69892500D01*
X173387936Y-54462000D02*
X174592064Y-54462000D01*
X173387936Y-56282000D02*
X174592064Y-56282000D01*
X184896000Y-95277500D02*
X184896000Y-91377500D01*
X182896000Y-95277500D02*
X182896000Y-91377500D01*
X184896000Y-95277500D02*
X182896000Y-95277500D01*
X209010064Y-75331500D02*
X207805936Y-75331500D01*
X209010064Y-73511500D02*
X207805936Y-73511500D01*
X209010064Y-62209000D02*
X207805936Y-62209000D01*
X209010064Y-64029000D02*
X207805936Y-64029000D01*
X197844000Y-55910564D02*
X197844000Y-54706436D01*
X199664000Y-55910564D02*
X199664000Y-54706436D01*
X208974064Y-77233500D02*
X207769936Y-77233500D01*
X208974064Y-79053500D02*
X207769936Y-79053500D01*
X206613000Y-95277500D02*
X206613000Y-91377500D01*
X204613000Y-95277500D02*
X204613000Y-91377500D01*
X206613000Y-95277500D02*
X204613000Y-95277500D01*
D12*
X204615142Y-55014833D02*
X204662761Y-54967214D01*
X204710380Y-54824357D01*
X204710380Y-54729119D01*
X204662761Y-54586261D01*
X204567523Y-54491023D01*
X204472285Y-54443404D01*
X204281809Y-54395785D01*
X204138952Y-54395785D01*
X203948476Y-54443404D01*
X203853238Y-54491023D01*
X203758000Y-54586261D01*
X203710380Y-54729119D01*
X203710380Y-54824357D01*
X203758000Y-54967214D01*
X203805619Y-55014833D01*
X203710380Y-55919595D02*
X203710380Y-55443404D01*
X204186571Y-55395785D01*
X204138952Y-55443404D01*
X204091333Y-55538642D01*
X204091333Y-55776738D01*
X204138952Y-55871976D01*
X204186571Y-55919595D01*
X204281809Y-55967214D01*
X204519904Y-55967214D01*
X204615142Y-55919595D01*
X204662761Y-55871976D01*
X204710380Y-55776738D01*
X204710380Y-55538642D01*
X204662761Y-55443404D01*
X204615142Y-55395785D01*
X208574666Y-65592642D02*
X208622285Y-65640261D01*
X208765142Y-65687880D01*
X208860380Y-65687880D01*
X209003238Y-65640261D01*
X209098476Y-65545023D01*
X209146095Y-65449785D01*
X209193714Y-65259309D01*
X209193714Y-65116452D01*
X209146095Y-64925976D01*
X209098476Y-64830738D01*
X209003238Y-64735500D01*
X208860380Y-64687880D01*
X208765142Y-64687880D01*
X208622285Y-64735500D01*
X208574666Y-64783119D01*
X208193714Y-64783119D02*
X208146095Y-64735500D01*
X208050857Y-64687880D01*
X207812761Y-64687880D01*
X207717523Y-64735500D01*
X207669904Y-64783119D01*
X207622285Y-64878357D01*
X207622285Y-64973595D01*
X207669904Y-65116452D01*
X208241333Y-65687880D01*
X207622285Y-65687880D01*
X197185142Y-55141833D02*
X197232761Y-55094214D01*
X197280380Y-54951357D01*
X197280380Y-54856119D01*
X197232761Y-54713261D01*
X197137523Y-54618023D01*
X197042285Y-54570404D01*
X196851809Y-54522785D01*
X196708952Y-54522785D01*
X196518476Y-54570404D01*
X196423238Y-54618023D01*
X196328000Y-54713261D01*
X196280380Y-54856119D01*
X196280380Y-54951357D01*
X196328000Y-55094214D01*
X196375619Y-55141833D01*
X196708952Y-55713261D02*
X196661333Y-55618023D01*
X196613714Y-55570404D01*
X196518476Y-55522785D01*
X196470857Y-55522785D01*
X196375619Y-55570404D01*
X196328000Y-55618023D01*
X196280380Y-55713261D01*
X196280380Y-55903738D01*
X196328000Y-55998976D01*
X196375619Y-56046595D01*
X196470857Y-56094214D01*
X196518476Y-56094214D01*
X196613714Y-56046595D01*
X196661333Y-55998976D01*
X196708952Y-55903738D01*
X196708952Y-55713261D01*
X196756571Y-55618023D01*
X196804190Y-55570404D01*
X196899428Y-55522785D01*
X197089904Y-55522785D01*
X197185142Y-55570404D01*
X197232761Y-55618023D01*
X197280380Y-55713261D01*
X197280380Y-55903738D01*
X197232761Y-55998976D01*
X197185142Y-56046595D01*
X197089904Y-56094214D01*
X196899428Y-56094214D01*
X196804190Y-56046595D01*
X196756571Y-55998976D01*
X196708952Y-55903738D01*
X208574666Y-69339642D02*
X208622285Y-69387261D01*
X208765142Y-69434880D01*
X208860380Y-69434880D01*
X209003238Y-69387261D01*
X209098476Y-69292023D01*
X209146095Y-69196785D01*
X209193714Y-69006309D01*
X209193714Y-68863452D01*
X209146095Y-68672976D01*
X209098476Y-68577738D01*
X209003238Y-68482500D01*
X208860380Y-68434880D01*
X208765142Y-68434880D01*
X208622285Y-68482500D01*
X208574666Y-68530119D01*
X208241333Y-68434880D02*
X207622285Y-68434880D01*
X207955619Y-68815833D01*
X207812761Y-68815833D01*
X207717523Y-68863452D01*
X207669904Y-68911071D01*
X207622285Y-69006309D01*
X207622285Y-69244404D01*
X207669904Y-69339642D01*
X207717523Y-69387261D01*
X207812761Y-69434880D01*
X208098476Y-69434880D01*
X208193714Y-69387261D01*
X208241333Y-69339642D01*
X174323333Y-57120571D02*
X174656666Y-57120571D01*
X174656666Y-57644380D02*
X174656666Y-56644380D01*
X174180476Y-56644380D01*
X173275714Y-57644380D02*
X173847142Y-57644380D01*
X173561428Y-57644380D02*
X173561428Y-56644380D01*
X173656666Y-56787238D01*
X173751904Y-56882476D01*
X173847142Y-56930095D01*
X186348380Y-92289404D02*
X185348380Y-92289404D01*
X185348380Y-92527500D01*
X185396000Y-92670357D01*
X185491238Y-92765595D01*
X185586476Y-92813214D01*
X185776952Y-92860833D01*
X185919809Y-92860833D01*
X186110285Y-92813214D01*
X186205523Y-92765595D01*
X186300761Y-92670357D01*
X186348380Y-92527500D01*
X186348380Y-92289404D01*
X186348380Y-93813214D02*
X186348380Y-93241785D01*
X186348380Y-93527500D02*
X185348380Y-93527500D01*
X185491238Y-93432261D01*
X185586476Y-93337023D01*
X185634095Y-93241785D01*
X208574666Y-72958642D02*
X208622285Y-73006261D01*
X208765142Y-73053880D01*
X208860380Y-73053880D01*
X209003238Y-73006261D01*
X209098476Y-72911023D01*
X209146095Y-72815785D01*
X209193714Y-72625309D01*
X209193714Y-72482452D01*
X209146095Y-72291976D01*
X209098476Y-72196738D01*
X209003238Y-72101500D01*
X208860380Y-72053880D01*
X208765142Y-72053880D01*
X208622285Y-72101500D01*
X208574666Y-72149119D01*
X207622285Y-73053880D02*
X208193714Y-73053880D01*
X207908000Y-73053880D02*
X207908000Y-72053880D01*
X208003238Y-72196738D01*
X208098476Y-72291976D01*
X208193714Y-72339595D01*
X208574666Y-61656142D02*
X208622285Y-61703761D01*
X208765142Y-61751380D01*
X208860380Y-61751380D01*
X209003238Y-61703761D01*
X209098476Y-61608523D01*
X209146095Y-61513285D01*
X209193714Y-61322809D01*
X209193714Y-61179952D01*
X209146095Y-60989476D01*
X209098476Y-60894238D01*
X209003238Y-60799000D01*
X208860380Y-60751380D01*
X208765142Y-60751380D01*
X208622285Y-60799000D01*
X208574666Y-60846619D01*
X207717523Y-61084714D02*
X207717523Y-61751380D01*
X207955619Y-60703761D02*
X208193714Y-61418047D01*
X207574666Y-61418047D01*
X200931142Y-55141833D02*
X200978761Y-55094214D01*
X201026380Y-54951357D01*
X201026380Y-54856119D01*
X200978761Y-54713261D01*
X200883523Y-54618023D01*
X200788285Y-54570404D01*
X200597809Y-54522785D01*
X200454952Y-54522785D01*
X200264476Y-54570404D01*
X200169238Y-54618023D01*
X200074000Y-54713261D01*
X200026380Y-54856119D01*
X200026380Y-54951357D01*
X200074000Y-55094214D01*
X200121619Y-55141833D01*
X200026380Y-55998976D02*
X200026380Y-55808500D01*
X200074000Y-55713261D01*
X200121619Y-55665642D01*
X200264476Y-55570404D01*
X200454952Y-55522785D01*
X200835904Y-55522785D01*
X200931142Y-55570404D01*
X200978761Y-55618023D01*
X201026380Y-55713261D01*
X201026380Y-55903738D01*
X200978761Y-55998976D01*
X200931142Y-56046595D01*
X200835904Y-56094214D01*
X200597809Y-56094214D01*
X200502571Y-56046595D01*
X200454952Y-55998976D01*
X200407333Y-55903738D01*
X200407333Y-55713261D01*
X200454952Y-55618023D01*
X200502571Y-55570404D01*
X200597809Y-55522785D01*
X208538666Y-76680642D02*
X208586285Y-76728261D01*
X208729142Y-76775880D01*
X208824380Y-76775880D01*
X208967238Y-76728261D01*
X209062476Y-76633023D01*
X209110095Y-76537785D01*
X209157714Y-76347309D01*
X209157714Y-76204452D01*
X209110095Y-76013976D01*
X209062476Y-75918738D01*
X208967238Y-75823500D01*
X208824380Y-75775880D01*
X208729142Y-75775880D01*
X208586285Y-75823500D01*
X208538666Y-75871119D01*
X208205333Y-75775880D02*
X207538666Y-75775880D01*
X207967238Y-76775880D01*
X208065380Y-92289404D02*
X207065380Y-92289404D01*
X207065380Y-92527500D01*
X207113000Y-92670357D01*
X207208238Y-92765595D01*
X207303476Y-92813214D01*
X207493952Y-92860833D01*
X207636809Y-92860833D01*
X207827285Y-92813214D01*
X207922523Y-92765595D01*
X208017761Y-92670357D01*
X208065380Y-92527500D01*
X208065380Y-92289404D01*
X207160619Y-93241785D02*
X207113000Y-93289404D01*
X207065380Y-93384642D01*
X207065380Y-93622738D01*
X207113000Y-93717976D01*
X207160619Y-93765595D01*
X207255857Y-93813214D01*
X207351095Y-93813214D01*
X207493952Y-93765595D01*
X208065380Y-93194166D01*
X208065380Y-93813214D01*
M02*
