G04 #@! TF.GenerationSoftware,KiCad,Pcbnew,(5.1.4)-1*
G04 #@! TF.CreationDate,2023-02-23T21:20:58+01:00*
G04 #@! TF.ProjectId,pcb,7063622e-6b69-4636-9164-5f7063625858,1.0*
G04 #@! TF.SameCoordinates,Original*
G04 #@! TF.FileFunction,Copper,L1,Top*
G04 #@! TF.FilePolarity,Positive*
%FSLAX46Y46*%
G04 Gerber Fmt 4.6, Leading zero omitted, Abs format (unit mm)*
G04 Created by KiCad (PCBNEW (5.1.4)-1) date 2023-02-23 21:20:58*
%MOMM*%
%LPD*%
G04 APERTURE LIST*
%ADD10R,1.500000X0.550000*%
%ADD11R,0.550000X1.500000*%
%ADD12C,0.700000*%
%ADD13C,4.400000*%
%ADD14C,0.100000*%
%ADD15C,1.250000*%
%ADD16R,1.700000X1.700000*%
%ADD17O,1.700000X1.700000*%
%ADD18O,1.000000X1.600000*%
%ADD19O,1.000000X2.100000*%
%ADD20R,0.300000X1.450000*%
%ADD21R,0.600000X1.450000*%
%ADD22R,2.000000X4.500000*%
%ADD23R,1.500000X1.000000*%
%ADD24C,2.200000*%
%ADD25C,0.800000*%
%ADD26C,0.400000*%
%ADD27C,0.150000*%
%ADD28C,0.254000*%
G04 APERTURE END LIST*
D10*
X204264000Y-69024000D03*
X204264000Y-68224000D03*
X204264000Y-67424000D03*
X204264000Y-66624000D03*
X204264000Y-65824000D03*
X204264000Y-65024000D03*
X204264000Y-64224000D03*
X204264000Y-63424000D03*
X204264000Y-62624000D03*
X204264000Y-61824000D03*
X204264000Y-61024000D03*
D11*
X202564000Y-59324000D03*
X201764000Y-59324000D03*
X200964000Y-59324000D03*
X200164000Y-59324000D03*
X199364000Y-59324000D03*
X198564000Y-59324000D03*
X197764000Y-59324000D03*
X196964000Y-59324000D03*
X196164000Y-59324000D03*
X195364000Y-59324000D03*
X194564000Y-59324000D03*
D10*
X192864000Y-61024000D03*
X192864000Y-61824000D03*
X192864000Y-62624000D03*
X192864000Y-63424000D03*
X192864000Y-64224000D03*
X192864000Y-65024000D03*
X192864000Y-65824000D03*
X192864000Y-66624000D03*
X192864000Y-67424000D03*
X192864000Y-68224000D03*
X192864000Y-69024000D03*
D11*
X194564000Y-70724000D03*
X195364000Y-70724000D03*
X196164000Y-70724000D03*
X196964000Y-70724000D03*
X197764000Y-70724000D03*
X198564000Y-70724000D03*
X199364000Y-70724000D03*
X200164000Y-70724000D03*
X200964000Y-70724000D03*
X201764000Y-70724000D03*
X202564000Y-70724000D03*
D12*
X209510726Y-54332274D03*
X208344000Y-53849000D03*
X207177274Y-54332274D03*
X206694000Y-55499000D03*
X207177274Y-56665726D03*
X208344000Y-57149000D03*
X209510726Y-56665726D03*
X209994000Y-55499000D03*
D13*
X208344000Y-55499000D03*
D14*
G36*
X178011504Y-74246704D02*
G01*
X178035773Y-74250304D01*
X178059571Y-74256265D01*
X178082671Y-74264530D01*
X178104849Y-74275020D01*
X178125893Y-74287633D01*
X178145598Y-74302247D01*
X178163777Y-74318723D01*
X178180253Y-74336902D01*
X178194867Y-74356607D01*
X178207480Y-74377651D01*
X178217970Y-74399829D01*
X178226235Y-74422929D01*
X178232196Y-74446727D01*
X178235796Y-74470996D01*
X178237000Y-74495500D01*
X178237000Y-75745500D01*
X178235796Y-75770004D01*
X178232196Y-75794273D01*
X178226235Y-75818071D01*
X178217970Y-75841171D01*
X178207480Y-75863349D01*
X178194867Y-75884393D01*
X178180253Y-75904098D01*
X178163777Y-75922277D01*
X178145598Y-75938753D01*
X178125893Y-75953367D01*
X178104849Y-75965980D01*
X178082671Y-75976470D01*
X178059571Y-75984735D01*
X178035773Y-75990696D01*
X178011504Y-75994296D01*
X177987000Y-75995500D01*
X177237000Y-75995500D01*
X177212496Y-75994296D01*
X177188227Y-75990696D01*
X177164429Y-75984735D01*
X177141329Y-75976470D01*
X177119151Y-75965980D01*
X177098107Y-75953367D01*
X177078402Y-75938753D01*
X177060223Y-75922277D01*
X177043747Y-75904098D01*
X177029133Y-75884393D01*
X177016520Y-75863349D01*
X177006030Y-75841171D01*
X176997765Y-75818071D01*
X176991804Y-75794273D01*
X176988204Y-75770004D01*
X176987000Y-75745500D01*
X176987000Y-74495500D01*
X176988204Y-74470996D01*
X176991804Y-74446727D01*
X176997765Y-74422929D01*
X177006030Y-74399829D01*
X177016520Y-74377651D01*
X177029133Y-74356607D01*
X177043747Y-74336902D01*
X177060223Y-74318723D01*
X177078402Y-74302247D01*
X177098107Y-74287633D01*
X177119151Y-74275020D01*
X177141329Y-74264530D01*
X177164429Y-74256265D01*
X177188227Y-74250304D01*
X177212496Y-74246704D01*
X177237000Y-74245500D01*
X177987000Y-74245500D01*
X178011504Y-74246704D01*
X178011504Y-74246704D01*
G37*
D15*
X177612000Y-75120500D03*
D14*
G36*
X175211504Y-74246704D02*
G01*
X175235773Y-74250304D01*
X175259571Y-74256265D01*
X175282671Y-74264530D01*
X175304849Y-74275020D01*
X175325893Y-74287633D01*
X175345598Y-74302247D01*
X175363777Y-74318723D01*
X175380253Y-74336902D01*
X175394867Y-74356607D01*
X175407480Y-74377651D01*
X175417970Y-74399829D01*
X175426235Y-74422929D01*
X175432196Y-74446727D01*
X175435796Y-74470996D01*
X175437000Y-74495500D01*
X175437000Y-75745500D01*
X175435796Y-75770004D01*
X175432196Y-75794273D01*
X175426235Y-75818071D01*
X175417970Y-75841171D01*
X175407480Y-75863349D01*
X175394867Y-75884393D01*
X175380253Y-75904098D01*
X175363777Y-75922277D01*
X175345598Y-75938753D01*
X175325893Y-75953367D01*
X175304849Y-75965980D01*
X175282671Y-75976470D01*
X175259571Y-75984735D01*
X175235773Y-75990696D01*
X175211504Y-75994296D01*
X175187000Y-75995500D01*
X174437000Y-75995500D01*
X174412496Y-75994296D01*
X174388227Y-75990696D01*
X174364429Y-75984735D01*
X174341329Y-75976470D01*
X174319151Y-75965980D01*
X174298107Y-75953367D01*
X174278402Y-75938753D01*
X174260223Y-75922277D01*
X174243747Y-75904098D01*
X174229133Y-75884393D01*
X174216520Y-75863349D01*
X174206030Y-75841171D01*
X174197765Y-75818071D01*
X174191804Y-75794273D01*
X174188204Y-75770004D01*
X174187000Y-75745500D01*
X174187000Y-74495500D01*
X174188204Y-74470996D01*
X174191804Y-74446727D01*
X174197765Y-74422929D01*
X174206030Y-74399829D01*
X174216520Y-74377651D01*
X174229133Y-74356607D01*
X174243747Y-74336902D01*
X174260223Y-74318723D01*
X174278402Y-74302247D01*
X174298107Y-74287633D01*
X174319151Y-74275020D01*
X174341329Y-74264530D01*
X174364429Y-74256265D01*
X174388227Y-74250304D01*
X174412496Y-74246704D01*
X174437000Y-74245500D01*
X175187000Y-74245500D01*
X175211504Y-74246704D01*
X175211504Y-74246704D01*
G37*
D15*
X174812000Y-75120500D03*
D16*
X175958000Y-62928500D03*
D17*
X178498000Y-62928500D03*
X175958000Y-65468500D03*
X178498000Y-65468500D03*
X175958000Y-68008500D03*
X178498000Y-68008500D03*
D18*
X181735000Y-53814000D03*
X190375000Y-53814000D03*
D19*
X190375000Y-57994000D03*
X181735000Y-57994000D03*
D20*
X186305000Y-58909000D03*
X184305000Y-58909000D03*
X184805000Y-58909000D03*
X185305000Y-58909000D03*
X185805000Y-58909000D03*
X186805000Y-58909000D03*
X187305000Y-58909000D03*
X187805000Y-58909000D03*
D21*
X182805000Y-58909000D03*
X183605000Y-58909000D03*
X188505000Y-58909000D03*
X189305000Y-58909000D03*
X189305000Y-58909000D03*
X188505000Y-58909000D03*
X183605000Y-58909000D03*
X182805000Y-58909000D03*
D22*
X168402000Y-61091500D03*
X168402000Y-69591500D03*
D23*
X173254000Y-80823000D03*
X173254000Y-84023000D03*
X178154000Y-80823000D03*
X178154000Y-84023000D03*
D14*
G36*
X172805504Y-74246704D02*
G01*
X172829773Y-74250304D01*
X172853571Y-74256265D01*
X172876671Y-74264530D01*
X172898849Y-74275020D01*
X172919893Y-74287633D01*
X172939598Y-74302247D01*
X172957777Y-74318723D01*
X172974253Y-74336902D01*
X172988867Y-74356607D01*
X173001480Y-74377651D01*
X173011970Y-74399829D01*
X173020235Y-74422929D01*
X173026196Y-74446727D01*
X173029796Y-74470996D01*
X173031000Y-74495500D01*
X173031000Y-75745500D01*
X173029796Y-75770004D01*
X173026196Y-75794273D01*
X173020235Y-75818071D01*
X173011970Y-75841171D01*
X173001480Y-75863349D01*
X172988867Y-75884393D01*
X172974253Y-75904098D01*
X172957777Y-75922277D01*
X172939598Y-75938753D01*
X172919893Y-75953367D01*
X172898849Y-75965980D01*
X172876671Y-75976470D01*
X172853571Y-75984735D01*
X172829773Y-75990696D01*
X172805504Y-75994296D01*
X172781000Y-75995500D01*
X172031000Y-75995500D01*
X172006496Y-75994296D01*
X171982227Y-75990696D01*
X171958429Y-75984735D01*
X171935329Y-75976470D01*
X171913151Y-75965980D01*
X171892107Y-75953367D01*
X171872402Y-75938753D01*
X171854223Y-75922277D01*
X171837747Y-75904098D01*
X171823133Y-75884393D01*
X171810520Y-75863349D01*
X171800030Y-75841171D01*
X171791765Y-75818071D01*
X171785804Y-75794273D01*
X171782204Y-75770004D01*
X171781000Y-75745500D01*
X171781000Y-74495500D01*
X171782204Y-74470996D01*
X171785804Y-74446727D01*
X171791765Y-74422929D01*
X171800030Y-74399829D01*
X171810520Y-74377651D01*
X171823133Y-74356607D01*
X171837747Y-74336902D01*
X171854223Y-74318723D01*
X171872402Y-74302247D01*
X171892107Y-74287633D01*
X171913151Y-74275020D01*
X171935329Y-74264530D01*
X171958429Y-74256265D01*
X171982227Y-74250304D01*
X172006496Y-74246704D01*
X172031000Y-74245500D01*
X172781000Y-74245500D01*
X172805504Y-74246704D01*
X172805504Y-74246704D01*
G37*
D15*
X172406000Y-75120500D03*
D14*
G36*
X170005504Y-74246704D02*
G01*
X170029773Y-74250304D01*
X170053571Y-74256265D01*
X170076671Y-74264530D01*
X170098849Y-74275020D01*
X170119893Y-74287633D01*
X170139598Y-74302247D01*
X170157777Y-74318723D01*
X170174253Y-74336902D01*
X170188867Y-74356607D01*
X170201480Y-74377651D01*
X170211970Y-74399829D01*
X170220235Y-74422929D01*
X170226196Y-74446727D01*
X170229796Y-74470996D01*
X170231000Y-74495500D01*
X170231000Y-75745500D01*
X170229796Y-75770004D01*
X170226196Y-75794273D01*
X170220235Y-75818071D01*
X170211970Y-75841171D01*
X170201480Y-75863349D01*
X170188867Y-75884393D01*
X170174253Y-75904098D01*
X170157777Y-75922277D01*
X170139598Y-75938753D01*
X170119893Y-75953367D01*
X170098849Y-75965980D01*
X170076671Y-75976470D01*
X170053571Y-75984735D01*
X170029773Y-75990696D01*
X170005504Y-75994296D01*
X169981000Y-75995500D01*
X169231000Y-75995500D01*
X169206496Y-75994296D01*
X169182227Y-75990696D01*
X169158429Y-75984735D01*
X169135329Y-75976470D01*
X169113151Y-75965980D01*
X169092107Y-75953367D01*
X169072402Y-75938753D01*
X169054223Y-75922277D01*
X169037747Y-75904098D01*
X169023133Y-75884393D01*
X169010520Y-75863349D01*
X169000030Y-75841171D01*
X168991765Y-75818071D01*
X168985804Y-75794273D01*
X168982204Y-75770004D01*
X168981000Y-75745500D01*
X168981000Y-74495500D01*
X168982204Y-74470996D01*
X168985804Y-74446727D01*
X168991765Y-74422929D01*
X169000030Y-74399829D01*
X169010520Y-74377651D01*
X169023133Y-74356607D01*
X169037747Y-74336902D01*
X169054223Y-74318723D01*
X169072402Y-74302247D01*
X169092107Y-74287633D01*
X169113151Y-74275020D01*
X169135329Y-74264530D01*
X169158429Y-74256265D01*
X169182227Y-74250304D01*
X169206496Y-74246704D01*
X169231000Y-74245500D01*
X169981000Y-74245500D01*
X170005504Y-74246704D01*
X170005504Y-74246704D01*
G37*
D15*
X169606000Y-75120500D03*
D13*
X164782000Y-98933000D03*
D12*
X166432000Y-98933000D03*
X165948726Y-100099726D03*
X164782000Y-100583000D03*
X163615274Y-100099726D03*
X163132000Y-98933000D03*
X163615274Y-97766274D03*
X164782000Y-97283000D03*
X165948726Y-97766274D03*
D13*
X208407000Y-99123500D03*
D12*
X210057000Y-99123500D03*
X209573726Y-100290226D03*
X208407000Y-100773500D03*
X207240274Y-100290226D03*
X206757000Y-99123500D03*
X207240274Y-97956774D03*
X208407000Y-97473500D03*
X209573726Y-97956774D03*
D24*
X179514000Y-90868500D03*
X173164000Y-93408500D03*
X194882000Y-93345000D03*
X201232000Y-90805000D03*
D12*
X165822726Y-54395774D03*
X164656000Y-53912500D03*
X163489274Y-54395774D03*
X163006000Y-55562500D03*
X163489274Y-56729226D03*
X164656000Y-57212500D03*
X165822726Y-56729226D03*
X166306000Y-55562500D03*
D13*
X164656000Y-55562500D03*
D23*
X199872000Y-83959500D03*
X199872000Y-80759500D03*
X194972000Y-83959500D03*
X194972000Y-80759500D03*
D14*
G36*
X188425504Y-74246704D02*
G01*
X188449773Y-74250304D01*
X188473571Y-74256265D01*
X188496671Y-74264530D01*
X188518849Y-74275020D01*
X188539893Y-74287633D01*
X188559598Y-74302247D01*
X188577777Y-74318723D01*
X188594253Y-74336902D01*
X188608867Y-74356607D01*
X188621480Y-74377651D01*
X188631970Y-74399829D01*
X188640235Y-74422929D01*
X188646196Y-74446727D01*
X188649796Y-74470996D01*
X188651000Y-74495500D01*
X188651000Y-75745500D01*
X188649796Y-75770004D01*
X188646196Y-75794273D01*
X188640235Y-75818071D01*
X188631970Y-75841171D01*
X188621480Y-75863349D01*
X188608867Y-75884393D01*
X188594253Y-75904098D01*
X188577777Y-75922277D01*
X188559598Y-75938753D01*
X188539893Y-75953367D01*
X188518849Y-75965980D01*
X188496671Y-75976470D01*
X188473571Y-75984735D01*
X188449773Y-75990696D01*
X188425504Y-75994296D01*
X188401000Y-75995500D01*
X187651000Y-75995500D01*
X187626496Y-75994296D01*
X187602227Y-75990696D01*
X187578429Y-75984735D01*
X187555329Y-75976470D01*
X187533151Y-75965980D01*
X187512107Y-75953367D01*
X187492402Y-75938753D01*
X187474223Y-75922277D01*
X187457747Y-75904098D01*
X187443133Y-75884393D01*
X187430520Y-75863349D01*
X187420030Y-75841171D01*
X187411765Y-75818071D01*
X187405804Y-75794273D01*
X187402204Y-75770004D01*
X187401000Y-75745500D01*
X187401000Y-74495500D01*
X187402204Y-74470996D01*
X187405804Y-74446727D01*
X187411765Y-74422929D01*
X187420030Y-74399829D01*
X187430520Y-74377651D01*
X187443133Y-74356607D01*
X187457747Y-74336902D01*
X187474223Y-74318723D01*
X187492402Y-74302247D01*
X187512107Y-74287633D01*
X187533151Y-74275020D01*
X187555329Y-74264530D01*
X187578429Y-74256265D01*
X187602227Y-74250304D01*
X187626496Y-74246704D01*
X187651000Y-74245500D01*
X188401000Y-74245500D01*
X188425504Y-74246704D01*
X188425504Y-74246704D01*
G37*
D15*
X188026000Y-75120500D03*
D14*
G36*
X185625504Y-74246704D02*
G01*
X185649773Y-74250304D01*
X185673571Y-74256265D01*
X185696671Y-74264530D01*
X185718849Y-74275020D01*
X185739893Y-74287633D01*
X185759598Y-74302247D01*
X185777777Y-74318723D01*
X185794253Y-74336902D01*
X185808867Y-74356607D01*
X185821480Y-74377651D01*
X185831970Y-74399829D01*
X185840235Y-74422929D01*
X185846196Y-74446727D01*
X185849796Y-74470996D01*
X185851000Y-74495500D01*
X185851000Y-75745500D01*
X185849796Y-75770004D01*
X185846196Y-75794273D01*
X185840235Y-75818071D01*
X185831970Y-75841171D01*
X185821480Y-75863349D01*
X185808867Y-75884393D01*
X185794253Y-75904098D01*
X185777777Y-75922277D01*
X185759598Y-75938753D01*
X185739893Y-75953367D01*
X185718849Y-75965980D01*
X185696671Y-75976470D01*
X185673571Y-75984735D01*
X185649773Y-75990696D01*
X185625504Y-75994296D01*
X185601000Y-75995500D01*
X184851000Y-75995500D01*
X184826496Y-75994296D01*
X184802227Y-75990696D01*
X184778429Y-75984735D01*
X184755329Y-75976470D01*
X184733151Y-75965980D01*
X184712107Y-75953367D01*
X184692402Y-75938753D01*
X184674223Y-75922277D01*
X184657747Y-75904098D01*
X184643133Y-75884393D01*
X184630520Y-75863349D01*
X184620030Y-75841171D01*
X184611765Y-75818071D01*
X184605804Y-75794273D01*
X184602204Y-75770004D01*
X184601000Y-75745500D01*
X184601000Y-74495500D01*
X184602204Y-74470996D01*
X184605804Y-74446727D01*
X184611765Y-74422929D01*
X184620030Y-74399829D01*
X184630520Y-74377651D01*
X184643133Y-74356607D01*
X184657747Y-74336902D01*
X184674223Y-74318723D01*
X184692402Y-74302247D01*
X184712107Y-74287633D01*
X184733151Y-74275020D01*
X184755329Y-74264530D01*
X184778429Y-74256265D01*
X184802227Y-74250304D01*
X184826496Y-74246704D01*
X184851000Y-74245500D01*
X185601000Y-74245500D01*
X185625504Y-74246704D01*
X185625504Y-74246704D01*
G37*
D15*
X185226000Y-75120500D03*
D14*
G36*
X190833504Y-74246704D02*
G01*
X190857773Y-74250304D01*
X190881571Y-74256265D01*
X190904671Y-74264530D01*
X190926849Y-74275020D01*
X190947893Y-74287633D01*
X190967598Y-74302247D01*
X190985777Y-74318723D01*
X191002253Y-74336902D01*
X191016867Y-74356607D01*
X191029480Y-74377651D01*
X191039970Y-74399829D01*
X191048235Y-74422929D01*
X191054196Y-74446727D01*
X191057796Y-74470996D01*
X191059000Y-74495500D01*
X191059000Y-75745500D01*
X191057796Y-75770004D01*
X191054196Y-75794273D01*
X191048235Y-75818071D01*
X191039970Y-75841171D01*
X191029480Y-75863349D01*
X191016867Y-75884393D01*
X191002253Y-75904098D01*
X190985777Y-75922277D01*
X190967598Y-75938753D01*
X190947893Y-75953367D01*
X190926849Y-75965980D01*
X190904671Y-75976470D01*
X190881571Y-75984735D01*
X190857773Y-75990696D01*
X190833504Y-75994296D01*
X190809000Y-75995500D01*
X190059000Y-75995500D01*
X190034496Y-75994296D01*
X190010227Y-75990696D01*
X189986429Y-75984735D01*
X189963329Y-75976470D01*
X189941151Y-75965980D01*
X189920107Y-75953367D01*
X189900402Y-75938753D01*
X189882223Y-75922277D01*
X189865747Y-75904098D01*
X189851133Y-75884393D01*
X189838520Y-75863349D01*
X189828030Y-75841171D01*
X189819765Y-75818071D01*
X189813804Y-75794273D01*
X189810204Y-75770004D01*
X189809000Y-75745500D01*
X189809000Y-74495500D01*
X189810204Y-74470996D01*
X189813804Y-74446727D01*
X189819765Y-74422929D01*
X189828030Y-74399829D01*
X189838520Y-74377651D01*
X189851133Y-74356607D01*
X189865747Y-74336902D01*
X189882223Y-74318723D01*
X189900402Y-74302247D01*
X189920107Y-74287633D01*
X189941151Y-74275020D01*
X189963329Y-74264530D01*
X189986429Y-74256265D01*
X190010227Y-74250304D01*
X190034496Y-74246704D01*
X190059000Y-74245500D01*
X190809000Y-74245500D01*
X190833504Y-74246704D01*
X190833504Y-74246704D01*
G37*
D15*
X190434000Y-75120500D03*
D14*
G36*
X193633504Y-74246704D02*
G01*
X193657773Y-74250304D01*
X193681571Y-74256265D01*
X193704671Y-74264530D01*
X193726849Y-74275020D01*
X193747893Y-74287633D01*
X193767598Y-74302247D01*
X193785777Y-74318723D01*
X193802253Y-74336902D01*
X193816867Y-74356607D01*
X193829480Y-74377651D01*
X193839970Y-74399829D01*
X193848235Y-74422929D01*
X193854196Y-74446727D01*
X193857796Y-74470996D01*
X193859000Y-74495500D01*
X193859000Y-75745500D01*
X193857796Y-75770004D01*
X193854196Y-75794273D01*
X193848235Y-75818071D01*
X193839970Y-75841171D01*
X193829480Y-75863349D01*
X193816867Y-75884393D01*
X193802253Y-75904098D01*
X193785777Y-75922277D01*
X193767598Y-75938753D01*
X193747893Y-75953367D01*
X193726849Y-75965980D01*
X193704671Y-75976470D01*
X193681571Y-75984735D01*
X193657773Y-75990696D01*
X193633504Y-75994296D01*
X193609000Y-75995500D01*
X192859000Y-75995500D01*
X192834496Y-75994296D01*
X192810227Y-75990696D01*
X192786429Y-75984735D01*
X192763329Y-75976470D01*
X192741151Y-75965980D01*
X192720107Y-75953367D01*
X192700402Y-75938753D01*
X192682223Y-75922277D01*
X192665747Y-75904098D01*
X192651133Y-75884393D01*
X192638520Y-75863349D01*
X192628030Y-75841171D01*
X192619765Y-75818071D01*
X192613804Y-75794273D01*
X192610204Y-75770004D01*
X192609000Y-75745500D01*
X192609000Y-74495500D01*
X192610204Y-74470996D01*
X192613804Y-74446727D01*
X192619765Y-74422929D01*
X192628030Y-74399829D01*
X192638520Y-74377651D01*
X192651133Y-74356607D01*
X192665747Y-74336902D01*
X192682223Y-74318723D01*
X192700402Y-74302247D01*
X192720107Y-74287633D01*
X192741151Y-74275020D01*
X192763329Y-74264530D01*
X192786429Y-74256265D01*
X192810227Y-74250304D01*
X192834496Y-74246704D01*
X192859000Y-74245500D01*
X193609000Y-74245500D01*
X193633504Y-74246704D01*
X193633504Y-74246704D01*
G37*
D15*
X193234000Y-75120500D03*
D25*
X203772000Y-72136000D03*
X202057000Y-65278000D03*
X195326000Y-72898000D03*
X196532000Y-61404500D03*
X196786500Y-63881000D03*
X199199500Y-63944500D03*
X208355000Y-63085700D03*
X198754000Y-55138400D03*
X199815000Y-73082000D03*
X179111000Y-57315100D03*
X199438000Y-62586500D03*
X194480000Y-63266000D03*
X200978000Y-61781600D03*
X199695000Y-72075000D03*
X205621000Y-65011100D03*
X200614000Y-55990100D03*
X202449000Y-72835500D03*
X205652000Y-66624000D03*
X191361000Y-71871800D03*
X201800000Y-60683700D03*
X193007000Y-71181500D03*
X205630000Y-67956600D03*
X198051000Y-73539600D03*
X200659000Y-68979400D03*
X201095000Y-73631500D03*
X190830200Y-67945000D03*
X184505600Y-64312800D03*
X173304200Y-73247300D03*
X184505600Y-68046600D03*
X181940200Y-70612000D03*
X182820000Y-75120500D03*
X179552600Y-75133200D03*
X172135800Y-68376800D03*
X186105800Y-73152000D03*
D26*
X200164000Y-59932000D02*
X200164000Y-60221100D01*
X200164000Y-59324000D02*
X200164000Y-59932000D01*
X200164000Y-59324000D02*
X200164000Y-59932000D01*
X182805000Y-58909000D02*
X182650000Y-58909000D01*
X182650000Y-58909000D02*
X181735000Y-57994000D01*
X189305000Y-58909000D02*
X189460000Y-58909000D01*
X189460000Y-58909000D02*
X190375000Y-57994000D01*
X196932000Y-61004500D02*
X196532000Y-61404500D01*
X199381000Y-61004500D02*
X196932000Y-61004500D01*
X200164000Y-60221100D02*
X199381000Y-61004500D01*
X196850000Y-63944500D02*
X196786500Y-63881000D01*
X199199500Y-63944500D02*
X196850000Y-63944500D01*
X191656000Y-76449200D02*
X191656000Y-74765300D01*
X191656000Y-74765300D02*
X194546000Y-71874300D01*
X194546000Y-71874300D02*
X194564000Y-71874300D01*
X194564000Y-71874300D02*
X194564000Y-70724000D01*
X206212000Y-63085700D02*
X206212000Y-61324100D01*
X206212000Y-61324100D02*
X203062000Y-58173700D01*
X203062000Y-58173700D02*
X200964000Y-58173700D01*
X200964000Y-58173700D02*
X200964000Y-59324000D01*
X208355000Y-63085700D02*
X206212000Y-63085700D01*
X200964000Y-59324000D02*
X200964000Y-60474000D01*
X200964000Y-60474000D02*
X200177000Y-61260500D01*
X200177000Y-61260500D02*
X200177000Y-61760000D01*
X200177000Y-61760000D02*
X200151000Y-61786500D01*
X195453000Y-62791000D02*
X194486000Y-61824000D01*
X194486000Y-61824000D02*
X192864000Y-61824000D01*
X204264000Y-68224000D02*
X203114000Y-68224000D01*
X203114000Y-68224000D02*
X201756000Y-66865500D01*
X201756000Y-66865500D02*
X200470000Y-66865500D01*
X200470000Y-66865500D02*
X202564000Y-68960000D01*
X202564000Y-68960000D02*
X202564000Y-70724000D01*
X204264000Y-64224000D02*
X203114000Y-64224000D01*
X203114000Y-64224000D02*
X202708000Y-63817500D01*
X194972000Y-80759500D02*
X193822000Y-80759500D01*
X193822000Y-80759500D02*
X193822000Y-78615400D01*
X193822000Y-78615400D02*
X191656000Y-76449200D01*
X206212000Y-63085700D02*
X205074000Y-64224000D01*
X205074000Y-64224000D02*
X204264000Y-64224000D01*
X173254000Y-80823000D02*
X174404000Y-80823000D01*
X174404000Y-80823000D02*
X178768000Y-76459300D01*
X178768000Y-76459300D02*
X181026000Y-76459300D01*
X181026000Y-76459300D02*
X181088000Y-76396700D01*
X178498000Y-68008500D02*
X178498000Y-69258800D01*
X178498000Y-69258800D02*
X181088000Y-71849300D01*
X181088000Y-71849300D02*
X181088000Y-76396700D01*
X191656000Y-76449200D02*
X189355000Y-76449200D01*
X189355000Y-76449200D02*
X188026000Y-75120500D01*
X200470000Y-65680998D02*
X200470000Y-66865500D01*
X202333498Y-63817500D02*
X200470000Y-65680998D01*
X202708000Y-63817500D02*
X202333498Y-63817500D01*
X200151000Y-61786500D02*
X199054000Y-61786500D01*
X198050000Y-62791000D02*
X195453000Y-62791000D01*
X199054000Y-61786500D02*
X198050000Y-62791000D01*
D27*
X168402000Y-69591500D02*
X169677000Y-69591500D01*
X169677000Y-69591500D02*
X175095000Y-64173400D01*
X188252000Y-64173400D02*
X192076000Y-60349300D01*
X192076000Y-60349300D02*
X199364000Y-60349300D01*
X199364000Y-60349300D02*
X199364000Y-59324000D01*
X199364000Y-59324000D02*
X199364000Y-58298700D01*
X199364000Y-58298700D02*
X201289000Y-56373500D01*
X201289000Y-56373500D02*
X201289000Y-55703100D01*
X201289000Y-55703100D02*
X200724000Y-55138400D01*
X200724000Y-55138400D02*
X198754000Y-55138400D01*
X199815000Y-73082000D02*
X200370000Y-72527000D01*
X200370000Y-72527000D02*
X200370000Y-70930300D01*
X200370000Y-70930300D02*
X200164000Y-70724000D01*
X178154000Y-80823000D02*
X177129000Y-80823000D01*
X177129000Y-80823000D02*
X176353000Y-81598300D01*
X176353000Y-81598300D02*
X172344000Y-81598300D01*
X172344000Y-81598300D02*
X172229000Y-81483000D01*
X172229000Y-81483000D02*
X172229000Y-80206600D01*
X172229000Y-80206600D02*
X176093000Y-76342500D01*
X176093000Y-76342500D02*
X176093000Y-74077900D01*
X176093000Y-74077900D02*
X175582000Y-73566700D01*
X171160000Y-73566700D02*
X169606000Y-75120500D01*
D26*
X188505000Y-58909000D02*
X188505000Y-60034300D01*
X188505000Y-60034300D02*
X188155000Y-60384700D01*
X188155000Y-60384700D02*
X183956000Y-60384700D01*
X183956000Y-60384700D02*
X183605000Y-60034200D01*
X183605000Y-58909000D02*
X183605000Y-60034200D01*
X183605000Y-60034200D02*
X183605000Y-60034400D01*
X183605000Y-60034400D02*
X181830000Y-60034400D01*
X181830000Y-60034400D02*
X179111000Y-57315100D01*
D27*
X185805000Y-58909000D02*
X185805000Y-59909300D01*
X185805000Y-59909300D02*
X186717000Y-59909300D01*
X186717000Y-59909300D02*
X186805000Y-59821700D01*
X186805000Y-59821700D02*
X186805000Y-58909000D01*
X186805000Y-58909000D02*
X186805000Y-57908700D01*
X186805000Y-57908700D02*
X188082000Y-56631500D01*
X188082000Y-56631500D02*
X190665000Y-56631500D01*
X190665000Y-56631500D02*
X191158000Y-57124600D01*
X191158000Y-57124600D02*
X191158000Y-58859600D01*
X191158000Y-58859600D02*
X189157000Y-60860100D01*
X189157000Y-60860100D02*
X173486000Y-60860100D01*
X173486000Y-60860100D02*
X167098000Y-67248100D01*
X167098000Y-67248100D02*
X167098000Y-71941800D01*
X167098000Y-71941800D02*
X167287000Y-72130700D01*
X167287000Y-72130700D02*
X169510000Y-72130700D01*
X169510000Y-72130700D02*
X174764000Y-66876300D01*
X174764000Y-66876300D02*
X186663000Y-66876300D01*
X186663000Y-66876300D02*
X190015000Y-70228400D01*
X190015000Y-70228400D02*
X193012000Y-70228400D01*
X193012000Y-70228400D02*
X193730000Y-70947200D01*
X193730000Y-70947200D02*
X193730000Y-71824100D01*
X193730000Y-71824100D02*
X190434000Y-75120500D01*
X185305000Y-57908700D02*
X186305000Y-57908700D01*
X186305000Y-57908700D02*
X186305000Y-58909000D01*
X185305000Y-58909000D02*
X185305000Y-57908700D01*
X185305000Y-57908700D02*
X184036000Y-56639700D01*
X184036000Y-56639700D02*
X177211000Y-56639700D01*
X177211000Y-56639700D02*
X166748000Y-67102900D01*
X166748000Y-67102900D02*
X166748000Y-74034300D01*
X166748000Y-74034300D02*
X168998000Y-76284300D01*
X168998000Y-76284300D02*
X173648000Y-76284300D01*
X173648000Y-76284300D02*
X174812000Y-75120500D01*
X204264000Y-61824000D02*
X203239000Y-61824000D01*
X203239000Y-61824000D02*
X202476000Y-62586500D01*
X202476000Y-62586500D02*
X199438000Y-62586500D01*
X194480000Y-63266000D02*
X196174000Y-64960500D01*
X196174000Y-64960500D02*
X199290000Y-64960500D01*
X199290000Y-64960500D02*
X200984000Y-63266000D01*
X200984000Y-63266000D02*
X202597000Y-63266000D01*
X202597000Y-63266000D02*
X203239000Y-62624000D01*
X203239000Y-62624000D02*
X204264000Y-62624000D01*
X204264000Y-61024000D02*
X203239000Y-61024000D01*
X203239000Y-61024000D02*
X202481000Y-61781600D01*
X202481000Y-61781600D02*
X200978000Y-61781600D01*
X195640000Y-75120500D02*
X193234000Y-75120500D01*
X199695000Y-72075000D02*
X199369000Y-71749300D01*
X199369000Y-71749300D02*
X199364000Y-71749300D01*
X199364000Y-71749300D02*
X199364000Y-70724000D01*
X198564000Y-70724000D02*
X198564000Y-72881000D01*
X198564000Y-72881000D02*
X199935000Y-74252100D01*
X199935000Y-74252100D02*
X199935000Y-76059900D01*
X199935000Y-76059900D02*
X200897000Y-77022200D01*
X200897000Y-77022200D02*
X200897000Y-81406600D01*
X200897000Y-81406600D02*
X199944000Y-82359500D01*
X199944000Y-82359500D02*
X199808000Y-82359500D01*
X199808000Y-82359500D02*
X194882000Y-87285700D01*
X194882000Y-87285700D02*
X194882000Y-93345000D01*
X204264000Y-65024000D02*
X205608000Y-65024000D01*
X205608000Y-65024000D02*
X205621000Y-65011100D01*
X168402000Y-61091500D02*
X169677000Y-61091500D01*
X169677000Y-61091500D02*
X174488000Y-56280800D01*
X174488000Y-56280800D02*
X196546000Y-56280800D01*
X196546000Y-56280800D02*
X198435000Y-58169300D01*
X198564000Y-59324000D02*
X198564000Y-58298700D01*
X198564000Y-58298700D02*
X198435000Y-58169300D01*
X200614000Y-55990100D02*
X198435000Y-58169300D01*
X200964000Y-70724000D02*
X200964000Y-71624000D01*
X200964000Y-71624000D02*
X200978000Y-71637500D01*
X200978000Y-71637500D02*
X200978000Y-72326500D01*
X200978000Y-72326500D02*
X201486000Y-72835500D01*
X201486000Y-72835500D02*
X202449000Y-72835500D01*
X199872000Y-80759500D02*
X198847000Y-80759500D01*
X198847000Y-80759500D02*
X196744000Y-82861800D01*
X196744000Y-82861800D02*
X175440000Y-82861800D01*
X175440000Y-82861800D02*
X174279000Y-84023000D01*
X174279000Y-84023000D02*
X173254000Y-84023000D01*
X204264000Y-66624000D02*
X205652000Y-66624000D01*
X191361000Y-71871800D02*
X186069000Y-71871800D01*
X186069000Y-71871800D02*
X182820000Y-75120500D01*
X201764000Y-59324000D02*
X201764000Y-60349300D01*
X201764000Y-60349300D02*
X201800000Y-60385100D01*
X201800000Y-60385100D02*
X201800000Y-60683700D01*
X185226000Y-75120500D02*
X187582000Y-72765000D01*
X187582000Y-72765000D02*
X191423000Y-72765000D01*
X191423000Y-72765000D02*
X193007000Y-71181500D01*
X204264000Y-67424000D02*
X205289000Y-67424000D01*
X205289000Y-67424000D02*
X205289000Y-67615600D01*
X205289000Y-67615600D02*
X205630000Y-67956600D01*
X198051000Y-73539600D02*
X198440000Y-73928300D01*
X198440000Y-73928300D02*
X198440000Y-75120500D01*
X192864000Y-69024000D02*
X193889000Y-69024000D01*
X193889000Y-69024000D02*
X193934000Y-68979400D01*
X193934000Y-68979400D02*
X200659000Y-68979400D01*
X201095000Y-73631500D02*
X201095000Y-74875200D01*
X201095000Y-74875200D02*
X200850000Y-75120500D01*
D26*
X181089000Y-76396900D02*
X186750000Y-76396900D01*
X181088000Y-76396700D02*
X181089000Y-76396900D01*
X186750000Y-76396900D02*
X188026000Y-75120500D01*
X193539000Y-69699400D02*
X194564000Y-70724000D01*
X192864000Y-61824000D02*
X191714000Y-61824000D01*
X191714000Y-61824000D02*
X191714000Y-62921000D01*
X191714000Y-62921000D02*
X188798200Y-65836800D01*
X188798200Y-65836800D02*
X188798200Y-68199000D01*
X188798200Y-68199000D02*
X190298600Y-69699400D01*
X190298600Y-69699400D02*
X193539000Y-69699400D01*
D27*
X175095000Y-64173400D02*
X179870400Y-64173400D01*
X179870400Y-64173400D02*
X181254400Y-65557400D01*
X186868000Y-65557400D02*
X188252000Y-64173400D01*
X181254400Y-65557400D02*
X186868000Y-65557400D01*
X171160000Y-73566700D02*
X171160000Y-73543600D01*
X171160000Y-73543600D02*
X172974000Y-71729600D01*
X173744900Y-71729600D02*
X175582000Y-73566700D01*
X172974000Y-71729600D02*
X173744900Y-71729600D01*
X192213614Y-58298999D02*
X186199813Y-64312800D01*
X197638999Y-58298999D02*
X192213614Y-58298999D01*
X197764000Y-59324000D02*
X197764000Y-58424000D01*
X197764000Y-58424000D02*
X197638999Y-58298999D01*
X186199813Y-64312800D02*
X184505600Y-64312800D01*
X184505600Y-64312800D02*
X184505600Y-64312800D01*
X172406000Y-74145500D02*
X173304200Y-73247300D01*
X172406000Y-75120500D02*
X172406000Y-74145500D01*
X173304200Y-73247300D02*
X173304200Y-73247300D01*
X184505600Y-68046600D02*
X181940200Y-70612000D01*
X181940200Y-70612000D02*
X181940200Y-70612000D01*
X182820000Y-75120500D02*
X182820000Y-75120500D01*
X178337000Y-75120500D02*
X178349700Y-75133200D01*
X177612000Y-75120500D02*
X178337000Y-75120500D01*
X178349700Y-75133200D02*
X179552600Y-75133200D01*
X179552600Y-75133200D02*
X179552600Y-75133200D01*
X198440000Y-75120500D02*
X195640000Y-75120500D01*
X175108001Y-66318499D02*
X174168701Y-66318499D01*
X175958000Y-65468500D02*
X175108001Y-66318499D01*
X174168701Y-66318499D02*
X174143301Y-66318499D01*
X174168701Y-66318499D02*
X174168701Y-66343899D01*
X174168701Y-66343899D02*
X172135800Y-68376800D01*
X172135800Y-68376800D02*
X172135800Y-68376800D01*
X185226000Y-74145500D02*
X186105800Y-73265700D01*
X185226000Y-75120500D02*
X185226000Y-74145500D01*
X186105800Y-73265700D02*
X186105800Y-73152000D01*
X186105800Y-73152000D02*
X186105800Y-73152000D01*
D28*
G36*
X180861839Y-52777831D02*
G01*
X180734997Y-52962322D01*
X180646585Y-53168013D01*
X180600000Y-53387000D01*
X180600000Y-53687000D01*
X181608000Y-53687000D01*
X181608000Y-53667000D01*
X181862000Y-53667000D01*
X181862000Y-53687000D01*
X182870000Y-53687000D01*
X182870000Y-53387000D01*
X182823415Y-53168013D01*
X182735003Y-52962322D01*
X182608161Y-52777831D01*
X182493839Y-52666500D01*
X189616161Y-52666500D01*
X189501839Y-52777831D01*
X189374997Y-52962322D01*
X189286585Y-53168013D01*
X189240000Y-53387000D01*
X189240000Y-53687000D01*
X190248000Y-53687000D01*
X190248000Y-53667000D01*
X190502000Y-53667000D01*
X190502000Y-53687000D01*
X191510000Y-53687000D01*
X191510000Y-53387000D01*
X191463415Y-53168013D01*
X191375003Y-52962322D01*
X191248161Y-52777831D01*
X191133839Y-52666500D01*
X208173078Y-52666500D01*
X207773368Y-52708019D01*
X207239839Y-52872972D01*
X206773976Y-53121982D01*
X206533830Y-53509225D01*
X208344000Y-55319395D01*
X210154170Y-53509225D01*
X209914024Y-53121982D01*
X209420123Y-52861359D01*
X208884867Y-52702099D01*
X208502564Y-52666500D01*
X209362146Y-52666500D01*
X209730076Y-52702576D01*
X210064900Y-52803665D01*
X210373705Y-52967860D01*
X210644745Y-53188914D01*
X210867680Y-53458397D01*
X211034027Y-53766051D01*
X211137451Y-54100158D01*
X211176000Y-54466932D01*
X211176000Y-55323264D01*
X211134981Y-54928368D01*
X210970028Y-54394839D01*
X210721018Y-53928976D01*
X210333775Y-53688830D01*
X208523605Y-55499000D01*
X210333775Y-57309170D01*
X210721018Y-57069024D01*
X210981641Y-56575123D01*
X211140901Y-56039867D01*
X211176000Y-55662933D01*
X211176001Y-98481775D01*
X211033028Y-98019339D01*
X210784018Y-97553476D01*
X210396775Y-97313330D01*
X208586605Y-99123500D01*
X210396775Y-100933670D01*
X210784018Y-100693524D01*
X211044641Y-100199623D01*
X211176001Y-99758136D01*
X211176001Y-100040636D01*
X211139924Y-100408577D01*
X211038835Y-100743400D01*
X210874639Y-101052208D01*
X210653588Y-101323242D01*
X210384106Y-101546178D01*
X210076451Y-101712527D01*
X209742342Y-101815951D01*
X209375595Y-101854497D01*
X209172014Y-101854383D01*
X209511161Y-101749528D01*
X209977024Y-101500518D01*
X210217170Y-101113275D01*
X208407000Y-99303105D01*
X206596830Y-101113275D01*
X206836976Y-101500518D01*
X207330877Y-101761141D01*
X207641376Y-101853527D01*
X163827468Y-101829011D01*
X163459423Y-101792924D01*
X163124600Y-101691835D01*
X162815792Y-101527639D01*
X162544758Y-101306588D01*
X162321822Y-101037106D01*
X162260004Y-100922775D01*
X162971830Y-100922775D01*
X163211976Y-101310018D01*
X163705877Y-101570641D01*
X164241133Y-101729901D01*
X164797174Y-101781678D01*
X165352632Y-101723981D01*
X165886161Y-101559028D01*
X166352024Y-101310018D01*
X166592170Y-100922775D01*
X164782000Y-99112605D01*
X162971830Y-100922775D01*
X162260004Y-100922775D01*
X162155473Y-100729451D01*
X162052049Y-100395342D01*
X162013497Y-100028540D01*
X162013308Y-99575725D01*
X162155972Y-100037161D01*
X162404982Y-100503024D01*
X162792225Y-100743170D01*
X164602395Y-98933000D01*
X164961605Y-98933000D01*
X166771775Y-100743170D01*
X167159018Y-100503024D01*
X167419641Y-100009123D01*
X167578901Y-99473867D01*
X167610113Y-99138674D01*
X205558322Y-99138674D01*
X205616019Y-99694132D01*
X205780972Y-100227661D01*
X206029982Y-100693524D01*
X206417225Y-100933670D01*
X208227395Y-99123500D01*
X206417225Y-97313330D01*
X206029982Y-97553476D01*
X205769359Y-98047377D01*
X205610099Y-98582633D01*
X205558322Y-99138674D01*
X167610113Y-99138674D01*
X167630678Y-98917826D01*
X167572981Y-98362368D01*
X167408028Y-97828839D01*
X167159018Y-97362976D01*
X166789344Y-97133725D01*
X206596830Y-97133725D01*
X208407000Y-98943895D01*
X210217170Y-97133725D01*
X209977024Y-96746482D01*
X209483123Y-96485859D01*
X208947867Y-96326599D01*
X208391826Y-96274822D01*
X207836368Y-96332519D01*
X207302839Y-96497472D01*
X206836976Y-96746482D01*
X206596830Y-97133725D01*
X166789344Y-97133725D01*
X166771775Y-97122830D01*
X164961605Y-98933000D01*
X164602395Y-98933000D01*
X162792225Y-97122830D01*
X162404982Y-97362976D01*
X162144359Y-97856877D01*
X162012776Y-98299113D01*
X162012211Y-96943225D01*
X162971830Y-96943225D01*
X164782000Y-98753395D01*
X166592170Y-96943225D01*
X166352024Y-96555982D01*
X165858123Y-96295359D01*
X165322867Y-96136099D01*
X164766826Y-96084322D01*
X164211368Y-96142019D01*
X163677839Y-96306972D01*
X163211976Y-96555982D01*
X162971830Y-96943225D01*
X162012211Y-96943225D01*
X162010677Y-93262634D01*
X171683000Y-93262634D01*
X171683000Y-93554366D01*
X171739914Y-93840492D01*
X171851555Y-94110017D01*
X172013632Y-94352583D01*
X172219917Y-94558868D01*
X172462483Y-94720945D01*
X172732008Y-94832586D01*
X173018134Y-94889500D01*
X173309866Y-94889500D01*
X173595992Y-94832586D01*
X173865517Y-94720945D01*
X174108083Y-94558868D01*
X174314368Y-94352583D01*
X174476445Y-94110017D01*
X174588086Y-93840492D01*
X174645000Y-93554366D01*
X174645000Y-93262634D01*
X174588086Y-92976508D01*
X174476445Y-92706983D01*
X174314368Y-92464417D01*
X174108083Y-92258132D01*
X173865517Y-92096055D01*
X173595992Y-91984414D01*
X173309866Y-91927500D01*
X173018134Y-91927500D01*
X172732008Y-91984414D01*
X172462483Y-92096055D01*
X172219917Y-92258132D01*
X172013632Y-92464417D01*
X171851555Y-92706983D01*
X171739914Y-92976508D01*
X171683000Y-93262634D01*
X162010677Y-93262634D01*
X162009618Y-90722634D01*
X178033000Y-90722634D01*
X178033000Y-91014366D01*
X178089914Y-91300492D01*
X178201555Y-91570017D01*
X178363632Y-91812583D01*
X178569917Y-92018868D01*
X178812483Y-92180945D01*
X179082008Y-92292586D01*
X179368134Y-92349500D01*
X179659866Y-92349500D01*
X179945992Y-92292586D01*
X180215517Y-92180945D01*
X180458083Y-92018868D01*
X180664368Y-91812583D01*
X180826445Y-91570017D01*
X180938086Y-91300492D01*
X180995000Y-91014366D01*
X180995000Y-90722634D01*
X180938086Y-90436508D01*
X180826445Y-90166983D01*
X180664368Y-89924417D01*
X180458083Y-89718132D01*
X180215517Y-89556055D01*
X179945992Y-89444414D01*
X179659866Y-89387500D01*
X179368134Y-89387500D01*
X179082008Y-89444414D01*
X178812483Y-89556055D01*
X178569917Y-89718132D01*
X178363632Y-89924417D01*
X178201555Y-90166983D01*
X178089914Y-90436508D01*
X178033000Y-90722634D01*
X162009618Y-90722634D01*
X162008522Y-88093992D01*
X173323000Y-88093992D01*
X173323000Y-88563008D01*
X173414500Y-89023012D01*
X173593985Y-89456327D01*
X173854556Y-89846299D01*
X174186201Y-90177944D01*
X174576173Y-90438515D01*
X175009488Y-90618000D01*
X175469492Y-90709500D01*
X175938508Y-90709500D01*
X176398512Y-90618000D01*
X176831827Y-90438515D01*
X177221799Y-90177944D01*
X177553444Y-89846299D01*
X177814015Y-89456327D01*
X177993500Y-89023012D01*
X178085000Y-88563008D01*
X178085000Y-88093992D01*
X177993500Y-87633988D01*
X177814015Y-87200673D01*
X177553444Y-86810701D01*
X177221799Y-86479056D01*
X176831827Y-86218485D01*
X176398512Y-86039000D01*
X175938508Y-85947500D01*
X175469492Y-85947500D01*
X175009488Y-86039000D01*
X174576173Y-86218485D01*
X174186201Y-86479056D01*
X173854556Y-86810701D01*
X173593985Y-87200673D01*
X173414500Y-87633988D01*
X173323000Y-88093992D01*
X162008522Y-88093992D01*
X161999770Y-67102904D01*
X166289794Y-67102904D01*
X166292000Y-67125297D01*
X166292001Y-74011894D01*
X166289794Y-74034300D01*
X166296609Y-74103484D01*
X166298599Y-74123692D01*
X166305215Y-74145500D01*
X166324673Y-74209647D01*
X166367016Y-74288865D01*
X166408571Y-74339500D01*
X166424000Y-74358301D01*
X166441398Y-74372579D01*
X168659717Y-76590898D01*
X168673999Y-76608301D01*
X168714107Y-76641216D01*
X168743434Y-76665285D01*
X168805013Y-76698199D01*
X168822652Y-76707627D01*
X168908608Y-76733702D01*
X168975601Y-76740300D01*
X168998000Y-76742506D01*
X169020399Y-76740300D01*
X173625583Y-76740300D01*
X173647961Y-76742506D01*
X173670377Y-76740300D01*
X173670399Y-76740300D01*
X173697886Y-76737593D01*
X173737352Y-76733709D01*
X173737367Y-76733704D01*
X173737392Y-76733702D01*
X173786883Y-76718689D01*
X173823311Y-76707642D01*
X173823327Y-76707633D01*
X173823348Y-76707627D01*
X173867297Y-76684136D01*
X173902532Y-76665306D01*
X173902545Y-76665295D01*
X173902566Y-76665284D01*
X173944488Y-76630880D01*
X173954573Y-76622605D01*
X173954581Y-76622597D01*
X173972001Y-76608301D01*
X173986272Y-76590911D01*
X174234898Y-76342328D01*
X174313538Y-76366183D01*
X174437000Y-76378343D01*
X175187000Y-76378343D01*
X175310462Y-76366183D01*
X175429179Y-76330171D01*
X175496368Y-76294258D01*
X171922399Y-79868320D01*
X171905000Y-79882599D01*
X171890718Y-79900002D01*
X171890717Y-79900003D01*
X171848012Y-79952040D01*
X171805671Y-80031258D01*
X171799292Y-80052289D01*
X171779599Y-80117208D01*
X171779598Y-80117213D01*
X171779598Y-80117215D01*
X171770794Y-80206605D01*
X171773001Y-80229008D01*
X171773000Y-81460304D01*
X171770794Y-81482404D01*
X171773000Y-81505102D01*
X171773000Y-81505398D01*
X171775189Y-81527623D01*
X171779483Y-81571805D01*
X171779568Y-81572087D01*
X171779598Y-81572391D01*
X171792665Y-81615466D01*
X171805445Y-81657796D01*
X171805586Y-81658061D01*
X171805673Y-81658347D01*
X171826507Y-81697324D01*
X171847684Y-81737069D01*
X171847877Y-81737304D01*
X171848016Y-81737565D01*
X171876366Y-81772111D01*
X171890322Y-81789161D01*
X171890528Y-81789368D01*
X171904999Y-81807001D01*
X171922174Y-81821096D01*
X172005525Y-81904664D01*
X172019999Y-81922301D01*
X172054910Y-81950951D01*
X172088939Y-81978953D01*
X172089203Y-81979095D01*
X172089434Y-81979284D01*
X172128953Y-82000407D01*
X172168102Y-82021398D01*
X172168385Y-82021484D01*
X172168652Y-82021627D01*
X172211656Y-82034672D01*
X172254023Y-82047585D01*
X172254320Y-82047615D01*
X172254608Y-82047702D01*
X172298947Y-82052069D01*
X172343403Y-82056506D01*
X172366101Y-82054300D01*
X176330500Y-82054300D01*
X176352794Y-82056506D01*
X176375296Y-82054300D01*
X176375399Y-82054300D01*
X176397947Y-82052079D01*
X176442188Y-82047742D01*
X176442285Y-82047712D01*
X176442392Y-82047702D01*
X176486309Y-82034380D01*
X176528156Y-82021706D01*
X176528246Y-82021658D01*
X176528348Y-82021627D01*
X176568716Y-82000050D01*
X176607393Y-81979399D01*
X176607472Y-81979334D01*
X176607566Y-81979284D01*
X176643742Y-81949595D01*
X176659449Y-81936717D01*
X176659514Y-81936652D01*
X176677001Y-81922301D01*
X176691221Y-81904974D01*
X177077029Y-81519514D01*
X177085678Y-81535696D01*
X177133289Y-81593711D01*
X177191304Y-81641322D01*
X177257492Y-81676701D01*
X177329311Y-81698487D01*
X177404000Y-81705843D01*
X178904000Y-81705843D01*
X178978689Y-81698487D01*
X179050508Y-81676701D01*
X179116696Y-81641322D01*
X179174711Y-81593711D01*
X179222322Y-81535696D01*
X179257701Y-81469508D01*
X179279487Y-81397689D01*
X179286843Y-81323000D01*
X179286843Y-80323000D01*
X179279487Y-80248311D01*
X179257701Y-80176492D01*
X179222322Y-80110304D01*
X179174711Y-80052289D01*
X179116696Y-80004678D01*
X179050508Y-79969299D01*
X178978689Y-79947513D01*
X178904000Y-79940157D01*
X177404000Y-79940157D01*
X177329311Y-79947513D01*
X177257492Y-79969299D01*
X177191304Y-80004678D01*
X177133289Y-80052289D01*
X177085678Y-80110304D01*
X177050299Y-80176492D01*
X177028513Y-80248311D01*
X177021157Y-80323000D01*
X177021157Y-80379195D01*
X176996302Y-80386735D01*
X176953843Y-80399594D01*
X176953752Y-80399643D01*
X176953652Y-80399673D01*
X176914200Y-80420760D01*
X176874606Y-80441901D01*
X176874525Y-80441967D01*
X176874434Y-80442016D01*
X176839363Y-80470798D01*
X176822550Y-80484583D01*
X176822480Y-80484653D01*
X176804999Y-80498999D01*
X176790783Y-80516321D01*
X176164240Y-81142300D01*
X174906364Y-81142300D01*
X179008646Y-77040300D01*
X180998866Y-77040300D01*
X181028811Y-77043104D01*
X181084313Y-77037368D01*
X181139896Y-77031893D01*
X181141247Y-77031483D01*
X181142651Y-77031338D01*
X181195962Y-77014886D01*
X181249415Y-76998671D01*
X181250661Y-76998005D01*
X181252009Y-76997589D01*
X181288421Y-76977900D01*
X186721507Y-76977900D01*
X186750091Y-76980711D01*
X186806187Y-76975177D01*
X186863896Y-76969493D01*
X186863941Y-76969479D01*
X186863985Y-76969475D01*
X186917200Y-76953323D01*
X186973415Y-76936271D01*
X186973456Y-76936249D01*
X186973499Y-76936236D01*
X187021506Y-76910566D01*
X187074348Y-76882321D01*
X187074386Y-76882290D01*
X187074423Y-76882270D01*
X187113203Y-76850434D01*
X187162817Y-76809717D01*
X187181048Y-76787503D01*
X187595540Y-76372881D01*
X187651000Y-76378343D01*
X188401000Y-76378343D01*
X188456872Y-76372840D01*
X188924011Y-76839874D01*
X188942183Y-76862017D01*
X188964377Y-76880231D01*
X188964400Y-76880254D01*
X188985069Y-76897212D01*
X189030652Y-76934621D01*
X189030684Y-76934638D01*
X189030707Y-76934657D01*
X189077612Y-76959722D01*
X189131585Y-76988571D01*
X189131618Y-76988581D01*
X189131646Y-76988596D01*
X189185490Y-77004923D01*
X189241104Y-77021793D01*
X189241137Y-77021796D01*
X189241169Y-77021806D01*
X189298538Y-77027450D01*
X189326460Y-77030200D01*
X189326493Y-77030200D01*
X189355066Y-77033011D01*
X189383572Y-77030200D01*
X191415327Y-77030200D01*
X193241001Y-78856043D01*
X193241000Y-80730960D01*
X193238189Y-80759500D01*
X193249407Y-80873396D01*
X193282629Y-80982915D01*
X193336579Y-81083848D01*
X193374254Y-81129755D01*
X193409183Y-81172317D01*
X193497652Y-81244921D01*
X193598585Y-81298871D01*
X193708104Y-81332093D01*
X193822000Y-81343311D01*
X193848489Y-81340702D01*
X193868299Y-81406008D01*
X193903678Y-81472196D01*
X193951289Y-81530211D01*
X194009304Y-81577822D01*
X194075492Y-81613201D01*
X194147311Y-81634987D01*
X194222000Y-81642343D01*
X195722000Y-81642343D01*
X195796689Y-81634987D01*
X195868508Y-81613201D01*
X195934696Y-81577822D01*
X195992711Y-81530211D01*
X196040322Y-81472196D01*
X196075701Y-81406008D01*
X196097487Y-81334189D01*
X196104843Y-81259500D01*
X196104843Y-80259500D01*
X196097487Y-80184811D01*
X196075701Y-80112992D01*
X196040322Y-80046804D01*
X195992711Y-79988789D01*
X195934696Y-79941178D01*
X195868508Y-79905799D01*
X195796689Y-79884013D01*
X195722000Y-79876657D01*
X194403000Y-79876657D01*
X194403000Y-78643951D01*
X194405811Y-78615426D01*
X194403000Y-78586873D01*
X194403000Y-78586860D01*
X194400067Y-78557084D01*
X194394598Y-78501530D01*
X194394594Y-78501518D01*
X194394593Y-78501504D01*
X194376516Y-78441911D01*
X194361381Y-78392010D01*
X194361375Y-78392000D01*
X194361371Y-78391985D01*
X194329007Y-78331436D01*
X194307435Y-78291074D01*
X194307429Y-78291066D01*
X194307421Y-78291052D01*
X194263244Y-78237222D01*
X194253027Y-78224771D01*
X194253022Y-78224766D01*
X194234817Y-78202583D01*
X194212655Y-78184395D01*
X192237000Y-76208559D01*
X192237000Y-75855590D01*
X192238317Y-75868962D01*
X192274329Y-75987679D01*
X192332810Y-76097089D01*
X192411512Y-76192988D01*
X192507411Y-76271690D01*
X192616821Y-76330171D01*
X192735538Y-76366183D01*
X192859000Y-76378343D01*
X193609000Y-76378343D01*
X193732462Y-76366183D01*
X193851179Y-76330171D01*
X193960589Y-76271690D01*
X194056488Y-76192988D01*
X194135190Y-76097089D01*
X194193671Y-75987679D01*
X194229683Y-75868962D01*
X194241843Y-75745500D01*
X194241843Y-75576500D01*
X198417601Y-75576500D01*
X198440000Y-75578706D01*
X198529392Y-75569902D01*
X198615348Y-75543827D01*
X198694566Y-75501484D01*
X198764001Y-75444501D01*
X198820984Y-75375066D01*
X198863327Y-75295848D01*
X198889402Y-75209892D01*
X198896000Y-75142899D01*
X198896000Y-75142898D01*
X198898206Y-75120500D01*
X198896000Y-75098101D01*
X198896000Y-73950609D01*
X198898206Y-73928123D01*
X198893856Y-73884136D01*
X198890759Y-73852687D01*
X199479000Y-74440972D01*
X199479001Y-76037459D01*
X199476794Y-76059829D01*
X199479001Y-76082271D01*
X199479001Y-76082299D01*
X199480458Y-76097089D01*
X199485585Y-76149220D01*
X199485595Y-76149254D01*
X199485599Y-76149292D01*
X199498755Y-76192660D01*
X199511646Y-76235181D01*
X199511664Y-76235214D01*
X199511674Y-76235248D01*
X199531153Y-76271690D01*
X199553976Y-76314406D01*
X199554002Y-76314437D01*
X199554017Y-76314466D01*
X199581671Y-76348163D01*
X199596674Y-76366449D01*
X199596695Y-76366470D01*
X199611000Y-76383901D01*
X199628376Y-76398161D01*
X200441000Y-77211039D01*
X200441001Y-79876657D01*
X199122000Y-79876657D01*
X199047311Y-79884013D01*
X198975492Y-79905799D01*
X198909304Y-79941178D01*
X198851289Y-79988789D01*
X198803678Y-80046804D01*
X198768299Y-80112992D01*
X198746513Y-80184811D01*
X198739157Y-80259500D01*
X198739157Y-80315695D01*
X198712136Y-80323892D01*
X198671722Y-80336144D01*
X198671688Y-80336162D01*
X198671652Y-80336173D01*
X198634141Y-80356223D01*
X198592497Y-80378473D01*
X198592464Y-80378500D01*
X198592434Y-80378516D01*
X198559640Y-80405429D01*
X198540453Y-80421170D01*
X198540425Y-80421198D01*
X198522999Y-80435499D01*
X198508747Y-80452866D01*
X196555164Y-82405800D01*
X175462377Y-82405800D01*
X175439960Y-82403594D01*
X175401840Y-82407352D01*
X175350608Y-82412398D01*
X175350582Y-82412406D01*
X175350570Y-82412407D01*
X175320824Y-82421433D01*
X175264652Y-82438473D01*
X175264631Y-82438484D01*
X175264615Y-82438489D01*
X175227851Y-82458144D01*
X175185434Y-82480816D01*
X175185419Y-82480829D01*
X175185401Y-82480838D01*
X175153325Y-82507167D01*
X175115999Y-82537799D01*
X175101705Y-82555216D01*
X174330831Y-83326223D01*
X174322322Y-83310304D01*
X174274711Y-83252289D01*
X174216696Y-83204678D01*
X174150508Y-83169299D01*
X174078689Y-83147513D01*
X174004000Y-83140157D01*
X172504000Y-83140157D01*
X172429311Y-83147513D01*
X172357492Y-83169299D01*
X172291304Y-83204678D01*
X172233289Y-83252289D01*
X172185678Y-83310304D01*
X172150299Y-83376492D01*
X172128513Y-83448311D01*
X172121157Y-83523000D01*
X172121157Y-84523000D01*
X172128513Y-84597689D01*
X172150299Y-84669508D01*
X172185678Y-84735696D01*
X172233289Y-84793711D01*
X172291304Y-84841322D01*
X172357492Y-84876701D01*
X172429311Y-84898487D01*
X172504000Y-84905843D01*
X174004000Y-84905843D01*
X174078689Y-84898487D01*
X174150508Y-84876701D01*
X174216696Y-84841322D01*
X174274711Y-84793711D01*
X174322322Y-84735696D01*
X174357701Y-84669508D01*
X174379487Y-84597689D01*
X174386843Y-84523000D01*
X176765928Y-84523000D01*
X176778188Y-84647482D01*
X176814498Y-84767180D01*
X176873463Y-84877494D01*
X176952815Y-84974185D01*
X177049506Y-85053537D01*
X177159820Y-85112502D01*
X177279518Y-85148812D01*
X177404000Y-85161072D01*
X177868250Y-85158000D01*
X178027000Y-84999250D01*
X178027000Y-84150000D01*
X178281000Y-84150000D01*
X178281000Y-84999250D01*
X178439750Y-85158000D01*
X178904000Y-85161072D01*
X179028482Y-85148812D01*
X179148180Y-85112502D01*
X179258494Y-85053537D01*
X179355185Y-84974185D01*
X179434537Y-84877494D01*
X179493502Y-84767180D01*
X179529812Y-84647482D01*
X179542072Y-84523000D01*
X179539000Y-84308750D01*
X179380250Y-84150000D01*
X178281000Y-84150000D01*
X178027000Y-84150000D01*
X176927750Y-84150000D01*
X176769000Y-84308750D01*
X176765928Y-84523000D01*
X174386843Y-84523000D01*
X174386843Y-84466806D01*
X174406374Y-84460880D01*
X174454348Y-84446327D01*
X174454366Y-84446318D01*
X174454384Y-84446312D01*
X174491160Y-84426651D01*
X174533566Y-84403984D01*
X174533583Y-84403970D01*
X174533598Y-84403962D01*
X174560494Y-84381885D01*
X174603001Y-84347001D01*
X174617299Y-84329579D01*
X175628905Y-83317800D01*
X176802674Y-83317800D01*
X176778188Y-83398518D01*
X176765928Y-83523000D01*
X176769000Y-83737250D01*
X176927750Y-83896000D01*
X178027000Y-83896000D01*
X178027000Y-83876000D01*
X178281000Y-83876000D01*
X178281000Y-83896000D01*
X179380250Y-83896000D01*
X179539000Y-83737250D01*
X179542072Y-83523000D01*
X179529812Y-83398518D01*
X179505326Y-83317800D01*
X193866841Y-83317800D01*
X193846513Y-83384811D01*
X193839157Y-83459500D01*
X193839157Y-84459500D01*
X193846513Y-84534189D01*
X193868299Y-84606008D01*
X193903678Y-84672196D01*
X193951289Y-84730211D01*
X194009304Y-84777822D01*
X194075492Y-84813201D01*
X194147311Y-84834987D01*
X194222000Y-84842343D01*
X195722000Y-84842343D01*
X195796689Y-84834987D01*
X195868508Y-84813201D01*
X195934696Y-84777822D01*
X195992711Y-84730211D01*
X196040322Y-84672196D01*
X196075701Y-84606008D01*
X196097487Y-84534189D01*
X196104843Y-84459500D01*
X196104843Y-83459500D01*
X196097487Y-83384811D01*
X196077159Y-83317800D01*
X196721567Y-83317800D01*
X196743924Y-83320006D01*
X196766358Y-83317800D01*
X196766399Y-83317800D01*
X196791808Y-83315298D01*
X196833316Y-83311216D01*
X196833348Y-83311206D01*
X196833392Y-83311202D01*
X196880442Y-83296929D01*
X196919277Y-83285156D01*
X196919309Y-83285139D01*
X196919348Y-83285127D01*
X196959245Y-83263802D01*
X196998502Y-83242827D01*
X196998533Y-83242802D01*
X196998566Y-83242784D01*
X197036734Y-83211461D01*
X197050545Y-83200130D01*
X197050564Y-83200111D01*
X197068001Y-83185801D01*
X197082262Y-83168423D01*
X198795103Y-81456154D01*
X198803678Y-81472196D01*
X198851289Y-81530211D01*
X198909304Y-81577822D01*
X198975492Y-81613201D01*
X199047311Y-81634987D01*
X199122000Y-81642343D01*
X200016318Y-81642343D01*
X199751805Y-81906829D01*
X199718608Y-81910098D01*
X199632652Y-81936173D01*
X199632647Y-81936176D01*
X199632643Y-81936177D01*
X199590796Y-81958545D01*
X199553434Y-81978516D01*
X199553431Y-81978518D01*
X199553426Y-81978521D01*
X199524145Y-82002552D01*
X199483999Y-82035499D01*
X199469715Y-82052904D01*
X194575401Y-86947418D01*
X194557999Y-86961699D01*
X194501016Y-87031135D01*
X194501015Y-87031137D01*
X194501010Y-87031143D01*
X194476680Y-87076664D01*
X194458673Y-87110353D01*
X194458671Y-87110359D01*
X194458670Y-87110361D01*
X194452937Y-87129262D01*
X194432598Y-87196309D01*
X194426000Y-87263302D01*
X194426000Y-87263308D01*
X194423794Y-87285709D01*
X194426000Y-87308100D01*
X194426001Y-91930858D01*
X194180483Y-92032555D01*
X193937917Y-92194632D01*
X193731632Y-92400917D01*
X193569555Y-92643483D01*
X193457914Y-92913008D01*
X193401000Y-93199134D01*
X193401000Y-93490866D01*
X193457914Y-93776992D01*
X193569555Y-94046517D01*
X193731632Y-94289083D01*
X193937917Y-94495368D01*
X194180483Y-94657445D01*
X194450008Y-94769086D01*
X194736134Y-94826000D01*
X195027866Y-94826000D01*
X195313992Y-94769086D01*
X195583517Y-94657445D01*
X195826083Y-94495368D01*
X196032368Y-94289083D01*
X196194445Y-94046517D01*
X196306086Y-93776992D01*
X196363000Y-93490866D01*
X196363000Y-93199134D01*
X196306086Y-92913008D01*
X196194445Y-92643483D01*
X196032368Y-92400917D01*
X195826083Y-92194632D01*
X195583517Y-92032555D01*
X195338000Y-91930858D01*
X195338000Y-90659134D01*
X199751000Y-90659134D01*
X199751000Y-90950866D01*
X199807914Y-91236992D01*
X199919555Y-91506517D01*
X200081632Y-91749083D01*
X200287917Y-91955368D01*
X200530483Y-92117445D01*
X200800008Y-92229086D01*
X201086134Y-92286000D01*
X201377866Y-92286000D01*
X201663992Y-92229086D01*
X201933517Y-92117445D01*
X202176083Y-91955368D01*
X202382368Y-91749083D01*
X202544445Y-91506517D01*
X202656086Y-91236992D01*
X202713000Y-90950866D01*
X202713000Y-90659134D01*
X202656086Y-90373008D01*
X202544445Y-90103483D01*
X202382368Y-89860917D01*
X202176083Y-89654632D01*
X201933517Y-89492555D01*
X201663992Y-89380914D01*
X201377866Y-89324000D01*
X201086134Y-89324000D01*
X200800008Y-89380914D01*
X200530483Y-89492555D01*
X200287917Y-89654632D01*
X200081632Y-89860917D01*
X199919555Y-90103483D01*
X199807914Y-90373008D01*
X199751000Y-90659134D01*
X195338000Y-90659134D01*
X195338000Y-89431761D01*
X195572556Y-89782799D01*
X195904201Y-90114444D01*
X196294173Y-90375015D01*
X196727488Y-90554500D01*
X197187492Y-90646000D01*
X197656508Y-90646000D01*
X198116512Y-90554500D01*
X198549827Y-90375015D01*
X198939799Y-90114444D01*
X199271444Y-89782799D01*
X199532015Y-89392827D01*
X199711500Y-88959512D01*
X199803000Y-88499508D01*
X199803000Y-88030492D01*
X199711500Y-87570488D01*
X199532015Y-87137173D01*
X199271444Y-86747201D01*
X198939799Y-86415556D01*
X198549827Y-86154985D01*
X198116512Y-85975500D01*
X197656508Y-85884000D01*
X197187492Y-85884000D01*
X196864209Y-85948305D01*
X198485833Y-84326615D01*
X198483928Y-84459500D01*
X198496188Y-84583982D01*
X198532498Y-84703680D01*
X198591463Y-84813994D01*
X198670815Y-84910685D01*
X198767506Y-84990037D01*
X198877820Y-85049002D01*
X198997518Y-85085312D01*
X199122000Y-85097572D01*
X199586250Y-85094500D01*
X199745000Y-84935750D01*
X199745000Y-84086500D01*
X199999000Y-84086500D01*
X199999000Y-84935750D01*
X200157750Y-85094500D01*
X200622000Y-85097572D01*
X200746482Y-85085312D01*
X200866180Y-85049002D01*
X200976494Y-84990037D01*
X201073185Y-84910685D01*
X201152537Y-84813994D01*
X201211502Y-84703680D01*
X201247812Y-84583982D01*
X201260072Y-84459500D01*
X201257000Y-84245250D01*
X201098250Y-84086500D01*
X199999000Y-84086500D01*
X199745000Y-84086500D01*
X199725000Y-84086500D01*
X199725000Y-83832500D01*
X199745000Y-83832500D01*
X199745000Y-83812500D01*
X199999000Y-83812500D01*
X199999000Y-83832500D01*
X201098250Y-83832500D01*
X201257000Y-83673750D01*
X201260072Y-83459500D01*
X201247812Y-83335018D01*
X201211502Y-83215320D01*
X201152537Y-83105006D01*
X201073185Y-83008315D01*
X200976494Y-82928963D01*
X200866180Y-82869998D01*
X200746482Y-82833688D01*
X200622000Y-82821428D01*
X200157750Y-82824500D01*
X199999002Y-82983248D01*
X199999002Y-82824500D01*
X199987887Y-82824500D01*
X200000218Y-82812169D01*
X200033367Y-82808906D01*
X200033375Y-82808904D01*
X200033392Y-82808902D01*
X200088312Y-82792242D01*
X200119325Y-82782836D01*
X200119334Y-82782831D01*
X200119348Y-82782827D01*
X200162319Y-82759858D01*
X200198545Y-82740498D01*
X200198555Y-82740490D01*
X200198566Y-82740484D01*
X200244275Y-82702972D01*
X200250584Y-82697795D01*
X200250586Y-82697793D01*
X200268001Y-82683501D01*
X200282277Y-82666105D01*
X201203590Y-81744890D01*
X201221001Y-81730601D01*
X201255736Y-81688276D01*
X201277971Y-81661186D01*
X201277977Y-81661174D01*
X201277984Y-81661166D01*
X201297267Y-81625090D01*
X201320318Y-81581970D01*
X201320322Y-81581958D01*
X201320327Y-81581948D01*
X201336022Y-81530211D01*
X201346397Y-81496015D01*
X201346398Y-81496005D01*
X201346402Y-81495992D01*
X201351151Y-81447778D01*
X201355206Y-81406624D01*
X201353000Y-81384215D01*
X201353000Y-77044634D01*
X201355206Y-77022271D01*
X201353000Y-76999839D01*
X201353000Y-76999801D01*
X201350017Y-76969510D01*
X201346415Y-76932879D01*
X201346406Y-76932850D01*
X201346402Y-76932808D01*
X201332075Y-76885579D01*
X201320354Y-76846918D01*
X201320338Y-76846888D01*
X201320327Y-76846852D01*
X201298734Y-76806454D01*
X201278024Y-76767694D01*
X201278001Y-76767666D01*
X201277984Y-76767634D01*
X201249401Y-76732805D01*
X201235327Y-76715650D01*
X201235302Y-76715625D01*
X201221001Y-76698199D01*
X201203631Y-76683944D01*
X200391000Y-75871061D01*
X200391000Y-74274505D01*
X200393206Y-74252117D01*
X200391000Y-74229711D01*
X200391000Y-74229701D01*
X200386252Y-74181489D01*
X200384405Y-74162725D01*
X200384403Y-74162719D01*
X200384402Y-74162708D01*
X200366436Y-74103484D01*
X200358333Y-74076768D01*
X200358330Y-74076763D01*
X200358327Y-74076752D01*
X200330615Y-74024906D01*
X200315994Y-73997548D01*
X200315987Y-73997539D01*
X200315984Y-73997534D01*
X200259001Y-73928099D01*
X200241606Y-73913824D01*
X200126225Y-73798435D01*
X200184942Y-73774113D01*
X200312859Y-73688642D01*
X200421642Y-73579859D01*
X200507113Y-73451942D01*
X200565987Y-73309809D01*
X200596000Y-73158922D01*
X200596000Y-73005078D01*
X200586179Y-72955702D01*
X200676599Y-72865282D01*
X200694001Y-72851001D01*
X200737581Y-72797898D01*
X200750985Y-72781566D01*
X200763868Y-72757462D01*
X201147575Y-73141925D01*
X201161999Y-73159501D01*
X201196812Y-73188071D01*
X201231060Y-73216234D01*
X201231260Y-73216341D01*
X201231434Y-73216484D01*
X201270941Y-73237601D01*
X201310236Y-73258654D01*
X201310451Y-73258719D01*
X201310652Y-73258827D01*
X201354152Y-73272023D01*
X201396167Y-73284813D01*
X201396387Y-73284835D01*
X201396608Y-73284902D01*
X201441444Y-73289318D01*
X201485549Y-73293706D01*
X201508173Y-73291500D01*
X201814389Y-73291500D01*
X201842358Y-73333359D01*
X201951141Y-73442142D01*
X202079058Y-73527613D01*
X202221191Y-73586487D01*
X202372078Y-73616500D01*
X202525922Y-73616500D01*
X202676809Y-73586487D01*
X202818942Y-73527613D01*
X202946859Y-73442142D01*
X203055642Y-73333359D01*
X203141113Y-73205442D01*
X203199987Y-73063309D01*
X203230000Y-72912422D01*
X203230000Y-72758578D01*
X203199987Y-72607691D01*
X203141113Y-72465558D01*
X203055642Y-72337641D01*
X202946859Y-72228858D01*
X202818942Y-72143387D01*
X202676809Y-72084513D01*
X202525922Y-72054500D01*
X202372078Y-72054500D01*
X202221191Y-72084513D01*
X202079058Y-72143387D01*
X201951141Y-72228858D01*
X201842358Y-72337641D01*
X201814389Y-72379500D01*
X201675144Y-72379500D01*
X201434000Y-72137882D01*
X201434000Y-72105281D01*
X201478250Y-72109000D01*
X201637000Y-71950250D01*
X201637000Y-70851000D01*
X201621843Y-70851000D01*
X201621843Y-70597000D01*
X201637000Y-70597000D01*
X201637000Y-69497750D01*
X201478250Y-69339000D01*
X201361369Y-69348823D01*
X201241855Y-69385735D01*
X201131839Y-69445254D01*
X201035549Y-69525092D01*
X200981885Y-69591157D01*
X200689000Y-69591157D01*
X200614311Y-69598513D01*
X200564000Y-69613775D01*
X200513689Y-69598513D01*
X200439000Y-69591157D01*
X199889000Y-69591157D01*
X199814311Y-69598513D01*
X199764000Y-69613775D01*
X199713689Y-69598513D01*
X199639000Y-69591157D01*
X199089000Y-69591157D01*
X199014311Y-69598513D01*
X198964000Y-69613775D01*
X198913689Y-69598513D01*
X198839000Y-69591157D01*
X198289000Y-69591157D01*
X198214311Y-69598513D01*
X198164000Y-69613775D01*
X198113689Y-69598513D01*
X198039000Y-69591157D01*
X197489000Y-69591157D01*
X197414311Y-69598513D01*
X197364000Y-69613775D01*
X197313689Y-69598513D01*
X197239000Y-69591157D01*
X196689000Y-69591157D01*
X196614311Y-69598513D01*
X196564000Y-69613775D01*
X196513689Y-69598513D01*
X196439000Y-69591157D01*
X196146115Y-69591157D01*
X196092451Y-69525092D01*
X195996161Y-69445254D01*
X195886145Y-69385735D01*
X195766631Y-69348823D01*
X195649750Y-69339000D01*
X195491000Y-69497750D01*
X195491000Y-70597000D01*
X195506157Y-70597000D01*
X195506157Y-70851000D01*
X195491000Y-70851000D01*
X195491000Y-71950250D01*
X195649750Y-72109000D01*
X195766631Y-72099177D01*
X195886145Y-72062265D01*
X195996161Y-72002746D01*
X196092451Y-71922908D01*
X196146115Y-71856843D01*
X196439000Y-71856843D01*
X196513689Y-71849487D01*
X196564000Y-71834225D01*
X196614311Y-71849487D01*
X196689000Y-71856843D01*
X197239000Y-71856843D01*
X197313689Y-71849487D01*
X197364000Y-71834225D01*
X197414311Y-71849487D01*
X197489000Y-71856843D01*
X198039000Y-71856843D01*
X198108001Y-71850047D01*
X198108001Y-72758600D01*
X197974078Y-72758600D01*
X197823191Y-72788613D01*
X197681058Y-72847487D01*
X197553141Y-72932958D01*
X197444358Y-73041741D01*
X197358887Y-73169658D01*
X197300013Y-73311791D01*
X197270000Y-73462678D01*
X197270000Y-73616522D01*
X197300013Y-73767409D01*
X197358887Y-73909542D01*
X197444358Y-74037459D01*
X197553141Y-74146242D01*
X197681058Y-74231713D01*
X197823191Y-74290587D01*
X197974078Y-74320600D01*
X197984000Y-74320600D01*
X197984001Y-74664500D01*
X194241843Y-74664500D01*
X194241843Y-74495500D01*
X194229683Y-74372038D01*
X194193671Y-74253321D01*
X194135190Y-74143911D01*
X194056488Y-74048012D01*
X193960589Y-73969310D01*
X193851179Y-73910829D01*
X193732462Y-73874817D01*
X193609000Y-73862657D01*
X193379846Y-73862657D01*
X194875280Y-72366706D01*
X194888348Y-72359721D01*
X194976817Y-72287117D01*
X195049421Y-72198648D01*
X195103371Y-72097715D01*
X195109396Y-72077854D01*
X195237000Y-71950250D01*
X195237000Y-70851000D01*
X195221843Y-70851000D01*
X195221843Y-70597000D01*
X195237000Y-70597000D01*
X195237000Y-69497750D01*
X195078250Y-69339000D01*
X194961369Y-69348823D01*
X194841855Y-69385735D01*
X194731839Y-69445254D01*
X194635549Y-69525092D01*
X194581885Y-69591157D01*
X194289000Y-69591157D01*
X194255804Y-69594426D01*
X194203501Y-69542144D01*
X194239177Y-69426631D01*
X194249000Y-69309750D01*
X194090250Y-69151000D01*
X193732666Y-69151000D01*
X193710256Y-69144207D01*
X193652896Y-69126807D01*
X193652838Y-69126801D01*
X193652784Y-69126785D01*
X193596252Y-69121228D01*
X193567540Y-69118400D01*
X193567483Y-69118400D01*
X193538887Y-69115589D01*
X193510406Y-69118400D01*
X190539258Y-69118400D01*
X189379200Y-67958343D01*
X189379200Y-66077457D01*
X191733533Y-63723125D01*
X191738513Y-63773689D01*
X191753775Y-63824000D01*
X191738513Y-63874311D01*
X191731157Y-63949000D01*
X191731157Y-64499000D01*
X191738513Y-64573689D01*
X191753775Y-64624000D01*
X191738513Y-64674311D01*
X191731157Y-64749000D01*
X191731157Y-65299000D01*
X191738513Y-65373689D01*
X191753775Y-65424000D01*
X191738513Y-65474311D01*
X191731157Y-65549000D01*
X191731157Y-66099000D01*
X191738513Y-66173689D01*
X191753775Y-66224000D01*
X191738513Y-66274311D01*
X191731157Y-66349000D01*
X191731157Y-66899000D01*
X191738513Y-66973689D01*
X191753775Y-67024000D01*
X191738513Y-67074311D01*
X191731157Y-67149000D01*
X191731157Y-67699000D01*
X191738513Y-67773689D01*
X191753775Y-67824000D01*
X191738513Y-67874311D01*
X191731157Y-67949000D01*
X191731157Y-68241885D01*
X191665092Y-68295549D01*
X191585254Y-68391839D01*
X191525735Y-68501855D01*
X191488823Y-68621369D01*
X191479000Y-68738250D01*
X191637750Y-68897000D01*
X192737000Y-68897000D01*
X192737000Y-68881843D01*
X192991000Y-68881843D01*
X192991000Y-68897000D01*
X194090250Y-68897000D01*
X194249000Y-68738250D01*
X194239177Y-68621369D01*
X194202265Y-68501855D01*
X194142746Y-68391839D01*
X194062908Y-68295549D01*
X193996843Y-68241885D01*
X193996843Y-67949000D01*
X193989487Y-67874311D01*
X193974225Y-67824000D01*
X193989487Y-67773689D01*
X193996843Y-67699000D01*
X193996843Y-67149000D01*
X193989487Y-67074311D01*
X193974225Y-67024000D01*
X193989487Y-66973689D01*
X193996843Y-66899000D01*
X193996843Y-66349000D01*
X193989487Y-66274311D01*
X193974225Y-66224000D01*
X193989487Y-66173689D01*
X193996843Y-66099000D01*
X193996843Y-65549000D01*
X193989487Y-65474311D01*
X193974225Y-65424000D01*
X193989487Y-65373689D01*
X193996843Y-65299000D01*
X193996843Y-64749000D01*
X193989487Y-64674311D01*
X193974225Y-64624000D01*
X193989487Y-64573689D01*
X193996843Y-64499000D01*
X193996843Y-63949000D01*
X193989829Y-63877779D01*
X194110058Y-63958113D01*
X194252191Y-64016987D01*
X194403078Y-64047000D01*
X194556922Y-64047000D01*
X194606187Y-64037201D01*
X195835697Y-65267073D01*
X195849999Y-65284501D01*
X195885813Y-65313892D01*
X195919378Y-65341447D01*
X195919409Y-65341464D01*
X195919434Y-65341484D01*
X195957353Y-65361752D01*
X195998589Y-65383801D01*
X195998622Y-65383811D01*
X195998652Y-65383827D01*
X196044453Y-65397721D01*
X196084542Y-65409888D01*
X196084571Y-65409891D01*
X196084608Y-65409902D01*
X196131866Y-65414556D01*
X196173932Y-65418706D01*
X196196361Y-65416500D01*
X199267638Y-65416500D01*
X199290067Y-65418706D01*
X199331512Y-65414618D01*
X199379392Y-65409902D01*
X199379429Y-65409891D01*
X199379457Y-65409888D01*
X199417526Y-65398334D01*
X199465348Y-65383827D01*
X199465379Y-65383810D01*
X199465410Y-65383801D01*
X199503774Y-65363288D01*
X199544566Y-65341484D01*
X199544593Y-65341462D01*
X199544621Y-65341447D01*
X199575111Y-65316417D01*
X199614001Y-65284501D01*
X199628308Y-65267068D01*
X201172921Y-63722000D01*
X201607340Y-63722000D01*
X200079360Y-65249981D01*
X200057183Y-65268181D01*
X199997026Y-65341484D01*
X199984579Y-65356651D01*
X199930629Y-65457584D01*
X199897407Y-65567103D01*
X199886189Y-65680998D01*
X199889000Y-65709538D01*
X199889001Y-66836917D01*
X199886189Y-66865431D01*
X199886192Y-66865466D01*
X199886189Y-66865500D01*
X199891961Y-66924099D01*
X199897394Y-66979327D01*
X199897403Y-66979357D01*
X199897407Y-66979396D01*
X199915924Y-67040439D01*
X199930603Y-67088850D01*
X199930618Y-67088877D01*
X199930629Y-67088915D01*
X199961615Y-67146885D01*
X199984541Y-67189789D01*
X199984560Y-67189812D01*
X199984579Y-67189848D01*
X200027242Y-67241834D01*
X200038944Y-67256096D01*
X200038960Y-67256112D01*
X200057183Y-67278317D01*
X200079334Y-67296496D01*
X201983000Y-69200618D01*
X201983000Y-69405750D01*
X201891000Y-69497750D01*
X201891000Y-70597000D01*
X201906157Y-70597000D01*
X201906157Y-70851000D01*
X201891000Y-70851000D01*
X201891000Y-71950250D01*
X202049750Y-72109000D01*
X202166631Y-72099177D01*
X202286145Y-72062265D01*
X202396161Y-72002746D01*
X202492451Y-71922908D01*
X202546115Y-71856843D01*
X202839000Y-71856843D01*
X202913689Y-71849487D01*
X202985508Y-71827701D01*
X203051696Y-71792322D01*
X203109711Y-71744711D01*
X203157322Y-71686696D01*
X203192701Y-71620508D01*
X203214487Y-71548689D01*
X203221843Y-71474000D01*
X203221843Y-69974000D01*
X203214487Y-69899311D01*
X203192701Y-69827492D01*
X203157322Y-69761304D01*
X203145000Y-69746289D01*
X203145000Y-69395074D01*
X203160299Y-69445508D01*
X203195678Y-69511696D01*
X203243289Y-69569711D01*
X203301304Y-69617322D01*
X203367492Y-69652701D01*
X203439311Y-69674487D01*
X203514000Y-69681843D01*
X205014000Y-69681843D01*
X205088689Y-69674487D01*
X205160508Y-69652701D01*
X205226696Y-69617322D01*
X205284711Y-69569711D01*
X205332322Y-69511696D01*
X205367701Y-69445508D01*
X205389487Y-69373689D01*
X205396843Y-69299000D01*
X205396843Y-68749000D01*
X205392363Y-68703516D01*
X205402191Y-68707587D01*
X205553078Y-68737600D01*
X205706922Y-68737600D01*
X205857809Y-68707587D01*
X205999942Y-68648713D01*
X206127859Y-68563242D01*
X206236642Y-68454459D01*
X206322113Y-68326542D01*
X206380987Y-68184409D01*
X206411000Y-68033522D01*
X206411000Y-67879678D01*
X206380987Y-67728791D01*
X206322113Y-67586658D01*
X206236642Y-67458741D01*
X206127859Y-67349958D01*
X206049574Y-67297650D01*
X206149859Y-67230642D01*
X206258642Y-67121859D01*
X206344113Y-66993942D01*
X206402987Y-66851809D01*
X206433000Y-66700922D01*
X206433000Y-66547078D01*
X206402987Y-66396191D01*
X206344113Y-66254058D01*
X206258642Y-66126141D01*
X206149859Y-66017358D01*
X206021942Y-65931887D01*
X205879809Y-65873013D01*
X205728922Y-65843000D01*
X205575078Y-65843000D01*
X205424191Y-65873013D01*
X205282058Y-65931887D01*
X205253453Y-65951000D01*
X204391000Y-65951000D01*
X204391000Y-65966157D01*
X204137000Y-65966157D01*
X204137000Y-65951000D01*
X203037750Y-65951000D01*
X202879000Y-66109750D01*
X202888823Y-66226631D01*
X202925735Y-66346145D01*
X202985254Y-66456161D01*
X203065092Y-66552451D01*
X203131157Y-66606115D01*
X203131157Y-66899000D01*
X203138513Y-66973689D01*
X203153775Y-67024000D01*
X203138513Y-67074311D01*
X203131157Y-67149000D01*
X203131157Y-67419354D01*
X202187053Y-66474904D01*
X202168817Y-66452683D01*
X202120315Y-66412878D01*
X202080437Y-66380139D01*
X202080391Y-66380115D01*
X202080348Y-66380079D01*
X202027758Y-66351969D01*
X201979513Y-66326170D01*
X201979464Y-66326155D01*
X201979415Y-66326129D01*
X201923715Y-66309233D01*
X201870001Y-66292928D01*
X201869948Y-66292923D01*
X201869896Y-66292907D01*
X201812731Y-66287277D01*
X201756107Y-66281689D01*
X201727513Y-66284500D01*
X201051000Y-66284500D01*
X201051000Y-65921655D01*
X202520611Y-64452044D01*
X202682875Y-64614508D01*
X202701183Y-64636817D01*
X202745485Y-64673174D01*
X202789353Y-64709221D01*
X202789512Y-64709306D01*
X202789652Y-64709421D01*
X202840261Y-64736472D01*
X202890253Y-64763233D01*
X202890424Y-64763285D01*
X202890585Y-64763371D01*
X202945904Y-64780152D01*
X202999751Y-64796522D01*
X202999928Y-64796540D01*
X203000104Y-64796593D01*
X203057311Y-64802228D01*
X203113640Y-64807811D01*
X203131157Y-64806096D01*
X203131157Y-65041885D01*
X203065092Y-65095549D01*
X202985254Y-65191839D01*
X202925735Y-65301855D01*
X202888823Y-65421369D01*
X202879000Y-65538250D01*
X203037750Y-65697000D01*
X204137000Y-65697000D01*
X204137000Y-65681843D01*
X204391000Y-65681843D01*
X204391000Y-65697000D01*
X205241760Y-65697000D01*
X205251058Y-65703213D01*
X205393191Y-65762087D01*
X205544078Y-65792100D01*
X205697922Y-65792100D01*
X205848809Y-65762087D01*
X205990942Y-65703213D01*
X206118859Y-65617742D01*
X206227642Y-65508959D01*
X206313113Y-65381042D01*
X206371987Y-65238909D01*
X206402000Y-65088022D01*
X206402000Y-64934178D01*
X206371987Y-64783291D01*
X206313113Y-64641158D01*
X206227642Y-64513241D01*
X206118859Y-64404458D01*
X205990942Y-64318987D01*
X205856331Y-64263229D01*
X206452703Y-63666700D01*
X207831499Y-63666700D01*
X207857141Y-63692342D01*
X207985058Y-63777813D01*
X208127191Y-63836687D01*
X208278078Y-63866700D01*
X208431922Y-63866700D01*
X208582809Y-63836687D01*
X208724942Y-63777813D01*
X208852859Y-63692342D01*
X208961642Y-63583559D01*
X209047113Y-63455642D01*
X209105987Y-63313509D01*
X209136000Y-63162622D01*
X209136000Y-63008778D01*
X209105987Y-62857891D01*
X209047113Y-62715758D01*
X208961642Y-62587841D01*
X208852859Y-62479058D01*
X208724942Y-62393587D01*
X208582809Y-62334713D01*
X208431922Y-62304700D01*
X208278078Y-62304700D01*
X208127191Y-62334713D01*
X207985058Y-62393587D01*
X207857141Y-62479058D01*
X207831499Y-62504700D01*
X206793000Y-62504700D01*
X206793000Y-61352659D01*
X206795811Y-61324137D01*
X206793000Y-61295579D01*
X206793000Y-61295560D01*
X206789529Y-61260315D01*
X206784600Y-61210240D01*
X206784595Y-61210223D01*
X206784593Y-61210204D01*
X206765301Y-61146605D01*
X206751385Y-61100719D01*
X206751376Y-61100703D01*
X206751371Y-61100685D01*
X206717377Y-61037086D01*
X206697441Y-60999783D01*
X206697431Y-60999771D01*
X206697421Y-60999752D01*
X206653991Y-60946832D01*
X206643034Y-60933479D01*
X206643026Y-60933471D01*
X206624817Y-60911283D01*
X206602657Y-60893097D01*
X203493027Y-57783072D01*
X203474817Y-57760883D01*
X203421002Y-57716718D01*
X203386378Y-57688300D01*
X203386365Y-57688293D01*
X203386348Y-57688279D01*
X203317613Y-57651539D01*
X203285448Y-57634344D01*
X203285437Y-57634341D01*
X203285415Y-57634329D01*
X203216366Y-57613383D01*
X203175932Y-57601115D01*
X203175918Y-57601114D01*
X203175896Y-57601107D01*
X203113283Y-57594940D01*
X203062037Y-57589889D01*
X203033479Y-57592700D01*
X200992540Y-57592700D01*
X200964000Y-57589889D01*
X200935460Y-57592700D01*
X200850104Y-57601107D01*
X200740585Y-57634329D01*
X200639652Y-57688279D01*
X200551183Y-57760883D01*
X200478579Y-57849352D01*
X200424629Y-57950285D01*
X200418604Y-57970146D01*
X200291002Y-58097748D01*
X200291002Y-58016516D01*
X200818688Y-57488775D01*
X206533830Y-57488775D01*
X206773976Y-57876018D01*
X207267877Y-58136641D01*
X207803133Y-58295901D01*
X208359174Y-58347678D01*
X208914632Y-58289981D01*
X209448161Y-58125028D01*
X209914024Y-57876018D01*
X210154170Y-57488775D01*
X208344000Y-55678605D01*
X206533830Y-57488775D01*
X200818688Y-57488775D01*
X201595611Y-56711772D01*
X201613001Y-56697501D01*
X201627288Y-56680092D01*
X201627295Y-56680085D01*
X201645346Y-56658088D01*
X201669984Y-56628066D01*
X201669989Y-56628058D01*
X201669998Y-56628046D01*
X201693087Y-56584843D01*
X201712327Y-56548848D01*
X201712331Y-56548836D01*
X201712336Y-56548826D01*
X201723465Y-56512132D01*
X201738402Y-56462892D01*
X201738404Y-56462876D01*
X201738406Y-56462868D01*
X201741979Y-56426577D01*
X201745000Y-56395899D01*
X201745000Y-56395885D01*
X201747206Y-56373476D01*
X201745000Y-56351090D01*
X201745000Y-55725436D01*
X201747206Y-55702978D01*
X201742846Y-55658827D01*
X201738402Y-55613708D01*
X201738384Y-55613648D01*
X201738378Y-55613589D01*
X201725810Y-55572198D01*
X201712327Y-55527752D01*
X201712297Y-55527696D01*
X201712280Y-55527640D01*
X201705078Y-55514174D01*
X205495322Y-55514174D01*
X205553019Y-56069632D01*
X205717972Y-56603161D01*
X205966982Y-57069024D01*
X206354225Y-57309170D01*
X208164395Y-55499000D01*
X206354225Y-53688830D01*
X205966982Y-53928976D01*
X205706359Y-54422877D01*
X205547099Y-54958133D01*
X205495322Y-55514174D01*
X201705078Y-55514174D01*
X201691220Y-55488264D01*
X201669984Y-55448534D01*
X201669947Y-55448489D01*
X201669917Y-55448433D01*
X201641412Y-55413718D01*
X201613001Y-55379099D01*
X201595554Y-55364781D01*
X201062247Y-54831758D01*
X201048001Y-54814399D01*
X201030548Y-54800076D01*
X201030512Y-54800040D01*
X201015515Y-54787739D01*
X200978566Y-54757416D01*
X200978511Y-54757387D01*
X200978464Y-54757348D01*
X200940157Y-54736886D01*
X200899348Y-54715073D01*
X200899286Y-54715054D01*
X200899235Y-54715027D01*
X200859608Y-54703018D01*
X200813392Y-54688998D01*
X200813325Y-54688991D01*
X200813271Y-54688975D01*
X200770253Y-54684749D01*
X200746399Y-54682400D01*
X200746336Y-54682400D01*
X200723879Y-54680194D01*
X200701544Y-54682400D01*
X199388611Y-54682400D01*
X199360642Y-54640541D01*
X199251859Y-54531758D01*
X199123942Y-54446287D01*
X198981809Y-54387413D01*
X198830922Y-54357400D01*
X198677078Y-54357400D01*
X198526191Y-54387413D01*
X198384058Y-54446287D01*
X198256141Y-54531758D01*
X198147358Y-54640541D01*
X198061887Y-54768458D01*
X198003013Y-54910591D01*
X197973000Y-55061478D01*
X197973000Y-55215322D01*
X198003013Y-55366209D01*
X198061887Y-55508342D01*
X198147358Y-55636259D01*
X198256141Y-55745042D01*
X198384058Y-55830513D01*
X198526191Y-55889387D01*
X198677078Y-55919400D01*
X198830922Y-55919400D01*
X198981809Y-55889387D01*
X199123942Y-55830513D01*
X199251859Y-55745042D01*
X199360642Y-55636259D01*
X199388611Y-55594400D01*
X199939098Y-55594400D01*
X199921887Y-55620158D01*
X199863013Y-55762291D01*
X199833000Y-55913178D01*
X199833000Y-56067022D01*
X199842828Y-56116432D01*
X198434943Y-57524447D01*
X196884268Y-55974183D01*
X196870001Y-55956799D01*
X196852570Y-55942494D01*
X196852557Y-55942481D01*
X196840816Y-55932848D01*
X196800566Y-55899816D01*
X196800539Y-55899801D01*
X196800515Y-55899782D01*
X196762931Y-55879700D01*
X196721348Y-55857473D01*
X196721316Y-55857463D01*
X196721291Y-55857450D01*
X196684152Y-55846189D01*
X196635392Y-55831398D01*
X196635355Y-55831394D01*
X196635331Y-55831387D01*
X196594510Y-55827372D01*
X196568399Y-55824800D01*
X196568367Y-55824800D01*
X196545940Y-55822594D01*
X196523575Y-55824800D01*
X174510402Y-55824800D01*
X174488014Y-55822594D01*
X174465610Y-55824800D01*
X174465601Y-55824800D01*
X174425969Y-55828703D01*
X174398622Y-55831396D01*
X174398619Y-55831397D01*
X174398608Y-55831398D01*
X174340154Y-55849130D01*
X174312665Y-55857468D01*
X174312660Y-55857470D01*
X174312652Y-55857473D01*
X174273622Y-55878335D01*
X174233446Y-55899808D01*
X174233440Y-55899813D01*
X174233434Y-55899816D01*
X174163999Y-55956799D01*
X174149721Y-55974197D01*
X169784843Y-60338804D01*
X169784843Y-58841500D01*
X169777487Y-58766811D01*
X169755701Y-58694992D01*
X169720322Y-58628804D01*
X169672711Y-58570789D01*
X169614696Y-58523178D01*
X169548508Y-58487799D01*
X169476689Y-58466013D01*
X169402000Y-58458657D01*
X167402000Y-58458657D01*
X167327311Y-58466013D01*
X167255492Y-58487799D01*
X167189304Y-58523178D01*
X167131289Y-58570789D01*
X167083678Y-58628804D01*
X167048299Y-58694992D01*
X167026513Y-58766811D01*
X167019157Y-58841500D01*
X167019157Y-63341500D01*
X167026513Y-63416189D01*
X167048299Y-63488008D01*
X167083678Y-63554196D01*
X167131289Y-63612211D01*
X167189304Y-63659822D01*
X167255492Y-63695201D01*
X167327311Y-63716987D01*
X167402000Y-63724343D01*
X169402000Y-63724343D01*
X169476689Y-63716987D01*
X169494323Y-63711638D01*
X166441405Y-66764615D01*
X166423999Y-66778899D01*
X166367017Y-66848334D01*
X166367013Y-66848339D01*
X166352068Y-66876300D01*
X166324673Y-66927553D01*
X166298598Y-67013509D01*
X166292000Y-67080501D01*
X166289794Y-67102904D01*
X161999770Y-67102904D01*
X161995788Y-57552275D01*
X162845830Y-57552275D01*
X163085976Y-57939518D01*
X163579877Y-58200141D01*
X164115133Y-58359401D01*
X164671174Y-58411178D01*
X165226632Y-58353481D01*
X165760161Y-58188528D01*
X166226024Y-57939518D01*
X166466170Y-57552275D01*
X164656000Y-55742105D01*
X162845830Y-57552275D01*
X161995788Y-57552275D01*
X161995372Y-56554751D01*
X162029972Y-56666661D01*
X162278982Y-57132524D01*
X162666225Y-57372670D01*
X164476395Y-55562500D01*
X164835605Y-55562500D01*
X166645775Y-57372670D01*
X167033018Y-57132524D01*
X167293641Y-56638623D01*
X167452901Y-56103367D01*
X167504678Y-55547326D01*
X167446981Y-54991868D01*
X167282028Y-54458339D01*
X167033018Y-53992476D01*
X166950012Y-53941000D01*
X180600000Y-53941000D01*
X180600000Y-54241000D01*
X180646585Y-54459987D01*
X180734997Y-54665678D01*
X180861839Y-54850169D01*
X181022236Y-55006369D01*
X181210024Y-55128276D01*
X181433126Y-55208119D01*
X181608000Y-55081954D01*
X181608000Y-53941000D01*
X181862000Y-53941000D01*
X181862000Y-55081954D01*
X182036874Y-55208119D01*
X182259976Y-55128276D01*
X182447764Y-55006369D01*
X182608161Y-54850169D01*
X182735003Y-54665678D01*
X182823415Y-54459987D01*
X182870000Y-54241000D01*
X182870000Y-53941000D01*
X189240000Y-53941000D01*
X189240000Y-54241000D01*
X189286585Y-54459987D01*
X189374997Y-54665678D01*
X189501839Y-54850169D01*
X189662236Y-55006369D01*
X189850024Y-55128276D01*
X190073126Y-55208119D01*
X190248000Y-55081954D01*
X190248000Y-53941000D01*
X190502000Y-53941000D01*
X190502000Y-55081954D01*
X190676874Y-55208119D01*
X190899976Y-55128276D01*
X191087764Y-55006369D01*
X191248161Y-54850169D01*
X191375003Y-54665678D01*
X191463415Y-54459987D01*
X191510000Y-54241000D01*
X191510000Y-53941000D01*
X190502000Y-53941000D01*
X190248000Y-53941000D01*
X189240000Y-53941000D01*
X182870000Y-53941000D01*
X181862000Y-53941000D01*
X181608000Y-53941000D01*
X180600000Y-53941000D01*
X166950012Y-53941000D01*
X166645775Y-53752330D01*
X164835605Y-55562500D01*
X164476395Y-55562500D01*
X162666225Y-53752330D01*
X162278982Y-53992476D01*
X162018359Y-54486377D01*
X161994544Y-54566418D01*
X161994508Y-54480276D01*
X162030576Y-54112424D01*
X162131665Y-53777600D01*
X162240599Y-53572725D01*
X162845830Y-53572725D01*
X164656000Y-55382895D01*
X166466170Y-53572725D01*
X166226024Y-53185482D01*
X165732123Y-52924859D01*
X165196867Y-52765599D01*
X164640826Y-52713822D01*
X164085368Y-52771519D01*
X163551839Y-52936472D01*
X163085976Y-53185482D01*
X162845830Y-53572725D01*
X162240599Y-53572725D01*
X162295860Y-53468795D01*
X162516914Y-53197755D01*
X162786397Y-52974820D01*
X163094051Y-52808473D01*
X163428158Y-52705049D01*
X163794932Y-52666500D01*
X180976161Y-52666500D01*
X180861839Y-52777831D01*
X180861839Y-52777831D01*
G37*
X180861839Y-52777831D02*
X180734997Y-52962322D01*
X180646585Y-53168013D01*
X180600000Y-53387000D01*
X180600000Y-53687000D01*
X181608000Y-53687000D01*
X181608000Y-53667000D01*
X181862000Y-53667000D01*
X181862000Y-53687000D01*
X182870000Y-53687000D01*
X182870000Y-53387000D01*
X182823415Y-53168013D01*
X182735003Y-52962322D01*
X182608161Y-52777831D01*
X182493839Y-52666500D01*
X189616161Y-52666500D01*
X189501839Y-52777831D01*
X189374997Y-52962322D01*
X189286585Y-53168013D01*
X189240000Y-53387000D01*
X189240000Y-53687000D01*
X190248000Y-53687000D01*
X190248000Y-53667000D01*
X190502000Y-53667000D01*
X190502000Y-53687000D01*
X191510000Y-53687000D01*
X191510000Y-53387000D01*
X191463415Y-53168013D01*
X191375003Y-52962322D01*
X191248161Y-52777831D01*
X191133839Y-52666500D01*
X208173078Y-52666500D01*
X207773368Y-52708019D01*
X207239839Y-52872972D01*
X206773976Y-53121982D01*
X206533830Y-53509225D01*
X208344000Y-55319395D01*
X210154170Y-53509225D01*
X209914024Y-53121982D01*
X209420123Y-52861359D01*
X208884867Y-52702099D01*
X208502564Y-52666500D01*
X209362146Y-52666500D01*
X209730076Y-52702576D01*
X210064900Y-52803665D01*
X210373705Y-52967860D01*
X210644745Y-53188914D01*
X210867680Y-53458397D01*
X211034027Y-53766051D01*
X211137451Y-54100158D01*
X211176000Y-54466932D01*
X211176000Y-55323264D01*
X211134981Y-54928368D01*
X210970028Y-54394839D01*
X210721018Y-53928976D01*
X210333775Y-53688830D01*
X208523605Y-55499000D01*
X210333775Y-57309170D01*
X210721018Y-57069024D01*
X210981641Y-56575123D01*
X211140901Y-56039867D01*
X211176000Y-55662933D01*
X211176001Y-98481775D01*
X211033028Y-98019339D01*
X210784018Y-97553476D01*
X210396775Y-97313330D01*
X208586605Y-99123500D01*
X210396775Y-100933670D01*
X210784018Y-100693524D01*
X211044641Y-100199623D01*
X211176001Y-99758136D01*
X211176001Y-100040636D01*
X211139924Y-100408577D01*
X211038835Y-100743400D01*
X210874639Y-101052208D01*
X210653588Y-101323242D01*
X210384106Y-101546178D01*
X210076451Y-101712527D01*
X209742342Y-101815951D01*
X209375595Y-101854497D01*
X209172014Y-101854383D01*
X209511161Y-101749528D01*
X209977024Y-101500518D01*
X210217170Y-101113275D01*
X208407000Y-99303105D01*
X206596830Y-101113275D01*
X206836976Y-101500518D01*
X207330877Y-101761141D01*
X207641376Y-101853527D01*
X163827468Y-101829011D01*
X163459423Y-101792924D01*
X163124600Y-101691835D01*
X162815792Y-101527639D01*
X162544758Y-101306588D01*
X162321822Y-101037106D01*
X162260004Y-100922775D01*
X162971830Y-100922775D01*
X163211976Y-101310018D01*
X163705877Y-101570641D01*
X164241133Y-101729901D01*
X164797174Y-101781678D01*
X165352632Y-101723981D01*
X165886161Y-101559028D01*
X166352024Y-101310018D01*
X166592170Y-100922775D01*
X164782000Y-99112605D01*
X162971830Y-100922775D01*
X162260004Y-100922775D01*
X162155473Y-100729451D01*
X162052049Y-100395342D01*
X162013497Y-100028540D01*
X162013308Y-99575725D01*
X162155972Y-100037161D01*
X162404982Y-100503024D01*
X162792225Y-100743170D01*
X164602395Y-98933000D01*
X164961605Y-98933000D01*
X166771775Y-100743170D01*
X167159018Y-100503024D01*
X167419641Y-100009123D01*
X167578901Y-99473867D01*
X167610113Y-99138674D01*
X205558322Y-99138674D01*
X205616019Y-99694132D01*
X205780972Y-100227661D01*
X206029982Y-100693524D01*
X206417225Y-100933670D01*
X208227395Y-99123500D01*
X206417225Y-97313330D01*
X206029982Y-97553476D01*
X205769359Y-98047377D01*
X205610099Y-98582633D01*
X205558322Y-99138674D01*
X167610113Y-99138674D01*
X167630678Y-98917826D01*
X167572981Y-98362368D01*
X167408028Y-97828839D01*
X167159018Y-97362976D01*
X166789344Y-97133725D01*
X206596830Y-97133725D01*
X208407000Y-98943895D01*
X210217170Y-97133725D01*
X209977024Y-96746482D01*
X209483123Y-96485859D01*
X208947867Y-96326599D01*
X208391826Y-96274822D01*
X207836368Y-96332519D01*
X207302839Y-96497472D01*
X206836976Y-96746482D01*
X206596830Y-97133725D01*
X166789344Y-97133725D01*
X166771775Y-97122830D01*
X164961605Y-98933000D01*
X164602395Y-98933000D01*
X162792225Y-97122830D01*
X162404982Y-97362976D01*
X162144359Y-97856877D01*
X162012776Y-98299113D01*
X162012211Y-96943225D01*
X162971830Y-96943225D01*
X164782000Y-98753395D01*
X166592170Y-96943225D01*
X166352024Y-96555982D01*
X165858123Y-96295359D01*
X165322867Y-96136099D01*
X164766826Y-96084322D01*
X164211368Y-96142019D01*
X163677839Y-96306972D01*
X163211976Y-96555982D01*
X162971830Y-96943225D01*
X162012211Y-96943225D01*
X162010677Y-93262634D01*
X171683000Y-93262634D01*
X171683000Y-93554366D01*
X171739914Y-93840492D01*
X171851555Y-94110017D01*
X172013632Y-94352583D01*
X172219917Y-94558868D01*
X172462483Y-94720945D01*
X172732008Y-94832586D01*
X173018134Y-94889500D01*
X173309866Y-94889500D01*
X173595992Y-94832586D01*
X173865517Y-94720945D01*
X174108083Y-94558868D01*
X174314368Y-94352583D01*
X174476445Y-94110017D01*
X174588086Y-93840492D01*
X174645000Y-93554366D01*
X174645000Y-93262634D01*
X174588086Y-92976508D01*
X174476445Y-92706983D01*
X174314368Y-92464417D01*
X174108083Y-92258132D01*
X173865517Y-92096055D01*
X173595992Y-91984414D01*
X173309866Y-91927500D01*
X173018134Y-91927500D01*
X172732008Y-91984414D01*
X172462483Y-92096055D01*
X172219917Y-92258132D01*
X172013632Y-92464417D01*
X171851555Y-92706983D01*
X171739914Y-92976508D01*
X171683000Y-93262634D01*
X162010677Y-93262634D01*
X162009618Y-90722634D01*
X178033000Y-90722634D01*
X178033000Y-91014366D01*
X178089914Y-91300492D01*
X178201555Y-91570017D01*
X178363632Y-91812583D01*
X178569917Y-92018868D01*
X178812483Y-92180945D01*
X179082008Y-92292586D01*
X179368134Y-92349500D01*
X179659866Y-92349500D01*
X179945992Y-92292586D01*
X180215517Y-92180945D01*
X180458083Y-92018868D01*
X180664368Y-91812583D01*
X180826445Y-91570017D01*
X180938086Y-91300492D01*
X180995000Y-91014366D01*
X180995000Y-90722634D01*
X180938086Y-90436508D01*
X180826445Y-90166983D01*
X180664368Y-89924417D01*
X180458083Y-89718132D01*
X180215517Y-89556055D01*
X179945992Y-89444414D01*
X179659866Y-89387500D01*
X179368134Y-89387500D01*
X179082008Y-89444414D01*
X178812483Y-89556055D01*
X178569917Y-89718132D01*
X178363632Y-89924417D01*
X178201555Y-90166983D01*
X178089914Y-90436508D01*
X178033000Y-90722634D01*
X162009618Y-90722634D01*
X162008522Y-88093992D01*
X173323000Y-88093992D01*
X173323000Y-88563008D01*
X173414500Y-89023012D01*
X173593985Y-89456327D01*
X173854556Y-89846299D01*
X174186201Y-90177944D01*
X174576173Y-90438515D01*
X175009488Y-90618000D01*
X175469492Y-90709500D01*
X175938508Y-90709500D01*
X176398512Y-90618000D01*
X176831827Y-90438515D01*
X177221799Y-90177944D01*
X177553444Y-89846299D01*
X177814015Y-89456327D01*
X177993500Y-89023012D01*
X178085000Y-88563008D01*
X178085000Y-88093992D01*
X177993500Y-87633988D01*
X177814015Y-87200673D01*
X177553444Y-86810701D01*
X177221799Y-86479056D01*
X176831827Y-86218485D01*
X176398512Y-86039000D01*
X175938508Y-85947500D01*
X175469492Y-85947500D01*
X175009488Y-86039000D01*
X174576173Y-86218485D01*
X174186201Y-86479056D01*
X173854556Y-86810701D01*
X173593985Y-87200673D01*
X173414500Y-87633988D01*
X173323000Y-88093992D01*
X162008522Y-88093992D01*
X161999770Y-67102904D01*
X166289794Y-67102904D01*
X166292000Y-67125297D01*
X166292001Y-74011894D01*
X166289794Y-74034300D01*
X166296609Y-74103484D01*
X166298599Y-74123692D01*
X166305215Y-74145500D01*
X166324673Y-74209647D01*
X166367016Y-74288865D01*
X166408571Y-74339500D01*
X166424000Y-74358301D01*
X166441398Y-74372579D01*
X168659717Y-76590898D01*
X168673999Y-76608301D01*
X168714107Y-76641216D01*
X168743434Y-76665285D01*
X168805013Y-76698199D01*
X168822652Y-76707627D01*
X168908608Y-76733702D01*
X168975601Y-76740300D01*
X168998000Y-76742506D01*
X169020399Y-76740300D01*
X173625583Y-76740300D01*
X173647961Y-76742506D01*
X173670377Y-76740300D01*
X173670399Y-76740300D01*
X173697886Y-76737593D01*
X173737352Y-76733709D01*
X173737367Y-76733704D01*
X173737392Y-76733702D01*
X173786883Y-76718689D01*
X173823311Y-76707642D01*
X173823327Y-76707633D01*
X173823348Y-76707627D01*
X173867297Y-76684136D01*
X173902532Y-76665306D01*
X173902545Y-76665295D01*
X173902566Y-76665284D01*
X173944488Y-76630880D01*
X173954573Y-76622605D01*
X173954581Y-76622597D01*
X173972001Y-76608301D01*
X173986272Y-76590911D01*
X174234898Y-76342328D01*
X174313538Y-76366183D01*
X174437000Y-76378343D01*
X175187000Y-76378343D01*
X175310462Y-76366183D01*
X175429179Y-76330171D01*
X175496368Y-76294258D01*
X171922399Y-79868320D01*
X171905000Y-79882599D01*
X171890718Y-79900002D01*
X171890717Y-79900003D01*
X171848012Y-79952040D01*
X171805671Y-80031258D01*
X171799292Y-80052289D01*
X171779599Y-80117208D01*
X171779598Y-80117213D01*
X171779598Y-80117215D01*
X171770794Y-80206605D01*
X171773001Y-80229008D01*
X171773000Y-81460304D01*
X171770794Y-81482404D01*
X171773000Y-81505102D01*
X171773000Y-81505398D01*
X171775189Y-81527623D01*
X171779483Y-81571805D01*
X171779568Y-81572087D01*
X171779598Y-81572391D01*
X171792665Y-81615466D01*
X171805445Y-81657796D01*
X171805586Y-81658061D01*
X171805673Y-81658347D01*
X171826507Y-81697324D01*
X171847684Y-81737069D01*
X171847877Y-81737304D01*
X171848016Y-81737565D01*
X171876366Y-81772111D01*
X171890322Y-81789161D01*
X171890528Y-81789368D01*
X171904999Y-81807001D01*
X171922174Y-81821096D01*
X172005525Y-81904664D01*
X172019999Y-81922301D01*
X172054910Y-81950951D01*
X172088939Y-81978953D01*
X172089203Y-81979095D01*
X172089434Y-81979284D01*
X172128953Y-82000407D01*
X172168102Y-82021398D01*
X172168385Y-82021484D01*
X172168652Y-82021627D01*
X172211656Y-82034672D01*
X172254023Y-82047585D01*
X172254320Y-82047615D01*
X172254608Y-82047702D01*
X172298947Y-82052069D01*
X172343403Y-82056506D01*
X172366101Y-82054300D01*
X176330500Y-82054300D01*
X176352794Y-82056506D01*
X176375296Y-82054300D01*
X176375399Y-82054300D01*
X176397947Y-82052079D01*
X176442188Y-82047742D01*
X176442285Y-82047712D01*
X176442392Y-82047702D01*
X176486309Y-82034380D01*
X176528156Y-82021706D01*
X176528246Y-82021658D01*
X176528348Y-82021627D01*
X176568716Y-82000050D01*
X176607393Y-81979399D01*
X176607472Y-81979334D01*
X176607566Y-81979284D01*
X176643742Y-81949595D01*
X176659449Y-81936717D01*
X176659514Y-81936652D01*
X176677001Y-81922301D01*
X176691221Y-81904974D01*
X177077029Y-81519514D01*
X177085678Y-81535696D01*
X177133289Y-81593711D01*
X177191304Y-81641322D01*
X177257492Y-81676701D01*
X177329311Y-81698487D01*
X177404000Y-81705843D01*
X178904000Y-81705843D01*
X178978689Y-81698487D01*
X179050508Y-81676701D01*
X179116696Y-81641322D01*
X179174711Y-81593711D01*
X179222322Y-81535696D01*
X179257701Y-81469508D01*
X179279487Y-81397689D01*
X179286843Y-81323000D01*
X179286843Y-80323000D01*
X179279487Y-80248311D01*
X179257701Y-80176492D01*
X179222322Y-80110304D01*
X179174711Y-80052289D01*
X179116696Y-80004678D01*
X179050508Y-79969299D01*
X178978689Y-79947513D01*
X178904000Y-79940157D01*
X177404000Y-79940157D01*
X177329311Y-79947513D01*
X177257492Y-79969299D01*
X177191304Y-80004678D01*
X177133289Y-80052289D01*
X177085678Y-80110304D01*
X177050299Y-80176492D01*
X177028513Y-80248311D01*
X177021157Y-80323000D01*
X177021157Y-80379195D01*
X176996302Y-80386735D01*
X176953843Y-80399594D01*
X176953752Y-80399643D01*
X176953652Y-80399673D01*
X176914200Y-80420760D01*
X176874606Y-80441901D01*
X176874525Y-80441967D01*
X176874434Y-80442016D01*
X176839363Y-80470798D01*
X176822550Y-80484583D01*
X176822480Y-80484653D01*
X176804999Y-80498999D01*
X176790783Y-80516321D01*
X176164240Y-81142300D01*
X174906364Y-81142300D01*
X179008646Y-77040300D01*
X180998866Y-77040300D01*
X181028811Y-77043104D01*
X181084313Y-77037368D01*
X181139896Y-77031893D01*
X181141247Y-77031483D01*
X181142651Y-77031338D01*
X181195962Y-77014886D01*
X181249415Y-76998671D01*
X181250661Y-76998005D01*
X181252009Y-76997589D01*
X181288421Y-76977900D01*
X186721507Y-76977900D01*
X186750091Y-76980711D01*
X186806187Y-76975177D01*
X186863896Y-76969493D01*
X186863941Y-76969479D01*
X186863985Y-76969475D01*
X186917200Y-76953323D01*
X186973415Y-76936271D01*
X186973456Y-76936249D01*
X186973499Y-76936236D01*
X187021506Y-76910566D01*
X187074348Y-76882321D01*
X187074386Y-76882290D01*
X187074423Y-76882270D01*
X187113203Y-76850434D01*
X187162817Y-76809717D01*
X187181048Y-76787503D01*
X187595540Y-76372881D01*
X187651000Y-76378343D01*
X188401000Y-76378343D01*
X188456872Y-76372840D01*
X188924011Y-76839874D01*
X188942183Y-76862017D01*
X188964377Y-76880231D01*
X188964400Y-76880254D01*
X188985069Y-76897212D01*
X189030652Y-76934621D01*
X189030684Y-76934638D01*
X189030707Y-76934657D01*
X189077612Y-76959722D01*
X189131585Y-76988571D01*
X189131618Y-76988581D01*
X189131646Y-76988596D01*
X189185490Y-77004923D01*
X189241104Y-77021793D01*
X189241137Y-77021796D01*
X189241169Y-77021806D01*
X189298538Y-77027450D01*
X189326460Y-77030200D01*
X189326493Y-77030200D01*
X189355066Y-77033011D01*
X189383572Y-77030200D01*
X191415327Y-77030200D01*
X193241001Y-78856043D01*
X193241000Y-80730960D01*
X193238189Y-80759500D01*
X193249407Y-80873396D01*
X193282629Y-80982915D01*
X193336579Y-81083848D01*
X193374254Y-81129755D01*
X193409183Y-81172317D01*
X193497652Y-81244921D01*
X193598585Y-81298871D01*
X193708104Y-81332093D01*
X193822000Y-81343311D01*
X193848489Y-81340702D01*
X193868299Y-81406008D01*
X193903678Y-81472196D01*
X193951289Y-81530211D01*
X194009304Y-81577822D01*
X194075492Y-81613201D01*
X194147311Y-81634987D01*
X194222000Y-81642343D01*
X195722000Y-81642343D01*
X195796689Y-81634987D01*
X195868508Y-81613201D01*
X195934696Y-81577822D01*
X195992711Y-81530211D01*
X196040322Y-81472196D01*
X196075701Y-81406008D01*
X196097487Y-81334189D01*
X196104843Y-81259500D01*
X196104843Y-80259500D01*
X196097487Y-80184811D01*
X196075701Y-80112992D01*
X196040322Y-80046804D01*
X195992711Y-79988789D01*
X195934696Y-79941178D01*
X195868508Y-79905799D01*
X195796689Y-79884013D01*
X195722000Y-79876657D01*
X194403000Y-79876657D01*
X194403000Y-78643951D01*
X194405811Y-78615426D01*
X194403000Y-78586873D01*
X194403000Y-78586860D01*
X194400067Y-78557084D01*
X194394598Y-78501530D01*
X194394594Y-78501518D01*
X194394593Y-78501504D01*
X194376516Y-78441911D01*
X194361381Y-78392010D01*
X194361375Y-78392000D01*
X194361371Y-78391985D01*
X194329007Y-78331436D01*
X194307435Y-78291074D01*
X194307429Y-78291066D01*
X194307421Y-78291052D01*
X194263244Y-78237222D01*
X194253027Y-78224771D01*
X194253022Y-78224766D01*
X194234817Y-78202583D01*
X194212655Y-78184395D01*
X192237000Y-76208559D01*
X192237000Y-75855590D01*
X192238317Y-75868962D01*
X192274329Y-75987679D01*
X192332810Y-76097089D01*
X192411512Y-76192988D01*
X192507411Y-76271690D01*
X192616821Y-76330171D01*
X192735538Y-76366183D01*
X192859000Y-76378343D01*
X193609000Y-76378343D01*
X193732462Y-76366183D01*
X193851179Y-76330171D01*
X193960589Y-76271690D01*
X194056488Y-76192988D01*
X194135190Y-76097089D01*
X194193671Y-75987679D01*
X194229683Y-75868962D01*
X194241843Y-75745500D01*
X194241843Y-75576500D01*
X198417601Y-75576500D01*
X198440000Y-75578706D01*
X198529392Y-75569902D01*
X198615348Y-75543827D01*
X198694566Y-75501484D01*
X198764001Y-75444501D01*
X198820984Y-75375066D01*
X198863327Y-75295848D01*
X198889402Y-75209892D01*
X198896000Y-75142899D01*
X198896000Y-75142898D01*
X198898206Y-75120500D01*
X198896000Y-75098101D01*
X198896000Y-73950609D01*
X198898206Y-73928123D01*
X198893856Y-73884136D01*
X198890759Y-73852687D01*
X199479000Y-74440972D01*
X199479001Y-76037459D01*
X199476794Y-76059829D01*
X199479001Y-76082271D01*
X199479001Y-76082299D01*
X199480458Y-76097089D01*
X199485585Y-76149220D01*
X199485595Y-76149254D01*
X199485599Y-76149292D01*
X199498755Y-76192660D01*
X199511646Y-76235181D01*
X199511664Y-76235214D01*
X199511674Y-76235248D01*
X199531153Y-76271690D01*
X199553976Y-76314406D01*
X199554002Y-76314437D01*
X199554017Y-76314466D01*
X199581671Y-76348163D01*
X199596674Y-76366449D01*
X199596695Y-76366470D01*
X199611000Y-76383901D01*
X199628376Y-76398161D01*
X200441000Y-77211039D01*
X200441001Y-79876657D01*
X199122000Y-79876657D01*
X199047311Y-79884013D01*
X198975492Y-79905799D01*
X198909304Y-79941178D01*
X198851289Y-79988789D01*
X198803678Y-80046804D01*
X198768299Y-80112992D01*
X198746513Y-80184811D01*
X198739157Y-80259500D01*
X198739157Y-80315695D01*
X198712136Y-80323892D01*
X198671722Y-80336144D01*
X198671688Y-80336162D01*
X198671652Y-80336173D01*
X198634141Y-80356223D01*
X198592497Y-80378473D01*
X198592464Y-80378500D01*
X198592434Y-80378516D01*
X198559640Y-80405429D01*
X198540453Y-80421170D01*
X198540425Y-80421198D01*
X198522999Y-80435499D01*
X198508747Y-80452866D01*
X196555164Y-82405800D01*
X175462377Y-82405800D01*
X175439960Y-82403594D01*
X175401840Y-82407352D01*
X175350608Y-82412398D01*
X175350582Y-82412406D01*
X175350570Y-82412407D01*
X175320824Y-82421433D01*
X175264652Y-82438473D01*
X175264631Y-82438484D01*
X175264615Y-82438489D01*
X175227851Y-82458144D01*
X175185434Y-82480816D01*
X175185419Y-82480829D01*
X175185401Y-82480838D01*
X175153325Y-82507167D01*
X175115999Y-82537799D01*
X175101705Y-82555216D01*
X174330831Y-83326223D01*
X174322322Y-83310304D01*
X174274711Y-83252289D01*
X174216696Y-83204678D01*
X174150508Y-83169299D01*
X174078689Y-83147513D01*
X174004000Y-83140157D01*
X172504000Y-83140157D01*
X172429311Y-83147513D01*
X172357492Y-83169299D01*
X172291304Y-83204678D01*
X172233289Y-83252289D01*
X172185678Y-83310304D01*
X172150299Y-83376492D01*
X172128513Y-83448311D01*
X172121157Y-83523000D01*
X172121157Y-84523000D01*
X172128513Y-84597689D01*
X172150299Y-84669508D01*
X172185678Y-84735696D01*
X172233289Y-84793711D01*
X172291304Y-84841322D01*
X172357492Y-84876701D01*
X172429311Y-84898487D01*
X172504000Y-84905843D01*
X174004000Y-84905843D01*
X174078689Y-84898487D01*
X174150508Y-84876701D01*
X174216696Y-84841322D01*
X174274711Y-84793711D01*
X174322322Y-84735696D01*
X174357701Y-84669508D01*
X174379487Y-84597689D01*
X174386843Y-84523000D01*
X176765928Y-84523000D01*
X176778188Y-84647482D01*
X176814498Y-84767180D01*
X176873463Y-84877494D01*
X176952815Y-84974185D01*
X177049506Y-85053537D01*
X177159820Y-85112502D01*
X177279518Y-85148812D01*
X177404000Y-85161072D01*
X177868250Y-85158000D01*
X178027000Y-84999250D01*
X178027000Y-84150000D01*
X178281000Y-84150000D01*
X178281000Y-84999250D01*
X178439750Y-85158000D01*
X178904000Y-85161072D01*
X179028482Y-85148812D01*
X179148180Y-85112502D01*
X179258494Y-85053537D01*
X179355185Y-84974185D01*
X179434537Y-84877494D01*
X179493502Y-84767180D01*
X179529812Y-84647482D01*
X179542072Y-84523000D01*
X179539000Y-84308750D01*
X179380250Y-84150000D01*
X178281000Y-84150000D01*
X178027000Y-84150000D01*
X176927750Y-84150000D01*
X176769000Y-84308750D01*
X176765928Y-84523000D01*
X174386843Y-84523000D01*
X174386843Y-84466806D01*
X174406374Y-84460880D01*
X174454348Y-84446327D01*
X174454366Y-84446318D01*
X174454384Y-84446312D01*
X174491160Y-84426651D01*
X174533566Y-84403984D01*
X174533583Y-84403970D01*
X174533598Y-84403962D01*
X174560494Y-84381885D01*
X174603001Y-84347001D01*
X174617299Y-84329579D01*
X175628905Y-83317800D01*
X176802674Y-83317800D01*
X176778188Y-83398518D01*
X176765928Y-83523000D01*
X176769000Y-83737250D01*
X176927750Y-83896000D01*
X178027000Y-83896000D01*
X178027000Y-83876000D01*
X178281000Y-83876000D01*
X178281000Y-83896000D01*
X179380250Y-83896000D01*
X179539000Y-83737250D01*
X179542072Y-83523000D01*
X179529812Y-83398518D01*
X179505326Y-83317800D01*
X193866841Y-83317800D01*
X193846513Y-83384811D01*
X193839157Y-83459500D01*
X193839157Y-84459500D01*
X193846513Y-84534189D01*
X193868299Y-84606008D01*
X193903678Y-84672196D01*
X193951289Y-84730211D01*
X194009304Y-84777822D01*
X194075492Y-84813201D01*
X194147311Y-84834987D01*
X194222000Y-84842343D01*
X195722000Y-84842343D01*
X195796689Y-84834987D01*
X195868508Y-84813201D01*
X195934696Y-84777822D01*
X195992711Y-84730211D01*
X196040322Y-84672196D01*
X196075701Y-84606008D01*
X196097487Y-84534189D01*
X196104843Y-84459500D01*
X196104843Y-83459500D01*
X196097487Y-83384811D01*
X196077159Y-83317800D01*
X196721567Y-83317800D01*
X196743924Y-83320006D01*
X196766358Y-83317800D01*
X196766399Y-83317800D01*
X196791808Y-83315298D01*
X196833316Y-83311216D01*
X196833348Y-83311206D01*
X196833392Y-83311202D01*
X196880442Y-83296929D01*
X196919277Y-83285156D01*
X196919309Y-83285139D01*
X196919348Y-83285127D01*
X196959245Y-83263802D01*
X196998502Y-83242827D01*
X196998533Y-83242802D01*
X196998566Y-83242784D01*
X197036734Y-83211461D01*
X197050545Y-83200130D01*
X197050564Y-83200111D01*
X197068001Y-83185801D01*
X197082262Y-83168423D01*
X198795103Y-81456154D01*
X198803678Y-81472196D01*
X198851289Y-81530211D01*
X198909304Y-81577822D01*
X198975492Y-81613201D01*
X199047311Y-81634987D01*
X199122000Y-81642343D01*
X200016318Y-81642343D01*
X199751805Y-81906829D01*
X199718608Y-81910098D01*
X199632652Y-81936173D01*
X199632647Y-81936176D01*
X199632643Y-81936177D01*
X199590796Y-81958545D01*
X199553434Y-81978516D01*
X199553431Y-81978518D01*
X199553426Y-81978521D01*
X199524145Y-82002552D01*
X199483999Y-82035499D01*
X199469715Y-82052904D01*
X194575401Y-86947418D01*
X194557999Y-86961699D01*
X194501016Y-87031135D01*
X194501015Y-87031137D01*
X194501010Y-87031143D01*
X194476680Y-87076664D01*
X194458673Y-87110353D01*
X194458671Y-87110359D01*
X194458670Y-87110361D01*
X194452937Y-87129262D01*
X194432598Y-87196309D01*
X194426000Y-87263302D01*
X194426000Y-87263308D01*
X194423794Y-87285709D01*
X194426000Y-87308100D01*
X194426001Y-91930858D01*
X194180483Y-92032555D01*
X193937917Y-92194632D01*
X193731632Y-92400917D01*
X193569555Y-92643483D01*
X193457914Y-92913008D01*
X193401000Y-93199134D01*
X193401000Y-93490866D01*
X193457914Y-93776992D01*
X193569555Y-94046517D01*
X193731632Y-94289083D01*
X193937917Y-94495368D01*
X194180483Y-94657445D01*
X194450008Y-94769086D01*
X194736134Y-94826000D01*
X195027866Y-94826000D01*
X195313992Y-94769086D01*
X195583517Y-94657445D01*
X195826083Y-94495368D01*
X196032368Y-94289083D01*
X196194445Y-94046517D01*
X196306086Y-93776992D01*
X196363000Y-93490866D01*
X196363000Y-93199134D01*
X196306086Y-92913008D01*
X196194445Y-92643483D01*
X196032368Y-92400917D01*
X195826083Y-92194632D01*
X195583517Y-92032555D01*
X195338000Y-91930858D01*
X195338000Y-90659134D01*
X199751000Y-90659134D01*
X199751000Y-90950866D01*
X199807914Y-91236992D01*
X199919555Y-91506517D01*
X200081632Y-91749083D01*
X200287917Y-91955368D01*
X200530483Y-92117445D01*
X200800008Y-92229086D01*
X201086134Y-92286000D01*
X201377866Y-92286000D01*
X201663992Y-92229086D01*
X201933517Y-92117445D01*
X202176083Y-91955368D01*
X202382368Y-91749083D01*
X202544445Y-91506517D01*
X202656086Y-91236992D01*
X202713000Y-90950866D01*
X202713000Y-90659134D01*
X202656086Y-90373008D01*
X202544445Y-90103483D01*
X202382368Y-89860917D01*
X202176083Y-89654632D01*
X201933517Y-89492555D01*
X201663992Y-89380914D01*
X201377866Y-89324000D01*
X201086134Y-89324000D01*
X200800008Y-89380914D01*
X200530483Y-89492555D01*
X200287917Y-89654632D01*
X200081632Y-89860917D01*
X199919555Y-90103483D01*
X199807914Y-90373008D01*
X199751000Y-90659134D01*
X195338000Y-90659134D01*
X195338000Y-89431761D01*
X195572556Y-89782799D01*
X195904201Y-90114444D01*
X196294173Y-90375015D01*
X196727488Y-90554500D01*
X197187492Y-90646000D01*
X197656508Y-90646000D01*
X198116512Y-90554500D01*
X198549827Y-90375015D01*
X198939799Y-90114444D01*
X199271444Y-89782799D01*
X199532015Y-89392827D01*
X199711500Y-88959512D01*
X199803000Y-88499508D01*
X199803000Y-88030492D01*
X199711500Y-87570488D01*
X199532015Y-87137173D01*
X199271444Y-86747201D01*
X198939799Y-86415556D01*
X198549827Y-86154985D01*
X198116512Y-85975500D01*
X197656508Y-85884000D01*
X197187492Y-85884000D01*
X196864209Y-85948305D01*
X198485833Y-84326615D01*
X198483928Y-84459500D01*
X198496188Y-84583982D01*
X198532498Y-84703680D01*
X198591463Y-84813994D01*
X198670815Y-84910685D01*
X198767506Y-84990037D01*
X198877820Y-85049002D01*
X198997518Y-85085312D01*
X199122000Y-85097572D01*
X199586250Y-85094500D01*
X199745000Y-84935750D01*
X199745000Y-84086500D01*
X199999000Y-84086500D01*
X199999000Y-84935750D01*
X200157750Y-85094500D01*
X200622000Y-85097572D01*
X200746482Y-85085312D01*
X200866180Y-85049002D01*
X200976494Y-84990037D01*
X201073185Y-84910685D01*
X201152537Y-84813994D01*
X201211502Y-84703680D01*
X201247812Y-84583982D01*
X201260072Y-84459500D01*
X201257000Y-84245250D01*
X201098250Y-84086500D01*
X199999000Y-84086500D01*
X199745000Y-84086500D01*
X199725000Y-84086500D01*
X199725000Y-83832500D01*
X199745000Y-83832500D01*
X199745000Y-83812500D01*
X199999000Y-83812500D01*
X199999000Y-83832500D01*
X201098250Y-83832500D01*
X201257000Y-83673750D01*
X201260072Y-83459500D01*
X201247812Y-83335018D01*
X201211502Y-83215320D01*
X201152537Y-83105006D01*
X201073185Y-83008315D01*
X200976494Y-82928963D01*
X200866180Y-82869998D01*
X200746482Y-82833688D01*
X200622000Y-82821428D01*
X200157750Y-82824500D01*
X199999002Y-82983248D01*
X199999002Y-82824500D01*
X199987887Y-82824500D01*
X200000218Y-82812169D01*
X200033367Y-82808906D01*
X200033375Y-82808904D01*
X200033392Y-82808902D01*
X200088312Y-82792242D01*
X200119325Y-82782836D01*
X200119334Y-82782831D01*
X200119348Y-82782827D01*
X200162319Y-82759858D01*
X200198545Y-82740498D01*
X200198555Y-82740490D01*
X200198566Y-82740484D01*
X200244275Y-82702972D01*
X200250584Y-82697795D01*
X200250586Y-82697793D01*
X200268001Y-82683501D01*
X200282277Y-82666105D01*
X201203590Y-81744890D01*
X201221001Y-81730601D01*
X201255736Y-81688276D01*
X201277971Y-81661186D01*
X201277977Y-81661174D01*
X201277984Y-81661166D01*
X201297267Y-81625090D01*
X201320318Y-81581970D01*
X201320322Y-81581958D01*
X201320327Y-81581948D01*
X201336022Y-81530211D01*
X201346397Y-81496015D01*
X201346398Y-81496005D01*
X201346402Y-81495992D01*
X201351151Y-81447778D01*
X201355206Y-81406624D01*
X201353000Y-81384215D01*
X201353000Y-77044634D01*
X201355206Y-77022271D01*
X201353000Y-76999839D01*
X201353000Y-76999801D01*
X201350017Y-76969510D01*
X201346415Y-76932879D01*
X201346406Y-76932850D01*
X201346402Y-76932808D01*
X201332075Y-76885579D01*
X201320354Y-76846918D01*
X201320338Y-76846888D01*
X201320327Y-76846852D01*
X201298734Y-76806454D01*
X201278024Y-76767694D01*
X201278001Y-76767666D01*
X201277984Y-76767634D01*
X201249401Y-76732805D01*
X201235327Y-76715650D01*
X201235302Y-76715625D01*
X201221001Y-76698199D01*
X201203631Y-76683944D01*
X200391000Y-75871061D01*
X200391000Y-74274505D01*
X200393206Y-74252117D01*
X200391000Y-74229711D01*
X200391000Y-74229701D01*
X200386252Y-74181489D01*
X200384405Y-74162725D01*
X200384403Y-74162719D01*
X200384402Y-74162708D01*
X200366436Y-74103484D01*
X200358333Y-74076768D01*
X200358330Y-74076763D01*
X200358327Y-74076752D01*
X200330615Y-74024906D01*
X200315994Y-73997548D01*
X200315987Y-73997539D01*
X200315984Y-73997534D01*
X200259001Y-73928099D01*
X200241606Y-73913824D01*
X200126225Y-73798435D01*
X200184942Y-73774113D01*
X200312859Y-73688642D01*
X200421642Y-73579859D01*
X200507113Y-73451942D01*
X200565987Y-73309809D01*
X200596000Y-73158922D01*
X200596000Y-73005078D01*
X200586179Y-72955702D01*
X200676599Y-72865282D01*
X200694001Y-72851001D01*
X200737581Y-72797898D01*
X200750985Y-72781566D01*
X200763868Y-72757462D01*
X201147575Y-73141925D01*
X201161999Y-73159501D01*
X201196812Y-73188071D01*
X201231060Y-73216234D01*
X201231260Y-73216341D01*
X201231434Y-73216484D01*
X201270941Y-73237601D01*
X201310236Y-73258654D01*
X201310451Y-73258719D01*
X201310652Y-73258827D01*
X201354152Y-73272023D01*
X201396167Y-73284813D01*
X201396387Y-73284835D01*
X201396608Y-73284902D01*
X201441444Y-73289318D01*
X201485549Y-73293706D01*
X201508173Y-73291500D01*
X201814389Y-73291500D01*
X201842358Y-73333359D01*
X201951141Y-73442142D01*
X202079058Y-73527613D01*
X202221191Y-73586487D01*
X202372078Y-73616500D01*
X202525922Y-73616500D01*
X202676809Y-73586487D01*
X202818942Y-73527613D01*
X202946859Y-73442142D01*
X203055642Y-73333359D01*
X203141113Y-73205442D01*
X203199987Y-73063309D01*
X203230000Y-72912422D01*
X203230000Y-72758578D01*
X203199987Y-72607691D01*
X203141113Y-72465558D01*
X203055642Y-72337641D01*
X202946859Y-72228858D01*
X202818942Y-72143387D01*
X202676809Y-72084513D01*
X202525922Y-72054500D01*
X202372078Y-72054500D01*
X202221191Y-72084513D01*
X202079058Y-72143387D01*
X201951141Y-72228858D01*
X201842358Y-72337641D01*
X201814389Y-72379500D01*
X201675144Y-72379500D01*
X201434000Y-72137882D01*
X201434000Y-72105281D01*
X201478250Y-72109000D01*
X201637000Y-71950250D01*
X201637000Y-70851000D01*
X201621843Y-70851000D01*
X201621843Y-70597000D01*
X201637000Y-70597000D01*
X201637000Y-69497750D01*
X201478250Y-69339000D01*
X201361369Y-69348823D01*
X201241855Y-69385735D01*
X201131839Y-69445254D01*
X201035549Y-69525092D01*
X200981885Y-69591157D01*
X200689000Y-69591157D01*
X200614311Y-69598513D01*
X200564000Y-69613775D01*
X200513689Y-69598513D01*
X200439000Y-69591157D01*
X199889000Y-69591157D01*
X199814311Y-69598513D01*
X199764000Y-69613775D01*
X199713689Y-69598513D01*
X199639000Y-69591157D01*
X199089000Y-69591157D01*
X199014311Y-69598513D01*
X198964000Y-69613775D01*
X198913689Y-69598513D01*
X198839000Y-69591157D01*
X198289000Y-69591157D01*
X198214311Y-69598513D01*
X198164000Y-69613775D01*
X198113689Y-69598513D01*
X198039000Y-69591157D01*
X197489000Y-69591157D01*
X197414311Y-69598513D01*
X197364000Y-69613775D01*
X197313689Y-69598513D01*
X197239000Y-69591157D01*
X196689000Y-69591157D01*
X196614311Y-69598513D01*
X196564000Y-69613775D01*
X196513689Y-69598513D01*
X196439000Y-69591157D01*
X196146115Y-69591157D01*
X196092451Y-69525092D01*
X195996161Y-69445254D01*
X195886145Y-69385735D01*
X195766631Y-69348823D01*
X195649750Y-69339000D01*
X195491000Y-69497750D01*
X195491000Y-70597000D01*
X195506157Y-70597000D01*
X195506157Y-70851000D01*
X195491000Y-70851000D01*
X195491000Y-71950250D01*
X195649750Y-72109000D01*
X195766631Y-72099177D01*
X195886145Y-72062265D01*
X195996161Y-72002746D01*
X196092451Y-71922908D01*
X196146115Y-71856843D01*
X196439000Y-71856843D01*
X196513689Y-71849487D01*
X196564000Y-71834225D01*
X196614311Y-71849487D01*
X196689000Y-71856843D01*
X197239000Y-71856843D01*
X197313689Y-71849487D01*
X197364000Y-71834225D01*
X197414311Y-71849487D01*
X197489000Y-71856843D01*
X198039000Y-71856843D01*
X198108001Y-71850047D01*
X198108001Y-72758600D01*
X197974078Y-72758600D01*
X197823191Y-72788613D01*
X197681058Y-72847487D01*
X197553141Y-72932958D01*
X197444358Y-73041741D01*
X197358887Y-73169658D01*
X197300013Y-73311791D01*
X197270000Y-73462678D01*
X197270000Y-73616522D01*
X197300013Y-73767409D01*
X197358887Y-73909542D01*
X197444358Y-74037459D01*
X197553141Y-74146242D01*
X197681058Y-74231713D01*
X197823191Y-74290587D01*
X197974078Y-74320600D01*
X197984000Y-74320600D01*
X197984001Y-74664500D01*
X194241843Y-74664500D01*
X194241843Y-74495500D01*
X194229683Y-74372038D01*
X194193671Y-74253321D01*
X194135190Y-74143911D01*
X194056488Y-74048012D01*
X193960589Y-73969310D01*
X193851179Y-73910829D01*
X193732462Y-73874817D01*
X193609000Y-73862657D01*
X193379846Y-73862657D01*
X194875280Y-72366706D01*
X194888348Y-72359721D01*
X194976817Y-72287117D01*
X195049421Y-72198648D01*
X195103371Y-72097715D01*
X195109396Y-72077854D01*
X195237000Y-71950250D01*
X195237000Y-70851000D01*
X195221843Y-70851000D01*
X195221843Y-70597000D01*
X195237000Y-70597000D01*
X195237000Y-69497750D01*
X195078250Y-69339000D01*
X194961369Y-69348823D01*
X194841855Y-69385735D01*
X194731839Y-69445254D01*
X194635549Y-69525092D01*
X194581885Y-69591157D01*
X194289000Y-69591157D01*
X194255804Y-69594426D01*
X194203501Y-69542144D01*
X194239177Y-69426631D01*
X194249000Y-69309750D01*
X194090250Y-69151000D01*
X193732666Y-69151000D01*
X193710256Y-69144207D01*
X193652896Y-69126807D01*
X193652838Y-69126801D01*
X193652784Y-69126785D01*
X193596252Y-69121228D01*
X193567540Y-69118400D01*
X193567483Y-69118400D01*
X193538887Y-69115589D01*
X193510406Y-69118400D01*
X190539258Y-69118400D01*
X189379200Y-67958343D01*
X189379200Y-66077457D01*
X191733533Y-63723125D01*
X191738513Y-63773689D01*
X191753775Y-63824000D01*
X191738513Y-63874311D01*
X191731157Y-63949000D01*
X191731157Y-64499000D01*
X191738513Y-64573689D01*
X191753775Y-64624000D01*
X191738513Y-64674311D01*
X191731157Y-64749000D01*
X191731157Y-65299000D01*
X191738513Y-65373689D01*
X191753775Y-65424000D01*
X191738513Y-65474311D01*
X191731157Y-65549000D01*
X191731157Y-66099000D01*
X191738513Y-66173689D01*
X191753775Y-66224000D01*
X191738513Y-66274311D01*
X191731157Y-66349000D01*
X191731157Y-66899000D01*
X191738513Y-66973689D01*
X191753775Y-67024000D01*
X191738513Y-67074311D01*
X191731157Y-67149000D01*
X191731157Y-67699000D01*
X191738513Y-67773689D01*
X191753775Y-67824000D01*
X191738513Y-67874311D01*
X191731157Y-67949000D01*
X191731157Y-68241885D01*
X191665092Y-68295549D01*
X191585254Y-68391839D01*
X191525735Y-68501855D01*
X191488823Y-68621369D01*
X191479000Y-68738250D01*
X191637750Y-68897000D01*
X192737000Y-68897000D01*
X192737000Y-68881843D01*
X192991000Y-68881843D01*
X192991000Y-68897000D01*
X194090250Y-68897000D01*
X194249000Y-68738250D01*
X194239177Y-68621369D01*
X194202265Y-68501855D01*
X194142746Y-68391839D01*
X194062908Y-68295549D01*
X193996843Y-68241885D01*
X193996843Y-67949000D01*
X193989487Y-67874311D01*
X193974225Y-67824000D01*
X193989487Y-67773689D01*
X193996843Y-67699000D01*
X193996843Y-67149000D01*
X193989487Y-67074311D01*
X193974225Y-67024000D01*
X193989487Y-66973689D01*
X193996843Y-66899000D01*
X193996843Y-66349000D01*
X193989487Y-66274311D01*
X193974225Y-66224000D01*
X193989487Y-66173689D01*
X193996843Y-66099000D01*
X193996843Y-65549000D01*
X193989487Y-65474311D01*
X193974225Y-65424000D01*
X193989487Y-65373689D01*
X193996843Y-65299000D01*
X193996843Y-64749000D01*
X193989487Y-64674311D01*
X193974225Y-64624000D01*
X193989487Y-64573689D01*
X193996843Y-64499000D01*
X193996843Y-63949000D01*
X193989829Y-63877779D01*
X194110058Y-63958113D01*
X194252191Y-64016987D01*
X194403078Y-64047000D01*
X194556922Y-64047000D01*
X194606187Y-64037201D01*
X195835697Y-65267073D01*
X195849999Y-65284501D01*
X195885813Y-65313892D01*
X195919378Y-65341447D01*
X195919409Y-65341464D01*
X195919434Y-65341484D01*
X195957353Y-65361752D01*
X195998589Y-65383801D01*
X195998622Y-65383811D01*
X195998652Y-65383827D01*
X196044453Y-65397721D01*
X196084542Y-65409888D01*
X196084571Y-65409891D01*
X196084608Y-65409902D01*
X196131866Y-65414556D01*
X196173932Y-65418706D01*
X196196361Y-65416500D01*
X199267638Y-65416500D01*
X199290067Y-65418706D01*
X199331512Y-65414618D01*
X199379392Y-65409902D01*
X199379429Y-65409891D01*
X199379457Y-65409888D01*
X199417526Y-65398334D01*
X199465348Y-65383827D01*
X199465379Y-65383810D01*
X199465410Y-65383801D01*
X199503774Y-65363288D01*
X199544566Y-65341484D01*
X199544593Y-65341462D01*
X199544621Y-65341447D01*
X199575111Y-65316417D01*
X199614001Y-65284501D01*
X199628308Y-65267068D01*
X201172921Y-63722000D01*
X201607340Y-63722000D01*
X200079360Y-65249981D01*
X200057183Y-65268181D01*
X199997026Y-65341484D01*
X199984579Y-65356651D01*
X199930629Y-65457584D01*
X199897407Y-65567103D01*
X199886189Y-65680998D01*
X199889000Y-65709538D01*
X199889001Y-66836917D01*
X199886189Y-66865431D01*
X199886192Y-66865466D01*
X199886189Y-66865500D01*
X199891961Y-66924099D01*
X199897394Y-66979327D01*
X199897403Y-66979357D01*
X199897407Y-66979396D01*
X199915924Y-67040439D01*
X199930603Y-67088850D01*
X199930618Y-67088877D01*
X199930629Y-67088915D01*
X199961615Y-67146885D01*
X199984541Y-67189789D01*
X199984560Y-67189812D01*
X199984579Y-67189848D01*
X200027242Y-67241834D01*
X200038944Y-67256096D01*
X200038960Y-67256112D01*
X200057183Y-67278317D01*
X200079334Y-67296496D01*
X201983000Y-69200618D01*
X201983000Y-69405750D01*
X201891000Y-69497750D01*
X201891000Y-70597000D01*
X201906157Y-70597000D01*
X201906157Y-70851000D01*
X201891000Y-70851000D01*
X201891000Y-71950250D01*
X202049750Y-72109000D01*
X202166631Y-72099177D01*
X202286145Y-72062265D01*
X202396161Y-72002746D01*
X202492451Y-71922908D01*
X202546115Y-71856843D01*
X202839000Y-71856843D01*
X202913689Y-71849487D01*
X202985508Y-71827701D01*
X203051696Y-71792322D01*
X203109711Y-71744711D01*
X203157322Y-71686696D01*
X203192701Y-71620508D01*
X203214487Y-71548689D01*
X203221843Y-71474000D01*
X203221843Y-69974000D01*
X203214487Y-69899311D01*
X203192701Y-69827492D01*
X203157322Y-69761304D01*
X203145000Y-69746289D01*
X203145000Y-69395074D01*
X203160299Y-69445508D01*
X203195678Y-69511696D01*
X203243289Y-69569711D01*
X203301304Y-69617322D01*
X203367492Y-69652701D01*
X203439311Y-69674487D01*
X203514000Y-69681843D01*
X205014000Y-69681843D01*
X205088689Y-69674487D01*
X205160508Y-69652701D01*
X205226696Y-69617322D01*
X205284711Y-69569711D01*
X205332322Y-69511696D01*
X205367701Y-69445508D01*
X205389487Y-69373689D01*
X205396843Y-69299000D01*
X205396843Y-68749000D01*
X205392363Y-68703516D01*
X205402191Y-68707587D01*
X205553078Y-68737600D01*
X205706922Y-68737600D01*
X205857809Y-68707587D01*
X205999942Y-68648713D01*
X206127859Y-68563242D01*
X206236642Y-68454459D01*
X206322113Y-68326542D01*
X206380987Y-68184409D01*
X206411000Y-68033522D01*
X206411000Y-67879678D01*
X206380987Y-67728791D01*
X206322113Y-67586658D01*
X206236642Y-67458741D01*
X206127859Y-67349958D01*
X206049574Y-67297650D01*
X206149859Y-67230642D01*
X206258642Y-67121859D01*
X206344113Y-66993942D01*
X206402987Y-66851809D01*
X206433000Y-66700922D01*
X206433000Y-66547078D01*
X206402987Y-66396191D01*
X206344113Y-66254058D01*
X206258642Y-66126141D01*
X206149859Y-66017358D01*
X206021942Y-65931887D01*
X205879809Y-65873013D01*
X205728922Y-65843000D01*
X205575078Y-65843000D01*
X205424191Y-65873013D01*
X205282058Y-65931887D01*
X205253453Y-65951000D01*
X204391000Y-65951000D01*
X204391000Y-65966157D01*
X204137000Y-65966157D01*
X204137000Y-65951000D01*
X203037750Y-65951000D01*
X202879000Y-66109750D01*
X202888823Y-66226631D01*
X202925735Y-66346145D01*
X202985254Y-66456161D01*
X203065092Y-66552451D01*
X203131157Y-66606115D01*
X203131157Y-66899000D01*
X203138513Y-66973689D01*
X203153775Y-67024000D01*
X203138513Y-67074311D01*
X203131157Y-67149000D01*
X203131157Y-67419354D01*
X202187053Y-66474904D01*
X202168817Y-66452683D01*
X202120315Y-66412878D01*
X202080437Y-66380139D01*
X202080391Y-66380115D01*
X202080348Y-66380079D01*
X202027758Y-66351969D01*
X201979513Y-66326170D01*
X201979464Y-66326155D01*
X201979415Y-66326129D01*
X201923715Y-66309233D01*
X201870001Y-66292928D01*
X201869948Y-66292923D01*
X201869896Y-66292907D01*
X201812731Y-66287277D01*
X201756107Y-66281689D01*
X201727513Y-66284500D01*
X201051000Y-66284500D01*
X201051000Y-65921655D01*
X202520611Y-64452044D01*
X202682875Y-64614508D01*
X202701183Y-64636817D01*
X202745485Y-64673174D01*
X202789353Y-64709221D01*
X202789512Y-64709306D01*
X202789652Y-64709421D01*
X202840261Y-64736472D01*
X202890253Y-64763233D01*
X202890424Y-64763285D01*
X202890585Y-64763371D01*
X202945904Y-64780152D01*
X202999751Y-64796522D01*
X202999928Y-64796540D01*
X203000104Y-64796593D01*
X203057311Y-64802228D01*
X203113640Y-64807811D01*
X203131157Y-64806096D01*
X203131157Y-65041885D01*
X203065092Y-65095549D01*
X202985254Y-65191839D01*
X202925735Y-65301855D01*
X202888823Y-65421369D01*
X202879000Y-65538250D01*
X203037750Y-65697000D01*
X204137000Y-65697000D01*
X204137000Y-65681843D01*
X204391000Y-65681843D01*
X204391000Y-65697000D01*
X205241760Y-65697000D01*
X205251058Y-65703213D01*
X205393191Y-65762087D01*
X205544078Y-65792100D01*
X205697922Y-65792100D01*
X205848809Y-65762087D01*
X205990942Y-65703213D01*
X206118859Y-65617742D01*
X206227642Y-65508959D01*
X206313113Y-65381042D01*
X206371987Y-65238909D01*
X206402000Y-65088022D01*
X206402000Y-64934178D01*
X206371987Y-64783291D01*
X206313113Y-64641158D01*
X206227642Y-64513241D01*
X206118859Y-64404458D01*
X205990942Y-64318987D01*
X205856331Y-64263229D01*
X206452703Y-63666700D01*
X207831499Y-63666700D01*
X207857141Y-63692342D01*
X207985058Y-63777813D01*
X208127191Y-63836687D01*
X208278078Y-63866700D01*
X208431922Y-63866700D01*
X208582809Y-63836687D01*
X208724942Y-63777813D01*
X208852859Y-63692342D01*
X208961642Y-63583559D01*
X209047113Y-63455642D01*
X209105987Y-63313509D01*
X209136000Y-63162622D01*
X209136000Y-63008778D01*
X209105987Y-62857891D01*
X209047113Y-62715758D01*
X208961642Y-62587841D01*
X208852859Y-62479058D01*
X208724942Y-62393587D01*
X208582809Y-62334713D01*
X208431922Y-62304700D01*
X208278078Y-62304700D01*
X208127191Y-62334713D01*
X207985058Y-62393587D01*
X207857141Y-62479058D01*
X207831499Y-62504700D01*
X206793000Y-62504700D01*
X206793000Y-61352659D01*
X206795811Y-61324137D01*
X206793000Y-61295579D01*
X206793000Y-61295560D01*
X206789529Y-61260315D01*
X206784600Y-61210240D01*
X206784595Y-61210223D01*
X206784593Y-61210204D01*
X206765301Y-61146605D01*
X206751385Y-61100719D01*
X206751376Y-61100703D01*
X206751371Y-61100685D01*
X206717377Y-61037086D01*
X206697441Y-60999783D01*
X206697431Y-60999771D01*
X206697421Y-60999752D01*
X206653991Y-60946832D01*
X206643034Y-60933479D01*
X206643026Y-60933471D01*
X206624817Y-60911283D01*
X206602657Y-60893097D01*
X203493027Y-57783072D01*
X203474817Y-57760883D01*
X203421002Y-57716718D01*
X203386378Y-57688300D01*
X203386365Y-57688293D01*
X203386348Y-57688279D01*
X203317613Y-57651539D01*
X203285448Y-57634344D01*
X203285437Y-57634341D01*
X203285415Y-57634329D01*
X203216366Y-57613383D01*
X203175932Y-57601115D01*
X203175918Y-57601114D01*
X203175896Y-57601107D01*
X203113283Y-57594940D01*
X203062037Y-57589889D01*
X203033479Y-57592700D01*
X200992540Y-57592700D01*
X200964000Y-57589889D01*
X200935460Y-57592700D01*
X200850104Y-57601107D01*
X200740585Y-57634329D01*
X200639652Y-57688279D01*
X200551183Y-57760883D01*
X200478579Y-57849352D01*
X200424629Y-57950285D01*
X200418604Y-57970146D01*
X200291002Y-58097748D01*
X200291002Y-58016516D01*
X200818688Y-57488775D01*
X206533830Y-57488775D01*
X206773976Y-57876018D01*
X207267877Y-58136641D01*
X207803133Y-58295901D01*
X208359174Y-58347678D01*
X208914632Y-58289981D01*
X209448161Y-58125028D01*
X209914024Y-57876018D01*
X210154170Y-57488775D01*
X208344000Y-55678605D01*
X206533830Y-57488775D01*
X200818688Y-57488775D01*
X201595611Y-56711772D01*
X201613001Y-56697501D01*
X201627288Y-56680092D01*
X201627295Y-56680085D01*
X201645346Y-56658088D01*
X201669984Y-56628066D01*
X201669989Y-56628058D01*
X201669998Y-56628046D01*
X201693087Y-56584843D01*
X201712327Y-56548848D01*
X201712331Y-56548836D01*
X201712336Y-56548826D01*
X201723465Y-56512132D01*
X201738402Y-56462892D01*
X201738404Y-56462876D01*
X201738406Y-56462868D01*
X201741979Y-56426577D01*
X201745000Y-56395899D01*
X201745000Y-56395885D01*
X201747206Y-56373476D01*
X201745000Y-56351090D01*
X201745000Y-55725436D01*
X201747206Y-55702978D01*
X201742846Y-55658827D01*
X201738402Y-55613708D01*
X201738384Y-55613648D01*
X201738378Y-55613589D01*
X201725810Y-55572198D01*
X201712327Y-55527752D01*
X201712297Y-55527696D01*
X201712280Y-55527640D01*
X201705078Y-55514174D01*
X205495322Y-55514174D01*
X205553019Y-56069632D01*
X205717972Y-56603161D01*
X205966982Y-57069024D01*
X206354225Y-57309170D01*
X208164395Y-55499000D01*
X206354225Y-53688830D01*
X205966982Y-53928976D01*
X205706359Y-54422877D01*
X205547099Y-54958133D01*
X205495322Y-55514174D01*
X201705078Y-55514174D01*
X201691220Y-55488264D01*
X201669984Y-55448534D01*
X201669947Y-55448489D01*
X201669917Y-55448433D01*
X201641412Y-55413718D01*
X201613001Y-55379099D01*
X201595554Y-55364781D01*
X201062247Y-54831758D01*
X201048001Y-54814399D01*
X201030548Y-54800076D01*
X201030512Y-54800040D01*
X201015515Y-54787739D01*
X200978566Y-54757416D01*
X200978511Y-54757387D01*
X200978464Y-54757348D01*
X200940157Y-54736886D01*
X200899348Y-54715073D01*
X200899286Y-54715054D01*
X200899235Y-54715027D01*
X200859608Y-54703018D01*
X200813392Y-54688998D01*
X200813325Y-54688991D01*
X200813271Y-54688975D01*
X200770253Y-54684749D01*
X200746399Y-54682400D01*
X200746336Y-54682400D01*
X200723879Y-54680194D01*
X200701544Y-54682400D01*
X199388611Y-54682400D01*
X199360642Y-54640541D01*
X199251859Y-54531758D01*
X199123942Y-54446287D01*
X198981809Y-54387413D01*
X198830922Y-54357400D01*
X198677078Y-54357400D01*
X198526191Y-54387413D01*
X198384058Y-54446287D01*
X198256141Y-54531758D01*
X198147358Y-54640541D01*
X198061887Y-54768458D01*
X198003013Y-54910591D01*
X197973000Y-55061478D01*
X197973000Y-55215322D01*
X198003013Y-55366209D01*
X198061887Y-55508342D01*
X198147358Y-55636259D01*
X198256141Y-55745042D01*
X198384058Y-55830513D01*
X198526191Y-55889387D01*
X198677078Y-55919400D01*
X198830922Y-55919400D01*
X198981809Y-55889387D01*
X199123942Y-55830513D01*
X199251859Y-55745042D01*
X199360642Y-55636259D01*
X199388611Y-55594400D01*
X199939098Y-55594400D01*
X199921887Y-55620158D01*
X199863013Y-55762291D01*
X199833000Y-55913178D01*
X199833000Y-56067022D01*
X199842828Y-56116432D01*
X198434943Y-57524447D01*
X196884268Y-55974183D01*
X196870001Y-55956799D01*
X196852570Y-55942494D01*
X196852557Y-55942481D01*
X196840816Y-55932848D01*
X196800566Y-55899816D01*
X196800539Y-55899801D01*
X196800515Y-55899782D01*
X196762931Y-55879700D01*
X196721348Y-55857473D01*
X196721316Y-55857463D01*
X196721291Y-55857450D01*
X196684152Y-55846189D01*
X196635392Y-55831398D01*
X196635355Y-55831394D01*
X196635331Y-55831387D01*
X196594510Y-55827372D01*
X196568399Y-55824800D01*
X196568367Y-55824800D01*
X196545940Y-55822594D01*
X196523575Y-55824800D01*
X174510402Y-55824800D01*
X174488014Y-55822594D01*
X174465610Y-55824800D01*
X174465601Y-55824800D01*
X174425969Y-55828703D01*
X174398622Y-55831396D01*
X174398619Y-55831397D01*
X174398608Y-55831398D01*
X174340154Y-55849130D01*
X174312665Y-55857468D01*
X174312660Y-55857470D01*
X174312652Y-55857473D01*
X174273622Y-55878335D01*
X174233446Y-55899808D01*
X174233440Y-55899813D01*
X174233434Y-55899816D01*
X174163999Y-55956799D01*
X174149721Y-55974197D01*
X169784843Y-60338804D01*
X169784843Y-58841500D01*
X169777487Y-58766811D01*
X169755701Y-58694992D01*
X169720322Y-58628804D01*
X169672711Y-58570789D01*
X169614696Y-58523178D01*
X169548508Y-58487799D01*
X169476689Y-58466013D01*
X169402000Y-58458657D01*
X167402000Y-58458657D01*
X167327311Y-58466013D01*
X167255492Y-58487799D01*
X167189304Y-58523178D01*
X167131289Y-58570789D01*
X167083678Y-58628804D01*
X167048299Y-58694992D01*
X167026513Y-58766811D01*
X167019157Y-58841500D01*
X167019157Y-63341500D01*
X167026513Y-63416189D01*
X167048299Y-63488008D01*
X167083678Y-63554196D01*
X167131289Y-63612211D01*
X167189304Y-63659822D01*
X167255492Y-63695201D01*
X167327311Y-63716987D01*
X167402000Y-63724343D01*
X169402000Y-63724343D01*
X169476689Y-63716987D01*
X169494323Y-63711638D01*
X166441405Y-66764615D01*
X166423999Y-66778899D01*
X166367017Y-66848334D01*
X166367013Y-66848339D01*
X166352068Y-66876300D01*
X166324673Y-66927553D01*
X166298598Y-67013509D01*
X166292000Y-67080501D01*
X166289794Y-67102904D01*
X161999770Y-67102904D01*
X161995788Y-57552275D01*
X162845830Y-57552275D01*
X163085976Y-57939518D01*
X163579877Y-58200141D01*
X164115133Y-58359401D01*
X164671174Y-58411178D01*
X165226632Y-58353481D01*
X165760161Y-58188528D01*
X166226024Y-57939518D01*
X166466170Y-57552275D01*
X164656000Y-55742105D01*
X162845830Y-57552275D01*
X161995788Y-57552275D01*
X161995372Y-56554751D01*
X162029972Y-56666661D01*
X162278982Y-57132524D01*
X162666225Y-57372670D01*
X164476395Y-55562500D01*
X164835605Y-55562500D01*
X166645775Y-57372670D01*
X167033018Y-57132524D01*
X167293641Y-56638623D01*
X167452901Y-56103367D01*
X167504678Y-55547326D01*
X167446981Y-54991868D01*
X167282028Y-54458339D01*
X167033018Y-53992476D01*
X166950012Y-53941000D01*
X180600000Y-53941000D01*
X180600000Y-54241000D01*
X180646585Y-54459987D01*
X180734997Y-54665678D01*
X180861839Y-54850169D01*
X181022236Y-55006369D01*
X181210024Y-55128276D01*
X181433126Y-55208119D01*
X181608000Y-55081954D01*
X181608000Y-53941000D01*
X181862000Y-53941000D01*
X181862000Y-55081954D01*
X182036874Y-55208119D01*
X182259976Y-55128276D01*
X182447764Y-55006369D01*
X182608161Y-54850169D01*
X182735003Y-54665678D01*
X182823415Y-54459987D01*
X182870000Y-54241000D01*
X182870000Y-53941000D01*
X189240000Y-53941000D01*
X189240000Y-54241000D01*
X189286585Y-54459987D01*
X189374997Y-54665678D01*
X189501839Y-54850169D01*
X189662236Y-55006369D01*
X189850024Y-55128276D01*
X190073126Y-55208119D01*
X190248000Y-55081954D01*
X190248000Y-53941000D01*
X190502000Y-53941000D01*
X190502000Y-55081954D01*
X190676874Y-55208119D01*
X190899976Y-55128276D01*
X191087764Y-55006369D01*
X191248161Y-54850169D01*
X191375003Y-54665678D01*
X191463415Y-54459987D01*
X191510000Y-54241000D01*
X191510000Y-53941000D01*
X190502000Y-53941000D01*
X190248000Y-53941000D01*
X189240000Y-53941000D01*
X182870000Y-53941000D01*
X181862000Y-53941000D01*
X181608000Y-53941000D01*
X180600000Y-53941000D01*
X166950012Y-53941000D01*
X166645775Y-53752330D01*
X164835605Y-55562500D01*
X164476395Y-55562500D01*
X162666225Y-53752330D01*
X162278982Y-53992476D01*
X162018359Y-54486377D01*
X161994544Y-54566418D01*
X161994508Y-54480276D01*
X162030576Y-54112424D01*
X162131665Y-53777600D01*
X162240599Y-53572725D01*
X162845830Y-53572725D01*
X164656000Y-55382895D01*
X166466170Y-53572725D01*
X166226024Y-53185482D01*
X165732123Y-52924859D01*
X165196867Y-52765599D01*
X164640826Y-52713822D01*
X164085368Y-52771519D01*
X163551839Y-52936472D01*
X163085976Y-53185482D01*
X162845830Y-53572725D01*
X162240599Y-53572725D01*
X162295860Y-53468795D01*
X162516914Y-53197755D01*
X162786397Y-52974820D01*
X163094051Y-52808473D01*
X163428158Y-52705049D01*
X163794932Y-52666500D01*
X180976161Y-52666500D01*
X180861839Y-52777831D01*
G36*
X191133001Y-62680341D02*
G01*
X188407560Y-65405783D01*
X188385383Y-65423983D01*
X188315646Y-65508959D01*
X188312779Y-65512453D01*
X188258829Y-65613386D01*
X188225607Y-65722905D01*
X188214389Y-65836800D01*
X188217200Y-65865340D01*
X188217201Y-67785657D01*
X187001288Y-66569708D01*
X186987001Y-66552299D01*
X186938210Y-66512257D01*
X186917571Y-66495319D01*
X186917567Y-66495317D01*
X186917566Y-66495316D01*
X186838348Y-66452973D01*
X186752392Y-66426898D01*
X186685399Y-66420300D01*
X186663006Y-66418094D01*
X186640605Y-66420300D01*
X179631741Y-66420300D01*
X179769641Y-66235420D01*
X179894825Y-65972599D01*
X179939476Y-65825390D01*
X179818155Y-65595500D01*
X178625000Y-65595500D01*
X178625000Y-65615500D01*
X178371000Y-65615500D01*
X178371000Y-65595500D01*
X178351000Y-65595500D01*
X178351000Y-65341500D01*
X178371000Y-65341500D01*
X178371000Y-65321500D01*
X178625000Y-65321500D01*
X178625000Y-65341500D01*
X179818155Y-65341500D01*
X179939476Y-65111610D01*
X179894825Y-64964401D01*
X179784141Y-64732022D01*
X180916117Y-65863998D01*
X180930399Y-65881401D01*
X180970630Y-65914418D01*
X180999834Y-65938385D01*
X181079052Y-65980727D01*
X181165008Y-66006802D01*
X181232001Y-66013400D01*
X181254400Y-66015606D01*
X181276799Y-66013400D01*
X186845604Y-66013400D01*
X186868000Y-66015606D01*
X186890396Y-66013400D01*
X186890399Y-66013400D01*
X186957392Y-66006802D01*
X187043348Y-65980727D01*
X187122566Y-65938384D01*
X187192001Y-65881401D01*
X187206283Y-65863998D01*
X188590279Y-64480002D01*
X188590283Y-64479997D01*
X191133000Y-61937214D01*
X191133001Y-62680341D01*
X191133001Y-62680341D01*
G37*
X191133001Y-62680341D02*
X188407560Y-65405783D01*
X188385383Y-65423983D01*
X188315646Y-65508959D01*
X188312779Y-65512453D01*
X188258829Y-65613386D01*
X188225607Y-65722905D01*
X188214389Y-65836800D01*
X188217200Y-65865340D01*
X188217201Y-67785657D01*
X187001288Y-66569708D01*
X186987001Y-66552299D01*
X186938210Y-66512257D01*
X186917571Y-66495319D01*
X186917567Y-66495317D01*
X186917566Y-66495316D01*
X186838348Y-66452973D01*
X186752392Y-66426898D01*
X186685399Y-66420300D01*
X186663006Y-66418094D01*
X186640605Y-66420300D01*
X179631741Y-66420300D01*
X179769641Y-66235420D01*
X179894825Y-65972599D01*
X179939476Y-65825390D01*
X179818155Y-65595500D01*
X178625000Y-65595500D01*
X178625000Y-65615500D01*
X178371000Y-65615500D01*
X178371000Y-65595500D01*
X178351000Y-65595500D01*
X178351000Y-65341500D01*
X178371000Y-65341500D01*
X178371000Y-65321500D01*
X178625000Y-65321500D01*
X178625000Y-65341500D01*
X179818155Y-65341500D01*
X179939476Y-65111610D01*
X179894825Y-64964401D01*
X179784141Y-64732022D01*
X180916117Y-65863998D01*
X180930399Y-65881401D01*
X180970630Y-65914418D01*
X180999834Y-65938385D01*
X181079052Y-65980727D01*
X181165008Y-66006802D01*
X181232001Y-66013400D01*
X181254400Y-66015606D01*
X181276799Y-66013400D01*
X186845604Y-66013400D01*
X186868000Y-66015606D01*
X186890396Y-66013400D01*
X186890399Y-66013400D01*
X186957392Y-66006802D01*
X187043348Y-65980727D01*
X187122566Y-65938384D01*
X187192001Y-65881401D01*
X187206283Y-65863998D01*
X188590279Y-64480002D01*
X188590283Y-64479997D01*
X191133000Y-61937214D01*
X191133001Y-62680341D01*
G36*
X198745887Y-62956442D02*
G01*
X198831358Y-63084359D01*
X198940141Y-63193142D01*
X199068058Y-63278613D01*
X199210191Y-63337487D01*
X199361078Y-63367500D01*
X199514922Y-63367500D01*
X199665809Y-63337487D01*
X199807942Y-63278613D01*
X199935859Y-63193142D01*
X200044642Y-63084359D01*
X200072611Y-63042500D01*
X200562648Y-63042500D01*
X199101080Y-64504500D01*
X196362921Y-64504500D01*
X195251157Y-63392408D01*
X195261000Y-63342922D01*
X195261000Y-63339901D01*
X195339104Y-63363593D01*
X195453000Y-63374811D01*
X195481540Y-63372000D01*
X198021533Y-63372000D01*
X198050145Y-63374811D01*
X198105666Y-63369328D01*
X198163896Y-63363593D01*
X198163969Y-63363571D01*
X198164038Y-63363564D01*
X198215883Y-63347823D01*
X198273415Y-63330371D01*
X198273483Y-63330335D01*
X198273548Y-63330315D01*
X198321215Y-63304821D01*
X198374348Y-63276421D01*
X198374407Y-63276373D01*
X198374468Y-63276340D01*
X198415648Y-63242527D01*
X198462817Y-63203817D01*
X198481063Y-63181584D01*
X198734227Y-62928294D01*
X198745887Y-62956442D01*
X198745887Y-62956442D01*
G37*
X198745887Y-62956442D02*
X198831358Y-63084359D01*
X198940141Y-63193142D01*
X199068058Y-63278613D01*
X199210191Y-63337487D01*
X199361078Y-63367500D01*
X199514922Y-63367500D01*
X199665809Y-63337487D01*
X199807942Y-63278613D01*
X199935859Y-63193142D01*
X200044642Y-63084359D01*
X200072611Y-63042500D01*
X200562648Y-63042500D01*
X199101080Y-64504500D01*
X196362921Y-64504500D01*
X195251157Y-63392408D01*
X195261000Y-63342922D01*
X195261000Y-63339901D01*
X195339104Y-63363593D01*
X195453000Y-63374811D01*
X195481540Y-63372000D01*
X198021533Y-63372000D01*
X198050145Y-63374811D01*
X198105666Y-63369328D01*
X198163896Y-63363593D01*
X198163969Y-63363571D01*
X198164038Y-63363564D01*
X198215883Y-63347823D01*
X198273415Y-63330371D01*
X198273483Y-63330335D01*
X198273548Y-63330315D01*
X198321215Y-63304821D01*
X198374348Y-63276421D01*
X198374407Y-63276373D01*
X198374468Y-63276340D01*
X198415648Y-63242527D01*
X198462817Y-63203817D01*
X198481063Y-63181584D01*
X198734227Y-62928294D01*
X198745887Y-62956442D01*
G36*
X200036998Y-60579016D02*
G01*
X199786430Y-60829425D01*
X199764183Y-60847683D01*
X199726279Y-60893871D01*
X199691683Y-60935999D01*
X199691641Y-60936077D01*
X199691579Y-60936153D01*
X199664217Y-60987343D01*
X199637700Y-61036914D01*
X199637672Y-61037005D01*
X199637629Y-61037086D01*
X199621127Y-61091486D01*
X199604444Y-61146423D01*
X199604435Y-61146512D01*
X199604407Y-61146605D01*
X199598703Y-61204519D01*
X199598606Y-61205500D01*
X199082466Y-61205500D01*
X199053854Y-61202689D01*
X198997950Y-61208210D01*
X198940104Y-61213907D01*
X198940031Y-61213929D01*
X198939961Y-61213936D01*
X198886999Y-61230016D01*
X198830585Y-61247129D01*
X198830519Y-61247164D01*
X198830451Y-61247185D01*
X198781095Y-61273582D01*
X198729652Y-61301079D01*
X198729595Y-61301126D01*
X198729531Y-61301160D01*
X198686730Y-61336304D01*
X198641183Y-61373683D01*
X198622941Y-61395911D01*
X197809258Y-62210000D01*
X195693658Y-62210000D01*
X194917017Y-61433360D01*
X194898817Y-61411183D01*
X194810348Y-61338579D01*
X194709415Y-61284629D01*
X194599896Y-61251407D01*
X194514540Y-61243000D01*
X194486000Y-61240189D01*
X194457460Y-61243000D01*
X194182250Y-61243000D01*
X194090250Y-61151000D01*
X192991000Y-61151000D01*
X192991000Y-61166157D01*
X192737000Y-61166157D01*
X192737000Y-61151000D01*
X192717000Y-61151000D01*
X192717000Y-60897000D01*
X192737000Y-60897000D01*
X192737000Y-60877000D01*
X192991000Y-60877000D01*
X192991000Y-60897000D01*
X194090250Y-60897000D01*
X194181950Y-60805300D01*
X199341601Y-60805300D01*
X199364000Y-60807506D01*
X199386399Y-60805300D01*
X199453392Y-60798702D01*
X199539348Y-60772627D01*
X199618566Y-60730284D01*
X199685154Y-60675638D01*
X199761369Y-60699177D01*
X199878250Y-60709000D01*
X200036998Y-60550252D01*
X200036998Y-60579016D01*
X200036998Y-60579016D01*
G37*
X200036998Y-60579016D02*
X199786430Y-60829425D01*
X199764183Y-60847683D01*
X199726279Y-60893871D01*
X199691683Y-60935999D01*
X199691641Y-60936077D01*
X199691579Y-60936153D01*
X199664217Y-60987343D01*
X199637700Y-61036914D01*
X199637672Y-61037005D01*
X199637629Y-61037086D01*
X199621127Y-61091486D01*
X199604444Y-61146423D01*
X199604435Y-61146512D01*
X199604407Y-61146605D01*
X199598703Y-61204519D01*
X199598606Y-61205500D01*
X199082466Y-61205500D01*
X199053854Y-61202689D01*
X198997950Y-61208210D01*
X198940104Y-61213907D01*
X198940031Y-61213929D01*
X198939961Y-61213936D01*
X198886999Y-61230016D01*
X198830585Y-61247129D01*
X198830519Y-61247164D01*
X198830451Y-61247185D01*
X198781095Y-61273582D01*
X198729652Y-61301079D01*
X198729595Y-61301126D01*
X198729531Y-61301160D01*
X198686730Y-61336304D01*
X198641183Y-61373683D01*
X198622941Y-61395911D01*
X197809258Y-62210000D01*
X195693658Y-62210000D01*
X194917017Y-61433360D01*
X194898817Y-61411183D01*
X194810348Y-61338579D01*
X194709415Y-61284629D01*
X194599896Y-61251407D01*
X194514540Y-61243000D01*
X194486000Y-61240189D01*
X194457460Y-61243000D01*
X194182250Y-61243000D01*
X194090250Y-61151000D01*
X192991000Y-61151000D01*
X192991000Y-61166157D01*
X192737000Y-61166157D01*
X192737000Y-61151000D01*
X192717000Y-61151000D01*
X192717000Y-60897000D01*
X192737000Y-60897000D01*
X192737000Y-60877000D01*
X192991000Y-60877000D01*
X192991000Y-60897000D01*
X194090250Y-60897000D01*
X194181950Y-60805300D01*
X199341601Y-60805300D01*
X199364000Y-60807506D01*
X199386399Y-60805300D01*
X199453392Y-60798702D01*
X199539348Y-60772627D01*
X199618566Y-60730284D01*
X199685154Y-60675638D01*
X199761369Y-60699177D01*
X199878250Y-60709000D01*
X200036998Y-60550252D01*
X200036998Y-60579016D01*
G36*
X200291000Y-59197000D02*
G01*
X200306157Y-59197000D01*
X200306157Y-59451000D01*
X200291000Y-59451000D01*
X200291000Y-59471000D01*
X200037000Y-59471000D01*
X200037000Y-59451000D01*
X200021843Y-59451000D01*
X200021843Y-59197000D01*
X200037000Y-59197000D01*
X200037000Y-59177000D01*
X200291000Y-59177000D01*
X200291000Y-59197000D01*
X200291000Y-59197000D01*
G37*
X200291000Y-59197000D02*
X200306157Y-59197000D01*
X200306157Y-59451000D01*
X200291000Y-59451000D01*
X200291000Y-59471000D01*
X200037000Y-59471000D01*
X200037000Y-59451000D01*
X200021843Y-59451000D01*
X200021843Y-59197000D01*
X200037000Y-59197000D01*
X200037000Y-59177000D01*
X200291000Y-59177000D01*
X200291000Y-59197000D01*
G36*
X182922157Y-59056000D02*
G01*
X182752058Y-59056000D01*
X182823415Y-58889987D01*
X182850642Y-58762000D01*
X182922157Y-58762000D01*
X182922157Y-59056000D01*
X182922157Y-59056000D01*
G37*
X182922157Y-59056000D02*
X182752058Y-59056000D01*
X182823415Y-58889987D01*
X182850642Y-58762000D01*
X182922157Y-58762000D01*
X182922157Y-59056000D01*
G36*
X189286585Y-58889987D02*
G01*
X189357942Y-59056000D01*
X189187843Y-59056000D01*
X189187843Y-58762000D01*
X189259358Y-58762000D01*
X189286585Y-58889987D01*
X189286585Y-58889987D01*
G37*
X189286585Y-58889987D02*
X189357942Y-59056000D01*
X189187843Y-59056000D01*
X189187843Y-58762000D01*
X189259358Y-58762000D01*
X189286585Y-58889987D01*
G36*
X181862000Y-57867000D02*
G01*
X181882000Y-57867000D01*
X181882000Y-58050248D01*
X181879188Y-58059518D01*
X181873133Y-58121000D01*
X181862000Y-58121000D01*
X181862000Y-58141000D01*
X181608000Y-58141000D01*
X181608000Y-58121000D01*
X181588000Y-58121000D01*
X181588000Y-57867000D01*
X181608000Y-57867000D01*
X181608000Y-57847000D01*
X181862000Y-57847000D01*
X181862000Y-57867000D01*
X181862000Y-57867000D01*
G37*
X181862000Y-57867000D02*
X181882000Y-57867000D01*
X181882000Y-58050248D01*
X181879188Y-58059518D01*
X181873133Y-58121000D01*
X181862000Y-58121000D01*
X181862000Y-58141000D01*
X181608000Y-58141000D01*
X181608000Y-58121000D01*
X181588000Y-58121000D01*
X181588000Y-57867000D01*
X181608000Y-57867000D01*
X181608000Y-57847000D01*
X181862000Y-57847000D01*
X181862000Y-57867000D01*
G36*
X190502000Y-57867000D02*
G01*
X190522000Y-57867000D01*
X190522000Y-58121000D01*
X190502000Y-58121000D01*
X190502000Y-58141000D01*
X190248000Y-58141000D01*
X190248000Y-58121000D01*
X190236867Y-58121000D01*
X190230812Y-58059518D01*
X190228000Y-58050248D01*
X190228000Y-57867000D01*
X190248000Y-57867000D01*
X190248000Y-57847000D01*
X190502000Y-57847000D01*
X190502000Y-57867000D01*
X190502000Y-57867000D01*
G37*
X190502000Y-57867000D02*
X190522000Y-57867000D01*
X190522000Y-58121000D01*
X190502000Y-58121000D01*
X190502000Y-58141000D01*
X190248000Y-58141000D01*
X190248000Y-58121000D01*
X190236867Y-58121000D01*
X190230812Y-58059518D01*
X190228000Y-58050248D01*
X190228000Y-57867000D01*
X190248000Y-57867000D01*
X190248000Y-57847000D01*
X190502000Y-57847000D01*
X190502000Y-57867000D01*
M02*
