G04 #@! TF.GenerationSoftware,KiCad,Pcbnew,(5.1.4)-1*
G04 #@! TF.CreationDate,2023-02-23T21:20:58+01:00*
G04 #@! TF.ProjectId,pcb,7063622e-6b69-4636-9164-5f7063625858,1.0*
G04 #@! TF.SameCoordinates,Original*
G04 #@! TF.FileFunction,Copper,L2,Bot*
G04 #@! TF.FilePolarity,Positive*
%FSLAX46Y46*%
G04 Gerber Fmt 4.6, Leading zero omitted, Abs format (unit mm)*
G04 Created by KiCad (PCBNEW (5.1.4)-1) date 2023-02-23 21:20:58*
%MOMM*%
%LPD*%
G04 APERTURE LIST*
%ADD10C,0.700000*%
%ADD11C,4.400000*%
%ADD12R,1.700000X1.700000*%
%ADD13O,1.700000X1.700000*%
%ADD14C,0.100000*%
%ADD15C,1.250000*%
%ADD16O,1.000000X1.600000*%
%ADD17O,1.000000X2.100000*%
%ADD18R,1.200000X0.900000*%
%ADD19C,2.200000*%
%ADD20C,0.800000*%
%ADD21C,0.400000*%
%ADD22C,0.150000*%
%ADD23C,0.254000*%
G04 APERTURE END LIST*
D10*
X209510726Y-54332274D03*
X208344000Y-53849000D03*
X207177274Y-54332274D03*
X206694000Y-55499000D03*
X207177274Y-56665726D03*
X208344000Y-57149000D03*
X209510726Y-56665726D03*
X209994000Y-55499000D03*
D11*
X208344000Y-55499000D03*
D12*
X175958000Y-62928500D03*
D13*
X178498000Y-62928500D03*
X175958000Y-65468500D03*
X178498000Y-65468500D03*
X175958000Y-68008500D03*
X178498000Y-68008500D03*
D14*
G36*
X203087504Y-55957704D02*
G01*
X203111773Y-55961304D01*
X203135571Y-55967265D01*
X203158671Y-55975530D01*
X203180849Y-55986020D01*
X203201893Y-55998633D01*
X203221598Y-56013247D01*
X203239777Y-56029723D01*
X203256253Y-56047902D01*
X203270867Y-56067607D01*
X203283480Y-56088651D01*
X203293970Y-56110829D01*
X203302235Y-56133929D01*
X203308196Y-56157727D01*
X203311796Y-56181996D01*
X203313000Y-56206500D01*
X203313000Y-56956500D01*
X203311796Y-56981004D01*
X203308196Y-57005273D01*
X203302235Y-57029071D01*
X203293970Y-57052171D01*
X203283480Y-57074349D01*
X203270867Y-57095393D01*
X203256253Y-57115098D01*
X203239777Y-57133277D01*
X203221598Y-57149753D01*
X203201893Y-57164367D01*
X203180849Y-57176980D01*
X203158671Y-57187470D01*
X203135571Y-57195735D01*
X203111773Y-57201696D01*
X203087504Y-57205296D01*
X203063000Y-57206500D01*
X201813000Y-57206500D01*
X201788496Y-57205296D01*
X201764227Y-57201696D01*
X201740429Y-57195735D01*
X201717329Y-57187470D01*
X201695151Y-57176980D01*
X201674107Y-57164367D01*
X201654402Y-57149753D01*
X201636223Y-57133277D01*
X201619747Y-57115098D01*
X201605133Y-57095393D01*
X201592520Y-57074349D01*
X201582030Y-57052171D01*
X201573765Y-57029071D01*
X201567804Y-57005273D01*
X201564204Y-56981004D01*
X201563000Y-56956500D01*
X201563000Y-56206500D01*
X201564204Y-56181996D01*
X201567804Y-56157727D01*
X201573765Y-56133929D01*
X201582030Y-56110829D01*
X201592520Y-56088651D01*
X201605133Y-56067607D01*
X201619747Y-56047902D01*
X201636223Y-56029723D01*
X201654402Y-56013247D01*
X201674107Y-55998633D01*
X201695151Y-55986020D01*
X201717329Y-55975530D01*
X201740429Y-55967265D01*
X201764227Y-55961304D01*
X201788496Y-55957704D01*
X201813000Y-55956500D01*
X203063000Y-55956500D01*
X203087504Y-55957704D01*
X203087504Y-55957704D01*
G37*
D15*
X202438000Y-56581500D03*
D14*
G36*
X203087504Y-53157704D02*
G01*
X203111773Y-53161304D01*
X203135571Y-53167265D01*
X203158671Y-53175530D01*
X203180849Y-53186020D01*
X203201893Y-53198633D01*
X203221598Y-53213247D01*
X203239777Y-53229723D01*
X203256253Y-53247902D01*
X203270867Y-53267607D01*
X203283480Y-53288651D01*
X203293970Y-53310829D01*
X203302235Y-53333929D01*
X203308196Y-53357727D01*
X203311796Y-53381996D01*
X203313000Y-53406500D01*
X203313000Y-54156500D01*
X203311796Y-54181004D01*
X203308196Y-54205273D01*
X203302235Y-54229071D01*
X203293970Y-54252171D01*
X203283480Y-54274349D01*
X203270867Y-54295393D01*
X203256253Y-54315098D01*
X203239777Y-54333277D01*
X203221598Y-54349753D01*
X203201893Y-54364367D01*
X203180849Y-54376980D01*
X203158671Y-54387470D01*
X203135571Y-54395735D01*
X203111773Y-54401696D01*
X203087504Y-54405296D01*
X203063000Y-54406500D01*
X201813000Y-54406500D01*
X201788496Y-54405296D01*
X201764227Y-54401696D01*
X201740429Y-54395735D01*
X201717329Y-54387470D01*
X201695151Y-54376980D01*
X201674107Y-54364367D01*
X201654402Y-54349753D01*
X201636223Y-54333277D01*
X201619747Y-54315098D01*
X201605133Y-54295393D01*
X201592520Y-54274349D01*
X201582030Y-54252171D01*
X201573765Y-54229071D01*
X201567804Y-54205273D01*
X201564204Y-54181004D01*
X201563000Y-54156500D01*
X201563000Y-53406500D01*
X201564204Y-53381996D01*
X201567804Y-53357727D01*
X201573765Y-53333929D01*
X201582030Y-53310829D01*
X201592520Y-53288651D01*
X201605133Y-53267607D01*
X201619747Y-53247902D01*
X201636223Y-53229723D01*
X201654402Y-53213247D01*
X201674107Y-53198633D01*
X201695151Y-53186020D01*
X201717329Y-53175530D01*
X201740429Y-53167265D01*
X201764227Y-53161304D01*
X201788496Y-53157704D01*
X201813000Y-53156500D01*
X203063000Y-53156500D01*
X203087504Y-53157704D01*
X203087504Y-53157704D01*
G37*
D15*
X202438000Y-53781500D03*
D14*
G36*
X210207504Y-66181704D02*
G01*
X210231773Y-66185304D01*
X210255571Y-66191265D01*
X210278671Y-66199530D01*
X210300849Y-66210020D01*
X210321893Y-66222633D01*
X210341598Y-66237247D01*
X210359777Y-66253723D01*
X210376253Y-66271902D01*
X210390867Y-66291607D01*
X210403480Y-66312651D01*
X210413970Y-66334829D01*
X210422235Y-66357929D01*
X210428196Y-66381727D01*
X210431796Y-66405996D01*
X210433000Y-66430500D01*
X210433000Y-67680500D01*
X210431796Y-67705004D01*
X210428196Y-67729273D01*
X210422235Y-67753071D01*
X210413970Y-67776171D01*
X210403480Y-67798349D01*
X210390867Y-67819393D01*
X210376253Y-67839098D01*
X210359777Y-67857277D01*
X210341598Y-67873753D01*
X210321893Y-67888367D01*
X210300849Y-67900980D01*
X210278671Y-67911470D01*
X210255571Y-67919735D01*
X210231773Y-67925696D01*
X210207504Y-67929296D01*
X210183000Y-67930500D01*
X209433000Y-67930500D01*
X209408496Y-67929296D01*
X209384227Y-67925696D01*
X209360429Y-67919735D01*
X209337329Y-67911470D01*
X209315151Y-67900980D01*
X209294107Y-67888367D01*
X209274402Y-67873753D01*
X209256223Y-67857277D01*
X209239747Y-67839098D01*
X209225133Y-67819393D01*
X209212520Y-67798349D01*
X209202030Y-67776171D01*
X209193765Y-67753071D01*
X209187804Y-67729273D01*
X209184204Y-67705004D01*
X209183000Y-67680500D01*
X209183000Y-66430500D01*
X209184204Y-66405996D01*
X209187804Y-66381727D01*
X209193765Y-66357929D01*
X209202030Y-66334829D01*
X209212520Y-66312651D01*
X209225133Y-66291607D01*
X209239747Y-66271902D01*
X209256223Y-66253723D01*
X209274402Y-66237247D01*
X209294107Y-66222633D01*
X209315151Y-66210020D01*
X209337329Y-66199530D01*
X209360429Y-66191265D01*
X209384227Y-66185304D01*
X209408496Y-66181704D01*
X209433000Y-66180500D01*
X210183000Y-66180500D01*
X210207504Y-66181704D01*
X210207504Y-66181704D01*
G37*
D15*
X209808000Y-67055500D03*
D14*
G36*
X207407504Y-66181704D02*
G01*
X207431773Y-66185304D01*
X207455571Y-66191265D01*
X207478671Y-66199530D01*
X207500849Y-66210020D01*
X207521893Y-66222633D01*
X207541598Y-66237247D01*
X207559777Y-66253723D01*
X207576253Y-66271902D01*
X207590867Y-66291607D01*
X207603480Y-66312651D01*
X207613970Y-66334829D01*
X207622235Y-66357929D01*
X207628196Y-66381727D01*
X207631796Y-66405996D01*
X207633000Y-66430500D01*
X207633000Y-67680500D01*
X207631796Y-67705004D01*
X207628196Y-67729273D01*
X207622235Y-67753071D01*
X207613970Y-67776171D01*
X207603480Y-67798349D01*
X207590867Y-67819393D01*
X207576253Y-67839098D01*
X207559777Y-67857277D01*
X207541598Y-67873753D01*
X207521893Y-67888367D01*
X207500849Y-67900980D01*
X207478671Y-67911470D01*
X207455571Y-67919735D01*
X207431773Y-67925696D01*
X207407504Y-67929296D01*
X207383000Y-67930500D01*
X206633000Y-67930500D01*
X206608496Y-67929296D01*
X206584227Y-67925696D01*
X206560429Y-67919735D01*
X206537329Y-67911470D01*
X206515151Y-67900980D01*
X206494107Y-67888367D01*
X206474402Y-67873753D01*
X206456223Y-67857277D01*
X206439747Y-67839098D01*
X206425133Y-67819393D01*
X206412520Y-67798349D01*
X206402030Y-67776171D01*
X206393765Y-67753071D01*
X206387804Y-67729273D01*
X206384204Y-67705004D01*
X206383000Y-67680500D01*
X206383000Y-66430500D01*
X206384204Y-66405996D01*
X206387804Y-66381727D01*
X206393765Y-66357929D01*
X206402030Y-66334829D01*
X206412520Y-66312651D01*
X206425133Y-66291607D01*
X206439747Y-66271902D01*
X206456223Y-66253723D01*
X206474402Y-66237247D01*
X206494107Y-66222633D01*
X206515151Y-66210020D01*
X206537329Y-66199530D01*
X206560429Y-66191265D01*
X206584227Y-66185304D01*
X206608496Y-66181704D01*
X206633000Y-66180500D01*
X207383000Y-66180500D01*
X207407504Y-66181704D01*
X207407504Y-66181704D01*
G37*
D15*
X207008000Y-67055500D03*
D14*
G36*
X195657504Y-53284704D02*
G01*
X195681773Y-53288304D01*
X195705571Y-53294265D01*
X195728671Y-53302530D01*
X195750849Y-53313020D01*
X195771893Y-53325633D01*
X195791598Y-53340247D01*
X195809777Y-53356723D01*
X195826253Y-53374902D01*
X195840867Y-53394607D01*
X195853480Y-53415651D01*
X195863970Y-53437829D01*
X195872235Y-53460929D01*
X195878196Y-53484727D01*
X195881796Y-53508996D01*
X195883000Y-53533500D01*
X195883000Y-54283500D01*
X195881796Y-54308004D01*
X195878196Y-54332273D01*
X195872235Y-54356071D01*
X195863970Y-54379171D01*
X195853480Y-54401349D01*
X195840867Y-54422393D01*
X195826253Y-54442098D01*
X195809777Y-54460277D01*
X195791598Y-54476753D01*
X195771893Y-54491367D01*
X195750849Y-54503980D01*
X195728671Y-54514470D01*
X195705571Y-54522735D01*
X195681773Y-54528696D01*
X195657504Y-54532296D01*
X195633000Y-54533500D01*
X194383000Y-54533500D01*
X194358496Y-54532296D01*
X194334227Y-54528696D01*
X194310429Y-54522735D01*
X194287329Y-54514470D01*
X194265151Y-54503980D01*
X194244107Y-54491367D01*
X194224402Y-54476753D01*
X194206223Y-54460277D01*
X194189747Y-54442098D01*
X194175133Y-54422393D01*
X194162520Y-54401349D01*
X194152030Y-54379171D01*
X194143765Y-54356071D01*
X194137804Y-54332273D01*
X194134204Y-54308004D01*
X194133000Y-54283500D01*
X194133000Y-53533500D01*
X194134204Y-53508996D01*
X194137804Y-53484727D01*
X194143765Y-53460929D01*
X194152030Y-53437829D01*
X194162520Y-53415651D01*
X194175133Y-53394607D01*
X194189747Y-53374902D01*
X194206223Y-53356723D01*
X194224402Y-53340247D01*
X194244107Y-53325633D01*
X194265151Y-53313020D01*
X194287329Y-53302530D01*
X194310429Y-53294265D01*
X194334227Y-53288304D01*
X194358496Y-53284704D01*
X194383000Y-53283500D01*
X195633000Y-53283500D01*
X195657504Y-53284704D01*
X195657504Y-53284704D01*
G37*
D15*
X195008000Y-53908500D03*
D14*
G36*
X195657504Y-56084704D02*
G01*
X195681773Y-56088304D01*
X195705571Y-56094265D01*
X195728671Y-56102530D01*
X195750849Y-56113020D01*
X195771893Y-56125633D01*
X195791598Y-56140247D01*
X195809777Y-56156723D01*
X195826253Y-56174902D01*
X195840867Y-56194607D01*
X195853480Y-56215651D01*
X195863970Y-56237829D01*
X195872235Y-56260929D01*
X195878196Y-56284727D01*
X195881796Y-56308996D01*
X195883000Y-56333500D01*
X195883000Y-57083500D01*
X195881796Y-57108004D01*
X195878196Y-57132273D01*
X195872235Y-57156071D01*
X195863970Y-57179171D01*
X195853480Y-57201349D01*
X195840867Y-57222393D01*
X195826253Y-57242098D01*
X195809777Y-57260277D01*
X195791598Y-57276753D01*
X195771893Y-57291367D01*
X195750849Y-57303980D01*
X195728671Y-57314470D01*
X195705571Y-57322735D01*
X195681773Y-57328696D01*
X195657504Y-57332296D01*
X195633000Y-57333500D01*
X194383000Y-57333500D01*
X194358496Y-57332296D01*
X194334227Y-57328696D01*
X194310429Y-57322735D01*
X194287329Y-57314470D01*
X194265151Y-57303980D01*
X194244107Y-57291367D01*
X194224402Y-57276753D01*
X194206223Y-57260277D01*
X194189747Y-57242098D01*
X194175133Y-57222393D01*
X194162520Y-57201349D01*
X194152030Y-57179171D01*
X194143765Y-57156071D01*
X194137804Y-57132273D01*
X194134204Y-57108004D01*
X194133000Y-57083500D01*
X194133000Y-56333500D01*
X194134204Y-56308996D01*
X194137804Y-56284727D01*
X194143765Y-56260929D01*
X194152030Y-56237829D01*
X194162520Y-56215651D01*
X194175133Y-56194607D01*
X194189747Y-56174902D01*
X194206223Y-56156723D01*
X194224402Y-56140247D01*
X194244107Y-56125633D01*
X194265151Y-56113020D01*
X194287329Y-56102530D01*
X194310429Y-56094265D01*
X194334227Y-56088304D01*
X194358496Y-56084704D01*
X194383000Y-56083500D01*
X195633000Y-56083500D01*
X195657504Y-56084704D01*
X195657504Y-56084704D01*
G37*
D15*
X195008000Y-56708500D03*
D14*
G36*
X207407504Y-69928704D02*
G01*
X207431773Y-69932304D01*
X207455571Y-69938265D01*
X207478671Y-69946530D01*
X207500849Y-69957020D01*
X207521893Y-69969633D01*
X207541598Y-69984247D01*
X207559777Y-70000723D01*
X207576253Y-70018902D01*
X207590867Y-70038607D01*
X207603480Y-70059651D01*
X207613970Y-70081829D01*
X207622235Y-70104929D01*
X207628196Y-70128727D01*
X207631796Y-70152996D01*
X207633000Y-70177500D01*
X207633000Y-71427500D01*
X207631796Y-71452004D01*
X207628196Y-71476273D01*
X207622235Y-71500071D01*
X207613970Y-71523171D01*
X207603480Y-71545349D01*
X207590867Y-71566393D01*
X207576253Y-71586098D01*
X207559777Y-71604277D01*
X207541598Y-71620753D01*
X207521893Y-71635367D01*
X207500849Y-71647980D01*
X207478671Y-71658470D01*
X207455571Y-71666735D01*
X207431773Y-71672696D01*
X207407504Y-71676296D01*
X207383000Y-71677500D01*
X206633000Y-71677500D01*
X206608496Y-71676296D01*
X206584227Y-71672696D01*
X206560429Y-71666735D01*
X206537329Y-71658470D01*
X206515151Y-71647980D01*
X206494107Y-71635367D01*
X206474402Y-71620753D01*
X206456223Y-71604277D01*
X206439747Y-71586098D01*
X206425133Y-71566393D01*
X206412520Y-71545349D01*
X206402030Y-71523171D01*
X206393765Y-71500071D01*
X206387804Y-71476273D01*
X206384204Y-71452004D01*
X206383000Y-71427500D01*
X206383000Y-70177500D01*
X206384204Y-70152996D01*
X206387804Y-70128727D01*
X206393765Y-70104929D01*
X206402030Y-70081829D01*
X206412520Y-70059651D01*
X206425133Y-70038607D01*
X206439747Y-70018902D01*
X206456223Y-70000723D01*
X206474402Y-69984247D01*
X206494107Y-69969633D01*
X206515151Y-69957020D01*
X206537329Y-69946530D01*
X206560429Y-69938265D01*
X206584227Y-69932304D01*
X206608496Y-69928704D01*
X206633000Y-69927500D01*
X207383000Y-69927500D01*
X207407504Y-69928704D01*
X207407504Y-69928704D01*
G37*
D15*
X207008000Y-70802500D03*
D14*
G36*
X210207504Y-69928704D02*
G01*
X210231773Y-69932304D01*
X210255571Y-69938265D01*
X210278671Y-69946530D01*
X210300849Y-69957020D01*
X210321893Y-69969633D01*
X210341598Y-69984247D01*
X210359777Y-70000723D01*
X210376253Y-70018902D01*
X210390867Y-70038607D01*
X210403480Y-70059651D01*
X210413970Y-70081829D01*
X210422235Y-70104929D01*
X210428196Y-70128727D01*
X210431796Y-70152996D01*
X210433000Y-70177500D01*
X210433000Y-71427500D01*
X210431796Y-71452004D01*
X210428196Y-71476273D01*
X210422235Y-71500071D01*
X210413970Y-71523171D01*
X210403480Y-71545349D01*
X210390867Y-71566393D01*
X210376253Y-71586098D01*
X210359777Y-71604277D01*
X210341598Y-71620753D01*
X210321893Y-71635367D01*
X210300849Y-71647980D01*
X210278671Y-71658470D01*
X210255571Y-71666735D01*
X210231773Y-71672696D01*
X210207504Y-71676296D01*
X210183000Y-71677500D01*
X209433000Y-71677500D01*
X209408496Y-71676296D01*
X209384227Y-71672696D01*
X209360429Y-71666735D01*
X209337329Y-71658470D01*
X209315151Y-71647980D01*
X209294107Y-71635367D01*
X209274402Y-71620753D01*
X209256223Y-71604277D01*
X209239747Y-71586098D01*
X209225133Y-71566393D01*
X209212520Y-71545349D01*
X209202030Y-71523171D01*
X209193765Y-71500071D01*
X209187804Y-71476273D01*
X209184204Y-71452004D01*
X209183000Y-71427500D01*
X209183000Y-70177500D01*
X209184204Y-70152996D01*
X209187804Y-70128727D01*
X209193765Y-70104929D01*
X209202030Y-70081829D01*
X209212520Y-70059651D01*
X209225133Y-70038607D01*
X209239747Y-70018902D01*
X209256223Y-70000723D01*
X209274402Y-69984247D01*
X209294107Y-69969633D01*
X209315151Y-69957020D01*
X209337329Y-69946530D01*
X209360429Y-69938265D01*
X209384227Y-69932304D01*
X209408496Y-69928704D01*
X209433000Y-69927500D01*
X210183000Y-69927500D01*
X210207504Y-69928704D01*
X210207504Y-69928704D01*
G37*
D15*
X209808000Y-70802500D03*
D16*
X181735000Y-53814000D03*
X190375000Y-53814000D03*
D17*
X190375000Y-57994000D03*
X181735000Y-57994000D03*
D14*
G36*
X175789504Y-54498204D02*
G01*
X175813773Y-54501804D01*
X175837571Y-54507765D01*
X175860671Y-54516030D01*
X175882849Y-54526520D01*
X175903893Y-54539133D01*
X175923598Y-54553747D01*
X175941777Y-54570223D01*
X175958253Y-54588402D01*
X175972867Y-54608107D01*
X175985480Y-54629151D01*
X175995970Y-54651329D01*
X176004235Y-54674429D01*
X176010196Y-54698227D01*
X176013796Y-54722496D01*
X176015000Y-54747000D01*
X176015000Y-55997000D01*
X176013796Y-56021504D01*
X176010196Y-56045773D01*
X176004235Y-56069571D01*
X175995970Y-56092671D01*
X175985480Y-56114849D01*
X175972867Y-56135893D01*
X175958253Y-56155598D01*
X175941777Y-56173777D01*
X175923598Y-56190253D01*
X175903893Y-56204867D01*
X175882849Y-56217480D01*
X175860671Y-56227970D01*
X175837571Y-56236235D01*
X175813773Y-56242196D01*
X175789504Y-56245796D01*
X175765000Y-56247000D01*
X175015000Y-56247000D01*
X174990496Y-56245796D01*
X174966227Y-56242196D01*
X174942429Y-56236235D01*
X174919329Y-56227970D01*
X174897151Y-56217480D01*
X174876107Y-56204867D01*
X174856402Y-56190253D01*
X174838223Y-56173777D01*
X174821747Y-56155598D01*
X174807133Y-56135893D01*
X174794520Y-56114849D01*
X174784030Y-56092671D01*
X174775765Y-56069571D01*
X174769804Y-56045773D01*
X174766204Y-56021504D01*
X174765000Y-55997000D01*
X174765000Y-54747000D01*
X174766204Y-54722496D01*
X174769804Y-54698227D01*
X174775765Y-54674429D01*
X174784030Y-54651329D01*
X174794520Y-54629151D01*
X174807133Y-54608107D01*
X174821747Y-54588402D01*
X174838223Y-54570223D01*
X174856402Y-54553747D01*
X174876107Y-54539133D01*
X174897151Y-54526520D01*
X174919329Y-54516030D01*
X174942429Y-54507765D01*
X174966227Y-54501804D01*
X174990496Y-54498204D01*
X175015000Y-54497000D01*
X175765000Y-54497000D01*
X175789504Y-54498204D01*
X175789504Y-54498204D01*
G37*
D15*
X175390000Y-55372000D03*
D14*
G36*
X172989504Y-54498204D02*
G01*
X173013773Y-54501804D01*
X173037571Y-54507765D01*
X173060671Y-54516030D01*
X173082849Y-54526520D01*
X173103893Y-54539133D01*
X173123598Y-54553747D01*
X173141777Y-54570223D01*
X173158253Y-54588402D01*
X173172867Y-54608107D01*
X173185480Y-54629151D01*
X173195970Y-54651329D01*
X173204235Y-54674429D01*
X173210196Y-54698227D01*
X173213796Y-54722496D01*
X173215000Y-54747000D01*
X173215000Y-55997000D01*
X173213796Y-56021504D01*
X173210196Y-56045773D01*
X173204235Y-56069571D01*
X173195970Y-56092671D01*
X173185480Y-56114849D01*
X173172867Y-56135893D01*
X173158253Y-56155598D01*
X173141777Y-56173777D01*
X173123598Y-56190253D01*
X173103893Y-56204867D01*
X173082849Y-56217480D01*
X173060671Y-56227970D01*
X173037571Y-56236235D01*
X173013773Y-56242196D01*
X172989504Y-56245796D01*
X172965000Y-56247000D01*
X172215000Y-56247000D01*
X172190496Y-56245796D01*
X172166227Y-56242196D01*
X172142429Y-56236235D01*
X172119329Y-56227970D01*
X172097151Y-56217480D01*
X172076107Y-56204867D01*
X172056402Y-56190253D01*
X172038223Y-56173777D01*
X172021747Y-56155598D01*
X172007133Y-56135893D01*
X171994520Y-56114849D01*
X171984030Y-56092671D01*
X171975765Y-56069571D01*
X171969804Y-56045773D01*
X171966204Y-56021504D01*
X171965000Y-55997000D01*
X171965000Y-54747000D01*
X171966204Y-54722496D01*
X171969804Y-54698227D01*
X171975765Y-54674429D01*
X171984030Y-54651329D01*
X171994520Y-54629151D01*
X172007133Y-54608107D01*
X172021747Y-54588402D01*
X172038223Y-54570223D01*
X172056402Y-54553747D01*
X172076107Y-54539133D01*
X172097151Y-54526520D01*
X172119329Y-54516030D01*
X172142429Y-54507765D01*
X172166227Y-54501804D01*
X172190496Y-54498204D01*
X172215000Y-54497000D01*
X172965000Y-54497000D01*
X172989504Y-54498204D01*
X172989504Y-54498204D01*
G37*
D15*
X172590000Y-55372000D03*
D18*
X183896000Y-91377500D03*
X183896000Y-94677500D03*
D14*
G36*
X207407504Y-73547704D02*
G01*
X207431773Y-73551304D01*
X207455571Y-73557265D01*
X207478671Y-73565530D01*
X207500849Y-73576020D01*
X207521893Y-73588633D01*
X207541598Y-73603247D01*
X207559777Y-73619723D01*
X207576253Y-73637902D01*
X207590867Y-73657607D01*
X207603480Y-73678651D01*
X207613970Y-73700829D01*
X207622235Y-73723929D01*
X207628196Y-73747727D01*
X207631796Y-73771996D01*
X207633000Y-73796500D01*
X207633000Y-75046500D01*
X207631796Y-75071004D01*
X207628196Y-75095273D01*
X207622235Y-75119071D01*
X207613970Y-75142171D01*
X207603480Y-75164349D01*
X207590867Y-75185393D01*
X207576253Y-75205098D01*
X207559777Y-75223277D01*
X207541598Y-75239753D01*
X207521893Y-75254367D01*
X207500849Y-75266980D01*
X207478671Y-75277470D01*
X207455571Y-75285735D01*
X207431773Y-75291696D01*
X207407504Y-75295296D01*
X207383000Y-75296500D01*
X206633000Y-75296500D01*
X206608496Y-75295296D01*
X206584227Y-75291696D01*
X206560429Y-75285735D01*
X206537329Y-75277470D01*
X206515151Y-75266980D01*
X206494107Y-75254367D01*
X206474402Y-75239753D01*
X206456223Y-75223277D01*
X206439747Y-75205098D01*
X206425133Y-75185393D01*
X206412520Y-75164349D01*
X206402030Y-75142171D01*
X206393765Y-75119071D01*
X206387804Y-75095273D01*
X206384204Y-75071004D01*
X206383000Y-75046500D01*
X206383000Y-73796500D01*
X206384204Y-73771996D01*
X206387804Y-73747727D01*
X206393765Y-73723929D01*
X206402030Y-73700829D01*
X206412520Y-73678651D01*
X206425133Y-73657607D01*
X206439747Y-73637902D01*
X206456223Y-73619723D01*
X206474402Y-73603247D01*
X206494107Y-73588633D01*
X206515151Y-73576020D01*
X206537329Y-73565530D01*
X206560429Y-73557265D01*
X206584227Y-73551304D01*
X206608496Y-73547704D01*
X206633000Y-73546500D01*
X207383000Y-73546500D01*
X207407504Y-73547704D01*
X207407504Y-73547704D01*
G37*
D15*
X207008000Y-74421500D03*
D14*
G36*
X210207504Y-73547704D02*
G01*
X210231773Y-73551304D01*
X210255571Y-73557265D01*
X210278671Y-73565530D01*
X210300849Y-73576020D01*
X210321893Y-73588633D01*
X210341598Y-73603247D01*
X210359777Y-73619723D01*
X210376253Y-73637902D01*
X210390867Y-73657607D01*
X210403480Y-73678651D01*
X210413970Y-73700829D01*
X210422235Y-73723929D01*
X210428196Y-73747727D01*
X210431796Y-73771996D01*
X210433000Y-73796500D01*
X210433000Y-75046500D01*
X210431796Y-75071004D01*
X210428196Y-75095273D01*
X210422235Y-75119071D01*
X210413970Y-75142171D01*
X210403480Y-75164349D01*
X210390867Y-75185393D01*
X210376253Y-75205098D01*
X210359777Y-75223277D01*
X210341598Y-75239753D01*
X210321893Y-75254367D01*
X210300849Y-75266980D01*
X210278671Y-75277470D01*
X210255571Y-75285735D01*
X210231773Y-75291696D01*
X210207504Y-75295296D01*
X210183000Y-75296500D01*
X209433000Y-75296500D01*
X209408496Y-75295296D01*
X209384227Y-75291696D01*
X209360429Y-75285735D01*
X209337329Y-75277470D01*
X209315151Y-75266980D01*
X209294107Y-75254367D01*
X209274402Y-75239753D01*
X209256223Y-75223277D01*
X209239747Y-75205098D01*
X209225133Y-75185393D01*
X209212520Y-75164349D01*
X209202030Y-75142171D01*
X209193765Y-75119071D01*
X209187804Y-75095273D01*
X209184204Y-75071004D01*
X209183000Y-75046500D01*
X209183000Y-73796500D01*
X209184204Y-73771996D01*
X209187804Y-73747727D01*
X209193765Y-73723929D01*
X209202030Y-73700829D01*
X209212520Y-73678651D01*
X209225133Y-73657607D01*
X209239747Y-73637902D01*
X209256223Y-73619723D01*
X209274402Y-73603247D01*
X209294107Y-73588633D01*
X209315151Y-73576020D01*
X209337329Y-73565530D01*
X209360429Y-73557265D01*
X209384227Y-73551304D01*
X209408496Y-73547704D01*
X209433000Y-73546500D01*
X210183000Y-73546500D01*
X210207504Y-73547704D01*
X210207504Y-73547704D01*
G37*
D15*
X209808000Y-74421500D03*
D14*
G36*
X210207504Y-62245204D02*
G01*
X210231773Y-62248804D01*
X210255571Y-62254765D01*
X210278671Y-62263030D01*
X210300849Y-62273520D01*
X210321893Y-62286133D01*
X210341598Y-62300747D01*
X210359777Y-62317223D01*
X210376253Y-62335402D01*
X210390867Y-62355107D01*
X210403480Y-62376151D01*
X210413970Y-62398329D01*
X210422235Y-62421429D01*
X210428196Y-62445227D01*
X210431796Y-62469496D01*
X210433000Y-62494000D01*
X210433000Y-63744000D01*
X210431796Y-63768504D01*
X210428196Y-63792773D01*
X210422235Y-63816571D01*
X210413970Y-63839671D01*
X210403480Y-63861849D01*
X210390867Y-63882893D01*
X210376253Y-63902598D01*
X210359777Y-63920777D01*
X210341598Y-63937253D01*
X210321893Y-63951867D01*
X210300849Y-63964480D01*
X210278671Y-63974970D01*
X210255571Y-63983235D01*
X210231773Y-63989196D01*
X210207504Y-63992796D01*
X210183000Y-63994000D01*
X209433000Y-63994000D01*
X209408496Y-63992796D01*
X209384227Y-63989196D01*
X209360429Y-63983235D01*
X209337329Y-63974970D01*
X209315151Y-63964480D01*
X209294107Y-63951867D01*
X209274402Y-63937253D01*
X209256223Y-63920777D01*
X209239747Y-63902598D01*
X209225133Y-63882893D01*
X209212520Y-63861849D01*
X209202030Y-63839671D01*
X209193765Y-63816571D01*
X209187804Y-63792773D01*
X209184204Y-63768504D01*
X209183000Y-63744000D01*
X209183000Y-62494000D01*
X209184204Y-62469496D01*
X209187804Y-62445227D01*
X209193765Y-62421429D01*
X209202030Y-62398329D01*
X209212520Y-62376151D01*
X209225133Y-62355107D01*
X209239747Y-62335402D01*
X209256223Y-62317223D01*
X209274402Y-62300747D01*
X209294107Y-62286133D01*
X209315151Y-62273520D01*
X209337329Y-62263030D01*
X209360429Y-62254765D01*
X209384227Y-62248804D01*
X209408496Y-62245204D01*
X209433000Y-62244000D01*
X210183000Y-62244000D01*
X210207504Y-62245204D01*
X210207504Y-62245204D01*
G37*
D15*
X209808000Y-63119000D03*
D14*
G36*
X207407504Y-62245204D02*
G01*
X207431773Y-62248804D01*
X207455571Y-62254765D01*
X207478671Y-62263030D01*
X207500849Y-62273520D01*
X207521893Y-62286133D01*
X207541598Y-62300747D01*
X207559777Y-62317223D01*
X207576253Y-62335402D01*
X207590867Y-62355107D01*
X207603480Y-62376151D01*
X207613970Y-62398329D01*
X207622235Y-62421429D01*
X207628196Y-62445227D01*
X207631796Y-62469496D01*
X207633000Y-62494000D01*
X207633000Y-63744000D01*
X207631796Y-63768504D01*
X207628196Y-63792773D01*
X207622235Y-63816571D01*
X207613970Y-63839671D01*
X207603480Y-63861849D01*
X207590867Y-63882893D01*
X207576253Y-63902598D01*
X207559777Y-63920777D01*
X207541598Y-63937253D01*
X207521893Y-63951867D01*
X207500849Y-63964480D01*
X207478671Y-63974970D01*
X207455571Y-63983235D01*
X207431773Y-63989196D01*
X207407504Y-63992796D01*
X207383000Y-63994000D01*
X206633000Y-63994000D01*
X206608496Y-63992796D01*
X206584227Y-63989196D01*
X206560429Y-63983235D01*
X206537329Y-63974970D01*
X206515151Y-63964480D01*
X206494107Y-63951867D01*
X206474402Y-63937253D01*
X206456223Y-63920777D01*
X206439747Y-63902598D01*
X206425133Y-63882893D01*
X206412520Y-63861849D01*
X206402030Y-63839671D01*
X206393765Y-63816571D01*
X206387804Y-63792773D01*
X206384204Y-63768504D01*
X206383000Y-63744000D01*
X206383000Y-62494000D01*
X206384204Y-62469496D01*
X206387804Y-62445227D01*
X206393765Y-62421429D01*
X206402030Y-62398329D01*
X206412520Y-62376151D01*
X206425133Y-62355107D01*
X206439747Y-62335402D01*
X206456223Y-62317223D01*
X206474402Y-62300747D01*
X206494107Y-62286133D01*
X206515151Y-62273520D01*
X206537329Y-62263030D01*
X206560429Y-62254765D01*
X206584227Y-62248804D01*
X206608496Y-62245204D01*
X206633000Y-62244000D01*
X207383000Y-62244000D01*
X207407504Y-62245204D01*
X207407504Y-62245204D01*
G37*
D15*
X207008000Y-63119000D03*
D14*
G36*
X199403504Y-53284704D02*
G01*
X199427773Y-53288304D01*
X199451571Y-53294265D01*
X199474671Y-53302530D01*
X199496849Y-53313020D01*
X199517893Y-53325633D01*
X199537598Y-53340247D01*
X199555777Y-53356723D01*
X199572253Y-53374902D01*
X199586867Y-53394607D01*
X199599480Y-53415651D01*
X199609970Y-53437829D01*
X199618235Y-53460929D01*
X199624196Y-53484727D01*
X199627796Y-53508996D01*
X199629000Y-53533500D01*
X199629000Y-54283500D01*
X199627796Y-54308004D01*
X199624196Y-54332273D01*
X199618235Y-54356071D01*
X199609970Y-54379171D01*
X199599480Y-54401349D01*
X199586867Y-54422393D01*
X199572253Y-54442098D01*
X199555777Y-54460277D01*
X199537598Y-54476753D01*
X199517893Y-54491367D01*
X199496849Y-54503980D01*
X199474671Y-54514470D01*
X199451571Y-54522735D01*
X199427773Y-54528696D01*
X199403504Y-54532296D01*
X199379000Y-54533500D01*
X198129000Y-54533500D01*
X198104496Y-54532296D01*
X198080227Y-54528696D01*
X198056429Y-54522735D01*
X198033329Y-54514470D01*
X198011151Y-54503980D01*
X197990107Y-54491367D01*
X197970402Y-54476753D01*
X197952223Y-54460277D01*
X197935747Y-54442098D01*
X197921133Y-54422393D01*
X197908520Y-54401349D01*
X197898030Y-54379171D01*
X197889765Y-54356071D01*
X197883804Y-54332273D01*
X197880204Y-54308004D01*
X197879000Y-54283500D01*
X197879000Y-53533500D01*
X197880204Y-53508996D01*
X197883804Y-53484727D01*
X197889765Y-53460929D01*
X197898030Y-53437829D01*
X197908520Y-53415651D01*
X197921133Y-53394607D01*
X197935747Y-53374902D01*
X197952223Y-53356723D01*
X197970402Y-53340247D01*
X197990107Y-53325633D01*
X198011151Y-53313020D01*
X198033329Y-53302530D01*
X198056429Y-53294265D01*
X198080227Y-53288304D01*
X198104496Y-53284704D01*
X198129000Y-53283500D01*
X199379000Y-53283500D01*
X199403504Y-53284704D01*
X199403504Y-53284704D01*
G37*
D15*
X198754000Y-53908500D03*
D14*
G36*
X199403504Y-56084704D02*
G01*
X199427773Y-56088304D01*
X199451571Y-56094265D01*
X199474671Y-56102530D01*
X199496849Y-56113020D01*
X199517893Y-56125633D01*
X199537598Y-56140247D01*
X199555777Y-56156723D01*
X199572253Y-56174902D01*
X199586867Y-56194607D01*
X199599480Y-56215651D01*
X199609970Y-56237829D01*
X199618235Y-56260929D01*
X199624196Y-56284727D01*
X199627796Y-56308996D01*
X199629000Y-56333500D01*
X199629000Y-57083500D01*
X199627796Y-57108004D01*
X199624196Y-57132273D01*
X199618235Y-57156071D01*
X199609970Y-57179171D01*
X199599480Y-57201349D01*
X199586867Y-57222393D01*
X199572253Y-57242098D01*
X199555777Y-57260277D01*
X199537598Y-57276753D01*
X199517893Y-57291367D01*
X199496849Y-57303980D01*
X199474671Y-57314470D01*
X199451571Y-57322735D01*
X199427773Y-57328696D01*
X199403504Y-57332296D01*
X199379000Y-57333500D01*
X198129000Y-57333500D01*
X198104496Y-57332296D01*
X198080227Y-57328696D01*
X198056429Y-57322735D01*
X198033329Y-57314470D01*
X198011151Y-57303980D01*
X197990107Y-57291367D01*
X197970402Y-57276753D01*
X197952223Y-57260277D01*
X197935747Y-57242098D01*
X197921133Y-57222393D01*
X197908520Y-57201349D01*
X197898030Y-57179171D01*
X197889765Y-57156071D01*
X197883804Y-57132273D01*
X197880204Y-57108004D01*
X197879000Y-57083500D01*
X197879000Y-56333500D01*
X197880204Y-56308996D01*
X197883804Y-56284727D01*
X197889765Y-56260929D01*
X197898030Y-56237829D01*
X197908520Y-56215651D01*
X197921133Y-56194607D01*
X197935747Y-56174902D01*
X197952223Y-56156723D01*
X197970402Y-56140247D01*
X197990107Y-56125633D01*
X198011151Y-56113020D01*
X198033329Y-56102530D01*
X198056429Y-56094265D01*
X198080227Y-56088304D01*
X198104496Y-56084704D01*
X198129000Y-56083500D01*
X199379000Y-56083500D01*
X199403504Y-56084704D01*
X199403504Y-56084704D01*
G37*
D15*
X198754000Y-56708500D03*
D14*
G36*
X210171504Y-77269704D02*
G01*
X210195773Y-77273304D01*
X210219571Y-77279265D01*
X210242671Y-77287530D01*
X210264849Y-77298020D01*
X210285893Y-77310633D01*
X210305598Y-77325247D01*
X210323777Y-77341723D01*
X210340253Y-77359902D01*
X210354867Y-77379607D01*
X210367480Y-77400651D01*
X210377970Y-77422829D01*
X210386235Y-77445929D01*
X210392196Y-77469727D01*
X210395796Y-77493996D01*
X210397000Y-77518500D01*
X210397000Y-78768500D01*
X210395796Y-78793004D01*
X210392196Y-78817273D01*
X210386235Y-78841071D01*
X210377970Y-78864171D01*
X210367480Y-78886349D01*
X210354867Y-78907393D01*
X210340253Y-78927098D01*
X210323777Y-78945277D01*
X210305598Y-78961753D01*
X210285893Y-78976367D01*
X210264849Y-78988980D01*
X210242671Y-78999470D01*
X210219571Y-79007735D01*
X210195773Y-79013696D01*
X210171504Y-79017296D01*
X210147000Y-79018500D01*
X209397000Y-79018500D01*
X209372496Y-79017296D01*
X209348227Y-79013696D01*
X209324429Y-79007735D01*
X209301329Y-78999470D01*
X209279151Y-78988980D01*
X209258107Y-78976367D01*
X209238402Y-78961753D01*
X209220223Y-78945277D01*
X209203747Y-78927098D01*
X209189133Y-78907393D01*
X209176520Y-78886349D01*
X209166030Y-78864171D01*
X209157765Y-78841071D01*
X209151804Y-78817273D01*
X209148204Y-78793004D01*
X209147000Y-78768500D01*
X209147000Y-77518500D01*
X209148204Y-77493996D01*
X209151804Y-77469727D01*
X209157765Y-77445929D01*
X209166030Y-77422829D01*
X209176520Y-77400651D01*
X209189133Y-77379607D01*
X209203747Y-77359902D01*
X209220223Y-77341723D01*
X209238402Y-77325247D01*
X209258107Y-77310633D01*
X209279151Y-77298020D01*
X209301329Y-77287530D01*
X209324429Y-77279265D01*
X209348227Y-77273304D01*
X209372496Y-77269704D01*
X209397000Y-77268500D01*
X210147000Y-77268500D01*
X210171504Y-77269704D01*
X210171504Y-77269704D01*
G37*
D15*
X209772000Y-78143500D03*
D14*
G36*
X207371504Y-77269704D02*
G01*
X207395773Y-77273304D01*
X207419571Y-77279265D01*
X207442671Y-77287530D01*
X207464849Y-77298020D01*
X207485893Y-77310633D01*
X207505598Y-77325247D01*
X207523777Y-77341723D01*
X207540253Y-77359902D01*
X207554867Y-77379607D01*
X207567480Y-77400651D01*
X207577970Y-77422829D01*
X207586235Y-77445929D01*
X207592196Y-77469727D01*
X207595796Y-77493996D01*
X207597000Y-77518500D01*
X207597000Y-78768500D01*
X207595796Y-78793004D01*
X207592196Y-78817273D01*
X207586235Y-78841071D01*
X207577970Y-78864171D01*
X207567480Y-78886349D01*
X207554867Y-78907393D01*
X207540253Y-78927098D01*
X207523777Y-78945277D01*
X207505598Y-78961753D01*
X207485893Y-78976367D01*
X207464849Y-78988980D01*
X207442671Y-78999470D01*
X207419571Y-79007735D01*
X207395773Y-79013696D01*
X207371504Y-79017296D01*
X207347000Y-79018500D01*
X206597000Y-79018500D01*
X206572496Y-79017296D01*
X206548227Y-79013696D01*
X206524429Y-79007735D01*
X206501329Y-78999470D01*
X206479151Y-78988980D01*
X206458107Y-78976367D01*
X206438402Y-78961753D01*
X206420223Y-78945277D01*
X206403747Y-78927098D01*
X206389133Y-78907393D01*
X206376520Y-78886349D01*
X206366030Y-78864171D01*
X206357765Y-78841071D01*
X206351804Y-78817273D01*
X206348204Y-78793004D01*
X206347000Y-78768500D01*
X206347000Y-77518500D01*
X206348204Y-77493996D01*
X206351804Y-77469727D01*
X206357765Y-77445929D01*
X206366030Y-77422829D01*
X206376520Y-77400651D01*
X206389133Y-77379607D01*
X206403747Y-77359902D01*
X206420223Y-77341723D01*
X206438402Y-77325247D01*
X206458107Y-77310633D01*
X206479151Y-77298020D01*
X206501329Y-77287530D01*
X206524429Y-77279265D01*
X206548227Y-77273304D01*
X206572496Y-77269704D01*
X206597000Y-77268500D01*
X207347000Y-77268500D01*
X207371504Y-77269704D01*
X207371504Y-77269704D01*
G37*
D15*
X206972000Y-78143500D03*
D11*
X164782000Y-98933000D03*
D10*
X166432000Y-98933000D03*
X165948726Y-100099726D03*
X164782000Y-100583000D03*
X163615274Y-100099726D03*
X163132000Y-98933000D03*
X163615274Y-97766274D03*
X164782000Y-97283000D03*
X165948726Y-97766274D03*
D11*
X208407000Y-99123500D03*
D10*
X210057000Y-99123500D03*
X209573726Y-100290226D03*
X208407000Y-100773500D03*
X207240274Y-100290226D03*
X206757000Y-99123500D03*
X207240274Y-97956774D03*
X208407000Y-97473500D03*
X209573726Y-97956774D03*
D19*
X179514000Y-90868500D03*
X173164000Y-93408500D03*
D18*
X205613000Y-91377500D03*
X205613000Y-94677500D03*
D19*
X194882000Y-93345000D03*
X201232000Y-90805000D03*
D10*
X165822726Y-54395774D03*
X164656000Y-53912500D03*
X163489274Y-54395774D03*
X163006000Y-55562500D03*
X163489274Y-56729226D03*
X164656000Y-57212500D03*
X165822726Y-56729226D03*
X166306000Y-55562500D03*
D11*
X164656000Y-55562500D03*
D20*
X203772000Y-72136000D03*
X202057000Y-65278000D03*
X195326000Y-72898000D03*
X196532000Y-61404500D03*
X196786500Y-63881000D03*
X199199500Y-63944500D03*
X208355000Y-63085700D03*
X198754000Y-55138400D03*
X199815000Y-73082000D03*
X179111000Y-57315100D03*
X199438000Y-62586500D03*
X194480000Y-63266000D03*
X200978000Y-61781600D03*
X199695000Y-72075000D03*
X205621000Y-65011100D03*
X200614000Y-55990100D03*
X202449000Y-72835500D03*
X205652000Y-66624000D03*
X191361000Y-71871800D03*
X201800000Y-60683700D03*
X193007000Y-71181500D03*
X205630000Y-67956600D03*
X198051000Y-73539600D03*
X200659000Y-68979400D03*
X201095000Y-73631500D03*
X190830200Y-67945000D03*
X184505600Y-64312800D03*
X173304200Y-73247300D03*
X184505600Y-68046600D03*
X181940200Y-70612000D03*
X182820000Y-75120500D03*
X179552600Y-75133200D03*
X172135800Y-68376800D03*
X186105800Y-73152000D03*
D21*
X209808000Y-74421500D02*
X209808000Y-70802500D01*
X209808000Y-70802500D02*
X209808000Y-67055500D01*
X209808000Y-63119000D02*
X209808000Y-67055500D01*
X208355000Y-63085700D02*
X209775000Y-63085700D01*
X209775000Y-63085700D02*
X209808000Y-63119000D01*
X178498000Y-68008500D02*
X177228000Y-69278200D01*
X177228000Y-69278200D02*
X175389000Y-69278200D01*
X175389000Y-69278200D02*
X172590000Y-66478900D01*
X172590000Y-66478900D02*
X172590000Y-55372000D01*
D22*
X198754000Y-53908500D02*
X198754000Y-55138400D01*
X179514000Y-90868500D02*
X182512000Y-90868500D01*
X182512000Y-90868500D02*
X183021000Y-91377500D01*
X183021000Y-91377500D02*
X183896000Y-91377500D01*
X199815000Y-94677500D02*
X199757000Y-94735400D01*
X199757000Y-94735400D02*
X184829000Y-94735400D01*
X184829000Y-94735400D02*
X184771000Y-94677500D01*
X184771000Y-94677500D02*
X183896000Y-94677500D01*
X205613000Y-94677500D02*
X199815000Y-94677500D01*
X199815000Y-94677500D02*
X199815000Y-73082000D01*
X201232000Y-90805000D02*
X204165000Y-90805000D01*
X204165000Y-90805000D02*
X204738000Y-91377500D01*
X204738000Y-91377500D02*
X205613000Y-91377500D01*
D21*
X179111000Y-57315100D02*
X177168000Y-55372000D01*
X177168000Y-55372000D02*
X175390000Y-55372000D01*
D22*
X177927000Y-66883200D02*
X177083000Y-67727100D01*
X177083000Y-67727100D02*
X177083000Y-68008500D01*
X177083000Y-68008500D02*
X175958000Y-68008500D01*
X195142000Y-66882500D02*
X199438000Y-62586500D01*
X195142000Y-66883200D02*
X195142000Y-66882500D01*
X178498000Y-62928500D02*
X194142000Y-62928500D01*
X194142000Y-62928500D02*
X194480000Y-63266000D01*
X175958000Y-62928500D02*
X177083000Y-62928500D01*
X177083000Y-62928500D02*
X177083000Y-62647200D01*
X177083000Y-62647200D02*
X177949000Y-61781600D01*
X177949000Y-61781600D02*
X194560000Y-61781600D01*
X194560000Y-61781600D02*
X195580000Y-62801500D01*
X198632000Y-61781600D02*
X200978000Y-61781600D01*
X195580000Y-62801500D02*
X197612000Y-62801500D01*
X197612000Y-62801500D02*
X198632000Y-61781600D01*
X173164000Y-93408500D02*
X174064000Y-93408500D01*
X174064000Y-93408500D02*
X191575000Y-75897100D01*
X191575000Y-75897100D02*
X196655000Y-75897100D01*
X196655000Y-75897100D02*
X198727000Y-73825200D01*
X198727000Y-73825200D02*
X198727000Y-73043300D01*
X198727000Y-73043300D02*
X199695000Y-72075000D01*
X195008000Y-53908500D02*
X195954000Y-52962600D01*
X195954000Y-52962600D02*
X199628000Y-52962600D01*
X199628000Y-52962600D02*
X199938000Y-53272800D01*
X199938000Y-53272800D02*
X199938000Y-56303900D01*
X199938000Y-56303900D02*
X205621000Y-61986000D01*
X205621000Y-61986000D02*
X205621000Y-65011100D01*
X200614000Y-55990100D02*
X200614000Y-55605700D01*
X200614000Y-55605700D02*
X202438000Y-53781500D01*
X202449000Y-72835500D02*
X205914000Y-76300500D01*
X205914000Y-76300500D02*
X207929000Y-76300500D01*
X207929000Y-76300500D02*
X209772000Y-78143500D01*
X205652000Y-66624000D02*
X199479000Y-66624000D01*
X199479000Y-66624000D02*
X194231000Y-71871800D01*
X194231000Y-71871800D02*
X191361000Y-71871800D01*
X193007000Y-71181500D02*
X201800000Y-62388300D01*
X201800000Y-62388300D02*
X201800000Y-60683700D01*
X205630000Y-67956600D02*
X205630000Y-67956700D01*
X205630000Y-67956700D02*
X200727000Y-67956700D01*
X200727000Y-67956700D02*
X198051000Y-70632200D01*
X198051000Y-70632200D02*
X198051000Y-73539600D01*
X200659000Y-68979400D02*
X200659000Y-73195300D01*
X200659000Y-73195300D02*
X201095000Y-73631500D01*
X178313299Y-66883499D02*
X179938899Y-66883499D01*
X177927000Y-66883200D02*
X178313000Y-66883200D01*
X178313000Y-66883200D02*
X178313299Y-66883499D01*
X179938899Y-66883499D02*
X182422800Y-69367400D01*
X190892998Y-66883200D02*
X195142000Y-66883200D01*
X188408798Y-69367400D02*
X190892998Y-66883200D01*
X182422800Y-69367400D02*
X188408798Y-69367400D01*
X184505600Y-64312800D02*
X184505600Y-64878485D01*
X184505600Y-64878485D02*
X184505600Y-68046600D01*
X184505600Y-68046600D02*
X184505600Y-68046600D01*
X171460799Y-71403899D02*
X172904201Y-72847301D01*
X171460799Y-68052799D02*
X171460799Y-71403899D01*
X171811799Y-67701799D02*
X171460799Y-68052799D01*
X172459801Y-67701799D02*
X171811799Y-67701799D01*
X172904201Y-72847301D02*
X173304200Y-73247300D01*
X175370002Y-70612000D02*
X172459801Y-67701799D01*
X181940200Y-70612000D02*
X175370002Y-70612000D01*
X179565300Y-75120500D02*
X179552600Y-75133200D01*
X182820000Y-75120500D02*
X179565300Y-75120500D01*
X176911000Y-73152000D02*
X172135800Y-68376800D01*
X186105800Y-73152000D02*
X176911000Y-73152000D01*
D23*
G36*
X180861839Y-52777831D02*
G01*
X180734997Y-52962322D01*
X180646585Y-53168013D01*
X180600000Y-53387000D01*
X180600000Y-53687000D01*
X181608000Y-53687000D01*
X181608000Y-53667000D01*
X181862000Y-53667000D01*
X181862000Y-53687000D01*
X182870000Y-53687000D01*
X182870000Y-53387000D01*
X182823415Y-53168013D01*
X182735003Y-52962322D01*
X182608161Y-52777831D01*
X182493839Y-52666500D01*
X189616161Y-52666500D01*
X189501839Y-52777831D01*
X189374997Y-52962322D01*
X189286585Y-53168013D01*
X189240000Y-53387000D01*
X189240000Y-53687000D01*
X190248000Y-53687000D01*
X190248000Y-53667000D01*
X190502000Y-53667000D01*
X190502000Y-53687000D01*
X191510000Y-53687000D01*
X191510000Y-53387000D01*
X191463415Y-53168013D01*
X191375003Y-52962322D01*
X191248161Y-52777831D01*
X191133839Y-52666500D01*
X195605216Y-52666500D01*
X195371034Y-52900657D01*
X194383000Y-52900657D01*
X194259538Y-52912817D01*
X194140821Y-52948829D01*
X194031411Y-53007310D01*
X193935512Y-53086012D01*
X193856810Y-53181911D01*
X193798329Y-53291321D01*
X193762317Y-53410038D01*
X193750157Y-53533500D01*
X193750157Y-54283500D01*
X193762317Y-54406962D01*
X193798329Y-54525679D01*
X193856810Y-54635089D01*
X193935512Y-54730988D01*
X194031411Y-54809690D01*
X194140821Y-54868171D01*
X194259538Y-54904183D01*
X194383000Y-54916343D01*
X195633000Y-54916343D01*
X195756462Y-54904183D01*
X195875179Y-54868171D01*
X195984589Y-54809690D01*
X196080488Y-54730988D01*
X196159190Y-54635089D01*
X196217671Y-54525679D01*
X196253683Y-54406962D01*
X196265843Y-54283500D01*
X196265843Y-53533500D01*
X196254526Y-53418600D01*
X197507474Y-53418600D01*
X197496157Y-53533500D01*
X197496157Y-54283500D01*
X197508317Y-54406962D01*
X197544329Y-54525679D01*
X197602810Y-54635089D01*
X197681512Y-54730988D01*
X197777411Y-54809690D01*
X197886821Y-54868171D01*
X198005538Y-54904183D01*
X198005662Y-54904195D01*
X198003013Y-54910591D01*
X197973000Y-55061478D01*
X197973000Y-55215322D01*
X198003013Y-55366209D01*
X198036166Y-55446247D01*
X197879000Y-55445428D01*
X197754518Y-55457688D01*
X197634820Y-55493998D01*
X197524506Y-55552963D01*
X197427815Y-55632315D01*
X197348463Y-55729006D01*
X197289498Y-55839320D01*
X197253188Y-55959018D01*
X197240928Y-56083500D01*
X197244000Y-56422750D01*
X197402750Y-56581500D01*
X198627000Y-56581500D01*
X198627000Y-56561500D01*
X198881000Y-56561500D01*
X198881000Y-56581500D01*
X198901000Y-56581500D01*
X198901000Y-56835500D01*
X198881000Y-56835500D01*
X198881000Y-57809750D01*
X199039750Y-57968500D01*
X199629000Y-57971572D01*
X199753482Y-57959312D01*
X199873180Y-57923002D01*
X199983494Y-57864037D01*
X200080185Y-57784685D01*
X200159537Y-57687994D01*
X200218502Y-57577680D01*
X200254812Y-57457982D01*
X200267072Y-57333500D01*
X200266563Y-57277239D01*
X205165000Y-62174903D01*
X205165001Y-64376488D01*
X205123141Y-64404458D01*
X205014358Y-64513241D01*
X204928887Y-64641158D01*
X204870013Y-64783291D01*
X204840000Y-64934178D01*
X204840000Y-65088022D01*
X204870013Y-65238909D01*
X204928887Y-65381042D01*
X205014358Y-65508959D01*
X205123141Y-65617742D01*
X205251058Y-65703213D01*
X205393191Y-65762087D01*
X205544078Y-65792100D01*
X205697922Y-65792100D01*
X205848809Y-65762087D01*
X205935777Y-65726063D01*
X205931815Y-65729315D01*
X205852463Y-65826006D01*
X205832380Y-65863579D01*
X205728922Y-65843000D01*
X205575078Y-65843000D01*
X205424191Y-65873013D01*
X205282058Y-65931887D01*
X205154141Y-66017358D01*
X205045358Y-66126141D01*
X205017389Y-66168000D01*
X199501399Y-66168000D01*
X199479008Y-66165794D01*
X199456607Y-66168000D01*
X199456601Y-66168000D01*
X199400513Y-66173524D01*
X199389617Y-66174597D01*
X199389616Y-66174597D01*
X199389608Y-66174598D01*
X199325050Y-66194182D01*
X199303660Y-66200670D01*
X199303658Y-66200671D01*
X199303652Y-66200673D01*
X199263774Y-66221988D01*
X199224441Y-66243011D01*
X199224437Y-66243015D01*
X199224434Y-66243016D01*
X199154999Y-66299999D01*
X199140722Y-66317396D01*
X194042125Y-71415800D01*
X193755298Y-71415800D01*
X193757987Y-71409309D01*
X193788000Y-71258422D01*
X193788000Y-71104578D01*
X193778177Y-71055194D01*
X202106603Y-62726579D01*
X202124001Y-62712301D01*
X202180984Y-62642866D01*
X202180985Y-62642865D01*
X202180987Y-62642862D01*
X202203747Y-62600279D01*
X202223327Y-62563648D01*
X202249402Y-62477692D01*
X202256000Y-62410699D01*
X202256000Y-62410694D01*
X202258206Y-62388295D01*
X202256000Y-62365902D01*
X202256000Y-61318311D01*
X202297859Y-61290342D01*
X202406642Y-61181559D01*
X202492113Y-61053642D01*
X202550987Y-60911509D01*
X202581000Y-60760622D01*
X202581000Y-60606778D01*
X202550987Y-60455891D01*
X202492113Y-60313758D01*
X202406642Y-60185841D01*
X202297859Y-60077058D01*
X202169942Y-59991587D01*
X202027809Y-59932713D01*
X201876922Y-59902700D01*
X201723078Y-59902700D01*
X201572191Y-59932713D01*
X201430058Y-59991587D01*
X201302141Y-60077058D01*
X201193358Y-60185841D01*
X201107887Y-60313758D01*
X201049013Y-60455891D01*
X201019000Y-60606778D01*
X201019000Y-60760622D01*
X201049013Y-60911509D01*
X201088699Y-61007319D01*
X201054922Y-61000600D01*
X200901078Y-61000600D01*
X200750191Y-61030613D01*
X200608058Y-61089487D01*
X200480141Y-61174958D01*
X200371358Y-61283741D01*
X200343389Y-61325600D01*
X198654408Y-61325600D01*
X198632022Y-61323394D01*
X198609613Y-61325600D01*
X198609601Y-61325600D01*
X198583290Y-61328191D01*
X198542630Y-61332194D01*
X198542621Y-61332197D01*
X198542608Y-61332198D01*
X198489223Y-61348392D01*
X198456673Y-61358265D01*
X198456666Y-61358269D01*
X198456652Y-61358273D01*
X198414580Y-61380761D01*
X198377453Y-61400603D01*
X198377443Y-61400611D01*
X198377434Y-61400616D01*
X198340792Y-61430687D01*
X198325414Y-61443306D01*
X198325408Y-61443312D01*
X198307999Y-61457599D01*
X198293726Y-61474991D01*
X197423132Y-62345500D01*
X195768868Y-62345500D01*
X194898278Y-61474996D01*
X194884001Y-61457599D01*
X194814566Y-61400616D01*
X194814554Y-61400610D01*
X194814546Y-61400603D01*
X194784396Y-61384490D01*
X194735348Y-61358273D01*
X194735332Y-61358268D01*
X194735326Y-61358265D01*
X194710579Y-61350759D01*
X194649392Y-61332198D01*
X194649376Y-61332196D01*
X194649368Y-61332194D01*
X194611213Y-61328438D01*
X194582399Y-61325600D01*
X194582386Y-61325600D01*
X194559978Y-61323394D01*
X194537592Y-61325600D01*
X177971447Y-61325600D01*
X177949105Y-61323394D01*
X177926655Y-61325600D01*
X177926601Y-61325600D01*
X177903044Y-61327920D01*
X177859712Y-61332178D01*
X177859664Y-61332192D01*
X177859608Y-61332198D01*
X177814215Y-61345968D01*
X177773750Y-61358233D01*
X177773706Y-61358257D01*
X177773652Y-61358273D01*
X177733454Y-61379759D01*
X177694522Y-61400557D01*
X177694480Y-61400591D01*
X177694434Y-61400616D01*
X177658774Y-61429881D01*
X177642475Y-61443251D01*
X177642441Y-61443285D01*
X177624999Y-61457599D01*
X177610752Y-61474960D01*
X177158848Y-61926655D01*
X177126322Y-61865804D01*
X177078711Y-61807789D01*
X177020696Y-61760178D01*
X176954508Y-61724799D01*
X176882689Y-61703013D01*
X176808000Y-61695657D01*
X175108000Y-61695657D01*
X175033311Y-61703013D01*
X174961492Y-61724799D01*
X174895304Y-61760178D01*
X174837289Y-61807789D01*
X174789678Y-61865804D01*
X174754299Y-61931992D01*
X174732513Y-62003811D01*
X174725157Y-62078500D01*
X174725157Y-63778500D01*
X174732513Y-63853189D01*
X174754299Y-63925008D01*
X174789678Y-63991196D01*
X174837289Y-64049211D01*
X174895304Y-64096822D01*
X174961492Y-64132201D01*
X175033311Y-64153987D01*
X175108000Y-64161343D01*
X176808000Y-64161343D01*
X176882689Y-64153987D01*
X176954508Y-64132201D01*
X177020696Y-64096822D01*
X177078711Y-64049211D01*
X177126322Y-63991196D01*
X177161701Y-63925008D01*
X177183487Y-63853189D01*
X177190843Y-63778500D01*
X177190843Y-63372305D01*
X177258348Y-63351827D01*
X177328628Y-63314261D01*
X177355202Y-63401863D01*
X177469509Y-63615716D01*
X177623340Y-63803160D01*
X177810784Y-63956991D01*
X178021305Y-64069517D01*
X177866748Y-64124343D01*
X177616645Y-64273322D01*
X177400412Y-64468231D01*
X177226359Y-64701580D01*
X177101175Y-64964401D01*
X177095091Y-64984460D01*
X176986491Y-64781284D01*
X176832660Y-64593840D01*
X176645216Y-64440009D01*
X176431363Y-64325702D01*
X176199318Y-64255312D01*
X176018472Y-64237500D01*
X175897528Y-64237500D01*
X175716682Y-64255312D01*
X175484637Y-64325702D01*
X175270784Y-64440009D01*
X175083340Y-64593840D01*
X174929509Y-64781284D01*
X174815202Y-64995137D01*
X174744812Y-65227182D01*
X174721044Y-65468500D01*
X174744812Y-65709818D01*
X174815202Y-65941863D01*
X174929509Y-66155716D01*
X175083340Y-66343160D01*
X175270784Y-66496991D01*
X175484637Y-66611298D01*
X175716682Y-66681688D01*
X175897528Y-66699500D01*
X176018472Y-66699500D01*
X176199318Y-66681688D01*
X176431363Y-66611298D01*
X176645216Y-66496991D01*
X176832660Y-66343160D01*
X176986491Y-66155716D01*
X177095091Y-65952540D01*
X177101175Y-65972599D01*
X177226359Y-66235420D01*
X177400412Y-66468769D01*
X177556158Y-66609156D01*
X176922242Y-67242996D01*
X176832660Y-67133840D01*
X176645216Y-66980009D01*
X176431363Y-66865702D01*
X176199318Y-66795312D01*
X176018472Y-66777500D01*
X175897528Y-66777500D01*
X175716682Y-66795312D01*
X175484637Y-66865702D01*
X175270784Y-66980009D01*
X175083340Y-67133840D01*
X174929509Y-67321284D01*
X174815202Y-67535137D01*
X174744812Y-67767182D01*
X174740772Y-67808201D01*
X173171000Y-66238261D01*
X173171000Y-58121000D01*
X180600000Y-58121000D01*
X180600000Y-58671000D01*
X180646585Y-58889987D01*
X180734997Y-59095678D01*
X180861839Y-59280169D01*
X181022236Y-59436369D01*
X181210024Y-59558276D01*
X181433126Y-59638119D01*
X181608000Y-59511954D01*
X181608000Y-58121000D01*
X180600000Y-58121000D01*
X173171000Y-58121000D01*
X173171000Y-56592646D01*
X173207179Y-56581671D01*
X173316589Y-56523190D01*
X173412488Y-56444488D01*
X173491190Y-56348589D01*
X173549671Y-56239179D01*
X173585683Y-56120462D01*
X173597843Y-55997000D01*
X173597843Y-54747000D01*
X174382157Y-54747000D01*
X174382157Y-55997000D01*
X174394317Y-56120462D01*
X174430329Y-56239179D01*
X174488810Y-56348589D01*
X174567512Y-56444488D01*
X174663411Y-56523190D01*
X174772821Y-56581671D01*
X174891538Y-56617683D01*
X175015000Y-56629843D01*
X175765000Y-56629843D01*
X175888462Y-56617683D01*
X176007179Y-56581671D01*
X176116589Y-56523190D01*
X176212488Y-56444488D01*
X176291190Y-56348589D01*
X176349671Y-56239179D01*
X176385683Y-56120462D01*
X176397843Y-55997000D01*
X176397843Y-55953000D01*
X176927334Y-55953000D01*
X178330000Y-57355740D01*
X178330000Y-57392022D01*
X178360013Y-57542909D01*
X178418887Y-57685042D01*
X178504358Y-57812959D01*
X178613141Y-57921742D01*
X178741058Y-58007213D01*
X178883191Y-58066087D01*
X179034078Y-58096100D01*
X179187922Y-58096100D01*
X179338809Y-58066087D01*
X179480942Y-58007213D01*
X179608859Y-57921742D01*
X179717642Y-57812959D01*
X179803113Y-57685042D01*
X179861987Y-57542909D01*
X179892000Y-57392022D01*
X179892000Y-57317000D01*
X180600000Y-57317000D01*
X180600000Y-57867000D01*
X181608000Y-57867000D01*
X181608000Y-56476046D01*
X181862000Y-56476046D01*
X181862000Y-57867000D01*
X181882000Y-57867000D01*
X181882000Y-58121000D01*
X181862000Y-58121000D01*
X181862000Y-59511954D01*
X182036874Y-59638119D01*
X182259976Y-59558276D01*
X182447764Y-59436369D01*
X182608161Y-59280169D01*
X182735003Y-59095678D01*
X182823415Y-58889987D01*
X182870000Y-58671000D01*
X182870000Y-58105976D01*
X182959067Y-58142869D01*
X183095465Y-58170000D01*
X183234535Y-58170000D01*
X183370933Y-58142869D01*
X183499416Y-58089649D01*
X183615049Y-58012386D01*
X183713386Y-57914049D01*
X183790649Y-57798416D01*
X183843869Y-57669933D01*
X183871000Y-57533535D01*
X183871000Y-57394465D01*
X188239000Y-57394465D01*
X188239000Y-57533535D01*
X188266131Y-57669933D01*
X188319351Y-57798416D01*
X188396614Y-57914049D01*
X188494951Y-58012386D01*
X188610584Y-58089649D01*
X188739067Y-58142869D01*
X188875465Y-58170000D01*
X189014535Y-58170000D01*
X189150933Y-58142869D01*
X189240000Y-58105976D01*
X189240000Y-58671000D01*
X189286585Y-58889987D01*
X189374997Y-59095678D01*
X189501839Y-59280169D01*
X189662236Y-59436369D01*
X189850024Y-59558276D01*
X190073126Y-59638119D01*
X190248000Y-59511954D01*
X190248000Y-58121000D01*
X190502000Y-58121000D01*
X190502000Y-59511954D01*
X190676874Y-59638119D01*
X190899976Y-59558276D01*
X191087764Y-59436369D01*
X191248161Y-59280169D01*
X191375003Y-59095678D01*
X191463415Y-58889987D01*
X191510000Y-58671000D01*
X191510000Y-58121000D01*
X190502000Y-58121000D01*
X190248000Y-58121000D01*
X190228000Y-58121000D01*
X190228000Y-57867000D01*
X190248000Y-57867000D01*
X190248000Y-56476046D01*
X190502000Y-56476046D01*
X190502000Y-57867000D01*
X191510000Y-57867000D01*
X191510000Y-57333500D01*
X193494928Y-57333500D01*
X193507188Y-57457982D01*
X193543498Y-57577680D01*
X193602463Y-57687994D01*
X193681815Y-57784685D01*
X193778506Y-57864037D01*
X193888820Y-57923002D01*
X194008518Y-57959312D01*
X194133000Y-57971572D01*
X194722250Y-57968500D01*
X194881000Y-57809750D01*
X194881000Y-56835500D01*
X195135000Y-56835500D01*
X195135000Y-57809750D01*
X195293750Y-57968500D01*
X195883000Y-57971572D01*
X196007482Y-57959312D01*
X196127180Y-57923002D01*
X196237494Y-57864037D01*
X196334185Y-57784685D01*
X196413537Y-57687994D01*
X196472502Y-57577680D01*
X196508812Y-57457982D01*
X196521072Y-57333500D01*
X197240928Y-57333500D01*
X197253188Y-57457982D01*
X197289498Y-57577680D01*
X197348463Y-57687994D01*
X197427815Y-57784685D01*
X197524506Y-57864037D01*
X197634820Y-57923002D01*
X197754518Y-57959312D01*
X197879000Y-57971572D01*
X198468250Y-57968500D01*
X198627000Y-57809750D01*
X198627000Y-56835500D01*
X197402750Y-56835500D01*
X197244000Y-56994250D01*
X197240928Y-57333500D01*
X196521072Y-57333500D01*
X196518000Y-56994250D01*
X196359250Y-56835500D01*
X195135000Y-56835500D01*
X194881000Y-56835500D01*
X193656750Y-56835500D01*
X193498000Y-56994250D01*
X193494928Y-57333500D01*
X191510000Y-57333500D01*
X191510000Y-57317000D01*
X191463415Y-57098013D01*
X191375003Y-56892322D01*
X191248161Y-56707831D01*
X191087764Y-56551631D01*
X190899976Y-56429724D01*
X190676874Y-56349881D01*
X190502000Y-56476046D01*
X190248000Y-56476046D01*
X190073126Y-56349881D01*
X189850024Y-56429724D01*
X189662236Y-56551631D01*
X189501839Y-56707831D01*
X189374997Y-56892322D01*
X189371693Y-56900008D01*
X189279416Y-56838351D01*
X189150933Y-56785131D01*
X189014535Y-56758000D01*
X188875465Y-56758000D01*
X188739067Y-56785131D01*
X188610584Y-56838351D01*
X188494951Y-56915614D01*
X188396614Y-57013951D01*
X188319351Y-57129584D01*
X188266131Y-57258067D01*
X188239000Y-57394465D01*
X183871000Y-57394465D01*
X183843869Y-57258067D01*
X183790649Y-57129584D01*
X183713386Y-57013951D01*
X183615049Y-56915614D01*
X183499416Y-56838351D01*
X183370933Y-56785131D01*
X183234535Y-56758000D01*
X183095465Y-56758000D01*
X182959067Y-56785131D01*
X182830584Y-56838351D01*
X182738307Y-56900008D01*
X182735003Y-56892322D01*
X182608161Y-56707831D01*
X182447764Y-56551631D01*
X182259976Y-56429724D01*
X182036874Y-56349881D01*
X181862000Y-56476046D01*
X181608000Y-56476046D01*
X181433126Y-56349881D01*
X181210024Y-56429724D01*
X181022236Y-56551631D01*
X180861839Y-56707831D01*
X180734997Y-56892322D01*
X180646585Y-57098013D01*
X180600000Y-57317000D01*
X179892000Y-57317000D01*
X179892000Y-57238178D01*
X179861987Y-57087291D01*
X179803113Y-56945158D01*
X179717642Y-56817241D01*
X179608859Y-56708458D01*
X179480942Y-56622987D01*
X179338809Y-56564113D01*
X179187922Y-56534100D01*
X179151677Y-56534100D01*
X178701100Y-56083500D01*
X193494928Y-56083500D01*
X193498000Y-56422750D01*
X193656750Y-56581500D01*
X194881000Y-56581500D01*
X194881000Y-55607250D01*
X195135000Y-55607250D01*
X195135000Y-56581500D01*
X196359250Y-56581500D01*
X196518000Y-56422750D01*
X196521072Y-56083500D01*
X196508812Y-55959018D01*
X196472502Y-55839320D01*
X196413537Y-55729006D01*
X196334185Y-55632315D01*
X196237494Y-55552963D01*
X196127180Y-55493998D01*
X196007482Y-55457688D01*
X195883000Y-55445428D01*
X195293750Y-55448500D01*
X195135000Y-55607250D01*
X194881000Y-55607250D01*
X194722250Y-55448500D01*
X194133000Y-55445428D01*
X194008518Y-55457688D01*
X193888820Y-55493998D01*
X193778506Y-55552963D01*
X193681815Y-55632315D01*
X193602463Y-55729006D01*
X193543498Y-55839320D01*
X193507188Y-55959018D01*
X193494928Y-56083500D01*
X178701100Y-56083500D01*
X177599022Y-54981366D01*
X177580817Y-54959183D01*
X177498933Y-54891983D01*
X177492360Y-54886588D01*
X177492357Y-54886586D01*
X177492348Y-54886579D01*
X177418518Y-54847116D01*
X177391428Y-54832635D01*
X177391424Y-54832634D01*
X177391415Y-54832629D01*
X177315795Y-54809690D01*
X177281910Y-54799410D01*
X177281904Y-54799409D01*
X177281896Y-54799407D01*
X177222307Y-54793538D01*
X177168015Y-54788189D01*
X177139467Y-54791000D01*
X176397843Y-54791000D01*
X176397843Y-54747000D01*
X176385683Y-54623538D01*
X176349671Y-54504821D01*
X176291190Y-54395411D01*
X176212488Y-54299512D01*
X176116589Y-54220810D01*
X176007179Y-54162329D01*
X175888462Y-54126317D01*
X175765000Y-54114157D01*
X175015000Y-54114157D01*
X174891538Y-54126317D01*
X174772821Y-54162329D01*
X174663411Y-54220810D01*
X174567512Y-54299512D01*
X174488810Y-54395411D01*
X174430329Y-54504821D01*
X174394317Y-54623538D01*
X174382157Y-54747000D01*
X173597843Y-54747000D01*
X173585683Y-54623538D01*
X173549671Y-54504821D01*
X173491190Y-54395411D01*
X173412488Y-54299512D01*
X173316589Y-54220810D01*
X173207179Y-54162329D01*
X173088462Y-54126317D01*
X172965000Y-54114157D01*
X172215000Y-54114157D01*
X172091538Y-54126317D01*
X171972821Y-54162329D01*
X171863411Y-54220810D01*
X171767512Y-54299512D01*
X171688810Y-54395411D01*
X171630329Y-54504821D01*
X171594317Y-54623538D01*
X171582157Y-54747000D01*
X171582157Y-55997000D01*
X171594317Y-56120462D01*
X171630329Y-56239179D01*
X171688810Y-56348589D01*
X171767512Y-56444488D01*
X171863411Y-56523190D01*
X171972821Y-56581671D01*
X172009001Y-56592646D01*
X172009000Y-66450344D01*
X172006189Y-66478869D01*
X172009000Y-66507424D01*
X172009000Y-66507439D01*
X172011676Y-66534608D01*
X172017401Y-66592765D01*
X172017406Y-66592780D01*
X172017407Y-66592795D01*
X172032540Y-66642683D01*
X172050617Y-66702285D01*
X172050624Y-66702299D01*
X172050629Y-66702314D01*
X172079216Y-66755796D01*
X172104562Y-66803221D01*
X172104571Y-66803232D01*
X172104579Y-66803247D01*
X172149961Y-66858547D01*
X172158970Y-66869525D01*
X172158975Y-66869530D01*
X172177183Y-66891717D01*
X172199347Y-66909906D01*
X172540993Y-67251589D01*
X172482200Y-67245799D01*
X172482197Y-67245799D01*
X172459801Y-67243593D01*
X172437405Y-67245799D01*
X171834195Y-67245799D01*
X171811799Y-67243593D01*
X171789403Y-67245799D01*
X171789400Y-67245799D01*
X171722407Y-67252397D01*
X171636451Y-67278472D01*
X171557233Y-67320815D01*
X171532333Y-67341250D01*
X171487798Y-67377798D01*
X171473520Y-67395196D01*
X171154201Y-67714516D01*
X171136798Y-67728798D01*
X171079815Y-67798234D01*
X171037472Y-67877452D01*
X171011397Y-67963408D01*
X171005252Y-68025800D01*
X171002593Y-68052799D01*
X171004799Y-68075195D01*
X171004800Y-71381493D01*
X171002593Y-71403899D01*
X171011398Y-71493290D01*
X171037472Y-71579246D01*
X171079815Y-71658464D01*
X171110991Y-71696452D01*
X171136799Y-71727900D01*
X171154197Y-71742178D01*
X172533021Y-73121002D01*
X172523200Y-73170378D01*
X172523200Y-73324222D01*
X172553213Y-73475109D01*
X172612087Y-73617242D01*
X172697558Y-73745159D01*
X172806341Y-73853942D01*
X172934258Y-73939413D01*
X173076391Y-73998287D01*
X173227278Y-74028300D01*
X173381122Y-74028300D01*
X173532009Y-73998287D01*
X173674142Y-73939413D01*
X173802059Y-73853942D01*
X173910842Y-73745159D01*
X173996313Y-73617242D01*
X174055187Y-73475109D01*
X174085200Y-73324222D01*
X174085200Y-73170378D01*
X174055187Y-73019491D01*
X173996313Y-72877358D01*
X173910842Y-72749441D01*
X173802059Y-72640658D01*
X173674142Y-72555187D01*
X173532009Y-72496313D01*
X173381122Y-72466300D01*
X173227278Y-72466300D01*
X173177902Y-72476121D01*
X171916799Y-71215018D01*
X171916799Y-69129539D01*
X172058878Y-69157800D01*
X172212722Y-69157800D01*
X172262098Y-69147979D01*
X176572717Y-73458598D01*
X176586999Y-73476001D01*
X176618515Y-73501865D01*
X176656434Y-73532985D01*
X176710717Y-73561999D01*
X176735652Y-73575327D01*
X176821608Y-73601402D01*
X176888601Y-73608000D01*
X176888604Y-73608000D01*
X176911000Y-73610206D01*
X176933396Y-73608000D01*
X185471189Y-73608000D01*
X185499158Y-73649859D01*
X185607941Y-73758642D01*
X185735858Y-73844113D01*
X185877991Y-73902987D01*
X186028878Y-73933000D01*
X186182722Y-73933000D01*
X186333609Y-73902987D01*
X186475742Y-73844113D01*
X186603659Y-73758642D01*
X186712442Y-73649859D01*
X186797913Y-73521942D01*
X186856787Y-73379809D01*
X186886800Y-73228922D01*
X186886800Y-73075078D01*
X186856787Y-72924191D01*
X186797913Y-72782058D01*
X186712442Y-72654141D01*
X186603659Y-72545358D01*
X186475742Y-72459887D01*
X186333609Y-72401013D01*
X186182722Y-72371000D01*
X186028878Y-72371000D01*
X185877991Y-72401013D01*
X185735858Y-72459887D01*
X185607941Y-72545358D01*
X185499158Y-72654141D01*
X185471189Y-72696000D01*
X177099881Y-72696000D01*
X175471881Y-71068000D01*
X181305589Y-71068000D01*
X181333558Y-71109859D01*
X181442341Y-71218642D01*
X181570258Y-71304113D01*
X181712391Y-71362987D01*
X181863278Y-71393000D01*
X182017122Y-71393000D01*
X182168009Y-71362987D01*
X182310142Y-71304113D01*
X182438059Y-71218642D01*
X182546842Y-71109859D01*
X182632313Y-70981942D01*
X182691187Y-70839809D01*
X182721200Y-70688922D01*
X182721200Y-70535078D01*
X182691187Y-70384191D01*
X182632313Y-70242058D01*
X182546842Y-70114141D01*
X182438059Y-70005358D01*
X182310142Y-69919887D01*
X182168009Y-69861013D01*
X182017122Y-69831000D01*
X181863278Y-69831000D01*
X181712391Y-69861013D01*
X181570258Y-69919887D01*
X181442341Y-70005358D01*
X181333558Y-70114141D01*
X181305589Y-70156000D01*
X175558884Y-70156000D01*
X175244349Y-69841465D01*
X175275073Y-69850787D01*
X175275090Y-69850789D01*
X175275104Y-69850793D01*
X175330112Y-69856211D01*
X175388968Y-69862011D01*
X175417524Y-69859200D01*
X177199428Y-69859200D01*
X177227932Y-69862011D01*
X177256505Y-69859200D01*
X177256540Y-69859200D01*
X177286614Y-69856238D01*
X177341828Y-69850806D01*
X177341859Y-69850797D01*
X177341896Y-69850793D01*
X177401883Y-69832596D01*
X177451350Y-69817597D01*
X177451377Y-69817582D01*
X177451415Y-69817571D01*
X177507415Y-69787638D01*
X177552290Y-69763659D01*
X177552316Y-69763638D01*
X177552348Y-69763621D01*
X177600236Y-69724321D01*
X177618597Y-69709256D01*
X177618618Y-69709235D01*
X177640817Y-69691017D01*
X177658992Y-69668871D01*
X178141292Y-69186685D01*
X178256682Y-69221688D01*
X178437528Y-69239500D01*
X178558472Y-69239500D01*
X178739318Y-69221688D01*
X178971363Y-69151298D01*
X179185216Y-69036991D01*
X179372660Y-68883160D01*
X179526491Y-68695716D01*
X179640798Y-68481863D01*
X179711188Y-68249818D01*
X179734956Y-68008500D01*
X179711188Y-67767182D01*
X179640798Y-67535137D01*
X179536227Y-67339499D01*
X179750018Y-67339499D01*
X182084517Y-69673998D01*
X182098799Y-69691401D01*
X182168234Y-69748384D01*
X182247452Y-69790727D01*
X182333408Y-69816802D01*
X182400401Y-69823400D01*
X182400403Y-69823400D01*
X182422799Y-69825606D01*
X182445195Y-69823400D01*
X188386402Y-69823400D01*
X188408798Y-69825606D01*
X188431194Y-69823400D01*
X188431197Y-69823400D01*
X188498190Y-69816802D01*
X188584146Y-69790727D01*
X188663364Y-69748384D01*
X188732799Y-69691401D01*
X188747081Y-69673998D01*
X191081879Y-67339200D01*
X195119601Y-67339200D01*
X195142000Y-67341406D01*
X195164399Y-67339200D01*
X195231392Y-67332602D01*
X195317348Y-67306527D01*
X195396566Y-67264184D01*
X195466001Y-67207201D01*
X195483487Y-67185894D01*
X199311702Y-63357679D01*
X199361078Y-63367500D01*
X199514922Y-63367500D01*
X199665809Y-63337487D01*
X199807942Y-63278613D01*
X199935859Y-63193142D01*
X200044642Y-63084359D01*
X200130113Y-62956442D01*
X200188987Y-62814309D01*
X200219000Y-62663422D01*
X200219000Y-62509578D01*
X200188987Y-62358691D01*
X200138829Y-62237600D01*
X200343389Y-62237600D01*
X200371358Y-62279459D01*
X200480141Y-62388242D01*
X200608058Y-62473713D01*
X200750191Y-62532587D01*
X200901078Y-62562600D01*
X200980830Y-62562600D01*
X193133290Y-70410320D01*
X193083922Y-70400500D01*
X192930078Y-70400500D01*
X192779191Y-70430513D01*
X192637058Y-70489387D01*
X192509141Y-70574858D01*
X192400358Y-70683641D01*
X192314887Y-70811558D01*
X192256013Y-70953691D01*
X192226000Y-71104578D01*
X192226000Y-71258422D01*
X192256013Y-71409309D01*
X192258702Y-71415800D01*
X191995611Y-71415800D01*
X191967642Y-71373941D01*
X191858859Y-71265158D01*
X191730942Y-71179687D01*
X191588809Y-71120813D01*
X191437922Y-71090800D01*
X191284078Y-71090800D01*
X191133191Y-71120813D01*
X190991058Y-71179687D01*
X190863141Y-71265158D01*
X190754358Y-71373941D01*
X190668887Y-71501858D01*
X190610013Y-71643991D01*
X190580000Y-71794878D01*
X190580000Y-71948722D01*
X190610013Y-72099609D01*
X190668887Y-72241742D01*
X190754358Y-72369659D01*
X190863141Y-72478442D01*
X190991058Y-72563913D01*
X191133191Y-72622787D01*
X191284078Y-72652800D01*
X191437922Y-72652800D01*
X191588809Y-72622787D01*
X191730942Y-72563913D01*
X191858859Y-72478442D01*
X191967642Y-72369659D01*
X191995611Y-72327800D01*
X194208599Y-72327800D01*
X194230992Y-72330006D01*
X194253393Y-72327800D01*
X194253399Y-72327800D01*
X194320392Y-72321202D01*
X194396270Y-72298184D01*
X194406339Y-72295130D01*
X194406340Y-72295129D01*
X194406348Y-72295127D01*
X194462932Y-72264882D01*
X194485558Y-72252789D01*
X194485561Y-72252787D01*
X194485566Y-72252784D01*
X194555001Y-72195801D01*
X194569282Y-72178399D01*
X199667876Y-67080000D01*
X205017389Y-67080000D01*
X205045358Y-67121859D01*
X205154141Y-67230642D01*
X205232426Y-67282950D01*
X205132141Y-67349958D01*
X205023358Y-67458741D01*
X204995322Y-67500700D01*
X200749418Y-67500700D01*
X200727042Y-67498494D01*
X200704623Y-67500700D01*
X200704601Y-67500700D01*
X200680657Y-67503058D01*
X200637650Y-67507290D01*
X200637631Y-67507296D01*
X200637608Y-67507298D01*
X200591913Y-67521160D01*
X200551691Y-67533357D01*
X200551673Y-67533367D01*
X200551652Y-67533373D01*
X200511716Y-67554719D01*
X200472470Y-67575692D01*
X200472453Y-67575706D01*
X200472434Y-67575716D01*
X200433063Y-67608026D01*
X200420429Y-67618393D01*
X200420419Y-67618403D01*
X200402999Y-67632699D01*
X200388730Y-67650086D01*
X197744424Y-70293899D01*
X197726999Y-70308199D01*
X197696209Y-70345718D01*
X197670039Y-70377599D01*
X197670027Y-70377622D01*
X197670016Y-70377635D01*
X197650485Y-70414174D01*
X197627690Y-70456813D01*
X197627684Y-70456832D01*
X197627673Y-70456853D01*
X197612944Y-70505408D01*
X197601607Y-70542767D01*
X197601605Y-70542785D01*
X197601598Y-70542809D01*
X197596880Y-70590711D01*
X197592794Y-70632158D01*
X197595000Y-70654577D01*
X197595001Y-72904988D01*
X197553141Y-72932958D01*
X197444358Y-73041741D01*
X197358887Y-73169658D01*
X197300013Y-73311791D01*
X197270000Y-73462678D01*
X197270000Y-73616522D01*
X197300013Y-73767409D01*
X197358887Y-73909542D01*
X197444358Y-74037459D01*
X197553141Y-74146242D01*
X197677769Y-74229515D01*
X196466126Y-75441100D01*
X191597396Y-75441100D01*
X191574995Y-75438894D01*
X191536331Y-75442702D01*
X191485608Y-75447698D01*
X191485605Y-75447699D01*
X191485604Y-75447699D01*
X191459272Y-75455687D01*
X191399652Y-75473773D01*
X191399650Y-75473774D01*
X191399647Y-75473775D01*
X191320430Y-75516118D01*
X191282972Y-75546860D01*
X191250999Y-75573099D01*
X191236718Y-75590501D01*
X178040427Y-88787094D01*
X178085000Y-88563008D01*
X178085000Y-88093992D01*
X177993500Y-87633988D01*
X177814015Y-87200673D01*
X177553444Y-86810701D01*
X177221799Y-86479056D01*
X176831827Y-86218485D01*
X176398512Y-86039000D01*
X175938508Y-85947500D01*
X175469492Y-85947500D01*
X175009488Y-86039000D01*
X174576173Y-86218485D01*
X174186201Y-86479056D01*
X173854556Y-86810701D01*
X173593985Y-87200673D01*
X173414500Y-87633988D01*
X173323000Y-88093992D01*
X173323000Y-88563008D01*
X173414500Y-89023012D01*
X173593985Y-89456327D01*
X173854556Y-89846299D01*
X174186201Y-90177944D01*
X174576173Y-90438515D01*
X175009488Y-90618000D01*
X175469492Y-90709500D01*
X175938508Y-90709500D01*
X176162648Y-90664916D01*
X174333923Y-92493683D01*
X174314368Y-92464417D01*
X174108083Y-92258132D01*
X173865517Y-92096055D01*
X173595992Y-91984414D01*
X173309866Y-91927500D01*
X173018134Y-91927500D01*
X172732008Y-91984414D01*
X172462483Y-92096055D01*
X172219917Y-92258132D01*
X172013632Y-92464417D01*
X171851555Y-92706983D01*
X171739914Y-92976508D01*
X171683000Y-93262634D01*
X171683000Y-93554366D01*
X171739914Y-93840492D01*
X171851555Y-94110017D01*
X172013632Y-94352583D01*
X172219917Y-94558868D01*
X172462483Y-94720945D01*
X172732008Y-94832586D01*
X173018134Y-94889500D01*
X173309866Y-94889500D01*
X173595992Y-94832586D01*
X173865517Y-94720945D01*
X174108083Y-94558868D01*
X174314368Y-94352583D01*
X174476445Y-94110017D01*
X174588086Y-93840492D01*
X174645000Y-93554366D01*
X174645000Y-93472375D01*
X177394678Y-90722634D01*
X178033000Y-90722634D01*
X178033000Y-91014366D01*
X178089914Y-91300492D01*
X178201555Y-91570017D01*
X178363632Y-91812583D01*
X178569917Y-92018868D01*
X178812483Y-92180945D01*
X179082008Y-92292586D01*
X179368134Y-92349500D01*
X179659866Y-92349500D01*
X179945992Y-92292586D01*
X180215517Y-92180945D01*
X180458083Y-92018868D01*
X180664368Y-91812583D01*
X180826445Y-91570017D01*
X180928142Y-91324500D01*
X182323119Y-91324500D01*
X182682717Y-91684098D01*
X182696999Y-91701501D01*
X182737230Y-91734518D01*
X182766434Y-91758485D01*
X182845508Y-91800750D01*
X182845652Y-91800827D01*
X182913157Y-91821305D01*
X182913157Y-91827500D01*
X182920513Y-91902189D01*
X182942299Y-91974008D01*
X182977678Y-92040196D01*
X183025289Y-92098211D01*
X183083304Y-92145822D01*
X183149492Y-92181201D01*
X183221311Y-92202987D01*
X183296000Y-92210343D01*
X184496000Y-92210343D01*
X184570689Y-92202987D01*
X184642508Y-92181201D01*
X184708696Y-92145822D01*
X184766711Y-92098211D01*
X184814322Y-92040196D01*
X184849701Y-91974008D01*
X184871487Y-91902189D01*
X184878843Y-91827500D01*
X184878843Y-90927500D01*
X184871487Y-90852811D01*
X184849701Y-90780992D01*
X184814322Y-90714804D01*
X184766711Y-90656789D01*
X184708696Y-90609178D01*
X184642508Y-90573799D01*
X184570689Y-90552013D01*
X184496000Y-90544657D01*
X183296000Y-90544657D01*
X183221311Y-90552013D01*
X183149492Y-90573799D01*
X183083304Y-90609178D01*
X183025289Y-90656789D01*
X182989175Y-90700794D01*
X182850283Y-90561902D01*
X182836001Y-90544499D01*
X182766566Y-90487516D01*
X182687348Y-90445173D01*
X182601392Y-90419098D01*
X182534399Y-90412500D01*
X182534396Y-90412500D01*
X182512000Y-90410294D01*
X182489604Y-90412500D01*
X180928142Y-90412500D01*
X180826445Y-90166983D01*
X180664368Y-89924417D01*
X180458083Y-89718132D01*
X180215517Y-89556055D01*
X179945992Y-89444414D01*
X179659866Y-89387500D01*
X179368134Y-89387500D01*
X179082008Y-89444414D01*
X178812483Y-89556055D01*
X178569917Y-89718132D01*
X178363632Y-89924417D01*
X178201555Y-90166983D01*
X178089914Y-90436508D01*
X178033000Y-90722634D01*
X177394678Y-90722634D01*
X191763885Y-76353100D01*
X196632598Y-76353100D01*
X196654989Y-76355306D01*
X196677390Y-76353100D01*
X196677399Y-76353100D01*
X196744392Y-76346502D01*
X196813082Y-76325665D01*
X196830337Y-76320431D01*
X196830340Y-76320429D01*
X196830348Y-76320427D01*
X196872465Y-76297915D01*
X196909556Y-76278091D01*
X196909562Y-76278086D01*
X196909566Y-76278084D01*
X196979001Y-76221101D01*
X196993281Y-76203701D01*
X199033596Y-74163485D01*
X199051001Y-74149201D01*
X199086700Y-74105701D01*
X199107978Y-74079775D01*
X199107981Y-74079770D01*
X199107984Y-74079766D01*
X199130598Y-74037459D01*
X199150323Y-74000558D01*
X199150325Y-74000552D01*
X199150327Y-74000548D01*
X199176402Y-73914592D01*
X199183000Y-73847599D01*
X199183000Y-73847598D01*
X199185206Y-73825211D01*
X199183000Y-73802807D01*
X199183000Y-73541908D01*
X199208358Y-73579859D01*
X199317141Y-73688642D01*
X199359001Y-73716612D01*
X199359000Y-86878238D01*
X199271444Y-86747201D01*
X198939799Y-86415556D01*
X198549827Y-86154985D01*
X198116512Y-85975500D01*
X197656508Y-85884000D01*
X197187492Y-85884000D01*
X196727488Y-85975500D01*
X196294173Y-86154985D01*
X195904201Y-86415556D01*
X195572556Y-86747201D01*
X195311985Y-87137173D01*
X195132500Y-87570488D01*
X195041000Y-88030492D01*
X195041000Y-88499508D01*
X195132500Y-88959512D01*
X195311985Y-89392827D01*
X195572556Y-89782799D01*
X195904201Y-90114444D01*
X196294173Y-90375015D01*
X196727488Y-90554500D01*
X197187492Y-90646000D01*
X197656508Y-90646000D01*
X198116512Y-90554500D01*
X198549827Y-90375015D01*
X198939799Y-90114444D01*
X199271444Y-89782799D01*
X199359000Y-89651762D01*
X199359000Y-94279400D01*
X196038838Y-94279400D01*
X196194445Y-94046517D01*
X196306086Y-93776992D01*
X196363000Y-93490866D01*
X196363000Y-93199134D01*
X196306086Y-92913008D01*
X196194445Y-92643483D01*
X196032368Y-92400917D01*
X195826083Y-92194632D01*
X195583517Y-92032555D01*
X195313992Y-91920914D01*
X195027866Y-91864000D01*
X194736134Y-91864000D01*
X194450008Y-91920914D01*
X194180483Y-92032555D01*
X193937917Y-92194632D01*
X193731632Y-92400917D01*
X193569555Y-92643483D01*
X193457914Y-92913008D01*
X193401000Y-93199134D01*
X193401000Y-93490866D01*
X193457914Y-93776992D01*
X193569555Y-94046517D01*
X193725162Y-94279400D01*
X184993560Y-94279400D01*
X184986067Y-94275403D01*
X184946348Y-94254173D01*
X184946156Y-94254115D01*
X184945982Y-94254022D01*
X184904058Y-94241344D01*
X184878843Y-94233695D01*
X184878843Y-94227500D01*
X184871487Y-94152811D01*
X184849701Y-94080992D01*
X184814322Y-94014804D01*
X184766711Y-93956789D01*
X184708696Y-93909178D01*
X184642508Y-93873799D01*
X184570689Y-93852013D01*
X184496000Y-93844657D01*
X183296000Y-93844657D01*
X183221311Y-93852013D01*
X183149492Y-93873799D01*
X183083304Y-93909178D01*
X183025289Y-93956789D01*
X182977678Y-94014804D01*
X182942299Y-94080992D01*
X182920513Y-94152811D01*
X182913157Y-94227500D01*
X182913157Y-95127500D01*
X182920513Y-95202189D01*
X182942299Y-95274008D01*
X182977678Y-95340196D01*
X183025289Y-95398211D01*
X183083304Y-95445822D01*
X183149492Y-95481201D01*
X183221311Y-95502987D01*
X183296000Y-95510343D01*
X184496000Y-95510343D01*
X184570689Y-95502987D01*
X184642508Y-95481201D01*
X184708696Y-95445822D01*
X184766711Y-95398211D01*
X184814322Y-95340196D01*
X184849701Y-95274008D01*
X184871487Y-95202189D01*
X184872550Y-95191400D01*
X199734405Y-95191400D01*
X199756605Y-95193606D01*
X199779200Y-95191400D01*
X199779399Y-95191400D01*
X199802030Y-95189171D01*
X199846003Y-95184878D01*
X199846188Y-95184822D01*
X199846392Y-95184802D01*
X199890058Y-95171556D01*
X199931982Y-95158878D01*
X199932156Y-95158785D01*
X199932348Y-95158727D01*
X199972067Y-95137497D01*
X199979560Y-95133500D01*
X204630748Y-95133500D01*
X204637513Y-95202189D01*
X204659299Y-95274008D01*
X204694678Y-95340196D01*
X204742289Y-95398211D01*
X204800304Y-95445822D01*
X204866492Y-95481201D01*
X204938311Y-95502987D01*
X205013000Y-95510343D01*
X206213000Y-95510343D01*
X206287689Y-95502987D01*
X206359508Y-95481201D01*
X206425696Y-95445822D01*
X206483711Y-95398211D01*
X206531322Y-95340196D01*
X206566701Y-95274008D01*
X206588487Y-95202189D01*
X206595843Y-95127500D01*
X206595843Y-94227500D01*
X206588487Y-94152811D01*
X206566701Y-94080992D01*
X206531322Y-94014804D01*
X206483711Y-93956789D01*
X206425696Y-93909178D01*
X206359508Y-93873799D01*
X206287689Y-93852013D01*
X206213000Y-93844657D01*
X205013000Y-93844657D01*
X204938311Y-93852013D01*
X204866492Y-93873799D01*
X204800304Y-93909178D01*
X204742289Y-93956789D01*
X204694678Y-94014804D01*
X204659299Y-94080992D01*
X204637513Y-94152811D01*
X204630748Y-94221500D01*
X200271000Y-94221500D01*
X200271000Y-91938451D01*
X200287917Y-91955368D01*
X200530483Y-92117445D01*
X200800008Y-92229086D01*
X201086134Y-92286000D01*
X201377866Y-92286000D01*
X201663992Y-92229086D01*
X201933517Y-92117445D01*
X202176083Y-91955368D01*
X202382368Y-91749083D01*
X202544445Y-91506517D01*
X202646142Y-91261000D01*
X203976236Y-91261000D01*
X204399784Y-91684179D01*
X204413999Y-91701501D01*
X204431475Y-91715843D01*
X204431545Y-91715913D01*
X204449335Y-91730500D01*
X204483434Y-91758484D01*
X204483518Y-91758529D01*
X204483600Y-91758596D01*
X204523550Y-91779926D01*
X204562652Y-91800827D01*
X204562751Y-91800857D01*
X204562837Y-91800903D01*
X204603880Y-91813333D01*
X204630157Y-91821305D01*
X204630157Y-91827500D01*
X204637513Y-91902189D01*
X204659299Y-91974008D01*
X204694678Y-92040196D01*
X204742289Y-92098211D01*
X204800304Y-92145822D01*
X204866492Y-92181201D01*
X204938311Y-92202987D01*
X205013000Y-92210343D01*
X206213000Y-92210343D01*
X206287689Y-92202987D01*
X206359508Y-92181201D01*
X206425696Y-92145822D01*
X206483711Y-92098211D01*
X206531322Y-92040196D01*
X206566701Y-91974008D01*
X206588487Y-91902189D01*
X206595843Y-91827500D01*
X206595843Y-90927500D01*
X206588487Y-90852811D01*
X206566701Y-90780992D01*
X206531322Y-90714804D01*
X206483711Y-90656789D01*
X206425696Y-90609178D01*
X206359508Y-90573799D01*
X206287689Y-90552013D01*
X206213000Y-90544657D01*
X205013000Y-90544657D01*
X204938311Y-90552013D01*
X204866492Y-90573799D01*
X204800304Y-90609178D01*
X204742289Y-90656789D01*
X204706036Y-90700964D01*
X204503225Y-90498331D01*
X204489001Y-90480999D01*
X204471514Y-90466648D01*
X204471454Y-90466588D01*
X204456239Y-90454112D01*
X204419566Y-90424016D01*
X204419475Y-90423967D01*
X204419399Y-90423905D01*
X204381257Y-90403539D01*
X204340348Y-90381673D01*
X204340247Y-90381642D01*
X204340162Y-90381597D01*
X204299746Y-90369356D01*
X204254392Y-90355598D01*
X204254285Y-90355587D01*
X204254194Y-90355560D01*
X204210934Y-90351318D01*
X204187399Y-90349000D01*
X204187296Y-90349000D01*
X204164800Y-90346794D01*
X204142504Y-90349000D01*
X202646142Y-90349000D01*
X202544445Y-90103483D01*
X202382368Y-89860917D01*
X202176083Y-89654632D01*
X201933517Y-89492555D01*
X201663992Y-89380914D01*
X201377866Y-89324000D01*
X201086134Y-89324000D01*
X200800008Y-89380914D01*
X200530483Y-89492555D01*
X200287917Y-89654632D01*
X200271000Y-89671549D01*
X200271000Y-79018500D01*
X205708928Y-79018500D01*
X205721188Y-79142982D01*
X205757498Y-79262680D01*
X205816463Y-79372994D01*
X205895815Y-79469685D01*
X205992506Y-79549037D01*
X206102820Y-79608002D01*
X206222518Y-79644312D01*
X206347000Y-79656572D01*
X206686250Y-79653500D01*
X206845000Y-79494750D01*
X206845000Y-78270500D01*
X207099000Y-78270500D01*
X207099000Y-79494750D01*
X207257750Y-79653500D01*
X207597000Y-79656572D01*
X207721482Y-79644312D01*
X207841180Y-79608002D01*
X207951494Y-79549037D01*
X208048185Y-79469685D01*
X208127537Y-79372994D01*
X208186502Y-79262680D01*
X208222812Y-79142982D01*
X208235072Y-79018500D01*
X208232000Y-78429250D01*
X208073250Y-78270500D01*
X207099000Y-78270500D01*
X206845000Y-78270500D01*
X205870750Y-78270500D01*
X205712000Y-78429250D01*
X205708928Y-79018500D01*
X200271000Y-79018500D01*
X200271000Y-73716611D01*
X200312859Y-73688642D01*
X200421642Y-73579859D01*
X200507113Y-73451942D01*
X200565987Y-73309809D01*
X200596000Y-73158922D01*
X200596000Y-73005078D01*
X200565987Y-72854191D01*
X200526383Y-72758578D01*
X201668000Y-72758578D01*
X201668000Y-72912422D01*
X201698013Y-73063309D01*
X201756887Y-73205442D01*
X201842358Y-73333359D01*
X201951141Y-73442142D01*
X202079058Y-73527613D01*
X202221191Y-73586487D01*
X202372078Y-73616500D01*
X202525922Y-73616500D01*
X202575298Y-73606679D01*
X205575720Y-76607102D01*
X205589999Y-76624501D01*
X205659434Y-76681484D01*
X205738652Y-76723827D01*
X205824608Y-76749902D01*
X205891601Y-76756500D01*
X205891604Y-76756500D01*
X205914000Y-76758706D01*
X205936396Y-76756500D01*
X205969919Y-76756500D01*
X205895815Y-76817315D01*
X205816463Y-76914006D01*
X205757498Y-77024320D01*
X205721188Y-77144018D01*
X205708928Y-77268500D01*
X205712000Y-77857750D01*
X205870750Y-78016500D01*
X206845000Y-78016500D01*
X206845000Y-77996500D01*
X207099000Y-77996500D01*
X207099000Y-78016500D01*
X208073250Y-78016500D01*
X208232000Y-77857750D01*
X208235072Y-77268500D01*
X208233210Y-77249591D01*
X208764157Y-77780538D01*
X208764157Y-78768500D01*
X208776317Y-78891962D01*
X208812329Y-79010679D01*
X208870810Y-79120089D01*
X208949512Y-79215988D01*
X209045411Y-79294690D01*
X209154821Y-79353171D01*
X209273538Y-79389183D01*
X209397000Y-79401343D01*
X210147000Y-79401343D01*
X210270462Y-79389183D01*
X210389179Y-79353171D01*
X210498589Y-79294690D01*
X210594488Y-79215988D01*
X210673190Y-79120089D01*
X210731671Y-79010679D01*
X210767683Y-78891962D01*
X210779843Y-78768500D01*
X210779843Y-77518500D01*
X210767683Y-77395038D01*
X210731671Y-77276321D01*
X210673190Y-77166911D01*
X210594488Y-77071012D01*
X210498589Y-76992310D01*
X210389179Y-76933829D01*
X210270462Y-76897817D01*
X210147000Y-76885657D01*
X209397000Y-76885657D01*
X209273538Y-76897817D01*
X209195017Y-76921636D01*
X208267283Y-75993902D01*
X208253001Y-75976499D01*
X208183566Y-75919516D01*
X208104348Y-75877173D01*
X208018392Y-75851098D01*
X207954291Y-75844785D01*
X207987494Y-75827037D01*
X208084185Y-75747685D01*
X208163537Y-75650994D01*
X208222502Y-75540680D01*
X208258812Y-75420982D01*
X208271072Y-75296500D01*
X208268000Y-74707250D01*
X208109250Y-74548500D01*
X207135000Y-74548500D01*
X207135000Y-74568500D01*
X206881000Y-74568500D01*
X206881000Y-74548500D01*
X205906750Y-74548500D01*
X205748000Y-74707250D01*
X205744928Y-75296500D01*
X205757188Y-75420982D01*
X205791075Y-75532693D01*
X203804882Y-73546500D01*
X205744928Y-73546500D01*
X205748000Y-74135750D01*
X205906750Y-74294500D01*
X206881000Y-74294500D01*
X206881000Y-73070250D01*
X207135000Y-73070250D01*
X207135000Y-74294500D01*
X208109250Y-74294500D01*
X208268000Y-74135750D01*
X208271072Y-73546500D01*
X208258812Y-73422018D01*
X208222502Y-73302320D01*
X208163537Y-73192006D01*
X208084185Y-73095315D01*
X207987494Y-73015963D01*
X207877180Y-72956998D01*
X207757482Y-72920688D01*
X207633000Y-72908428D01*
X207293750Y-72911500D01*
X207135000Y-73070250D01*
X206881000Y-73070250D01*
X206722250Y-72911500D01*
X206383000Y-72908428D01*
X206258518Y-72920688D01*
X206138820Y-72956998D01*
X206028506Y-73015963D01*
X205931815Y-73095315D01*
X205852463Y-73192006D01*
X205793498Y-73302320D01*
X205757188Y-73422018D01*
X205744928Y-73546500D01*
X203804882Y-73546500D01*
X203220179Y-72961798D01*
X203230000Y-72912422D01*
X203230000Y-72758578D01*
X203199987Y-72607691D01*
X203141113Y-72465558D01*
X203055642Y-72337641D01*
X202946859Y-72228858D01*
X202818942Y-72143387D01*
X202676809Y-72084513D01*
X202525922Y-72054500D01*
X202372078Y-72054500D01*
X202221191Y-72084513D01*
X202079058Y-72143387D01*
X201951141Y-72228858D01*
X201842358Y-72337641D01*
X201756887Y-72465558D01*
X201698013Y-72607691D01*
X201668000Y-72758578D01*
X200526383Y-72758578D01*
X200507113Y-72712058D01*
X200421642Y-72584141D01*
X200345188Y-72507687D01*
X200387113Y-72444942D01*
X200445987Y-72302809D01*
X200476000Y-72151922D01*
X200476000Y-71998078D01*
X200445987Y-71847191D01*
X200387113Y-71705058D01*
X200368700Y-71677500D01*
X205744928Y-71677500D01*
X205757188Y-71801982D01*
X205793498Y-71921680D01*
X205852463Y-72031994D01*
X205931815Y-72128685D01*
X206028506Y-72208037D01*
X206138820Y-72267002D01*
X206258518Y-72303312D01*
X206383000Y-72315572D01*
X206722250Y-72312500D01*
X206881000Y-72153750D01*
X206881000Y-70929500D01*
X207135000Y-70929500D01*
X207135000Y-72153750D01*
X207293750Y-72312500D01*
X207633000Y-72315572D01*
X207757482Y-72303312D01*
X207877180Y-72267002D01*
X207987494Y-72208037D01*
X208084185Y-72128685D01*
X208163537Y-72031994D01*
X208222502Y-71921680D01*
X208258812Y-71801982D01*
X208271072Y-71677500D01*
X208268000Y-71088250D01*
X208109250Y-70929500D01*
X207135000Y-70929500D01*
X206881000Y-70929500D01*
X205906750Y-70929500D01*
X205748000Y-71088250D01*
X205744928Y-71677500D01*
X200368700Y-71677500D01*
X200301642Y-71577141D01*
X200192859Y-71468358D01*
X200064942Y-71382887D01*
X199922809Y-71324013D01*
X199771922Y-71294000D01*
X199618078Y-71294000D01*
X199467191Y-71324013D01*
X199325058Y-71382887D01*
X199197141Y-71468358D01*
X199088358Y-71577141D01*
X199002887Y-71705058D01*
X198944013Y-71847191D01*
X198914000Y-71998078D01*
X198914000Y-72151922D01*
X198923844Y-72201414D01*
X198507000Y-72618388D01*
X198507000Y-70821105D01*
X199400772Y-69927500D01*
X205744928Y-69927500D01*
X205748000Y-70516750D01*
X205906750Y-70675500D01*
X206881000Y-70675500D01*
X206881000Y-69451250D01*
X207135000Y-69451250D01*
X207135000Y-70675500D01*
X208109250Y-70675500D01*
X208268000Y-70516750D01*
X208271072Y-69927500D01*
X208258812Y-69803018D01*
X208222502Y-69683320D01*
X208163537Y-69573006D01*
X208084185Y-69476315D01*
X207987494Y-69396963D01*
X207877180Y-69337998D01*
X207757482Y-69301688D01*
X207633000Y-69289428D01*
X207293750Y-69292500D01*
X207135000Y-69451250D01*
X206881000Y-69451250D01*
X206722250Y-69292500D01*
X206383000Y-69289428D01*
X206258518Y-69301688D01*
X206138820Y-69337998D01*
X206028506Y-69396963D01*
X205931815Y-69476315D01*
X205852463Y-69573006D01*
X205793498Y-69683320D01*
X205757188Y-69803018D01*
X205744928Y-69927500D01*
X199400772Y-69927500D01*
X200915856Y-68412700D01*
X204995456Y-68412700D01*
X205023358Y-68454459D01*
X205132141Y-68563242D01*
X205260058Y-68648713D01*
X205402191Y-68707587D01*
X205553078Y-68737600D01*
X205706922Y-68737600D01*
X205857809Y-68707587D01*
X205999942Y-68648713D01*
X206127859Y-68563242D01*
X206163586Y-68527515D01*
X206258518Y-68556312D01*
X206383000Y-68568572D01*
X206722250Y-68565500D01*
X206881000Y-68406750D01*
X206881000Y-67182500D01*
X207135000Y-67182500D01*
X207135000Y-68406750D01*
X207293750Y-68565500D01*
X207633000Y-68568572D01*
X207757482Y-68556312D01*
X207877180Y-68520002D01*
X207987494Y-68461037D01*
X208084185Y-68381685D01*
X208163537Y-68284994D01*
X208222502Y-68174680D01*
X208258812Y-68054982D01*
X208271072Y-67930500D01*
X208268000Y-67341250D01*
X208109250Y-67182500D01*
X207135000Y-67182500D01*
X206881000Y-67182500D01*
X206861000Y-67182500D01*
X206861000Y-66928500D01*
X206881000Y-66928500D01*
X206881000Y-65704250D01*
X207135000Y-65704250D01*
X207135000Y-66928500D01*
X208109250Y-66928500D01*
X208268000Y-66769750D01*
X208271072Y-66180500D01*
X208258812Y-66056018D01*
X208222502Y-65936320D01*
X208163537Y-65826006D01*
X208084185Y-65729315D01*
X207987494Y-65649963D01*
X207877180Y-65590998D01*
X207757482Y-65554688D01*
X207633000Y-65542428D01*
X207293750Y-65545500D01*
X207135000Y-65704250D01*
X206881000Y-65704250D01*
X206722250Y-65545500D01*
X206383000Y-65542428D01*
X206258518Y-65554688D01*
X206148557Y-65588044D01*
X206227642Y-65508959D01*
X206313113Y-65381042D01*
X206371987Y-65238909D01*
X206402000Y-65088022D01*
X206402000Y-64934178D01*
X206371987Y-64783291D01*
X206313113Y-64641158D01*
X206301691Y-64624064D01*
X206383000Y-64632072D01*
X206722250Y-64629000D01*
X206881000Y-64470250D01*
X206881000Y-63246000D01*
X206861000Y-63246000D01*
X206861000Y-62992000D01*
X206881000Y-62992000D01*
X206881000Y-61767750D01*
X207135000Y-61767750D01*
X207135000Y-62992000D01*
X207155000Y-62992000D01*
X207155000Y-63246000D01*
X207135000Y-63246000D01*
X207135000Y-64470250D01*
X207293750Y-64629000D01*
X207633000Y-64632072D01*
X207757482Y-64619812D01*
X207877180Y-64583502D01*
X207987494Y-64524537D01*
X208084185Y-64445185D01*
X208163537Y-64348494D01*
X208222502Y-64238180D01*
X208258812Y-64118482D01*
X208271072Y-63994000D01*
X208270400Y-63865173D01*
X208278078Y-63866700D01*
X208431922Y-63866700D01*
X208582809Y-63836687D01*
X208724942Y-63777813D01*
X208800157Y-63727556D01*
X208800157Y-63744000D01*
X208812317Y-63867462D01*
X208848329Y-63986179D01*
X208906810Y-64095589D01*
X208985512Y-64191488D01*
X209081411Y-64270190D01*
X209190821Y-64328671D01*
X209227000Y-64339646D01*
X209227001Y-65834854D01*
X209190821Y-65845829D01*
X209081411Y-65904310D01*
X208985512Y-65983012D01*
X208906810Y-66078911D01*
X208848329Y-66188321D01*
X208812317Y-66307038D01*
X208800157Y-66430500D01*
X208800157Y-67680500D01*
X208812317Y-67803962D01*
X208848329Y-67922679D01*
X208906810Y-68032089D01*
X208985512Y-68127988D01*
X209081411Y-68206690D01*
X209190821Y-68265171D01*
X209227001Y-68276146D01*
X209227000Y-69581854D01*
X209190821Y-69592829D01*
X209081411Y-69651310D01*
X208985512Y-69730012D01*
X208906810Y-69825911D01*
X208848329Y-69935321D01*
X208812317Y-70054038D01*
X208800157Y-70177500D01*
X208800157Y-71427500D01*
X208812317Y-71550962D01*
X208848329Y-71669679D01*
X208906810Y-71779089D01*
X208985512Y-71874988D01*
X209081411Y-71953690D01*
X209190821Y-72012171D01*
X209227001Y-72023146D01*
X209227000Y-73200854D01*
X209190821Y-73211829D01*
X209081411Y-73270310D01*
X208985512Y-73349012D01*
X208906810Y-73444911D01*
X208848329Y-73554321D01*
X208812317Y-73673038D01*
X208800157Y-73796500D01*
X208800157Y-75046500D01*
X208812317Y-75169962D01*
X208848329Y-75288679D01*
X208906810Y-75398089D01*
X208985512Y-75493988D01*
X209081411Y-75572690D01*
X209190821Y-75631171D01*
X209309538Y-75667183D01*
X209433000Y-75679343D01*
X210183000Y-75679343D01*
X210306462Y-75667183D01*
X210425179Y-75631171D01*
X210534589Y-75572690D01*
X210630488Y-75493988D01*
X210709190Y-75398089D01*
X210767671Y-75288679D01*
X210803683Y-75169962D01*
X210815843Y-75046500D01*
X210815843Y-73796500D01*
X210803683Y-73673038D01*
X210767671Y-73554321D01*
X210709190Y-73444911D01*
X210630488Y-73349012D01*
X210534589Y-73270310D01*
X210425179Y-73211829D01*
X210389000Y-73200854D01*
X210389000Y-72023146D01*
X210425179Y-72012171D01*
X210534589Y-71953690D01*
X210630488Y-71874988D01*
X210709190Y-71779089D01*
X210767671Y-71669679D01*
X210803683Y-71550962D01*
X210815843Y-71427500D01*
X210815843Y-70177500D01*
X210803683Y-70054038D01*
X210767671Y-69935321D01*
X210709190Y-69825911D01*
X210630488Y-69730012D01*
X210534589Y-69651310D01*
X210425179Y-69592829D01*
X210389000Y-69581854D01*
X210389000Y-68276146D01*
X210425179Y-68265171D01*
X210534589Y-68206690D01*
X210630488Y-68127988D01*
X210709190Y-68032089D01*
X210767671Y-67922679D01*
X210803683Y-67803962D01*
X210815843Y-67680500D01*
X210815843Y-66430500D01*
X210803683Y-66307038D01*
X210767671Y-66188321D01*
X210709190Y-66078911D01*
X210630488Y-65983012D01*
X210534589Y-65904310D01*
X210425179Y-65845829D01*
X210389000Y-65834854D01*
X210389000Y-64339646D01*
X210425179Y-64328671D01*
X210534589Y-64270190D01*
X210630488Y-64191488D01*
X210709190Y-64095589D01*
X210767671Y-63986179D01*
X210803683Y-63867462D01*
X210815843Y-63744000D01*
X210815843Y-62494000D01*
X210803683Y-62370538D01*
X210767671Y-62251821D01*
X210709190Y-62142411D01*
X210630488Y-62046512D01*
X210534589Y-61967810D01*
X210425179Y-61909329D01*
X210306462Y-61873317D01*
X210183000Y-61861157D01*
X209433000Y-61861157D01*
X209309538Y-61873317D01*
X209190821Y-61909329D01*
X209081411Y-61967810D01*
X208985512Y-62046512D01*
X208906810Y-62142411D01*
X208848329Y-62251821D01*
X208812317Y-62370538D01*
X208804792Y-62446941D01*
X208724942Y-62393587D01*
X208582809Y-62334713D01*
X208431922Y-62304700D01*
X208278078Y-62304700D01*
X208270748Y-62306158D01*
X208271072Y-62244000D01*
X208258812Y-62119518D01*
X208222502Y-61999820D01*
X208163537Y-61889506D01*
X208084185Y-61792815D01*
X207987494Y-61713463D01*
X207877180Y-61654498D01*
X207757482Y-61618188D01*
X207633000Y-61605928D01*
X207293750Y-61609000D01*
X207135000Y-61767750D01*
X206881000Y-61767750D01*
X206722250Y-61609000D01*
X206383000Y-61605928D01*
X206258518Y-61618188D01*
X206138820Y-61654498D01*
X206028506Y-61713463D01*
X206003394Y-61734072D01*
X206001984Y-61731434D01*
X206001973Y-61731420D01*
X206001964Y-61731404D01*
X205972623Y-61695657D01*
X205945001Y-61661999D01*
X205927588Y-61647709D01*
X202120939Y-57841663D01*
X202152250Y-57841500D01*
X202311000Y-57682750D01*
X202311000Y-56708500D01*
X202565000Y-56708500D01*
X202565000Y-57682750D01*
X202723750Y-57841500D01*
X203313000Y-57844572D01*
X203437482Y-57832312D01*
X203557180Y-57796002D01*
X203667494Y-57737037D01*
X203764185Y-57657685D01*
X203843537Y-57560994D01*
X203882139Y-57488775D01*
X206533830Y-57488775D01*
X206773976Y-57876018D01*
X207267877Y-58136641D01*
X207803133Y-58295901D01*
X208359174Y-58347678D01*
X208914632Y-58289981D01*
X209448161Y-58125028D01*
X209914024Y-57876018D01*
X210154170Y-57488775D01*
X208344000Y-55678605D01*
X206533830Y-57488775D01*
X203882139Y-57488775D01*
X203902502Y-57450680D01*
X203938812Y-57330982D01*
X203951072Y-57206500D01*
X203948000Y-56867250D01*
X203789250Y-56708500D01*
X202565000Y-56708500D01*
X202311000Y-56708500D01*
X202291000Y-56708500D01*
X202291000Y-56454500D01*
X202311000Y-56454500D01*
X202311000Y-55480250D01*
X202565000Y-55480250D01*
X202565000Y-56454500D01*
X203789250Y-56454500D01*
X203948000Y-56295750D01*
X203951072Y-55956500D01*
X203938812Y-55832018D01*
X203902502Y-55712320D01*
X203843537Y-55602006D01*
X203771456Y-55514174D01*
X205495322Y-55514174D01*
X205553019Y-56069632D01*
X205717972Y-56603161D01*
X205966982Y-57069024D01*
X206354225Y-57309170D01*
X208164395Y-55499000D01*
X206354225Y-53688830D01*
X205966982Y-53928976D01*
X205706359Y-54422877D01*
X205547099Y-54958133D01*
X205495322Y-55514174D01*
X203771456Y-55514174D01*
X203764185Y-55505315D01*
X203667494Y-55425963D01*
X203557180Y-55366998D01*
X203437482Y-55330688D01*
X203313000Y-55318428D01*
X202723750Y-55321500D01*
X202565000Y-55480250D01*
X202311000Y-55480250D01*
X202152250Y-55321500D01*
X201563000Y-55318428D01*
X201544238Y-55320276D01*
X202075113Y-54789343D01*
X203063000Y-54789343D01*
X203186462Y-54777183D01*
X203305179Y-54741171D01*
X203414589Y-54682690D01*
X203510488Y-54603988D01*
X203589190Y-54508089D01*
X203647671Y-54398679D01*
X203683683Y-54279962D01*
X203695843Y-54156500D01*
X203695843Y-53406500D01*
X203683683Y-53283038D01*
X203647671Y-53164321D01*
X203589190Y-53054911D01*
X203510488Y-52959012D01*
X203414589Y-52880310D01*
X203305179Y-52821829D01*
X203186462Y-52785817D01*
X203063000Y-52773657D01*
X201813000Y-52773657D01*
X201689538Y-52785817D01*
X201570821Y-52821829D01*
X201461411Y-52880310D01*
X201365512Y-52959012D01*
X201286810Y-53054911D01*
X201228329Y-53164321D01*
X201192317Y-53283038D01*
X201180157Y-53406500D01*
X201180157Y-54156500D01*
X201192317Y-54279962D01*
X201216159Y-54358559D01*
X200394000Y-55180809D01*
X200394000Y-53295272D01*
X200396206Y-53272948D01*
X200394000Y-53250477D01*
X200394000Y-53250401D01*
X200391665Y-53226690D01*
X200387430Y-53183554D01*
X200387410Y-53183487D01*
X200387402Y-53183408D01*
X200373570Y-53137811D01*
X200361383Y-53097589D01*
X200361350Y-53097526D01*
X200361327Y-53097452D01*
X200340241Y-53058004D01*
X200319067Y-53018357D01*
X200319017Y-53018297D01*
X200318984Y-53018234D01*
X200290389Y-52983390D01*
X200276378Y-52966307D01*
X200276329Y-52966258D01*
X200262001Y-52948799D01*
X200244657Y-52934565D01*
X199976764Y-52666500D01*
X208173078Y-52666500D01*
X207773368Y-52708019D01*
X207239839Y-52872972D01*
X206773976Y-53121982D01*
X206533830Y-53509225D01*
X208344000Y-55319395D01*
X210154170Y-53509225D01*
X209914024Y-53121982D01*
X209420123Y-52861359D01*
X208884867Y-52702099D01*
X208502564Y-52666500D01*
X209362146Y-52666500D01*
X209730076Y-52702576D01*
X210064900Y-52803665D01*
X210373705Y-52967860D01*
X210644745Y-53188914D01*
X210867680Y-53458397D01*
X211034027Y-53766051D01*
X211137451Y-54100158D01*
X211176000Y-54466932D01*
X211176000Y-55323264D01*
X211134981Y-54928368D01*
X210970028Y-54394839D01*
X210721018Y-53928976D01*
X210333775Y-53688830D01*
X208523605Y-55499000D01*
X210333775Y-57309170D01*
X210721018Y-57069024D01*
X210981641Y-56575123D01*
X211140901Y-56039867D01*
X211176000Y-55662933D01*
X211176001Y-98481775D01*
X211033028Y-98019339D01*
X210784018Y-97553476D01*
X210396775Y-97313330D01*
X208586605Y-99123500D01*
X210396775Y-100933670D01*
X210784018Y-100693524D01*
X211044641Y-100199623D01*
X211176001Y-99758136D01*
X211176001Y-100040636D01*
X211139924Y-100408577D01*
X211038835Y-100743400D01*
X210874639Y-101052208D01*
X210653588Y-101323242D01*
X210384106Y-101546178D01*
X210076451Y-101712527D01*
X209742342Y-101815951D01*
X209375595Y-101854497D01*
X209172014Y-101854383D01*
X209511161Y-101749528D01*
X209977024Y-101500518D01*
X210217170Y-101113275D01*
X208407000Y-99303105D01*
X206596830Y-101113275D01*
X206836976Y-101500518D01*
X207330877Y-101761141D01*
X207641376Y-101853527D01*
X163827468Y-101829011D01*
X163459423Y-101792924D01*
X163124600Y-101691835D01*
X162815792Y-101527639D01*
X162544758Y-101306588D01*
X162321822Y-101037106D01*
X162260004Y-100922775D01*
X162971830Y-100922775D01*
X163211976Y-101310018D01*
X163705877Y-101570641D01*
X164241133Y-101729901D01*
X164797174Y-101781678D01*
X165352632Y-101723981D01*
X165886161Y-101559028D01*
X166352024Y-101310018D01*
X166592170Y-100922775D01*
X164782000Y-99112605D01*
X162971830Y-100922775D01*
X162260004Y-100922775D01*
X162155473Y-100729451D01*
X162052049Y-100395342D01*
X162013497Y-100028540D01*
X162013308Y-99575725D01*
X162155972Y-100037161D01*
X162404982Y-100503024D01*
X162792225Y-100743170D01*
X164602395Y-98933000D01*
X164961605Y-98933000D01*
X166771775Y-100743170D01*
X167159018Y-100503024D01*
X167419641Y-100009123D01*
X167578901Y-99473867D01*
X167610113Y-99138674D01*
X205558322Y-99138674D01*
X205616019Y-99694132D01*
X205780972Y-100227661D01*
X206029982Y-100693524D01*
X206417225Y-100933670D01*
X208227395Y-99123500D01*
X206417225Y-97313330D01*
X206029982Y-97553476D01*
X205769359Y-98047377D01*
X205610099Y-98582633D01*
X205558322Y-99138674D01*
X167610113Y-99138674D01*
X167630678Y-98917826D01*
X167572981Y-98362368D01*
X167408028Y-97828839D01*
X167159018Y-97362976D01*
X166789344Y-97133725D01*
X206596830Y-97133725D01*
X208407000Y-98943895D01*
X210217170Y-97133725D01*
X209977024Y-96746482D01*
X209483123Y-96485859D01*
X208947867Y-96326599D01*
X208391826Y-96274822D01*
X207836368Y-96332519D01*
X207302839Y-96497472D01*
X206836976Y-96746482D01*
X206596830Y-97133725D01*
X166789344Y-97133725D01*
X166771775Y-97122830D01*
X164961605Y-98933000D01*
X164602395Y-98933000D01*
X162792225Y-97122830D01*
X162404982Y-97362976D01*
X162144359Y-97856877D01*
X162012776Y-98299113D01*
X162012211Y-96943225D01*
X162971830Y-96943225D01*
X164782000Y-98753395D01*
X166592170Y-96943225D01*
X166352024Y-96555982D01*
X165858123Y-96295359D01*
X165322867Y-96136099D01*
X164766826Y-96084322D01*
X164211368Y-96142019D01*
X163677839Y-96306972D01*
X163211976Y-96555982D01*
X162971830Y-96943225D01*
X162012211Y-96943225D01*
X162003086Y-75056278D01*
X178771600Y-75056278D01*
X178771600Y-75210122D01*
X178801613Y-75361009D01*
X178860487Y-75503142D01*
X178945958Y-75631059D01*
X179054741Y-75739842D01*
X179182658Y-75825313D01*
X179324791Y-75884187D01*
X179475678Y-75914200D01*
X179629522Y-75914200D01*
X179780409Y-75884187D01*
X179922542Y-75825313D01*
X180050459Y-75739842D01*
X180159242Y-75631059D01*
X180195697Y-75576500D01*
X182185389Y-75576500D01*
X182213358Y-75618359D01*
X182322141Y-75727142D01*
X182450058Y-75812613D01*
X182592191Y-75871487D01*
X182743078Y-75901500D01*
X182896922Y-75901500D01*
X183047809Y-75871487D01*
X183189942Y-75812613D01*
X183317859Y-75727142D01*
X183426642Y-75618359D01*
X183512113Y-75490442D01*
X183570987Y-75348309D01*
X183601000Y-75197422D01*
X183601000Y-75043578D01*
X183570987Y-74892691D01*
X183512113Y-74750558D01*
X183426642Y-74622641D01*
X183317859Y-74513858D01*
X183189942Y-74428387D01*
X183047809Y-74369513D01*
X182896922Y-74339500D01*
X182743078Y-74339500D01*
X182592191Y-74369513D01*
X182450058Y-74428387D01*
X182322141Y-74513858D01*
X182213358Y-74622641D01*
X182185389Y-74664500D01*
X180178725Y-74664500D01*
X180159242Y-74635341D01*
X180050459Y-74526558D01*
X179922542Y-74441087D01*
X179780409Y-74382213D01*
X179629522Y-74352200D01*
X179475678Y-74352200D01*
X179324791Y-74382213D01*
X179182658Y-74441087D01*
X179054741Y-74526558D01*
X178945958Y-74635341D01*
X178860487Y-74763258D01*
X178801613Y-74905391D01*
X178771600Y-75056278D01*
X162003086Y-75056278D01*
X161995788Y-57552275D01*
X162845830Y-57552275D01*
X163085976Y-57939518D01*
X163579877Y-58200141D01*
X164115133Y-58359401D01*
X164671174Y-58411178D01*
X165226632Y-58353481D01*
X165760161Y-58188528D01*
X166226024Y-57939518D01*
X166466170Y-57552275D01*
X164656000Y-55742105D01*
X162845830Y-57552275D01*
X161995788Y-57552275D01*
X161995372Y-56554751D01*
X162029972Y-56666661D01*
X162278982Y-57132524D01*
X162666225Y-57372670D01*
X164476395Y-55562500D01*
X164835605Y-55562500D01*
X166645775Y-57372670D01*
X167033018Y-57132524D01*
X167293641Y-56638623D01*
X167452901Y-56103367D01*
X167504678Y-55547326D01*
X167446981Y-54991868D01*
X167282028Y-54458339D01*
X167033018Y-53992476D01*
X166950012Y-53941000D01*
X180600000Y-53941000D01*
X180600000Y-54241000D01*
X180646585Y-54459987D01*
X180734997Y-54665678D01*
X180861839Y-54850169D01*
X181022236Y-55006369D01*
X181210024Y-55128276D01*
X181433126Y-55208119D01*
X181608000Y-55081954D01*
X181608000Y-53941000D01*
X181862000Y-53941000D01*
X181862000Y-55081954D01*
X182036874Y-55208119D01*
X182259976Y-55128276D01*
X182447764Y-55006369D01*
X182608161Y-54850169D01*
X182735003Y-54665678D01*
X182823415Y-54459987D01*
X182870000Y-54241000D01*
X182870000Y-53941000D01*
X189240000Y-53941000D01*
X189240000Y-54241000D01*
X189286585Y-54459987D01*
X189374997Y-54665678D01*
X189501839Y-54850169D01*
X189662236Y-55006369D01*
X189850024Y-55128276D01*
X190073126Y-55208119D01*
X190248000Y-55081954D01*
X190248000Y-53941000D01*
X190502000Y-53941000D01*
X190502000Y-55081954D01*
X190676874Y-55208119D01*
X190899976Y-55128276D01*
X191087764Y-55006369D01*
X191248161Y-54850169D01*
X191375003Y-54665678D01*
X191463415Y-54459987D01*
X191510000Y-54241000D01*
X191510000Y-53941000D01*
X190502000Y-53941000D01*
X190248000Y-53941000D01*
X189240000Y-53941000D01*
X182870000Y-53941000D01*
X181862000Y-53941000D01*
X181608000Y-53941000D01*
X180600000Y-53941000D01*
X166950012Y-53941000D01*
X166645775Y-53752330D01*
X164835605Y-55562500D01*
X164476395Y-55562500D01*
X162666225Y-53752330D01*
X162278982Y-53992476D01*
X162018359Y-54486377D01*
X161994544Y-54566418D01*
X161994508Y-54480276D01*
X162030576Y-54112424D01*
X162131665Y-53777600D01*
X162240599Y-53572725D01*
X162845830Y-53572725D01*
X164656000Y-55382895D01*
X166466170Y-53572725D01*
X166226024Y-53185482D01*
X165732123Y-52924859D01*
X165196867Y-52765599D01*
X164640826Y-52713822D01*
X164085368Y-52771519D01*
X163551839Y-52936472D01*
X163085976Y-53185482D01*
X162845830Y-53572725D01*
X162240599Y-53572725D01*
X162295860Y-53468795D01*
X162516914Y-53197755D01*
X162786397Y-52974820D01*
X163094051Y-52808473D01*
X163428158Y-52705049D01*
X163794932Y-52666500D01*
X180976161Y-52666500D01*
X180861839Y-52777831D01*
X180861839Y-52777831D01*
G37*
X180861839Y-52777831D02*
X180734997Y-52962322D01*
X180646585Y-53168013D01*
X180600000Y-53387000D01*
X180600000Y-53687000D01*
X181608000Y-53687000D01*
X181608000Y-53667000D01*
X181862000Y-53667000D01*
X181862000Y-53687000D01*
X182870000Y-53687000D01*
X182870000Y-53387000D01*
X182823415Y-53168013D01*
X182735003Y-52962322D01*
X182608161Y-52777831D01*
X182493839Y-52666500D01*
X189616161Y-52666500D01*
X189501839Y-52777831D01*
X189374997Y-52962322D01*
X189286585Y-53168013D01*
X189240000Y-53387000D01*
X189240000Y-53687000D01*
X190248000Y-53687000D01*
X190248000Y-53667000D01*
X190502000Y-53667000D01*
X190502000Y-53687000D01*
X191510000Y-53687000D01*
X191510000Y-53387000D01*
X191463415Y-53168013D01*
X191375003Y-52962322D01*
X191248161Y-52777831D01*
X191133839Y-52666500D01*
X195605216Y-52666500D01*
X195371034Y-52900657D01*
X194383000Y-52900657D01*
X194259538Y-52912817D01*
X194140821Y-52948829D01*
X194031411Y-53007310D01*
X193935512Y-53086012D01*
X193856810Y-53181911D01*
X193798329Y-53291321D01*
X193762317Y-53410038D01*
X193750157Y-53533500D01*
X193750157Y-54283500D01*
X193762317Y-54406962D01*
X193798329Y-54525679D01*
X193856810Y-54635089D01*
X193935512Y-54730988D01*
X194031411Y-54809690D01*
X194140821Y-54868171D01*
X194259538Y-54904183D01*
X194383000Y-54916343D01*
X195633000Y-54916343D01*
X195756462Y-54904183D01*
X195875179Y-54868171D01*
X195984589Y-54809690D01*
X196080488Y-54730988D01*
X196159190Y-54635089D01*
X196217671Y-54525679D01*
X196253683Y-54406962D01*
X196265843Y-54283500D01*
X196265843Y-53533500D01*
X196254526Y-53418600D01*
X197507474Y-53418600D01*
X197496157Y-53533500D01*
X197496157Y-54283500D01*
X197508317Y-54406962D01*
X197544329Y-54525679D01*
X197602810Y-54635089D01*
X197681512Y-54730988D01*
X197777411Y-54809690D01*
X197886821Y-54868171D01*
X198005538Y-54904183D01*
X198005662Y-54904195D01*
X198003013Y-54910591D01*
X197973000Y-55061478D01*
X197973000Y-55215322D01*
X198003013Y-55366209D01*
X198036166Y-55446247D01*
X197879000Y-55445428D01*
X197754518Y-55457688D01*
X197634820Y-55493998D01*
X197524506Y-55552963D01*
X197427815Y-55632315D01*
X197348463Y-55729006D01*
X197289498Y-55839320D01*
X197253188Y-55959018D01*
X197240928Y-56083500D01*
X197244000Y-56422750D01*
X197402750Y-56581500D01*
X198627000Y-56581500D01*
X198627000Y-56561500D01*
X198881000Y-56561500D01*
X198881000Y-56581500D01*
X198901000Y-56581500D01*
X198901000Y-56835500D01*
X198881000Y-56835500D01*
X198881000Y-57809750D01*
X199039750Y-57968500D01*
X199629000Y-57971572D01*
X199753482Y-57959312D01*
X199873180Y-57923002D01*
X199983494Y-57864037D01*
X200080185Y-57784685D01*
X200159537Y-57687994D01*
X200218502Y-57577680D01*
X200254812Y-57457982D01*
X200267072Y-57333500D01*
X200266563Y-57277239D01*
X205165000Y-62174903D01*
X205165001Y-64376488D01*
X205123141Y-64404458D01*
X205014358Y-64513241D01*
X204928887Y-64641158D01*
X204870013Y-64783291D01*
X204840000Y-64934178D01*
X204840000Y-65088022D01*
X204870013Y-65238909D01*
X204928887Y-65381042D01*
X205014358Y-65508959D01*
X205123141Y-65617742D01*
X205251058Y-65703213D01*
X205393191Y-65762087D01*
X205544078Y-65792100D01*
X205697922Y-65792100D01*
X205848809Y-65762087D01*
X205935777Y-65726063D01*
X205931815Y-65729315D01*
X205852463Y-65826006D01*
X205832380Y-65863579D01*
X205728922Y-65843000D01*
X205575078Y-65843000D01*
X205424191Y-65873013D01*
X205282058Y-65931887D01*
X205154141Y-66017358D01*
X205045358Y-66126141D01*
X205017389Y-66168000D01*
X199501399Y-66168000D01*
X199479008Y-66165794D01*
X199456607Y-66168000D01*
X199456601Y-66168000D01*
X199400513Y-66173524D01*
X199389617Y-66174597D01*
X199389616Y-66174597D01*
X199389608Y-66174598D01*
X199325050Y-66194182D01*
X199303660Y-66200670D01*
X199303658Y-66200671D01*
X199303652Y-66200673D01*
X199263774Y-66221988D01*
X199224441Y-66243011D01*
X199224437Y-66243015D01*
X199224434Y-66243016D01*
X199154999Y-66299999D01*
X199140722Y-66317396D01*
X194042125Y-71415800D01*
X193755298Y-71415800D01*
X193757987Y-71409309D01*
X193788000Y-71258422D01*
X193788000Y-71104578D01*
X193778177Y-71055194D01*
X202106603Y-62726579D01*
X202124001Y-62712301D01*
X202180984Y-62642866D01*
X202180985Y-62642865D01*
X202180987Y-62642862D01*
X202203747Y-62600279D01*
X202223327Y-62563648D01*
X202249402Y-62477692D01*
X202256000Y-62410699D01*
X202256000Y-62410694D01*
X202258206Y-62388295D01*
X202256000Y-62365902D01*
X202256000Y-61318311D01*
X202297859Y-61290342D01*
X202406642Y-61181559D01*
X202492113Y-61053642D01*
X202550987Y-60911509D01*
X202581000Y-60760622D01*
X202581000Y-60606778D01*
X202550987Y-60455891D01*
X202492113Y-60313758D01*
X202406642Y-60185841D01*
X202297859Y-60077058D01*
X202169942Y-59991587D01*
X202027809Y-59932713D01*
X201876922Y-59902700D01*
X201723078Y-59902700D01*
X201572191Y-59932713D01*
X201430058Y-59991587D01*
X201302141Y-60077058D01*
X201193358Y-60185841D01*
X201107887Y-60313758D01*
X201049013Y-60455891D01*
X201019000Y-60606778D01*
X201019000Y-60760622D01*
X201049013Y-60911509D01*
X201088699Y-61007319D01*
X201054922Y-61000600D01*
X200901078Y-61000600D01*
X200750191Y-61030613D01*
X200608058Y-61089487D01*
X200480141Y-61174958D01*
X200371358Y-61283741D01*
X200343389Y-61325600D01*
X198654408Y-61325600D01*
X198632022Y-61323394D01*
X198609613Y-61325600D01*
X198609601Y-61325600D01*
X198583290Y-61328191D01*
X198542630Y-61332194D01*
X198542621Y-61332197D01*
X198542608Y-61332198D01*
X198489223Y-61348392D01*
X198456673Y-61358265D01*
X198456666Y-61358269D01*
X198456652Y-61358273D01*
X198414580Y-61380761D01*
X198377453Y-61400603D01*
X198377443Y-61400611D01*
X198377434Y-61400616D01*
X198340792Y-61430687D01*
X198325414Y-61443306D01*
X198325408Y-61443312D01*
X198307999Y-61457599D01*
X198293726Y-61474991D01*
X197423132Y-62345500D01*
X195768868Y-62345500D01*
X194898278Y-61474996D01*
X194884001Y-61457599D01*
X194814566Y-61400616D01*
X194814554Y-61400610D01*
X194814546Y-61400603D01*
X194784396Y-61384490D01*
X194735348Y-61358273D01*
X194735332Y-61358268D01*
X194735326Y-61358265D01*
X194710579Y-61350759D01*
X194649392Y-61332198D01*
X194649376Y-61332196D01*
X194649368Y-61332194D01*
X194611213Y-61328438D01*
X194582399Y-61325600D01*
X194582386Y-61325600D01*
X194559978Y-61323394D01*
X194537592Y-61325600D01*
X177971447Y-61325600D01*
X177949105Y-61323394D01*
X177926655Y-61325600D01*
X177926601Y-61325600D01*
X177903044Y-61327920D01*
X177859712Y-61332178D01*
X177859664Y-61332192D01*
X177859608Y-61332198D01*
X177814215Y-61345968D01*
X177773750Y-61358233D01*
X177773706Y-61358257D01*
X177773652Y-61358273D01*
X177733454Y-61379759D01*
X177694522Y-61400557D01*
X177694480Y-61400591D01*
X177694434Y-61400616D01*
X177658774Y-61429881D01*
X177642475Y-61443251D01*
X177642441Y-61443285D01*
X177624999Y-61457599D01*
X177610752Y-61474960D01*
X177158848Y-61926655D01*
X177126322Y-61865804D01*
X177078711Y-61807789D01*
X177020696Y-61760178D01*
X176954508Y-61724799D01*
X176882689Y-61703013D01*
X176808000Y-61695657D01*
X175108000Y-61695657D01*
X175033311Y-61703013D01*
X174961492Y-61724799D01*
X174895304Y-61760178D01*
X174837289Y-61807789D01*
X174789678Y-61865804D01*
X174754299Y-61931992D01*
X174732513Y-62003811D01*
X174725157Y-62078500D01*
X174725157Y-63778500D01*
X174732513Y-63853189D01*
X174754299Y-63925008D01*
X174789678Y-63991196D01*
X174837289Y-64049211D01*
X174895304Y-64096822D01*
X174961492Y-64132201D01*
X175033311Y-64153987D01*
X175108000Y-64161343D01*
X176808000Y-64161343D01*
X176882689Y-64153987D01*
X176954508Y-64132201D01*
X177020696Y-64096822D01*
X177078711Y-64049211D01*
X177126322Y-63991196D01*
X177161701Y-63925008D01*
X177183487Y-63853189D01*
X177190843Y-63778500D01*
X177190843Y-63372305D01*
X177258348Y-63351827D01*
X177328628Y-63314261D01*
X177355202Y-63401863D01*
X177469509Y-63615716D01*
X177623340Y-63803160D01*
X177810784Y-63956991D01*
X178021305Y-64069517D01*
X177866748Y-64124343D01*
X177616645Y-64273322D01*
X177400412Y-64468231D01*
X177226359Y-64701580D01*
X177101175Y-64964401D01*
X177095091Y-64984460D01*
X176986491Y-64781284D01*
X176832660Y-64593840D01*
X176645216Y-64440009D01*
X176431363Y-64325702D01*
X176199318Y-64255312D01*
X176018472Y-64237500D01*
X175897528Y-64237500D01*
X175716682Y-64255312D01*
X175484637Y-64325702D01*
X175270784Y-64440009D01*
X175083340Y-64593840D01*
X174929509Y-64781284D01*
X174815202Y-64995137D01*
X174744812Y-65227182D01*
X174721044Y-65468500D01*
X174744812Y-65709818D01*
X174815202Y-65941863D01*
X174929509Y-66155716D01*
X175083340Y-66343160D01*
X175270784Y-66496991D01*
X175484637Y-66611298D01*
X175716682Y-66681688D01*
X175897528Y-66699500D01*
X176018472Y-66699500D01*
X176199318Y-66681688D01*
X176431363Y-66611298D01*
X176645216Y-66496991D01*
X176832660Y-66343160D01*
X176986491Y-66155716D01*
X177095091Y-65952540D01*
X177101175Y-65972599D01*
X177226359Y-66235420D01*
X177400412Y-66468769D01*
X177556158Y-66609156D01*
X176922242Y-67242996D01*
X176832660Y-67133840D01*
X176645216Y-66980009D01*
X176431363Y-66865702D01*
X176199318Y-66795312D01*
X176018472Y-66777500D01*
X175897528Y-66777500D01*
X175716682Y-66795312D01*
X175484637Y-66865702D01*
X175270784Y-66980009D01*
X175083340Y-67133840D01*
X174929509Y-67321284D01*
X174815202Y-67535137D01*
X174744812Y-67767182D01*
X174740772Y-67808201D01*
X173171000Y-66238261D01*
X173171000Y-58121000D01*
X180600000Y-58121000D01*
X180600000Y-58671000D01*
X180646585Y-58889987D01*
X180734997Y-59095678D01*
X180861839Y-59280169D01*
X181022236Y-59436369D01*
X181210024Y-59558276D01*
X181433126Y-59638119D01*
X181608000Y-59511954D01*
X181608000Y-58121000D01*
X180600000Y-58121000D01*
X173171000Y-58121000D01*
X173171000Y-56592646D01*
X173207179Y-56581671D01*
X173316589Y-56523190D01*
X173412488Y-56444488D01*
X173491190Y-56348589D01*
X173549671Y-56239179D01*
X173585683Y-56120462D01*
X173597843Y-55997000D01*
X173597843Y-54747000D01*
X174382157Y-54747000D01*
X174382157Y-55997000D01*
X174394317Y-56120462D01*
X174430329Y-56239179D01*
X174488810Y-56348589D01*
X174567512Y-56444488D01*
X174663411Y-56523190D01*
X174772821Y-56581671D01*
X174891538Y-56617683D01*
X175015000Y-56629843D01*
X175765000Y-56629843D01*
X175888462Y-56617683D01*
X176007179Y-56581671D01*
X176116589Y-56523190D01*
X176212488Y-56444488D01*
X176291190Y-56348589D01*
X176349671Y-56239179D01*
X176385683Y-56120462D01*
X176397843Y-55997000D01*
X176397843Y-55953000D01*
X176927334Y-55953000D01*
X178330000Y-57355740D01*
X178330000Y-57392022D01*
X178360013Y-57542909D01*
X178418887Y-57685042D01*
X178504358Y-57812959D01*
X178613141Y-57921742D01*
X178741058Y-58007213D01*
X178883191Y-58066087D01*
X179034078Y-58096100D01*
X179187922Y-58096100D01*
X179338809Y-58066087D01*
X179480942Y-58007213D01*
X179608859Y-57921742D01*
X179717642Y-57812959D01*
X179803113Y-57685042D01*
X179861987Y-57542909D01*
X179892000Y-57392022D01*
X179892000Y-57317000D01*
X180600000Y-57317000D01*
X180600000Y-57867000D01*
X181608000Y-57867000D01*
X181608000Y-56476046D01*
X181862000Y-56476046D01*
X181862000Y-57867000D01*
X181882000Y-57867000D01*
X181882000Y-58121000D01*
X181862000Y-58121000D01*
X181862000Y-59511954D01*
X182036874Y-59638119D01*
X182259976Y-59558276D01*
X182447764Y-59436369D01*
X182608161Y-59280169D01*
X182735003Y-59095678D01*
X182823415Y-58889987D01*
X182870000Y-58671000D01*
X182870000Y-58105976D01*
X182959067Y-58142869D01*
X183095465Y-58170000D01*
X183234535Y-58170000D01*
X183370933Y-58142869D01*
X183499416Y-58089649D01*
X183615049Y-58012386D01*
X183713386Y-57914049D01*
X183790649Y-57798416D01*
X183843869Y-57669933D01*
X183871000Y-57533535D01*
X183871000Y-57394465D01*
X188239000Y-57394465D01*
X188239000Y-57533535D01*
X188266131Y-57669933D01*
X188319351Y-57798416D01*
X188396614Y-57914049D01*
X188494951Y-58012386D01*
X188610584Y-58089649D01*
X188739067Y-58142869D01*
X188875465Y-58170000D01*
X189014535Y-58170000D01*
X189150933Y-58142869D01*
X189240000Y-58105976D01*
X189240000Y-58671000D01*
X189286585Y-58889987D01*
X189374997Y-59095678D01*
X189501839Y-59280169D01*
X189662236Y-59436369D01*
X189850024Y-59558276D01*
X190073126Y-59638119D01*
X190248000Y-59511954D01*
X190248000Y-58121000D01*
X190502000Y-58121000D01*
X190502000Y-59511954D01*
X190676874Y-59638119D01*
X190899976Y-59558276D01*
X191087764Y-59436369D01*
X191248161Y-59280169D01*
X191375003Y-59095678D01*
X191463415Y-58889987D01*
X191510000Y-58671000D01*
X191510000Y-58121000D01*
X190502000Y-58121000D01*
X190248000Y-58121000D01*
X190228000Y-58121000D01*
X190228000Y-57867000D01*
X190248000Y-57867000D01*
X190248000Y-56476046D01*
X190502000Y-56476046D01*
X190502000Y-57867000D01*
X191510000Y-57867000D01*
X191510000Y-57333500D01*
X193494928Y-57333500D01*
X193507188Y-57457982D01*
X193543498Y-57577680D01*
X193602463Y-57687994D01*
X193681815Y-57784685D01*
X193778506Y-57864037D01*
X193888820Y-57923002D01*
X194008518Y-57959312D01*
X194133000Y-57971572D01*
X194722250Y-57968500D01*
X194881000Y-57809750D01*
X194881000Y-56835500D01*
X195135000Y-56835500D01*
X195135000Y-57809750D01*
X195293750Y-57968500D01*
X195883000Y-57971572D01*
X196007482Y-57959312D01*
X196127180Y-57923002D01*
X196237494Y-57864037D01*
X196334185Y-57784685D01*
X196413537Y-57687994D01*
X196472502Y-57577680D01*
X196508812Y-57457982D01*
X196521072Y-57333500D01*
X197240928Y-57333500D01*
X197253188Y-57457982D01*
X197289498Y-57577680D01*
X197348463Y-57687994D01*
X197427815Y-57784685D01*
X197524506Y-57864037D01*
X197634820Y-57923002D01*
X197754518Y-57959312D01*
X197879000Y-57971572D01*
X198468250Y-57968500D01*
X198627000Y-57809750D01*
X198627000Y-56835500D01*
X197402750Y-56835500D01*
X197244000Y-56994250D01*
X197240928Y-57333500D01*
X196521072Y-57333500D01*
X196518000Y-56994250D01*
X196359250Y-56835500D01*
X195135000Y-56835500D01*
X194881000Y-56835500D01*
X193656750Y-56835500D01*
X193498000Y-56994250D01*
X193494928Y-57333500D01*
X191510000Y-57333500D01*
X191510000Y-57317000D01*
X191463415Y-57098013D01*
X191375003Y-56892322D01*
X191248161Y-56707831D01*
X191087764Y-56551631D01*
X190899976Y-56429724D01*
X190676874Y-56349881D01*
X190502000Y-56476046D01*
X190248000Y-56476046D01*
X190073126Y-56349881D01*
X189850024Y-56429724D01*
X189662236Y-56551631D01*
X189501839Y-56707831D01*
X189374997Y-56892322D01*
X189371693Y-56900008D01*
X189279416Y-56838351D01*
X189150933Y-56785131D01*
X189014535Y-56758000D01*
X188875465Y-56758000D01*
X188739067Y-56785131D01*
X188610584Y-56838351D01*
X188494951Y-56915614D01*
X188396614Y-57013951D01*
X188319351Y-57129584D01*
X188266131Y-57258067D01*
X188239000Y-57394465D01*
X183871000Y-57394465D01*
X183843869Y-57258067D01*
X183790649Y-57129584D01*
X183713386Y-57013951D01*
X183615049Y-56915614D01*
X183499416Y-56838351D01*
X183370933Y-56785131D01*
X183234535Y-56758000D01*
X183095465Y-56758000D01*
X182959067Y-56785131D01*
X182830584Y-56838351D01*
X182738307Y-56900008D01*
X182735003Y-56892322D01*
X182608161Y-56707831D01*
X182447764Y-56551631D01*
X182259976Y-56429724D01*
X182036874Y-56349881D01*
X181862000Y-56476046D01*
X181608000Y-56476046D01*
X181433126Y-56349881D01*
X181210024Y-56429724D01*
X181022236Y-56551631D01*
X180861839Y-56707831D01*
X180734997Y-56892322D01*
X180646585Y-57098013D01*
X180600000Y-57317000D01*
X179892000Y-57317000D01*
X179892000Y-57238178D01*
X179861987Y-57087291D01*
X179803113Y-56945158D01*
X179717642Y-56817241D01*
X179608859Y-56708458D01*
X179480942Y-56622987D01*
X179338809Y-56564113D01*
X179187922Y-56534100D01*
X179151677Y-56534100D01*
X178701100Y-56083500D01*
X193494928Y-56083500D01*
X193498000Y-56422750D01*
X193656750Y-56581500D01*
X194881000Y-56581500D01*
X194881000Y-55607250D01*
X195135000Y-55607250D01*
X195135000Y-56581500D01*
X196359250Y-56581500D01*
X196518000Y-56422750D01*
X196521072Y-56083500D01*
X196508812Y-55959018D01*
X196472502Y-55839320D01*
X196413537Y-55729006D01*
X196334185Y-55632315D01*
X196237494Y-55552963D01*
X196127180Y-55493998D01*
X196007482Y-55457688D01*
X195883000Y-55445428D01*
X195293750Y-55448500D01*
X195135000Y-55607250D01*
X194881000Y-55607250D01*
X194722250Y-55448500D01*
X194133000Y-55445428D01*
X194008518Y-55457688D01*
X193888820Y-55493998D01*
X193778506Y-55552963D01*
X193681815Y-55632315D01*
X193602463Y-55729006D01*
X193543498Y-55839320D01*
X193507188Y-55959018D01*
X193494928Y-56083500D01*
X178701100Y-56083500D01*
X177599022Y-54981366D01*
X177580817Y-54959183D01*
X177498933Y-54891983D01*
X177492360Y-54886588D01*
X177492357Y-54886586D01*
X177492348Y-54886579D01*
X177418518Y-54847116D01*
X177391428Y-54832635D01*
X177391424Y-54832634D01*
X177391415Y-54832629D01*
X177315795Y-54809690D01*
X177281910Y-54799410D01*
X177281904Y-54799409D01*
X177281896Y-54799407D01*
X177222307Y-54793538D01*
X177168015Y-54788189D01*
X177139467Y-54791000D01*
X176397843Y-54791000D01*
X176397843Y-54747000D01*
X176385683Y-54623538D01*
X176349671Y-54504821D01*
X176291190Y-54395411D01*
X176212488Y-54299512D01*
X176116589Y-54220810D01*
X176007179Y-54162329D01*
X175888462Y-54126317D01*
X175765000Y-54114157D01*
X175015000Y-54114157D01*
X174891538Y-54126317D01*
X174772821Y-54162329D01*
X174663411Y-54220810D01*
X174567512Y-54299512D01*
X174488810Y-54395411D01*
X174430329Y-54504821D01*
X174394317Y-54623538D01*
X174382157Y-54747000D01*
X173597843Y-54747000D01*
X173585683Y-54623538D01*
X173549671Y-54504821D01*
X173491190Y-54395411D01*
X173412488Y-54299512D01*
X173316589Y-54220810D01*
X173207179Y-54162329D01*
X173088462Y-54126317D01*
X172965000Y-54114157D01*
X172215000Y-54114157D01*
X172091538Y-54126317D01*
X171972821Y-54162329D01*
X171863411Y-54220810D01*
X171767512Y-54299512D01*
X171688810Y-54395411D01*
X171630329Y-54504821D01*
X171594317Y-54623538D01*
X171582157Y-54747000D01*
X171582157Y-55997000D01*
X171594317Y-56120462D01*
X171630329Y-56239179D01*
X171688810Y-56348589D01*
X171767512Y-56444488D01*
X171863411Y-56523190D01*
X171972821Y-56581671D01*
X172009001Y-56592646D01*
X172009000Y-66450344D01*
X172006189Y-66478869D01*
X172009000Y-66507424D01*
X172009000Y-66507439D01*
X172011676Y-66534608D01*
X172017401Y-66592765D01*
X172017406Y-66592780D01*
X172017407Y-66592795D01*
X172032540Y-66642683D01*
X172050617Y-66702285D01*
X172050624Y-66702299D01*
X172050629Y-66702314D01*
X172079216Y-66755796D01*
X172104562Y-66803221D01*
X172104571Y-66803232D01*
X172104579Y-66803247D01*
X172149961Y-66858547D01*
X172158970Y-66869525D01*
X172158975Y-66869530D01*
X172177183Y-66891717D01*
X172199347Y-66909906D01*
X172540993Y-67251589D01*
X172482200Y-67245799D01*
X172482197Y-67245799D01*
X172459801Y-67243593D01*
X172437405Y-67245799D01*
X171834195Y-67245799D01*
X171811799Y-67243593D01*
X171789403Y-67245799D01*
X171789400Y-67245799D01*
X171722407Y-67252397D01*
X171636451Y-67278472D01*
X171557233Y-67320815D01*
X171532333Y-67341250D01*
X171487798Y-67377798D01*
X171473520Y-67395196D01*
X171154201Y-67714516D01*
X171136798Y-67728798D01*
X171079815Y-67798234D01*
X171037472Y-67877452D01*
X171011397Y-67963408D01*
X171005252Y-68025800D01*
X171002593Y-68052799D01*
X171004799Y-68075195D01*
X171004800Y-71381493D01*
X171002593Y-71403899D01*
X171011398Y-71493290D01*
X171037472Y-71579246D01*
X171079815Y-71658464D01*
X171110991Y-71696452D01*
X171136799Y-71727900D01*
X171154197Y-71742178D01*
X172533021Y-73121002D01*
X172523200Y-73170378D01*
X172523200Y-73324222D01*
X172553213Y-73475109D01*
X172612087Y-73617242D01*
X172697558Y-73745159D01*
X172806341Y-73853942D01*
X172934258Y-73939413D01*
X173076391Y-73998287D01*
X173227278Y-74028300D01*
X173381122Y-74028300D01*
X173532009Y-73998287D01*
X173674142Y-73939413D01*
X173802059Y-73853942D01*
X173910842Y-73745159D01*
X173996313Y-73617242D01*
X174055187Y-73475109D01*
X174085200Y-73324222D01*
X174085200Y-73170378D01*
X174055187Y-73019491D01*
X173996313Y-72877358D01*
X173910842Y-72749441D01*
X173802059Y-72640658D01*
X173674142Y-72555187D01*
X173532009Y-72496313D01*
X173381122Y-72466300D01*
X173227278Y-72466300D01*
X173177902Y-72476121D01*
X171916799Y-71215018D01*
X171916799Y-69129539D01*
X172058878Y-69157800D01*
X172212722Y-69157800D01*
X172262098Y-69147979D01*
X176572717Y-73458598D01*
X176586999Y-73476001D01*
X176618515Y-73501865D01*
X176656434Y-73532985D01*
X176710717Y-73561999D01*
X176735652Y-73575327D01*
X176821608Y-73601402D01*
X176888601Y-73608000D01*
X176888604Y-73608000D01*
X176911000Y-73610206D01*
X176933396Y-73608000D01*
X185471189Y-73608000D01*
X185499158Y-73649859D01*
X185607941Y-73758642D01*
X185735858Y-73844113D01*
X185877991Y-73902987D01*
X186028878Y-73933000D01*
X186182722Y-73933000D01*
X186333609Y-73902987D01*
X186475742Y-73844113D01*
X186603659Y-73758642D01*
X186712442Y-73649859D01*
X186797913Y-73521942D01*
X186856787Y-73379809D01*
X186886800Y-73228922D01*
X186886800Y-73075078D01*
X186856787Y-72924191D01*
X186797913Y-72782058D01*
X186712442Y-72654141D01*
X186603659Y-72545358D01*
X186475742Y-72459887D01*
X186333609Y-72401013D01*
X186182722Y-72371000D01*
X186028878Y-72371000D01*
X185877991Y-72401013D01*
X185735858Y-72459887D01*
X185607941Y-72545358D01*
X185499158Y-72654141D01*
X185471189Y-72696000D01*
X177099881Y-72696000D01*
X175471881Y-71068000D01*
X181305589Y-71068000D01*
X181333558Y-71109859D01*
X181442341Y-71218642D01*
X181570258Y-71304113D01*
X181712391Y-71362987D01*
X181863278Y-71393000D01*
X182017122Y-71393000D01*
X182168009Y-71362987D01*
X182310142Y-71304113D01*
X182438059Y-71218642D01*
X182546842Y-71109859D01*
X182632313Y-70981942D01*
X182691187Y-70839809D01*
X182721200Y-70688922D01*
X182721200Y-70535078D01*
X182691187Y-70384191D01*
X182632313Y-70242058D01*
X182546842Y-70114141D01*
X182438059Y-70005358D01*
X182310142Y-69919887D01*
X182168009Y-69861013D01*
X182017122Y-69831000D01*
X181863278Y-69831000D01*
X181712391Y-69861013D01*
X181570258Y-69919887D01*
X181442341Y-70005358D01*
X181333558Y-70114141D01*
X181305589Y-70156000D01*
X175558884Y-70156000D01*
X175244349Y-69841465D01*
X175275073Y-69850787D01*
X175275090Y-69850789D01*
X175275104Y-69850793D01*
X175330112Y-69856211D01*
X175388968Y-69862011D01*
X175417524Y-69859200D01*
X177199428Y-69859200D01*
X177227932Y-69862011D01*
X177256505Y-69859200D01*
X177256540Y-69859200D01*
X177286614Y-69856238D01*
X177341828Y-69850806D01*
X177341859Y-69850797D01*
X177341896Y-69850793D01*
X177401883Y-69832596D01*
X177451350Y-69817597D01*
X177451377Y-69817582D01*
X177451415Y-69817571D01*
X177507415Y-69787638D01*
X177552290Y-69763659D01*
X177552316Y-69763638D01*
X177552348Y-69763621D01*
X177600236Y-69724321D01*
X177618597Y-69709256D01*
X177618618Y-69709235D01*
X177640817Y-69691017D01*
X177658992Y-69668871D01*
X178141292Y-69186685D01*
X178256682Y-69221688D01*
X178437528Y-69239500D01*
X178558472Y-69239500D01*
X178739318Y-69221688D01*
X178971363Y-69151298D01*
X179185216Y-69036991D01*
X179372660Y-68883160D01*
X179526491Y-68695716D01*
X179640798Y-68481863D01*
X179711188Y-68249818D01*
X179734956Y-68008500D01*
X179711188Y-67767182D01*
X179640798Y-67535137D01*
X179536227Y-67339499D01*
X179750018Y-67339499D01*
X182084517Y-69673998D01*
X182098799Y-69691401D01*
X182168234Y-69748384D01*
X182247452Y-69790727D01*
X182333408Y-69816802D01*
X182400401Y-69823400D01*
X182400403Y-69823400D01*
X182422799Y-69825606D01*
X182445195Y-69823400D01*
X188386402Y-69823400D01*
X188408798Y-69825606D01*
X188431194Y-69823400D01*
X188431197Y-69823400D01*
X188498190Y-69816802D01*
X188584146Y-69790727D01*
X188663364Y-69748384D01*
X188732799Y-69691401D01*
X188747081Y-69673998D01*
X191081879Y-67339200D01*
X195119601Y-67339200D01*
X195142000Y-67341406D01*
X195164399Y-67339200D01*
X195231392Y-67332602D01*
X195317348Y-67306527D01*
X195396566Y-67264184D01*
X195466001Y-67207201D01*
X195483487Y-67185894D01*
X199311702Y-63357679D01*
X199361078Y-63367500D01*
X199514922Y-63367500D01*
X199665809Y-63337487D01*
X199807942Y-63278613D01*
X199935859Y-63193142D01*
X200044642Y-63084359D01*
X200130113Y-62956442D01*
X200188987Y-62814309D01*
X200219000Y-62663422D01*
X200219000Y-62509578D01*
X200188987Y-62358691D01*
X200138829Y-62237600D01*
X200343389Y-62237600D01*
X200371358Y-62279459D01*
X200480141Y-62388242D01*
X200608058Y-62473713D01*
X200750191Y-62532587D01*
X200901078Y-62562600D01*
X200980830Y-62562600D01*
X193133290Y-70410320D01*
X193083922Y-70400500D01*
X192930078Y-70400500D01*
X192779191Y-70430513D01*
X192637058Y-70489387D01*
X192509141Y-70574858D01*
X192400358Y-70683641D01*
X192314887Y-70811558D01*
X192256013Y-70953691D01*
X192226000Y-71104578D01*
X192226000Y-71258422D01*
X192256013Y-71409309D01*
X192258702Y-71415800D01*
X191995611Y-71415800D01*
X191967642Y-71373941D01*
X191858859Y-71265158D01*
X191730942Y-71179687D01*
X191588809Y-71120813D01*
X191437922Y-71090800D01*
X191284078Y-71090800D01*
X191133191Y-71120813D01*
X190991058Y-71179687D01*
X190863141Y-71265158D01*
X190754358Y-71373941D01*
X190668887Y-71501858D01*
X190610013Y-71643991D01*
X190580000Y-71794878D01*
X190580000Y-71948722D01*
X190610013Y-72099609D01*
X190668887Y-72241742D01*
X190754358Y-72369659D01*
X190863141Y-72478442D01*
X190991058Y-72563913D01*
X191133191Y-72622787D01*
X191284078Y-72652800D01*
X191437922Y-72652800D01*
X191588809Y-72622787D01*
X191730942Y-72563913D01*
X191858859Y-72478442D01*
X191967642Y-72369659D01*
X191995611Y-72327800D01*
X194208599Y-72327800D01*
X194230992Y-72330006D01*
X194253393Y-72327800D01*
X194253399Y-72327800D01*
X194320392Y-72321202D01*
X194396270Y-72298184D01*
X194406339Y-72295130D01*
X194406340Y-72295129D01*
X194406348Y-72295127D01*
X194462932Y-72264882D01*
X194485558Y-72252789D01*
X194485561Y-72252787D01*
X194485566Y-72252784D01*
X194555001Y-72195801D01*
X194569282Y-72178399D01*
X199667876Y-67080000D01*
X205017389Y-67080000D01*
X205045358Y-67121859D01*
X205154141Y-67230642D01*
X205232426Y-67282950D01*
X205132141Y-67349958D01*
X205023358Y-67458741D01*
X204995322Y-67500700D01*
X200749418Y-67500700D01*
X200727042Y-67498494D01*
X200704623Y-67500700D01*
X200704601Y-67500700D01*
X200680657Y-67503058D01*
X200637650Y-67507290D01*
X200637631Y-67507296D01*
X200637608Y-67507298D01*
X200591913Y-67521160D01*
X200551691Y-67533357D01*
X200551673Y-67533367D01*
X200551652Y-67533373D01*
X200511716Y-67554719D01*
X200472470Y-67575692D01*
X200472453Y-67575706D01*
X200472434Y-67575716D01*
X200433063Y-67608026D01*
X200420429Y-67618393D01*
X200420419Y-67618403D01*
X200402999Y-67632699D01*
X200388730Y-67650086D01*
X197744424Y-70293899D01*
X197726999Y-70308199D01*
X197696209Y-70345718D01*
X197670039Y-70377599D01*
X197670027Y-70377622D01*
X197670016Y-70377635D01*
X197650485Y-70414174D01*
X197627690Y-70456813D01*
X197627684Y-70456832D01*
X197627673Y-70456853D01*
X197612944Y-70505408D01*
X197601607Y-70542767D01*
X197601605Y-70542785D01*
X197601598Y-70542809D01*
X197596880Y-70590711D01*
X197592794Y-70632158D01*
X197595000Y-70654577D01*
X197595001Y-72904988D01*
X197553141Y-72932958D01*
X197444358Y-73041741D01*
X197358887Y-73169658D01*
X197300013Y-73311791D01*
X197270000Y-73462678D01*
X197270000Y-73616522D01*
X197300013Y-73767409D01*
X197358887Y-73909542D01*
X197444358Y-74037459D01*
X197553141Y-74146242D01*
X197677769Y-74229515D01*
X196466126Y-75441100D01*
X191597396Y-75441100D01*
X191574995Y-75438894D01*
X191536331Y-75442702D01*
X191485608Y-75447698D01*
X191485605Y-75447699D01*
X191485604Y-75447699D01*
X191459272Y-75455687D01*
X191399652Y-75473773D01*
X191399650Y-75473774D01*
X191399647Y-75473775D01*
X191320430Y-75516118D01*
X191282972Y-75546860D01*
X191250999Y-75573099D01*
X191236718Y-75590501D01*
X178040427Y-88787094D01*
X178085000Y-88563008D01*
X178085000Y-88093992D01*
X177993500Y-87633988D01*
X177814015Y-87200673D01*
X177553444Y-86810701D01*
X177221799Y-86479056D01*
X176831827Y-86218485D01*
X176398512Y-86039000D01*
X175938508Y-85947500D01*
X175469492Y-85947500D01*
X175009488Y-86039000D01*
X174576173Y-86218485D01*
X174186201Y-86479056D01*
X173854556Y-86810701D01*
X173593985Y-87200673D01*
X173414500Y-87633988D01*
X173323000Y-88093992D01*
X173323000Y-88563008D01*
X173414500Y-89023012D01*
X173593985Y-89456327D01*
X173854556Y-89846299D01*
X174186201Y-90177944D01*
X174576173Y-90438515D01*
X175009488Y-90618000D01*
X175469492Y-90709500D01*
X175938508Y-90709500D01*
X176162648Y-90664916D01*
X174333923Y-92493683D01*
X174314368Y-92464417D01*
X174108083Y-92258132D01*
X173865517Y-92096055D01*
X173595992Y-91984414D01*
X173309866Y-91927500D01*
X173018134Y-91927500D01*
X172732008Y-91984414D01*
X172462483Y-92096055D01*
X172219917Y-92258132D01*
X172013632Y-92464417D01*
X171851555Y-92706983D01*
X171739914Y-92976508D01*
X171683000Y-93262634D01*
X171683000Y-93554366D01*
X171739914Y-93840492D01*
X171851555Y-94110017D01*
X172013632Y-94352583D01*
X172219917Y-94558868D01*
X172462483Y-94720945D01*
X172732008Y-94832586D01*
X173018134Y-94889500D01*
X173309866Y-94889500D01*
X173595992Y-94832586D01*
X173865517Y-94720945D01*
X174108083Y-94558868D01*
X174314368Y-94352583D01*
X174476445Y-94110017D01*
X174588086Y-93840492D01*
X174645000Y-93554366D01*
X174645000Y-93472375D01*
X177394678Y-90722634D01*
X178033000Y-90722634D01*
X178033000Y-91014366D01*
X178089914Y-91300492D01*
X178201555Y-91570017D01*
X178363632Y-91812583D01*
X178569917Y-92018868D01*
X178812483Y-92180945D01*
X179082008Y-92292586D01*
X179368134Y-92349500D01*
X179659866Y-92349500D01*
X179945992Y-92292586D01*
X180215517Y-92180945D01*
X180458083Y-92018868D01*
X180664368Y-91812583D01*
X180826445Y-91570017D01*
X180928142Y-91324500D01*
X182323119Y-91324500D01*
X182682717Y-91684098D01*
X182696999Y-91701501D01*
X182737230Y-91734518D01*
X182766434Y-91758485D01*
X182845508Y-91800750D01*
X182845652Y-91800827D01*
X182913157Y-91821305D01*
X182913157Y-91827500D01*
X182920513Y-91902189D01*
X182942299Y-91974008D01*
X182977678Y-92040196D01*
X183025289Y-92098211D01*
X183083304Y-92145822D01*
X183149492Y-92181201D01*
X183221311Y-92202987D01*
X183296000Y-92210343D01*
X184496000Y-92210343D01*
X184570689Y-92202987D01*
X184642508Y-92181201D01*
X184708696Y-92145822D01*
X184766711Y-92098211D01*
X184814322Y-92040196D01*
X184849701Y-91974008D01*
X184871487Y-91902189D01*
X184878843Y-91827500D01*
X184878843Y-90927500D01*
X184871487Y-90852811D01*
X184849701Y-90780992D01*
X184814322Y-90714804D01*
X184766711Y-90656789D01*
X184708696Y-90609178D01*
X184642508Y-90573799D01*
X184570689Y-90552013D01*
X184496000Y-90544657D01*
X183296000Y-90544657D01*
X183221311Y-90552013D01*
X183149492Y-90573799D01*
X183083304Y-90609178D01*
X183025289Y-90656789D01*
X182989175Y-90700794D01*
X182850283Y-90561902D01*
X182836001Y-90544499D01*
X182766566Y-90487516D01*
X182687348Y-90445173D01*
X182601392Y-90419098D01*
X182534399Y-90412500D01*
X182534396Y-90412500D01*
X182512000Y-90410294D01*
X182489604Y-90412500D01*
X180928142Y-90412500D01*
X180826445Y-90166983D01*
X180664368Y-89924417D01*
X180458083Y-89718132D01*
X180215517Y-89556055D01*
X179945992Y-89444414D01*
X179659866Y-89387500D01*
X179368134Y-89387500D01*
X179082008Y-89444414D01*
X178812483Y-89556055D01*
X178569917Y-89718132D01*
X178363632Y-89924417D01*
X178201555Y-90166983D01*
X178089914Y-90436508D01*
X178033000Y-90722634D01*
X177394678Y-90722634D01*
X191763885Y-76353100D01*
X196632598Y-76353100D01*
X196654989Y-76355306D01*
X196677390Y-76353100D01*
X196677399Y-76353100D01*
X196744392Y-76346502D01*
X196813082Y-76325665D01*
X196830337Y-76320431D01*
X196830340Y-76320429D01*
X196830348Y-76320427D01*
X196872465Y-76297915D01*
X196909556Y-76278091D01*
X196909562Y-76278086D01*
X196909566Y-76278084D01*
X196979001Y-76221101D01*
X196993281Y-76203701D01*
X199033596Y-74163485D01*
X199051001Y-74149201D01*
X199086700Y-74105701D01*
X199107978Y-74079775D01*
X199107981Y-74079770D01*
X199107984Y-74079766D01*
X199130598Y-74037459D01*
X199150323Y-74000558D01*
X199150325Y-74000552D01*
X199150327Y-74000548D01*
X199176402Y-73914592D01*
X199183000Y-73847599D01*
X199183000Y-73847598D01*
X199185206Y-73825211D01*
X199183000Y-73802807D01*
X199183000Y-73541908D01*
X199208358Y-73579859D01*
X199317141Y-73688642D01*
X199359001Y-73716612D01*
X199359000Y-86878238D01*
X199271444Y-86747201D01*
X198939799Y-86415556D01*
X198549827Y-86154985D01*
X198116512Y-85975500D01*
X197656508Y-85884000D01*
X197187492Y-85884000D01*
X196727488Y-85975500D01*
X196294173Y-86154985D01*
X195904201Y-86415556D01*
X195572556Y-86747201D01*
X195311985Y-87137173D01*
X195132500Y-87570488D01*
X195041000Y-88030492D01*
X195041000Y-88499508D01*
X195132500Y-88959512D01*
X195311985Y-89392827D01*
X195572556Y-89782799D01*
X195904201Y-90114444D01*
X196294173Y-90375015D01*
X196727488Y-90554500D01*
X197187492Y-90646000D01*
X197656508Y-90646000D01*
X198116512Y-90554500D01*
X198549827Y-90375015D01*
X198939799Y-90114444D01*
X199271444Y-89782799D01*
X199359000Y-89651762D01*
X199359000Y-94279400D01*
X196038838Y-94279400D01*
X196194445Y-94046517D01*
X196306086Y-93776992D01*
X196363000Y-93490866D01*
X196363000Y-93199134D01*
X196306086Y-92913008D01*
X196194445Y-92643483D01*
X196032368Y-92400917D01*
X195826083Y-92194632D01*
X195583517Y-92032555D01*
X195313992Y-91920914D01*
X195027866Y-91864000D01*
X194736134Y-91864000D01*
X194450008Y-91920914D01*
X194180483Y-92032555D01*
X193937917Y-92194632D01*
X193731632Y-92400917D01*
X193569555Y-92643483D01*
X193457914Y-92913008D01*
X193401000Y-93199134D01*
X193401000Y-93490866D01*
X193457914Y-93776992D01*
X193569555Y-94046517D01*
X193725162Y-94279400D01*
X184993560Y-94279400D01*
X184986067Y-94275403D01*
X184946348Y-94254173D01*
X184946156Y-94254115D01*
X184945982Y-94254022D01*
X184904058Y-94241344D01*
X184878843Y-94233695D01*
X184878843Y-94227500D01*
X184871487Y-94152811D01*
X184849701Y-94080992D01*
X184814322Y-94014804D01*
X184766711Y-93956789D01*
X184708696Y-93909178D01*
X184642508Y-93873799D01*
X184570689Y-93852013D01*
X184496000Y-93844657D01*
X183296000Y-93844657D01*
X183221311Y-93852013D01*
X183149492Y-93873799D01*
X183083304Y-93909178D01*
X183025289Y-93956789D01*
X182977678Y-94014804D01*
X182942299Y-94080992D01*
X182920513Y-94152811D01*
X182913157Y-94227500D01*
X182913157Y-95127500D01*
X182920513Y-95202189D01*
X182942299Y-95274008D01*
X182977678Y-95340196D01*
X183025289Y-95398211D01*
X183083304Y-95445822D01*
X183149492Y-95481201D01*
X183221311Y-95502987D01*
X183296000Y-95510343D01*
X184496000Y-95510343D01*
X184570689Y-95502987D01*
X184642508Y-95481201D01*
X184708696Y-95445822D01*
X184766711Y-95398211D01*
X184814322Y-95340196D01*
X184849701Y-95274008D01*
X184871487Y-95202189D01*
X184872550Y-95191400D01*
X199734405Y-95191400D01*
X199756605Y-95193606D01*
X199779200Y-95191400D01*
X199779399Y-95191400D01*
X199802030Y-95189171D01*
X199846003Y-95184878D01*
X199846188Y-95184822D01*
X199846392Y-95184802D01*
X199890058Y-95171556D01*
X199931982Y-95158878D01*
X199932156Y-95158785D01*
X199932348Y-95158727D01*
X199972067Y-95137497D01*
X199979560Y-95133500D01*
X204630748Y-95133500D01*
X204637513Y-95202189D01*
X204659299Y-95274008D01*
X204694678Y-95340196D01*
X204742289Y-95398211D01*
X204800304Y-95445822D01*
X204866492Y-95481201D01*
X204938311Y-95502987D01*
X205013000Y-95510343D01*
X206213000Y-95510343D01*
X206287689Y-95502987D01*
X206359508Y-95481201D01*
X206425696Y-95445822D01*
X206483711Y-95398211D01*
X206531322Y-95340196D01*
X206566701Y-95274008D01*
X206588487Y-95202189D01*
X206595843Y-95127500D01*
X206595843Y-94227500D01*
X206588487Y-94152811D01*
X206566701Y-94080992D01*
X206531322Y-94014804D01*
X206483711Y-93956789D01*
X206425696Y-93909178D01*
X206359508Y-93873799D01*
X206287689Y-93852013D01*
X206213000Y-93844657D01*
X205013000Y-93844657D01*
X204938311Y-93852013D01*
X204866492Y-93873799D01*
X204800304Y-93909178D01*
X204742289Y-93956789D01*
X204694678Y-94014804D01*
X204659299Y-94080992D01*
X204637513Y-94152811D01*
X204630748Y-94221500D01*
X200271000Y-94221500D01*
X200271000Y-91938451D01*
X200287917Y-91955368D01*
X200530483Y-92117445D01*
X200800008Y-92229086D01*
X201086134Y-92286000D01*
X201377866Y-92286000D01*
X201663992Y-92229086D01*
X201933517Y-92117445D01*
X202176083Y-91955368D01*
X202382368Y-91749083D01*
X202544445Y-91506517D01*
X202646142Y-91261000D01*
X203976236Y-91261000D01*
X204399784Y-91684179D01*
X204413999Y-91701501D01*
X204431475Y-91715843D01*
X204431545Y-91715913D01*
X204449335Y-91730500D01*
X204483434Y-91758484D01*
X204483518Y-91758529D01*
X204483600Y-91758596D01*
X204523550Y-91779926D01*
X204562652Y-91800827D01*
X204562751Y-91800857D01*
X204562837Y-91800903D01*
X204603880Y-91813333D01*
X204630157Y-91821305D01*
X204630157Y-91827500D01*
X204637513Y-91902189D01*
X204659299Y-91974008D01*
X204694678Y-92040196D01*
X204742289Y-92098211D01*
X204800304Y-92145822D01*
X204866492Y-92181201D01*
X204938311Y-92202987D01*
X205013000Y-92210343D01*
X206213000Y-92210343D01*
X206287689Y-92202987D01*
X206359508Y-92181201D01*
X206425696Y-92145822D01*
X206483711Y-92098211D01*
X206531322Y-92040196D01*
X206566701Y-91974008D01*
X206588487Y-91902189D01*
X206595843Y-91827500D01*
X206595843Y-90927500D01*
X206588487Y-90852811D01*
X206566701Y-90780992D01*
X206531322Y-90714804D01*
X206483711Y-90656789D01*
X206425696Y-90609178D01*
X206359508Y-90573799D01*
X206287689Y-90552013D01*
X206213000Y-90544657D01*
X205013000Y-90544657D01*
X204938311Y-90552013D01*
X204866492Y-90573799D01*
X204800304Y-90609178D01*
X204742289Y-90656789D01*
X204706036Y-90700964D01*
X204503225Y-90498331D01*
X204489001Y-90480999D01*
X204471514Y-90466648D01*
X204471454Y-90466588D01*
X204456239Y-90454112D01*
X204419566Y-90424016D01*
X204419475Y-90423967D01*
X204419399Y-90423905D01*
X204381257Y-90403539D01*
X204340348Y-90381673D01*
X204340247Y-90381642D01*
X204340162Y-90381597D01*
X204299746Y-90369356D01*
X204254392Y-90355598D01*
X204254285Y-90355587D01*
X204254194Y-90355560D01*
X204210934Y-90351318D01*
X204187399Y-90349000D01*
X204187296Y-90349000D01*
X204164800Y-90346794D01*
X204142504Y-90349000D01*
X202646142Y-90349000D01*
X202544445Y-90103483D01*
X202382368Y-89860917D01*
X202176083Y-89654632D01*
X201933517Y-89492555D01*
X201663992Y-89380914D01*
X201377866Y-89324000D01*
X201086134Y-89324000D01*
X200800008Y-89380914D01*
X200530483Y-89492555D01*
X200287917Y-89654632D01*
X200271000Y-89671549D01*
X200271000Y-79018500D01*
X205708928Y-79018500D01*
X205721188Y-79142982D01*
X205757498Y-79262680D01*
X205816463Y-79372994D01*
X205895815Y-79469685D01*
X205992506Y-79549037D01*
X206102820Y-79608002D01*
X206222518Y-79644312D01*
X206347000Y-79656572D01*
X206686250Y-79653500D01*
X206845000Y-79494750D01*
X206845000Y-78270500D01*
X207099000Y-78270500D01*
X207099000Y-79494750D01*
X207257750Y-79653500D01*
X207597000Y-79656572D01*
X207721482Y-79644312D01*
X207841180Y-79608002D01*
X207951494Y-79549037D01*
X208048185Y-79469685D01*
X208127537Y-79372994D01*
X208186502Y-79262680D01*
X208222812Y-79142982D01*
X208235072Y-79018500D01*
X208232000Y-78429250D01*
X208073250Y-78270500D01*
X207099000Y-78270500D01*
X206845000Y-78270500D01*
X205870750Y-78270500D01*
X205712000Y-78429250D01*
X205708928Y-79018500D01*
X200271000Y-79018500D01*
X200271000Y-73716611D01*
X200312859Y-73688642D01*
X200421642Y-73579859D01*
X200507113Y-73451942D01*
X200565987Y-73309809D01*
X200596000Y-73158922D01*
X200596000Y-73005078D01*
X200565987Y-72854191D01*
X200526383Y-72758578D01*
X201668000Y-72758578D01*
X201668000Y-72912422D01*
X201698013Y-73063309D01*
X201756887Y-73205442D01*
X201842358Y-73333359D01*
X201951141Y-73442142D01*
X202079058Y-73527613D01*
X202221191Y-73586487D01*
X202372078Y-73616500D01*
X202525922Y-73616500D01*
X202575298Y-73606679D01*
X205575720Y-76607102D01*
X205589999Y-76624501D01*
X205659434Y-76681484D01*
X205738652Y-76723827D01*
X205824608Y-76749902D01*
X205891601Y-76756500D01*
X205891604Y-76756500D01*
X205914000Y-76758706D01*
X205936396Y-76756500D01*
X205969919Y-76756500D01*
X205895815Y-76817315D01*
X205816463Y-76914006D01*
X205757498Y-77024320D01*
X205721188Y-77144018D01*
X205708928Y-77268500D01*
X205712000Y-77857750D01*
X205870750Y-78016500D01*
X206845000Y-78016500D01*
X206845000Y-77996500D01*
X207099000Y-77996500D01*
X207099000Y-78016500D01*
X208073250Y-78016500D01*
X208232000Y-77857750D01*
X208235072Y-77268500D01*
X208233210Y-77249591D01*
X208764157Y-77780538D01*
X208764157Y-78768500D01*
X208776317Y-78891962D01*
X208812329Y-79010679D01*
X208870810Y-79120089D01*
X208949512Y-79215988D01*
X209045411Y-79294690D01*
X209154821Y-79353171D01*
X209273538Y-79389183D01*
X209397000Y-79401343D01*
X210147000Y-79401343D01*
X210270462Y-79389183D01*
X210389179Y-79353171D01*
X210498589Y-79294690D01*
X210594488Y-79215988D01*
X210673190Y-79120089D01*
X210731671Y-79010679D01*
X210767683Y-78891962D01*
X210779843Y-78768500D01*
X210779843Y-77518500D01*
X210767683Y-77395038D01*
X210731671Y-77276321D01*
X210673190Y-77166911D01*
X210594488Y-77071012D01*
X210498589Y-76992310D01*
X210389179Y-76933829D01*
X210270462Y-76897817D01*
X210147000Y-76885657D01*
X209397000Y-76885657D01*
X209273538Y-76897817D01*
X209195017Y-76921636D01*
X208267283Y-75993902D01*
X208253001Y-75976499D01*
X208183566Y-75919516D01*
X208104348Y-75877173D01*
X208018392Y-75851098D01*
X207954291Y-75844785D01*
X207987494Y-75827037D01*
X208084185Y-75747685D01*
X208163537Y-75650994D01*
X208222502Y-75540680D01*
X208258812Y-75420982D01*
X208271072Y-75296500D01*
X208268000Y-74707250D01*
X208109250Y-74548500D01*
X207135000Y-74548500D01*
X207135000Y-74568500D01*
X206881000Y-74568500D01*
X206881000Y-74548500D01*
X205906750Y-74548500D01*
X205748000Y-74707250D01*
X205744928Y-75296500D01*
X205757188Y-75420982D01*
X205791075Y-75532693D01*
X203804882Y-73546500D01*
X205744928Y-73546500D01*
X205748000Y-74135750D01*
X205906750Y-74294500D01*
X206881000Y-74294500D01*
X206881000Y-73070250D01*
X207135000Y-73070250D01*
X207135000Y-74294500D01*
X208109250Y-74294500D01*
X208268000Y-74135750D01*
X208271072Y-73546500D01*
X208258812Y-73422018D01*
X208222502Y-73302320D01*
X208163537Y-73192006D01*
X208084185Y-73095315D01*
X207987494Y-73015963D01*
X207877180Y-72956998D01*
X207757482Y-72920688D01*
X207633000Y-72908428D01*
X207293750Y-72911500D01*
X207135000Y-73070250D01*
X206881000Y-73070250D01*
X206722250Y-72911500D01*
X206383000Y-72908428D01*
X206258518Y-72920688D01*
X206138820Y-72956998D01*
X206028506Y-73015963D01*
X205931815Y-73095315D01*
X205852463Y-73192006D01*
X205793498Y-73302320D01*
X205757188Y-73422018D01*
X205744928Y-73546500D01*
X203804882Y-73546500D01*
X203220179Y-72961798D01*
X203230000Y-72912422D01*
X203230000Y-72758578D01*
X203199987Y-72607691D01*
X203141113Y-72465558D01*
X203055642Y-72337641D01*
X202946859Y-72228858D01*
X202818942Y-72143387D01*
X202676809Y-72084513D01*
X202525922Y-72054500D01*
X202372078Y-72054500D01*
X202221191Y-72084513D01*
X202079058Y-72143387D01*
X201951141Y-72228858D01*
X201842358Y-72337641D01*
X201756887Y-72465558D01*
X201698013Y-72607691D01*
X201668000Y-72758578D01*
X200526383Y-72758578D01*
X200507113Y-72712058D01*
X200421642Y-72584141D01*
X200345188Y-72507687D01*
X200387113Y-72444942D01*
X200445987Y-72302809D01*
X200476000Y-72151922D01*
X200476000Y-71998078D01*
X200445987Y-71847191D01*
X200387113Y-71705058D01*
X200368700Y-71677500D01*
X205744928Y-71677500D01*
X205757188Y-71801982D01*
X205793498Y-71921680D01*
X205852463Y-72031994D01*
X205931815Y-72128685D01*
X206028506Y-72208037D01*
X206138820Y-72267002D01*
X206258518Y-72303312D01*
X206383000Y-72315572D01*
X206722250Y-72312500D01*
X206881000Y-72153750D01*
X206881000Y-70929500D01*
X207135000Y-70929500D01*
X207135000Y-72153750D01*
X207293750Y-72312500D01*
X207633000Y-72315572D01*
X207757482Y-72303312D01*
X207877180Y-72267002D01*
X207987494Y-72208037D01*
X208084185Y-72128685D01*
X208163537Y-72031994D01*
X208222502Y-71921680D01*
X208258812Y-71801982D01*
X208271072Y-71677500D01*
X208268000Y-71088250D01*
X208109250Y-70929500D01*
X207135000Y-70929500D01*
X206881000Y-70929500D01*
X205906750Y-70929500D01*
X205748000Y-71088250D01*
X205744928Y-71677500D01*
X200368700Y-71677500D01*
X200301642Y-71577141D01*
X200192859Y-71468358D01*
X200064942Y-71382887D01*
X199922809Y-71324013D01*
X199771922Y-71294000D01*
X199618078Y-71294000D01*
X199467191Y-71324013D01*
X199325058Y-71382887D01*
X199197141Y-71468358D01*
X199088358Y-71577141D01*
X199002887Y-71705058D01*
X198944013Y-71847191D01*
X198914000Y-71998078D01*
X198914000Y-72151922D01*
X198923844Y-72201414D01*
X198507000Y-72618388D01*
X198507000Y-70821105D01*
X199400772Y-69927500D01*
X205744928Y-69927500D01*
X205748000Y-70516750D01*
X205906750Y-70675500D01*
X206881000Y-70675500D01*
X206881000Y-69451250D01*
X207135000Y-69451250D01*
X207135000Y-70675500D01*
X208109250Y-70675500D01*
X208268000Y-70516750D01*
X208271072Y-69927500D01*
X208258812Y-69803018D01*
X208222502Y-69683320D01*
X208163537Y-69573006D01*
X208084185Y-69476315D01*
X207987494Y-69396963D01*
X207877180Y-69337998D01*
X207757482Y-69301688D01*
X207633000Y-69289428D01*
X207293750Y-69292500D01*
X207135000Y-69451250D01*
X206881000Y-69451250D01*
X206722250Y-69292500D01*
X206383000Y-69289428D01*
X206258518Y-69301688D01*
X206138820Y-69337998D01*
X206028506Y-69396963D01*
X205931815Y-69476315D01*
X205852463Y-69573006D01*
X205793498Y-69683320D01*
X205757188Y-69803018D01*
X205744928Y-69927500D01*
X199400772Y-69927500D01*
X200915856Y-68412700D01*
X204995456Y-68412700D01*
X205023358Y-68454459D01*
X205132141Y-68563242D01*
X205260058Y-68648713D01*
X205402191Y-68707587D01*
X205553078Y-68737600D01*
X205706922Y-68737600D01*
X205857809Y-68707587D01*
X205999942Y-68648713D01*
X206127859Y-68563242D01*
X206163586Y-68527515D01*
X206258518Y-68556312D01*
X206383000Y-68568572D01*
X206722250Y-68565500D01*
X206881000Y-68406750D01*
X206881000Y-67182500D01*
X207135000Y-67182500D01*
X207135000Y-68406750D01*
X207293750Y-68565500D01*
X207633000Y-68568572D01*
X207757482Y-68556312D01*
X207877180Y-68520002D01*
X207987494Y-68461037D01*
X208084185Y-68381685D01*
X208163537Y-68284994D01*
X208222502Y-68174680D01*
X208258812Y-68054982D01*
X208271072Y-67930500D01*
X208268000Y-67341250D01*
X208109250Y-67182500D01*
X207135000Y-67182500D01*
X206881000Y-67182500D01*
X206861000Y-67182500D01*
X206861000Y-66928500D01*
X206881000Y-66928500D01*
X206881000Y-65704250D01*
X207135000Y-65704250D01*
X207135000Y-66928500D01*
X208109250Y-66928500D01*
X208268000Y-66769750D01*
X208271072Y-66180500D01*
X208258812Y-66056018D01*
X208222502Y-65936320D01*
X208163537Y-65826006D01*
X208084185Y-65729315D01*
X207987494Y-65649963D01*
X207877180Y-65590998D01*
X207757482Y-65554688D01*
X207633000Y-65542428D01*
X207293750Y-65545500D01*
X207135000Y-65704250D01*
X206881000Y-65704250D01*
X206722250Y-65545500D01*
X206383000Y-65542428D01*
X206258518Y-65554688D01*
X206148557Y-65588044D01*
X206227642Y-65508959D01*
X206313113Y-65381042D01*
X206371987Y-65238909D01*
X206402000Y-65088022D01*
X206402000Y-64934178D01*
X206371987Y-64783291D01*
X206313113Y-64641158D01*
X206301691Y-64624064D01*
X206383000Y-64632072D01*
X206722250Y-64629000D01*
X206881000Y-64470250D01*
X206881000Y-63246000D01*
X206861000Y-63246000D01*
X206861000Y-62992000D01*
X206881000Y-62992000D01*
X206881000Y-61767750D01*
X207135000Y-61767750D01*
X207135000Y-62992000D01*
X207155000Y-62992000D01*
X207155000Y-63246000D01*
X207135000Y-63246000D01*
X207135000Y-64470250D01*
X207293750Y-64629000D01*
X207633000Y-64632072D01*
X207757482Y-64619812D01*
X207877180Y-64583502D01*
X207987494Y-64524537D01*
X208084185Y-64445185D01*
X208163537Y-64348494D01*
X208222502Y-64238180D01*
X208258812Y-64118482D01*
X208271072Y-63994000D01*
X208270400Y-63865173D01*
X208278078Y-63866700D01*
X208431922Y-63866700D01*
X208582809Y-63836687D01*
X208724942Y-63777813D01*
X208800157Y-63727556D01*
X208800157Y-63744000D01*
X208812317Y-63867462D01*
X208848329Y-63986179D01*
X208906810Y-64095589D01*
X208985512Y-64191488D01*
X209081411Y-64270190D01*
X209190821Y-64328671D01*
X209227000Y-64339646D01*
X209227001Y-65834854D01*
X209190821Y-65845829D01*
X209081411Y-65904310D01*
X208985512Y-65983012D01*
X208906810Y-66078911D01*
X208848329Y-66188321D01*
X208812317Y-66307038D01*
X208800157Y-66430500D01*
X208800157Y-67680500D01*
X208812317Y-67803962D01*
X208848329Y-67922679D01*
X208906810Y-68032089D01*
X208985512Y-68127988D01*
X209081411Y-68206690D01*
X209190821Y-68265171D01*
X209227001Y-68276146D01*
X209227000Y-69581854D01*
X209190821Y-69592829D01*
X209081411Y-69651310D01*
X208985512Y-69730012D01*
X208906810Y-69825911D01*
X208848329Y-69935321D01*
X208812317Y-70054038D01*
X208800157Y-70177500D01*
X208800157Y-71427500D01*
X208812317Y-71550962D01*
X208848329Y-71669679D01*
X208906810Y-71779089D01*
X208985512Y-71874988D01*
X209081411Y-71953690D01*
X209190821Y-72012171D01*
X209227001Y-72023146D01*
X209227000Y-73200854D01*
X209190821Y-73211829D01*
X209081411Y-73270310D01*
X208985512Y-73349012D01*
X208906810Y-73444911D01*
X208848329Y-73554321D01*
X208812317Y-73673038D01*
X208800157Y-73796500D01*
X208800157Y-75046500D01*
X208812317Y-75169962D01*
X208848329Y-75288679D01*
X208906810Y-75398089D01*
X208985512Y-75493988D01*
X209081411Y-75572690D01*
X209190821Y-75631171D01*
X209309538Y-75667183D01*
X209433000Y-75679343D01*
X210183000Y-75679343D01*
X210306462Y-75667183D01*
X210425179Y-75631171D01*
X210534589Y-75572690D01*
X210630488Y-75493988D01*
X210709190Y-75398089D01*
X210767671Y-75288679D01*
X210803683Y-75169962D01*
X210815843Y-75046500D01*
X210815843Y-73796500D01*
X210803683Y-73673038D01*
X210767671Y-73554321D01*
X210709190Y-73444911D01*
X210630488Y-73349012D01*
X210534589Y-73270310D01*
X210425179Y-73211829D01*
X210389000Y-73200854D01*
X210389000Y-72023146D01*
X210425179Y-72012171D01*
X210534589Y-71953690D01*
X210630488Y-71874988D01*
X210709190Y-71779089D01*
X210767671Y-71669679D01*
X210803683Y-71550962D01*
X210815843Y-71427500D01*
X210815843Y-70177500D01*
X210803683Y-70054038D01*
X210767671Y-69935321D01*
X210709190Y-69825911D01*
X210630488Y-69730012D01*
X210534589Y-69651310D01*
X210425179Y-69592829D01*
X210389000Y-69581854D01*
X210389000Y-68276146D01*
X210425179Y-68265171D01*
X210534589Y-68206690D01*
X210630488Y-68127988D01*
X210709190Y-68032089D01*
X210767671Y-67922679D01*
X210803683Y-67803962D01*
X210815843Y-67680500D01*
X210815843Y-66430500D01*
X210803683Y-66307038D01*
X210767671Y-66188321D01*
X210709190Y-66078911D01*
X210630488Y-65983012D01*
X210534589Y-65904310D01*
X210425179Y-65845829D01*
X210389000Y-65834854D01*
X210389000Y-64339646D01*
X210425179Y-64328671D01*
X210534589Y-64270190D01*
X210630488Y-64191488D01*
X210709190Y-64095589D01*
X210767671Y-63986179D01*
X210803683Y-63867462D01*
X210815843Y-63744000D01*
X210815843Y-62494000D01*
X210803683Y-62370538D01*
X210767671Y-62251821D01*
X210709190Y-62142411D01*
X210630488Y-62046512D01*
X210534589Y-61967810D01*
X210425179Y-61909329D01*
X210306462Y-61873317D01*
X210183000Y-61861157D01*
X209433000Y-61861157D01*
X209309538Y-61873317D01*
X209190821Y-61909329D01*
X209081411Y-61967810D01*
X208985512Y-62046512D01*
X208906810Y-62142411D01*
X208848329Y-62251821D01*
X208812317Y-62370538D01*
X208804792Y-62446941D01*
X208724942Y-62393587D01*
X208582809Y-62334713D01*
X208431922Y-62304700D01*
X208278078Y-62304700D01*
X208270748Y-62306158D01*
X208271072Y-62244000D01*
X208258812Y-62119518D01*
X208222502Y-61999820D01*
X208163537Y-61889506D01*
X208084185Y-61792815D01*
X207987494Y-61713463D01*
X207877180Y-61654498D01*
X207757482Y-61618188D01*
X207633000Y-61605928D01*
X207293750Y-61609000D01*
X207135000Y-61767750D01*
X206881000Y-61767750D01*
X206722250Y-61609000D01*
X206383000Y-61605928D01*
X206258518Y-61618188D01*
X206138820Y-61654498D01*
X206028506Y-61713463D01*
X206003394Y-61734072D01*
X206001984Y-61731434D01*
X206001973Y-61731420D01*
X206001964Y-61731404D01*
X205972623Y-61695657D01*
X205945001Y-61661999D01*
X205927588Y-61647709D01*
X202120939Y-57841663D01*
X202152250Y-57841500D01*
X202311000Y-57682750D01*
X202311000Y-56708500D01*
X202565000Y-56708500D01*
X202565000Y-57682750D01*
X202723750Y-57841500D01*
X203313000Y-57844572D01*
X203437482Y-57832312D01*
X203557180Y-57796002D01*
X203667494Y-57737037D01*
X203764185Y-57657685D01*
X203843537Y-57560994D01*
X203882139Y-57488775D01*
X206533830Y-57488775D01*
X206773976Y-57876018D01*
X207267877Y-58136641D01*
X207803133Y-58295901D01*
X208359174Y-58347678D01*
X208914632Y-58289981D01*
X209448161Y-58125028D01*
X209914024Y-57876018D01*
X210154170Y-57488775D01*
X208344000Y-55678605D01*
X206533830Y-57488775D01*
X203882139Y-57488775D01*
X203902502Y-57450680D01*
X203938812Y-57330982D01*
X203951072Y-57206500D01*
X203948000Y-56867250D01*
X203789250Y-56708500D01*
X202565000Y-56708500D01*
X202311000Y-56708500D01*
X202291000Y-56708500D01*
X202291000Y-56454500D01*
X202311000Y-56454500D01*
X202311000Y-55480250D01*
X202565000Y-55480250D01*
X202565000Y-56454500D01*
X203789250Y-56454500D01*
X203948000Y-56295750D01*
X203951072Y-55956500D01*
X203938812Y-55832018D01*
X203902502Y-55712320D01*
X203843537Y-55602006D01*
X203771456Y-55514174D01*
X205495322Y-55514174D01*
X205553019Y-56069632D01*
X205717972Y-56603161D01*
X205966982Y-57069024D01*
X206354225Y-57309170D01*
X208164395Y-55499000D01*
X206354225Y-53688830D01*
X205966982Y-53928976D01*
X205706359Y-54422877D01*
X205547099Y-54958133D01*
X205495322Y-55514174D01*
X203771456Y-55514174D01*
X203764185Y-55505315D01*
X203667494Y-55425963D01*
X203557180Y-55366998D01*
X203437482Y-55330688D01*
X203313000Y-55318428D01*
X202723750Y-55321500D01*
X202565000Y-55480250D01*
X202311000Y-55480250D01*
X202152250Y-55321500D01*
X201563000Y-55318428D01*
X201544238Y-55320276D01*
X202075113Y-54789343D01*
X203063000Y-54789343D01*
X203186462Y-54777183D01*
X203305179Y-54741171D01*
X203414589Y-54682690D01*
X203510488Y-54603988D01*
X203589190Y-54508089D01*
X203647671Y-54398679D01*
X203683683Y-54279962D01*
X203695843Y-54156500D01*
X203695843Y-53406500D01*
X203683683Y-53283038D01*
X203647671Y-53164321D01*
X203589190Y-53054911D01*
X203510488Y-52959012D01*
X203414589Y-52880310D01*
X203305179Y-52821829D01*
X203186462Y-52785817D01*
X203063000Y-52773657D01*
X201813000Y-52773657D01*
X201689538Y-52785817D01*
X201570821Y-52821829D01*
X201461411Y-52880310D01*
X201365512Y-52959012D01*
X201286810Y-53054911D01*
X201228329Y-53164321D01*
X201192317Y-53283038D01*
X201180157Y-53406500D01*
X201180157Y-54156500D01*
X201192317Y-54279962D01*
X201216159Y-54358559D01*
X200394000Y-55180809D01*
X200394000Y-53295272D01*
X200396206Y-53272948D01*
X200394000Y-53250477D01*
X200394000Y-53250401D01*
X200391665Y-53226690D01*
X200387430Y-53183554D01*
X200387410Y-53183487D01*
X200387402Y-53183408D01*
X200373570Y-53137811D01*
X200361383Y-53097589D01*
X200361350Y-53097526D01*
X200361327Y-53097452D01*
X200340241Y-53058004D01*
X200319067Y-53018357D01*
X200319017Y-53018297D01*
X200318984Y-53018234D01*
X200290389Y-52983390D01*
X200276378Y-52966307D01*
X200276329Y-52966258D01*
X200262001Y-52948799D01*
X200244657Y-52934565D01*
X199976764Y-52666500D01*
X208173078Y-52666500D01*
X207773368Y-52708019D01*
X207239839Y-52872972D01*
X206773976Y-53121982D01*
X206533830Y-53509225D01*
X208344000Y-55319395D01*
X210154170Y-53509225D01*
X209914024Y-53121982D01*
X209420123Y-52861359D01*
X208884867Y-52702099D01*
X208502564Y-52666500D01*
X209362146Y-52666500D01*
X209730076Y-52702576D01*
X210064900Y-52803665D01*
X210373705Y-52967860D01*
X210644745Y-53188914D01*
X210867680Y-53458397D01*
X211034027Y-53766051D01*
X211137451Y-54100158D01*
X211176000Y-54466932D01*
X211176000Y-55323264D01*
X211134981Y-54928368D01*
X210970028Y-54394839D01*
X210721018Y-53928976D01*
X210333775Y-53688830D01*
X208523605Y-55499000D01*
X210333775Y-57309170D01*
X210721018Y-57069024D01*
X210981641Y-56575123D01*
X211140901Y-56039867D01*
X211176000Y-55662933D01*
X211176001Y-98481775D01*
X211033028Y-98019339D01*
X210784018Y-97553476D01*
X210396775Y-97313330D01*
X208586605Y-99123500D01*
X210396775Y-100933670D01*
X210784018Y-100693524D01*
X211044641Y-100199623D01*
X211176001Y-99758136D01*
X211176001Y-100040636D01*
X211139924Y-100408577D01*
X211038835Y-100743400D01*
X210874639Y-101052208D01*
X210653588Y-101323242D01*
X210384106Y-101546178D01*
X210076451Y-101712527D01*
X209742342Y-101815951D01*
X209375595Y-101854497D01*
X209172014Y-101854383D01*
X209511161Y-101749528D01*
X209977024Y-101500518D01*
X210217170Y-101113275D01*
X208407000Y-99303105D01*
X206596830Y-101113275D01*
X206836976Y-101500518D01*
X207330877Y-101761141D01*
X207641376Y-101853527D01*
X163827468Y-101829011D01*
X163459423Y-101792924D01*
X163124600Y-101691835D01*
X162815792Y-101527639D01*
X162544758Y-101306588D01*
X162321822Y-101037106D01*
X162260004Y-100922775D01*
X162971830Y-100922775D01*
X163211976Y-101310018D01*
X163705877Y-101570641D01*
X164241133Y-101729901D01*
X164797174Y-101781678D01*
X165352632Y-101723981D01*
X165886161Y-101559028D01*
X166352024Y-101310018D01*
X166592170Y-100922775D01*
X164782000Y-99112605D01*
X162971830Y-100922775D01*
X162260004Y-100922775D01*
X162155473Y-100729451D01*
X162052049Y-100395342D01*
X162013497Y-100028540D01*
X162013308Y-99575725D01*
X162155972Y-100037161D01*
X162404982Y-100503024D01*
X162792225Y-100743170D01*
X164602395Y-98933000D01*
X164961605Y-98933000D01*
X166771775Y-100743170D01*
X167159018Y-100503024D01*
X167419641Y-100009123D01*
X167578901Y-99473867D01*
X167610113Y-99138674D01*
X205558322Y-99138674D01*
X205616019Y-99694132D01*
X205780972Y-100227661D01*
X206029982Y-100693524D01*
X206417225Y-100933670D01*
X208227395Y-99123500D01*
X206417225Y-97313330D01*
X206029982Y-97553476D01*
X205769359Y-98047377D01*
X205610099Y-98582633D01*
X205558322Y-99138674D01*
X167610113Y-99138674D01*
X167630678Y-98917826D01*
X167572981Y-98362368D01*
X167408028Y-97828839D01*
X167159018Y-97362976D01*
X166789344Y-97133725D01*
X206596830Y-97133725D01*
X208407000Y-98943895D01*
X210217170Y-97133725D01*
X209977024Y-96746482D01*
X209483123Y-96485859D01*
X208947867Y-96326599D01*
X208391826Y-96274822D01*
X207836368Y-96332519D01*
X207302839Y-96497472D01*
X206836976Y-96746482D01*
X206596830Y-97133725D01*
X166789344Y-97133725D01*
X166771775Y-97122830D01*
X164961605Y-98933000D01*
X164602395Y-98933000D01*
X162792225Y-97122830D01*
X162404982Y-97362976D01*
X162144359Y-97856877D01*
X162012776Y-98299113D01*
X162012211Y-96943225D01*
X162971830Y-96943225D01*
X164782000Y-98753395D01*
X166592170Y-96943225D01*
X166352024Y-96555982D01*
X165858123Y-96295359D01*
X165322867Y-96136099D01*
X164766826Y-96084322D01*
X164211368Y-96142019D01*
X163677839Y-96306972D01*
X163211976Y-96555982D01*
X162971830Y-96943225D01*
X162012211Y-96943225D01*
X162003086Y-75056278D01*
X178771600Y-75056278D01*
X178771600Y-75210122D01*
X178801613Y-75361009D01*
X178860487Y-75503142D01*
X178945958Y-75631059D01*
X179054741Y-75739842D01*
X179182658Y-75825313D01*
X179324791Y-75884187D01*
X179475678Y-75914200D01*
X179629522Y-75914200D01*
X179780409Y-75884187D01*
X179922542Y-75825313D01*
X180050459Y-75739842D01*
X180159242Y-75631059D01*
X180195697Y-75576500D01*
X182185389Y-75576500D01*
X182213358Y-75618359D01*
X182322141Y-75727142D01*
X182450058Y-75812613D01*
X182592191Y-75871487D01*
X182743078Y-75901500D01*
X182896922Y-75901500D01*
X183047809Y-75871487D01*
X183189942Y-75812613D01*
X183317859Y-75727142D01*
X183426642Y-75618359D01*
X183512113Y-75490442D01*
X183570987Y-75348309D01*
X183601000Y-75197422D01*
X183601000Y-75043578D01*
X183570987Y-74892691D01*
X183512113Y-74750558D01*
X183426642Y-74622641D01*
X183317859Y-74513858D01*
X183189942Y-74428387D01*
X183047809Y-74369513D01*
X182896922Y-74339500D01*
X182743078Y-74339500D01*
X182592191Y-74369513D01*
X182450058Y-74428387D01*
X182322141Y-74513858D01*
X182213358Y-74622641D01*
X182185389Y-74664500D01*
X180178725Y-74664500D01*
X180159242Y-74635341D01*
X180050459Y-74526558D01*
X179922542Y-74441087D01*
X179780409Y-74382213D01*
X179629522Y-74352200D01*
X179475678Y-74352200D01*
X179324791Y-74382213D01*
X179182658Y-74441087D01*
X179054741Y-74526558D01*
X178945958Y-74635341D01*
X178860487Y-74763258D01*
X178801613Y-74905391D01*
X178771600Y-75056278D01*
X162003086Y-75056278D01*
X161995788Y-57552275D01*
X162845830Y-57552275D01*
X163085976Y-57939518D01*
X163579877Y-58200141D01*
X164115133Y-58359401D01*
X164671174Y-58411178D01*
X165226632Y-58353481D01*
X165760161Y-58188528D01*
X166226024Y-57939518D01*
X166466170Y-57552275D01*
X164656000Y-55742105D01*
X162845830Y-57552275D01*
X161995788Y-57552275D01*
X161995372Y-56554751D01*
X162029972Y-56666661D01*
X162278982Y-57132524D01*
X162666225Y-57372670D01*
X164476395Y-55562500D01*
X164835605Y-55562500D01*
X166645775Y-57372670D01*
X167033018Y-57132524D01*
X167293641Y-56638623D01*
X167452901Y-56103367D01*
X167504678Y-55547326D01*
X167446981Y-54991868D01*
X167282028Y-54458339D01*
X167033018Y-53992476D01*
X166950012Y-53941000D01*
X180600000Y-53941000D01*
X180600000Y-54241000D01*
X180646585Y-54459987D01*
X180734997Y-54665678D01*
X180861839Y-54850169D01*
X181022236Y-55006369D01*
X181210024Y-55128276D01*
X181433126Y-55208119D01*
X181608000Y-55081954D01*
X181608000Y-53941000D01*
X181862000Y-53941000D01*
X181862000Y-55081954D01*
X182036874Y-55208119D01*
X182259976Y-55128276D01*
X182447764Y-55006369D01*
X182608161Y-54850169D01*
X182735003Y-54665678D01*
X182823415Y-54459987D01*
X182870000Y-54241000D01*
X182870000Y-53941000D01*
X189240000Y-53941000D01*
X189240000Y-54241000D01*
X189286585Y-54459987D01*
X189374997Y-54665678D01*
X189501839Y-54850169D01*
X189662236Y-55006369D01*
X189850024Y-55128276D01*
X190073126Y-55208119D01*
X190248000Y-55081954D01*
X190248000Y-53941000D01*
X190502000Y-53941000D01*
X190502000Y-55081954D01*
X190676874Y-55208119D01*
X190899976Y-55128276D01*
X191087764Y-55006369D01*
X191248161Y-54850169D01*
X191375003Y-54665678D01*
X191463415Y-54459987D01*
X191510000Y-54241000D01*
X191510000Y-53941000D01*
X190502000Y-53941000D01*
X190248000Y-53941000D01*
X189240000Y-53941000D01*
X182870000Y-53941000D01*
X181862000Y-53941000D01*
X181608000Y-53941000D01*
X180600000Y-53941000D01*
X166950012Y-53941000D01*
X166645775Y-53752330D01*
X164835605Y-55562500D01*
X164476395Y-55562500D01*
X162666225Y-53752330D01*
X162278982Y-53992476D01*
X162018359Y-54486377D01*
X161994544Y-54566418D01*
X161994508Y-54480276D01*
X162030576Y-54112424D01*
X162131665Y-53777600D01*
X162240599Y-53572725D01*
X162845830Y-53572725D01*
X164656000Y-55382895D01*
X166466170Y-53572725D01*
X166226024Y-53185482D01*
X165732123Y-52924859D01*
X165196867Y-52765599D01*
X164640826Y-52713822D01*
X164085368Y-52771519D01*
X163551839Y-52936472D01*
X163085976Y-53185482D01*
X162845830Y-53572725D01*
X162240599Y-53572725D01*
X162295860Y-53468795D01*
X162516914Y-53197755D01*
X162786397Y-52974820D01*
X163094051Y-52808473D01*
X163428158Y-52705049D01*
X163794932Y-52666500D01*
X180976161Y-52666500D01*
X180861839Y-52777831D01*
G36*
X198657000Y-62509578D02*
G01*
X198657000Y-62663422D01*
X198666821Y-62712798D01*
X194952419Y-66427200D01*
X190915393Y-66427200D01*
X190892997Y-66424994D01*
X190870601Y-66427200D01*
X190870599Y-66427200D01*
X190803606Y-66433798D01*
X190717650Y-66459873D01*
X190638432Y-66502216D01*
X190568997Y-66559199D01*
X190554715Y-66576602D01*
X188219917Y-68911400D01*
X182611681Y-68911400D01*
X180277182Y-66576901D01*
X180262900Y-66559498D01*
X180193465Y-66502515D01*
X180114247Y-66460172D01*
X180028291Y-66434097D01*
X179961298Y-66427499D01*
X179961295Y-66427499D01*
X179938899Y-66425293D01*
X179916503Y-66427499D01*
X179626371Y-66427499D01*
X179769641Y-66235420D01*
X179894825Y-65972599D01*
X179939476Y-65825390D01*
X179818155Y-65595500D01*
X178625000Y-65595500D01*
X178625000Y-65615500D01*
X178371000Y-65615500D01*
X178371000Y-65595500D01*
X178351000Y-65595500D01*
X178351000Y-65341500D01*
X178371000Y-65341500D01*
X178371000Y-65321500D01*
X178625000Y-65321500D01*
X178625000Y-65341500D01*
X179818155Y-65341500D01*
X179939476Y-65111610D01*
X179894825Y-64964401D01*
X179769641Y-64701580D01*
X179595588Y-64468231D01*
X179379355Y-64273322D01*
X179316495Y-64235878D01*
X183724600Y-64235878D01*
X183724600Y-64389722D01*
X183754613Y-64540609D01*
X183813487Y-64682742D01*
X183898958Y-64810659D01*
X184007741Y-64919442D01*
X184049600Y-64947411D01*
X184049601Y-67411988D01*
X184007741Y-67439958D01*
X183898958Y-67548741D01*
X183813487Y-67676658D01*
X183754613Y-67818791D01*
X183724600Y-67969678D01*
X183724600Y-68123522D01*
X183754613Y-68274409D01*
X183813487Y-68416542D01*
X183898958Y-68544459D01*
X184007741Y-68653242D01*
X184135658Y-68738713D01*
X184277791Y-68797587D01*
X184428678Y-68827600D01*
X184582522Y-68827600D01*
X184733409Y-68797587D01*
X184875542Y-68738713D01*
X185003459Y-68653242D01*
X185112242Y-68544459D01*
X185197713Y-68416542D01*
X185256587Y-68274409D01*
X185286600Y-68123522D01*
X185286600Y-67969678D01*
X185256587Y-67818791D01*
X185197713Y-67676658D01*
X185112242Y-67548741D01*
X185003459Y-67439958D01*
X184961600Y-67411989D01*
X184961600Y-64947411D01*
X185003459Y-64919442D01*
X185112242Y-64810659D01*
X185197713Y-64682742D01*
X185256587Y-64540609D01*
X185286600Y-64389722D01*
X185286600Y-64235878D01*
X185256587Y-64084991D01*
X185197713Y-63942858D01*
X185112242Y-63814941D01*
X185003459Y-63706158D01*
X184875542Y-63620687D01*
X184733409Y-63561813D01*
X184582522Y-63531800D01*
X184428678Y-63531800D01*
X184277791Y-63561813D01*
X184135658Y-63620687D01*
X184007741Y-63706158D01*
X183898958Y-63814941D01*
X183813487Y-63942858D01*
X183754613Y-64084991D01*
X183724600Y-64235878D01*
X179316495Y-64235878D01*
X179129252Y-64124343D01*
X178974695Y-64069517D01*
X179185216Y-63956991D01*
X179372660Y-63803160D01*
X179526491Y-63615716D01*
X179640798Y-63401863D01*
X179646065Y-63384500D01*
X193707270Y-63384500D01*
X193729013Y-63493809D01*
X193787887Y-63635942D01*
X193873358Y-63763859D01*
X193982141Y-63872642D01*
X194110058Y-63958113D01*
X194252191Y-64016987D01*
X194403078Y-64047000D01*
X194556922Y-64047000D01*
X194707809Y-64016987D01*
X194849942Y-63958113D01*
X194977859Y-63872642D01*
X195086642Y-63763859D01*
X195172113Y-63635942D01*
X195230987Y-63493809D01*
X195261000Y-63342922D01*
X195261000Y-63189078D01*
X195245908Y-63113205D01*
X195255999Y-63125501D01*
X195273408Y-63139788D01*
X195273414Y-63139794D01*
X195288792Y-63152413D01*
X195325434Y-63182484D01*
X195325443Y-63182489D01*
X195325453Y-63182497D01*
X195362580Y-63202339D01*
X195404652Y-63224827D01*
X195404666Y-63224831D01*
X195404673Y-63224835D01*
X195437223Y-63234708D01*
X195490608Y-63250902D01*
X195490621Y-63250903D01*
X195490630Y-63250906D01*
X195531290Y-63254909D01*
X195557601Y-63257500D01*
X195557613Y-63257500D01*
X195580022Y-63259706D01*
X195602408Y-63257500D01*
X197589592Y-63257500D01*
X197611978Y-63259706D01*
X197634386Y-63257500D01*
X197634399Y-63257500D01*
X197663213Y-63254662D01*
X197701368Y-63250906D01*
X197701376Y-63250904D01*
X197701392Y-63250902D01*
X197762579Y-63232341D01*
X197787326Y-63224835D01*
X197787332Y-63224832D01*
X197787348Y-63224827D01*
X197839403Y-63197003D01*
X197866546Y-63182497D01*
X197866554Y-63182490D01*
X197866566Y-63182484D01*
X197936001Y-63125501D01*
X197950278Y-63108104D01*
X198683847Y-62374608D01*
X198657000Y-62509578D01*
X198657000Y-62509578D01*
G37*
X198657000Y-62509578D02*
X198657000Y-62663422D01*
X198666821Y-62712798D01*
X194952419Y-66427200D01*
X190915393Y-66427200D01*
X190892997Y-66424994D01*
X190870601Y-66427200D01*
X190870599Y-66427200D01*
X190803606Y-66433798D01*
X190717650Y-66459873D01*
X190638432Y-66502216D01*
X190568997Y-66559199D01*
X190554715Y-66576602D01*
X188219917Y-68911400D01*
X182611681Y-68911400D01*
X180277182Y-66576901D01*
X180262900Y-66559498D01*
X180193465Y-66502515D01*
X180114247Y-66460172D01*
X180028291Y-66434097D01*
X179961298Y-66427499D01*
X179961295Y-66427499D01*
X179938899Y-66425293D01*
X179916503Y-66427499D01*
X179626371Y-66427499D01*
X179769641Y-66235420D01*
X179894825Y-65972599D01*
X179939476Y-65825390D01*
X179818155Y-65595500D01*
X178625000Y-65595500D01*
X178625000Y-65615500D01*
X178371000Y-65615500D01*
X178371000Y-65595500D01*
X178351000Y-65595500D01*
X178351000Y-65341500D01*
X178371000Y-65341500D01*
X178371000Y-65321500D01*
X178625000Y-65321500D01*
X178625000Y-65341500D01*
X179818155Y-65341500D01*
X179939476Y-65111610D01*
X179894825Y-64964401D01*
X179769641Y-64701580D01*
X179595588Y-64468231D01*
X179379355Y-64273322D01*
X179316495Y-64235878D01*
X183724600Y-64235878D01*
X183724600Y-64389722D01*
X183754613Y-64540609D01*
X183813487Y-64682742D01*
X183898958Y-64810659D01*
X184007741Y-64919442D01*
X184049600Y-64947411D01*
X184049601Y-67411988D01*
X184007741Y-67439958D01*
X183898958Y-67548741D01*
X183813487Y-67676658D01*
X183754613Y-67818791D01*
X183724600Y-67969678D01*
X183724600Y-68123522D01*
X183754613Y-68274409D01*
X183813487Y-68416542D01*
X183898958Y-68544459D01*
X184007741Y-68653242D01*
X184135658Y-68738713D01*
X184277791Y-68797587D01*
X184428678Y-68827600D01*
X184582522Y-68827600D01*
X184733409Y-68797587D01*
X184875542Y-68738713D01*
X185003459Y-68653242D01*
X185112242Y-68544459D01*
X185197713Y-68416542D01*
X185256587Y-68274409D01*
X185286600Y-68123522D01*
X185286600Y-67969678D01*
X185256587Y-67818791D01*
X185197713Y-67676658D01*
X185112242Y-67548741D01*
X185003459Y-67439958D01*
X184961600Y-67411989D01*
X184961600Y-64947411D01*
X185003459Y-64919442D01*
X185112242Y-64810659D01*
X185197713Y-64682742D01*
X185256587Y-64540609D01*
X185286600Y-64389722D01*
X185286600Y-64235878D01*
X185256587Y-64084991D01*
X185197713Y-63942858D01*
X185112242Y-63814941D01*
X185003459Y-63706158D01*
X184875542Y-63620687D01*
X184733409Y-63561813D01*
X184582522Y-63531800D01*
X184428678Y-63531800D01*
X184277791Y-63561813D01*
X184135658Y-63620687D01*
X184007741Y-63706158D01*
X183898958Y-63814941D01*
X183813487Y-63942858D01*
X183754613Y-64084991D01*
X183724600Y-64235878D01*
X179316495Y-64235878D01*
X179129252Y-64124343D01*
X178974695Y-64069517D01*
X179185216Y-63956991D01*
X179372660Y-63803160D01*
X179526491Y-63615716D01*
X179640798Y-63401863D01*
X179646065Y-63384500D01*
X193707270Y-63384500D01*
X193729013Y-63493809D01*
X193787887Y-63635942D01*
X193873358Y-63763859D01*
X193982141Y-63872642D01*
X194110058Y-63958113D01*
X194252191Y-64016987D01*
X194403078Y-64047000D01*
X194556922Y-64047000D01*
X194707809Y-64016987D01*
X194849942Y-63958113D01*
X194977859Y-63872642D01*
X195086642Y-63763859D01*
X195172113Y-63635942D01*
X195230987Y-63493809D01*
X195261000Y-63342922D01*
X195261000Y-63189078D01*
X195245908Y-63113205D01*
X195255999Y-63125501D01*
X195273408Y-63139788D01*
X195273414Y-63139794D01*
X195288792Y-63152413D01*
X195325434Y-63182484D01*
X195325443Y-63182489D01*
X195325453Y-63182497D01*
X195362580Y-63202339D01*
X195404652Y-63224827D01*
X195404666Y-63224831D01*
X195404673Y-63224835D01*
X195437223Y-63234708D01*
X195490608Y-63250902D01*
X195490621Y-63250903D01*
X195490630Y-63250906D01*
X195531290Y-63254909D01*
X195557601Y-63257500D01*
X195557613Y-63257500D01*
X195580022Y-63259706D01*
X195602408Y-63257500D01*
X197589592Y-63257500D01*
X197611978Y-63259706D01*
X197634386Y-63257500D01*
X197634399Y-63257500D01*
X197663213Y-63254662D01*
X197701368Y-63250906D01*
X197701376Y-63250904D01*
X197701392Y-63250902D01*
X197762579Y-63232341D01*
X197787326Y-63224835D01*
X197787332Y-63224832D01*
X197787348Y-63224827D01*
X197839403Y-63197003D01*
X197866546Y-63182497D01*
X197866554Y-63182490D01*
X197866566Y-63182484D01*
X197936001Y-63125501D01*
X197950278Y-63108104D01*
X198683847Y-62374608D01*
X198657000Y-62509578D01*
M02*
