G04 #@! TF.GenerationSoftware,KiCad,Pcbnew,(5.1.4)-1*
G04 #@! TF.CreationDate,2023-02-23T21:20:58+01:00*
G04 #@! TF.ProjectId,pcb,7063622e-6b69-4636-9164-5f7063625858,1.0*
G04 #@! TF.SameCoordinates,Original*
G04 #@! TF.FileFunction,Legend,Top*
G04 #@! TF.FilePolarity,Positive*
%FSLAX46Y46*%
G04 Gerber Fmt 4.6, Leading zero omitted, Abs format (unit mm)*
G04 Created by KiCad (PCBNEW (5.1.4)-1) date 2023-02-23 21:20:58*
%MOMM*%
%LPD*%
G04 APERTURE LIST*
%ADD10C,0.150000*%
%ADD11C,0.120000*%
G04 APERTURE END LIST*
D10*
X203739000Y-70199000D02*
X203739000Y-69624000D01*
X193389000Y-70199000D02*
X193389000Y-69524000D01*
X193389000Y-59849000D02*
X193389000Y-60524000D01*
X203739000Y-59849000D02*
X203739000Y-60524000D01*
X203739000Y-70199000D02*
X203064000Y-70199000D01*
X203739000Y-59849000D02*
X203064000Y-59849000D01*
X193389000Y-59849000D02*
X194064000Y-59849000D01*
X193389000Y-70199000D02*
X194064000Y-70199000D01*
X203739000Y-69624000D02*
X205014000Y-69624000D01*
D11*
X176814064Y-76030500D02*
X175609936Y-76030500D01*
X176814064Y-74210500D02*
X175609936Y-74210500D01*
X174628000Y-69338500D02*
X179828000Y-69338500D01*
X174628000Y-64198500D02*
X174628000Y-69338500D01*
X179828000Y-61598500D02*
X179828000Y-69338500D01*
X174628000Y-64198500D02*
X177228000Y-64198500D01*
X177228000Y-64198500D02*
X177228000Y-61598500D01*
X177228000Y-61598500D02*
X179828000Y-61598500D01*
X174628000Y-62928500D02*
X174628000Y-61598500D01*
X174628000Y-61598500D02*
X175958000Y-61598500D01*
X190755000Y-52864000D02*
X190755000Y-50964000D01*
X190755000Y-56764000D02*
X190755000Y-54764000D01*
X181355000Y-52864000D02*
X181355000Y-50964000D01*
X181355000Y-56764000D02*
X181355000Y-54764000D01*
X190755000Y-50964000D02*
X181355000Y-50964000D01*
X170952000Y-71241500D02*
X170952000Y-58641500D01*
X170952000Y-58641500D02*
X165852000Y-58641500D01*
X165852000Y-58641500D02*
X165852000Y-71241500D01*
X179354000Y-85173000D02*
X179354000Y-84023000D01*
X172054000Y-85173000D02*
X179354000Y-85173000D01*
X172054000Y-79673000D02*
X179354000Y-79673000D01*
X171608064Y-76030500D02*
X170403936Y-76030500D01*
X171608064Y-74210500D02*
X170403936Y-74210500D01*
X182689000Y-81343500D02*
X182689000Y-95313500D01*
X168719000Y-81343500D02*
X182689000Y-81343500D01*
X168719000Y-95313500D02*
X168719000Y-81343500D01*
X182689000Y-95313500D02*
X168719000Y-95313500D01*
X204407000Y-95250000D02*
X190437000Y-95250000D01*
X190437000Y-95250000D02*
X190437000Y-81280000D01*
X190437000Y-81280000D02*
X204407000Y-81280000D01*
X204407000Y-81280000D02*
X204407000Y-95250000D01*
X193772000Y-79609500D02*
X201072000Y-79609500D01*
X193772000Y-85109500D02*
X201072000Y-85109500D01*
X201072000Y-85109500D02*
X201072000Y-83959500D01*
X187228064Y-76030500D02*
X186023936Y-76030500D01*
X187228064Y-74210500D02*
X186023936Y-74210500D01*
X192436064Y-74210500D02*
X191231936Y-74210500D01*
X192436064Y-76030500D02*
X191231936Y-76030500D01*
D10*
X197802095Y-71926380D02*
X197802095Y-72735904D01*
X197849714Y-72831142D01*
X197897333Y-72878761D01*
X197992571Y-72926380D01*
X198183047Y-72926380D01*
X198278285Y-72878761D01*
X198325904Y-72831142D01*
X198373523Y-72735904D01*
X198373523Y-71926380D01*
X199373523Y-72926380D02*
X198802095Y-72926380D01*
X199087809Y-72926380D02*
X199087809Y-71926380D01*
X198992571Y-72069238D01*
X198897333Y-72164476D01*
X198802095Y-72212095D01*
X176045333Y-77392880D02*
X175712000Y-76916690D01*
X175473904Y-77392880D02*
X175473904Y-76392880D01*
X175854857Y-76392880D01*
X175950095Y-76440500D01*
X175997714Y-76488119D01*
X176045333Y-76583357D01*
X176045333Y-76726214D01*
X175997714Y-76821452D01*
X175950095Y-76869071D01*
X175854857Y-76916690D01*
X175473904Y-76916690D01*
X176426285Y-76488119D02*
X176473904Y-76440500D01*
X176569142Y-76392880D01*
X176807238Y-76392880D01*
X176902476Y-76440500D01*
X176950095Y-76488119D01*
X176997714Y-76583357D01*
X176997714Y-76678595D01*
X176950095Y-76821452D01*
X176378666Y-77392880D01*
X176997714Y-77392880D01*
X176894666Y-60050880D02*
X176894666Y-60765166D01*
X176847047Y-60908023D01*
X176751809Y-61003261D01*
X176608952Y-61050880D01*
X176513714Y-61050880D01*
X177323238Y-60146119D02*
X177370857Y-60098500D01*
X177466095Y-60050880D01*
X177704190Y-60050880D01*
X177799428Y-60098500D01*
X177847047Y-60146119D01*
X177894666Y-60241357D01*
X177894666Y-60336595D01*
X177847047Y-60479452D01*
X177275619Y-61050880D01*
X177894666Y-61050880D01*
X185721666Y-59961380D02*
X185721666Y-60675666D01*
X185674047Y-60818523D01*
X185578809Y-60913761D01*
X185435952Y-60961380D01*
X185340714Y-60961380D01*
X186721666Y-60961380D02*
X186150238Y-60961380D01*
X186435952Y-60961380D02*
X186435952Y-59961380D01*
X186340714Y-60104238D01*
X186245476Y-60199476D01*
X186150238Y-60247095D01*
X171928190Y-65817690D02*
X172404380Y-65817690D01*
X171404380Y-66151023D02*
X171928190Y-65817690D01*
X171404380Y-65484357D01*
X172404380Y-64627214D02*
X172404380Y-65198642D01*
X172404380Y-64912928D02*
X171404380Y-64912928D01*
X171547238Y-65008166D01*
X171642476Y-65103404D01*
X171690095Y-65198642D01*
X174965904Y-79375380D02*
X174965904Y-78375380D01*
X175204000Y-78375380D01*
X175346857Y-78423000D01*
X175442095Y-78518238D01*
X175489714Y-78613476D01*
X175537333Y-78803952D01*
X175537333Y-78946809D01*
X175489714Y-79137285D01*
X175442095Y-79232523D01*
X175346857Y-79327761D01*
X175204000Y-79375380D01*
X174965904Y-79375380D01*
X175870666Y-78375380D02*
X176489714Y-78375380D01*
X176156380Y-78756333D01*
X176299238Y-78756333D01*
X176394476Y-78803952D01*
X176442095Y-78851571D01*
X176489714Y-78946809D01*
X176489714Y-79184904D01*
X176442095Y-79280142D01*
X176394476Y-79327761D01*
X176299238Y-79375380D01*
X176013523Y-79375380D01*
X175918285Y-79327761D01*
X175870666Y-79280142D01*
X170839333Y-77392880D02*
X170506000Y-76916690D01*
X170267904Y-77392880D02*
X170267904Y-76392880D01*
X170648857Y-76392880D01*
X170744095Y-76440500D01*
X170791714Y-76488119D01*
X170839333Y-76583357D01*
X170839333Y-76726214D01*
X170791714Y-76821452D01*
X170744095Y-76869071D01*
X170648857Y-76916690D01*
X170267904Y-76916690D01*
X171791714Y-77392880D02*
X171220285Y-77392880D01*
X171506000Y-77392880D02*
X171506000Y-76392880D01*
X171410761Y-76535738D01*
X171315523Y-76630976D01*
X171220285Y-76678595D01*
X174370666Y-96607261D02*
X174513523Y-96654880D01*
X174751619Y-96654880D01*
X174846857Y-96607261D01*
X174894476Y-96559642D01*
X174942095Y-96464404D01*
X174942095Y-96369166D01*
X174894476Y-96273928D01*
X174846857Y-96226309D01*
X174751619Y-96178690D01*
X174561142Y-96131071D01*
X174465904Y-96083452D01*
X174418285Y-96035833D01*
X174370666Y-95940595D01*
X174370666Y-95845357D01*
X174418285Y-95750119D01*
X174465904Y-95702500D01*
X174561142Y-95654880D01*
X174799238Y-95654880D01*
X174942095Y-95702500D01*
X175275428Y-95654880D02*
X175513523Y-96654880D01*
X175704000Y-95940595D01*
X175894476Y-96654880D01*
X176132571Y-95654880D01*
X177037333Y-96654880D02*
X176465904Y-96654880D01*
X176751619Y-96654880D02*
X176751619Y-95654880D01*
X176656380Y-95797738D01*
X176561142Y-95892976D01*
X176465904Y-95940595D01*
X196088666Y-96543761D02*
X196231523Y-96591380D01*
X196469619Y-96591380D01*
X196564857Y-96543761D01*
X196612476Y-96496142D01*
X196660095Y-96400904D01*
X196660095Y-96305666D01*
X196612476Y-96210428D01*
X196564857Y-96162809D01*
X196469619Y-96115190D01*
X196279142Y-96067571D01*
X196183904Y-96019952D01*
X196136285Y-95972333D01*
X196088666Y-95877095D01*
X196088666Y-95781857D01*
X196136285Y-95686619D01*
X196183904Y-95639000D01*
X196279142Y-95591380D01*
X196517238Y-95591380D01*
X196660095Y-95639000D01*
X196993428Y-95591380D02*
X197231523Y-96591380D01*
X197422000Y-95877095D01*
X197612476Y-96591380D01*
X197850571Y-95591380D01*
X198183904Y-95686619D02*
X198231523Y-95639000D01*
X198326761Y-95591380D01*
X198564857Y-95591380D01*
X198660095Y-95639000D01*
X198707714Y-95686619D01*
X198755333Y-95781857D01*
X198755333Y-95877095D01*
X198707714Y-96019952D01*
X198136285Y-96591380D01*
X198755333Y-96591380D01*
X196683904Y-79311880D02*
X196683904Y-78311880D01*
X196922000Y-78311880D01*
X197064857Y-78359500D01*
X197160095Y-78454738D01*
X197207714Y-78549976D01*
X197255333Y-78740452D01*
X197255333Y-78883309D01*
X197207714Y-79073785D01*
X197160095Y-79169023D01*
X197064857Y-79264261D01*
X196922000Y-79311880D01*
X196683904Y-79311880D01*
X198112476Y-78645214D02*
X198112476Y-79311880D01*
X197874380Y-78264261D02*
X197636285Y-78978547D01*
X198255333Y-78978547D01*
X186459333Y-77392880D02*
X186126000Y-76916690D01*
X185887904Y-77392880D02*
X185887904Y-76392880D01*
X186268857Y-76392880D01*
X186364095Y-76440500D01*
X186411714Y-76488119D01*
X186459333Y-76583357D01*
X186459333Y-76726214D01*
X186411714Y-76821452D01*
X186364095Y-76869071D01*
X186268857Y-76916690D01*
X185887904Y-76916690D01*
X187316476Y-76726214D02*
X187316476Y-77392880D01*
X187078380Y-76345261D02*
X186840285Y-77059547D01*
X187459333Y-77059547D01*
X191667333Y-77392880D02*
X191334000Y-76916690D01*
X191095904Y-77392880D02*
X191095904Y-76392880D01*
X191476857Y-76392880D01*
X191572095Y-76440500D01*
X191619714Y-76488119D01*
X191667333Y-76583357D01*
X191667333Y-76726214D01*
X191619714Y-76821452D01*
X191572095Y-76869071D01*
X191476857Y-76916690D01*
X191095904Y-76916690D01*
X192572095Y-76392880D02*
X192095904Y-76392880D01*
X192048285Y-76869071D01*
X192095904Y-76821452D01*
X192191142Y-76773833D01*
X192429238Y-76773833D01*
X192524476Y-76821452D01*
X192572095Y-76869071D01*
X192619714Y-76964309D01*
X192619714Y-77202404D01*
X192572095Y-77297642D01*
X192524476Y-77345261D01*
X192429238Y-77392880D01*
X192191142Y-77392880D01*
X192095904Y-77345261D01*
X192048285Y-77297642D01*
M02*
