G04 #@! TF.GenerationSoftware,KiCad,Pcbnew,(5.1.4)-1*
G04 #@! TF.CreationDate,2023-02-07T01:37:13+01:00*
G04 #@! TF.ProjectId,test,74657374-2e6b-4696-9361-645f70636258,1.0*
G04 #@! TF.SameCoordinates,Original*
G04 #@! TF.FileFunction,Soldermask,Top*
G04 #@! TF.FilePolarity,Negative*
%FSLAX46Y46*%
G04 Gerber Fmt 4.6, Leading zero omitted, Abs format (unit mm)*
G04 Created by KiCad (PCBNEW (5.1.4)-1) date 2023-02-07 01:37:13*
%MOMM*%
%LPD*%
G04 APERTURE LIST*
%ADD10C,0.100000*%
G04 APERTURE END LIST*
D10*
G36*
X208676464Y-96882000D02*
G01*
X209063593Y-96959004D01*
X209473249Y-97128689D01*
X209841929Y-97375034D01*
X210155466Y-97688571D01*
X210401811Y-98057251D01*
X210571496Y-98466907D01*
X210658000Y-98901796D01*
X210658000Y-99345204D01*
X210571496Y-99780093D01*
X210401811Y-100189749D01*
X210155466Y-100558429D01*
X209841929Y-100871966D01*
X209473249Y-101118311D01*
X209063593Y-101287996D01*
X208682880Y-101363724D01*
X208628705Y-101374500D01*
X208185295Y-101374500D01*
X208131120Y-101363724D01*
X207750407Y-101287996D01*
X207340751Y-101118311D01*
X206972071Y-100871966D01*
X206658534Y-100558429D01*
X206412189Y-100189749D01*
X206242504Y-99780093D01*
X206156000Y-99345204D01*
X206156000Y-98901796D01*
X206242504Y-98466907D01*
X206412189Y-98057251D01*
X206658534Y-97688571D01*
X206972071Y-97375034D01*
X207340751Y-97128689D01*
X207750407Y-96959004D01*
X208137536Y-96882000D01*
X208185295Y-96872500D01*
X208628705Y-96872500D01*
X208676464Y-96882000D01*
X208676464Y-96882000D01*
G37*
G36*
X165057880Y-96692776D02*
G01*
X165438593Y-96768504D01*
X165848249Y-96938189D01*
X166216929Y-97184534D01*
X166530466Y-97498071D01*
X166776811Y-97866751D01*
X166946496Y-98276407D01*
X167033000Y-98711296D01*
X167033000Y-99154704D01*
X166946496Y-99589593D01*
X166776811Y-99999249D01*
X166530466Y-100367929D01*
X166216929Y-100681466D01*
X165848249Y-100927811D01*
X165438593Y-101097496D01*
X165057880Y-101173224D01*
X165003705Y-101184000D01*
X164560295Y-101184000D01*
X164506120Y-101173224D01*
X164125407Y-101097496D01*
X163715751Y-100927811D01*
X163347071Y-100681466D01*
X163033534Y-100367929D01*
X162787189Y-99999249D01*
X162617504Y-99589593D01*
X162531000Y-99154704D01*
X162531000Y-98711296D01*
X162617504Y-98276407D01*
X162787189Y-97866751D01*
X163033534Y-97498071D01*
X163347071Y-97184534D01*
X163715751Y-96938189D01*
X164125407Y-96768504D01*
X164506120Y-96692776D01*
X164560295Y-96682000D01*
X165003705Y-96682000D01*
X165057880Y-96692776D01*
X165057880Y-96692776D01*
G37*
G36*
X173388549Y-92279616D02*
G01*
X173499734Y-92301732D01*
X173709203Y-92388497D01*
X173897720Y-92514460D01*
X174058040Y-92674780D01*
X174184003Y-92863297D01*
X174270768Y-93072766D01*
X174315000Y-93295136D01*
X174315000Y-93521864D01*
X174270768Y-93744234D01*
X174184003Y-93953703D01*
X174058040Y-94142220D01*
X173897720Y-94302540D01*
X173709203Y-94428503D01*
X173499734Y-94515268D01*
X173388549Y-94537384D01*
X173277365Y-94559500D01*
X173050635Y-94559500D01*
X172939451Y-94537384D01*
X172828266Y-94515268D01*
X172618797Y-94428503D01*
X172430280Y-94302540D01*
X172269960Y-94142220D01*
X172143997Y-93953703D01*
X172057232Y-93744234D01*
X172013000Y-93521864D01*
X172013000Y-93295136D01*
X172057232Y-93072766D01*
X172143997Y-92863297D01*
X172269960Y-92674780D01*
X172430280Y-92514460D01*
X172618797Y-92388497D01*
X172828266Y-92301732D01*
X172939451Y-92279616D01*
X173050635Y-92257500D01*
X173277365Y-92257500D01*
X173388549Y-92279616D01*
X173388549Y-92279616D01*
G37*
G36*
X195106549Y-92216116D02*
G01*
X195217734Y-92238232D01*
X195427203Y-92324997D01*
X195615720Y-92450960D01*
X195776040Y-92611280D01*
X195902003Y-92799797D01*
X195988768Y-93009266D01*
X196033000Y-93231636D01*
X196033000Y-93458364D01*
X195988768Y-93680734D01*
X195902003Y-93890203D01*
X195776040Y-94078720D01*
X195615720Y-94239040D01*
X195427203Y-94365003D01*
X195217734Y-94451768D01*
X195106549Y-94473884D01*
X194995365Y-94496000D01*
X194768635Y-94496000D01*
X194657451Y-94473884D01*
X194546266Y-94451768D01*
X194336797Y-94365003D01*
X194148280Y-94239040D01*
X193987960Y-94078720D01*
X193861997Y-93890203D01*
X193775232Y-93680734D01*
X193731000Y-93458364D01*
X193731000Y-93231636D01*
X193775232Y-93009266D01*
X193861997Y-92799797D01*
X193987960Y-92611280D01*
X194148280Y-92450960D01*
X194336797Y-92324997D01*
X194546266Y-92238232D01*
X194657451Y-92216116D01*
X194768635Y-92194000D01*
X194995365Y-92194000D01*
X195106549Y-92216116D01*
X195106549Y-92216116D01*
G37*
G36*
X179738549Y-89739616D02*
G01*
X179849734Y-89761732D01*
X180059203Y-89848497D01*
X180247720Y-89974460D01*
X180408040Y-90134780D01*
X180534003Y-90323297D01*
X180620768Y-90532766D01*
X180665000Y-90755136D01*
X180665000Y-90981864D01*
X180620768Y-91204234D01*
X180534003Y-91413703D01*
X180408040Y-91602220D01*
X180247720Y-91762540D01*
X180059203Y-91888503D01*
X179849734Y-91975268D01*
X179738549Y-91997384D01*
X179627365Y-92019500D01*
X179400635Y-92019500D01*
X179289451Y-91997384D01*
X179178266Y-91975268D01*
X178968797Y-91888503D01*
X178780280Y-91762540D01*
X178619960Y-91602220D01*
X178493997Y-91413703D01*
X178407232Y-91204234D01*
X178363000Y-90981864D01*
X178363000Y-90755136D01*
X178407232Y-90532766D01*
X178493997Y-90323297D01*
X178619960Y-90134780D01*
X178780280Y-89974460D01*
X178968797Y-89848497D01*
X179178266Y-89761732D01*
X179289451Y-89739616D01*
X179400635Y-89717500D01*
X179627365Y-89717500D01*
X179738549Y-89739616D01*
X179738549Y-89739616D01*
G37*
G36*
X201456549Y-89676116D02*
G01*
X201567734Y-89698232D01*
X201777203Y-89784997D01*
X201965720Y-89910960D01*
X202126040Y-90071280D01*
X202252003Y-90259797D01*
X202338768Y-90469266D01*
X202383000Y-90691636D01*
X202383000Y-90918364D01*
X202338768Y-91140734D01*
X202252003Y-91350203D01*
X202126040Y-91538720D01*
X201965720Y-91699040D01*
X201777203Y-91825003D01*
X201567734Y-91911768D01*
X201456549Y-91933884D01*
X201345365Y-91956000D01*
X201118635Y-91956000D01*
X201007451Y-91933884D01*
X200896266Y-91911768D01*
X200686797Y-91825003D01*
X200498280Y-91699040D01*
X200337960Y-91538720D01*
X200211997Y-91350203D01*
X200125232Y-91140734D01*
X200081000Y-90918364D01*
X200081000Y-90691636D01*
X200125232Y-90469266D01*
X200211997Y-90259797D01*
X200337960Y-90071280D01*
X200498280Y-89910960D01*
X200686797Y-89784997D01*
X200896266Y-89698232D01*
X201007451Y-89676116D01*
X201118635Y-89654000D01*
X201345365Y-89654000D01*
X201456549Y-89676116D01*
X201456549Y-89676116D01*
G37*
G36*
X176302254Y-86356318D02*
G01*
X176675511Y-86510926D01*
X176675513Y-86510927D01*
X177011436Y-86735384D01*
X177297116Y-87021064D01*
X177479144Y-87293487D01*
X177521574Y-87356989D01*
X177676182Y-87730246D01*
X177755000Y-88126493D01*
X177755000Y-88530507D01*
X177676182Y-88926754D01*
X177521574Y-89300011D01*
X177521573Y-89300013D01*
X177297116Y-89635936D01*
X177011436Y-89921616D01*
X176675513Y-90146073D01*
X176675512Y-90146074D01*
X176675511Y-90146074D01*
X176302254Y-90300682D01*
X175906007Y-90379500D01*
X175501993Y-90379500D01*
X175105746Y-90300682D01*
X174732489Y-90146074D01*
X174732488Y-90146074D01*
X174732487Y-90146073D01*
X174396564Y-89921616D01*
X174110884Y-89635936D01*
X173886427Y-89300013D01*
X173886426Y-89300011D01*
X173731818Y-88926754D01*
X173653000Y-88530507D01*
X173653000Y-88126493D01*
X173731818Y-87730246D01*
X173886426Y-87356989D01*
X173928857Y-87293487D01*
X174110884Y-87021064D01*
X174396564Y-86735384D01*
X174732487Y-86510927D01*
X174732489Y-86510926D01*
X175105746Y-86356318D01*
X175501993Y-86277500D01*
X175906007Y-86277500D01*
X176302254Y-86356318D01*
X176302254Y-86356318D01*
G37*
G36*
X198020254Y-86292818D02*
G01*
X198393511Y-86447426D01*
X198393513Y-86447427D01*
X198488547Y-86510927D01*
X198729436Y-86671884D01*
X199015116Y-86957564D01*
X199239574Y-87293489D01*
X199394182Y-87666746D01*
X199473000Y-88062993D01*
X199473000Y-88467007D01*
X199394182Y-88863254D01*
X199367879Y-88926754D01*
X199239573Y-89236513D01*
X199015116Y-89572436D01*
X198729436Y-89858116D01*
X198393513Y-90082573D01*
X198393512Y-90082574D01*
X198393511Y-90082574D01*
X198020254Y-90237182D01*
X197624007Y-90316000D01*
X197219993Y-90316000D01*
X196823746Y-90237182D01*
X196450489Y-90082574D01*
X196450488Y-90082574D01*
X196450487Y-90082573D01*
X196114564Y-89858116D01*
X195828884Y-89572436D01*
X195604427Y-89236513D01*
X195476121Y-88926754D01*
X195449818Y-88863254D01*
X195371000Y-88467007D01*
X195371000Y-88062993D01*
X195449818Y-87666746D01*
X195604426Y-87293489D01*
X195828884Y-86957564D01*
X196114564Y-86671884D01*
X196355453Y-86510927D01*
X196450487Y-86447427D01*
X196450489Y-86447426D01*
X196823746Y-86292818D01*
X197219993Y-86214000D01*
X197624007Y-86214000D01*
X198020254Y-86292818D01*
X198020254Y-86292818D01*
G37*
G36*
X178955000Y-84574000D02*
G01*
X177353000Y-84574000D01*
X177353000Y-83472000D01*
X178955000Y-83472000D01*
X178955000Y-84574000D01*
X178955000Y-84574000D01*
G37*
G36*
X174055000Y-84574000D02*
G01*
X172453000Y-84574000D01*
X172453000Y-83472000D01*
X174055000Y-83472000D01*
X174055000Y-84574000D01*
X174055000Y-84574000D01*
G37*
G36*
X195773000Y-84510500D02*
G01*
X194171000Y-84510500D01*
X194171000Y-83408500D01*
X195773000Y-83408500D01*
X195773000Y-84510500D01*
X195773000Y-84510500D01*
G37*
G36*
X200673000Y-84510500D02*
G01*
X199071000Y-84510500D01*
X199071000Y-83408500D01*
X200673000Y-83408500D01*
X200673000Y-84510500D01*
X200673000Y-84510500D01*
G37*
G36*
X178955000Y-81374000D02*
G01*
X177353000Y-81374000D01*
X177353000Y-80272000D01*
X178955000Y-80272000D01*
X178955000Y-81374000D01*
X178955000Y-81374000D01*
G37*
G36*
X174055000Y-81374000D02*
G01*
X172453000Y-81374000D01*
X172453000Y-80272000D01*
X174055000Y-80272000D01*
X174055000Y-81374000D01*
X174055000Y-81374000D01*
G37*
G36*
X200673000Y-81310500D02*
G01*
X199071000Y-81310500D01*
X199071000Y-80208500D01*
X200673000Y-80208500D01*
X200673000Y-81310500D01*
X200673000Y-81310500D01*
G37*
G36*
X195773000Y-81310500D02*
G01*
X194171000Y-81310500D01*
X194171000Y-80208500D01*
X195773000Y-80208500D01*
X195773000Y-81310500D01*
X195773000Y-81310500D01*
G37*
G36*
X185744604Y-74198847D02*
G01*
X185781144Y-74209932D01*
X185814821Y-74227933D01*
X185844341Y-74252159D01*
X185868567Y-74281679D01*
X185886568Y-74315356D01*
X185897653Y-74351896D01*
X185902000Y-74396038D01*
X185902000Y-75844962D01*
X185897653Y-75889104D01*
X185886568Y-75925644D01*
X185868567Y-75959321D01*
X185844341Y-75988841D01*
X185814821Y-76013067D01*
X185781144Y-76031068D01*
X185744604Y-76042153D01*
X185700462Y-76046500D01*
X184751538Y-76046500D01*
X184707396Y-76042153D01*
X184670856Y-76031068D01*
X184637179Y-76013067D01*
X184607659Y-75988841D01*
X184583433Y-75959321D01*
X184565432Y-75925644D01*
X184554347Y-75889104D01*
X184550000Y-75844962D01*
X184550000Y-74396038D01*
X184554347Y-74351896D01*
X184565432Y-74315356D01*
X184583433Y-74281679D01*
X184607659Y-74252159D01*
X184637179Y-74227933D01*
X184670856Y-74209932D01*
X184707396Y-74198847D01*
X184751538Y-74194500D01*
X185700462Y-74194500D01*
X185744604Y-74198847D01*
X185744604Y-74198847D01*
G37*
G36*
X204168604Y-74198847D02*
G01*
X204205144Y-74209932D01*
X204238821Y-74227933D01*
X204268341Y-74252159D01*
X204292567Y-74281679D01*
X204310568Y-74315356D01*
X204321653Y-74351896D01*
X204326000Y-74396038D01*
X204326000Y-75844962D01*
X204321653Y-75889104D01*
X204310568Y-75925644D01*
X204292567Y-75959321D01*
X204268341Y-75988841D01*
X204238821Y-76013067D01*
X204205144Y-76031068D01*
X204168604Y-76042153D01*
X204124462Y-76046500D01*
X203175538Y-76046500D01*
X203131396Y-76042153D01*
X203094856Y-76031068D01*
X203061179Y-76013067D01*
X203031659Y-75988841D01*
X203007433Y-75959321D01*
X202989432Y-75925644D01*
X202978347Y-75889104D01*
X202974000Y-75844962D01*
X202974000Y-74396038D01*
X202978347Y-74351896D01*
X202989432Y-74315356D01*
X203007433Y-74281679D01*
X203031659Y-74252159D01*
X203061179Y-74227933D01*
X203094856Y-74209932D01*
X203131396Y-74198847D01*
X203175538Y-74194500D01*
X204124462Y-74194500D01*
X204168604Y-74198847D01*
X204168604Y-74198847D01*
G37*
G36*
X201368604Y-74198847D02*
G01*
X201405144Y-74209932D01*
X201438821Y-74227933D01*
X201468341Y-74252159D01*
X201492567Y-74281679D01*
X201510568Y-74315356D01*
X201521653Y-74351896D01*
X201526000Y-74396038D01*
X201526000Y-75844962D01*
X201521653Y-75889104D01*
X201510568Y-75925644D01*
X201492567Y-75959321D01*
X201468341Y-75988841D01*
X201438821Y-76013067D01*
X201405144Y-76031068D01*
X201368604Y-76042153D01*
X201324462Y-76046500D01*
X200375538Y-76046500D01*
X200331396Y-76042153D01*
X200294856Y-76031068D01*
X200261179Y-76013067D01*
X200231659Y-75988841D01*
X200207433Y-75959321D01*
X200189432Y-75925644D01*
X200178347Y-75889104D01*
X200174000Y-75844962D01*
X200174000Y-74396038D01*
X200178347Y-74351896D01*
X200189432Y-74315356D01*
X200207433Y-74281679D01*
X200231659Y-74252159D01*
X200261179Y-74227933D01*
X200294856Y-74209932D01*
X200331396Y-74198847D01*
X200375538Y-74194500D01*
X201324462Y-74194500D01*
X201368604Y-74198847D01*
X201368604Y-74198847D01*
G37*
G36*
X198958604Y-74198847D02*
G01*
X198995144Y-74209932D01*
X199028821Y-74227933D01*
X199058341Y-74252159D01*
X199082567Y-74281679D01*
X199100568Y-74315356D01*
X199111653Y-74351896D01*
X199116000Y-74396038D01*
X199116000Y-75844962D01*
X199111653Y-75889104D01*
X199100568Y-75925644D01*
X199082567Y-75959321D01*
X199058341Y-75988841D01*
X199028821Y-76013067D01*
X198995144Y-76031068D01*
X198958604Y-76042153D01*
X198914462Y-76046500D01*
X197965538Y-76046500D01*
X197921396Y-76042153D01*
X197884856Y-76031068D01*
X197851179Y-76013067D01*
X197821659Y-75988841D01*
X197797433Y-75959321D01*
X197779432Y-75925644D01*
X197768347Y-75889104D01*
X197764000Y-75844962D01*
X197764000Y-74396038D01*
X197768347Y-74351896D01*
X197779432Y-74315356D01*
X197797433Y-74281679D01*
X197821659Y-74252159D01*
X197851179Y-74227933D01*
X197884856Y-74209932D01*
X197921396Y-74198847D01*
X197965538Y-74194500D01*
X198914462Y-74194500D01*
X198958604Y-74198847D01*
X198958604Y-74198847D01*
G37*
G36*
X190952604Y-74198847D02*
G01*
X190989144Y-74209932D01*
X191022821Y-74227933D01*
X191052341Y-74252159D01*
X191076567Y-74281679D01*
X191094568Y-74315356D01*
X191105653Y-74351896D01*
X191110000Y-74396038D01*
X191110000Y-75844962D01*
X191105653Y-75889104D01*
X191094568Y-75925644D01*
X191076567Y-75959321D01*
X191052341Y-75988841D01*
X191022821Y-76013067D01*
X190989144Y-76031068D01*
X190952604Y-76042153D01*
X190908462Y-76046500D01*
X189959538Y-76046500D01*
X189915396Y-76042153D01*
X189878856Y-76031068D01*
X189845179Y-76013067D01*
X189815659Y-75988841D01*
X189791433Y-75959321D01*
X189773432Y-75925644D01*
X189762347Y-75889104D01*
X189758000Y-75844962D01*
X189758000Y-74396038D01*
X189762347Y-74351896D01*
X189773432Y-74315356D01*
X189791433Y-74281679D01*
X189815659Y-74252159D01*
X189845179Y-74227933D01*
X189878856Y-74209932D01*
X189915396Y-74198847D01*
X189959538Y-74194500D01*
X190908462Y-74194500D01*
X190952604Y-74198847D01*
X190952604Y-74198847D01*
G37*
G36*
X193752604Y-74198847D02*
G01*
X193789144Y-74209932D01*
X193822821Y-74227933D01*
X193852341Y-74252159D01*
X193876567Y-74281679D01*
X193894568Y-74315356D01*
X193905653Y-74351896D01*
X193910000Y-74396038D01*
X193910000Y-75844962D01*
X193905653Y-75889104D01*
X193894568Y-75925644D01*
X193876567Y-75959321D01*
X193852341Y-75988841D01*
X193822821Y-76013067D01*
X193789144Y-76031068D01*
X193752604Y-76042153D01*
X193708462Y-76046500D01*
X192759538Y-76046500D01*
X192715396Y-76042153D01*
X192678856Y-76031068D01*
X192645179Y-76013067D01*
X192615659Y-75988841D01*
X192591433Y-75959321D01*
X192573432Y-75925644D01*
X192562347Y-75889104D01*
X192558000Y-75844962D01*
X192558000Y-74396038D01*
X192562347Y-74351896D01*
X192573432Y-74315356D01*
X192591433Y-74281679D01*
X192615659Y-74252159D01*
X192645179Y-74227933D01*
X192678856Y-74209932D01*
X192715396Y-74198847D01*
X192759538Y-74194500D01*
X193708462Y-74194500D01*
X193752604Y-74198847D01*
X193752604Y-74198847D01*
G37*
G36*
X196158604Y-74198847D02*
G01*
X196195144Y-74209932D01*
X196228821Y-74227933D01*
X196258341Y-74252159D01*
X196282567Y-74281679D01*
X196300568Y-74315356D01*
X196311653Y-74351896D01*
X196316000Y-74396038D01*
X196316000Y-75844962D01*
X196311653Y-75889104D01*
X196300568Y-75925644D01*
X196282567Y-75959321D01*
X196258341Y-75988841D01*
X196228821Y-76013067D01*
X196195144Y-76031068D01*
X196158604Y-76042153D01*
X196114462Y-76046500D01*
X195165538Y-76046500D01*
X195121396Y-76042153D01*
X195084856Y-76031068D01*
X195051179Y-76013067D01*
X195021659Y-75988841D01*
X194997433Y-75959321D01*
X194979432Y-75925644D01*
X194968347Y-75889104D01*
X194964000Y-75844962D01*
X194964000Y-74396038D01*
X194968347Y-74351896D01*
X194979432Y-74315356D01*
X194997433Y-74281679D01*
X195021659Y-74252159D01*
X195051179Y-74227933D01*
X195084856Y-74209932D01*
X195121396Y-74198847D01*
X195165538Y-74194500D01*
X196114462Y-74194500D01*
X196158604Y-74198847D01*
X196158604Y-74198847D01*
G37*
G36*
X172924604Y-74198847D02*
G01*
X172961144Y-74209932D01*
X172994821Y-74227933D01*
X173024341Y-74252159D01*
X173048567Y-74281679D01*
X173066568Y-74315356D01*
X173077653Y-74351896D01*
X173082000Y-74396038D01*
X173082000Y-75844962D01*
X173077653Y-75889104D01*
X173066568Y-75925644D01*
X173048567Y-75959321D01*
X173024341Y-75988841D01*
X172994821Y-76013067D01*
X172961144Y-76031068D01*
X172924604Y-76042153D01*
X172880462Y-76046500D01*
X171931538Y-76046500D01*
X171887396Y-76042153D01*
X171850856Y-76031068D01*
X171817179Y-76013067D01*
X171787659Y-75988841D01*
X171763433Y-75959321D01*
X171745432Y-75925644D01*
X171734347Y-75889104D01*
X171730000Y-75844962D01*
X171730000Y-74396038D01*
X171734347Y-74351896D01*
X171745432Y-74315356D01*
X171763433Y-74281679D01*
X171787659Y-74252159D01*
X171817179Y-74227933D01*
X171850856Y-74209932D01*
X171887396Y-74198847D01*
X171931538Y-74194500D01*
X172880462Y-74194500D01*
X172924604Y-74198847D01*
X172924604Y-74198847D01*
G37*
G36*
X188544604Y-74198847D02*
G01*
X188581144Y-74209932D01*
X188614821Y-74227933D01*
X188644341Y-74252159D01*
X188668567Y-74281679D01*
X188686568Y-74315356D01*
X188697653Y-74351896D01*
X188702000Y-74396038D01*
X188702000Y-75844962D01*
X188697653Y-75889104D01*
X188686568Y-75925644D01*
X188668567Y-75959321D01*
X188644341Y-75988841D01*
X188614821Y-76013067D01*
X188581144Y-76031068D01*
X188544604Y-76042153D01*
X188500462Y-76046500D01*
X187551538Y-76046500D01*
X187507396Y-76042153D01*
X187470856Y-76031068D01*
X187437179Y-76013067D01*
X187407659Y-75988841D01*
X187383433Y-75959321D01*
X187365432Y-75925644D01*
X187354347Y-75889104D01*
X187350000Y-75844962D01*
X187350000Y-74396038D01*
X187354347Y-74351896D01*
X187365432Y-74315356D01*
X187383433Y-74281679D01*
X187407659Y-74252159D01*
X187437179Y-74227933D01*
X187470856Y-74209932D01*
X187507396Y-74198847D01*
X187551538Y-74194500D01*
X188500462Y-74194500D01*
X188544604Y-74198847D01*
X188544604Y-74198847D01*
G37*
G36*
X175330604Y-74198847D02*
G01*
X175367144Y-74209932D01*
X175400821Y-74227933D01*
X175430341Y-74252159D01*
X175454567Y-74281679D01*
X175472568Y-74315356D01*
X175483653Y-74351896D01*
X175488000Y-74396038D01*
X175488000Y-75844962D01*
X175483653Y-75889104D01*
X175472568Y-75925644D01*
X175454567Y-75959321D01*
X175430341Y-75988841D01*
X175400821Y-76013067D01*
X175367144Y-76031068D01*
X175330604Y-76042153D01*
X175286462Y-76046500D01*
X174337538Y-76046500D01*
X174293396Y-76042153D01*
X174256856Y-76031068D01*
X174223179Y-76013067D01*
X174193659Y-75988841D01*
X174169433Y-75959321D01*
X174151432Y-75925644D01*
X174140347Y-75889104D01*
X174136000Y-75844962D01*
X174136000Y-74396038D01*
X174140347Y-74351896D01*
X174151432Y-74315356D01*
X174169433Y-74281679D01*
X174193659Y-74252159D01*
X174223179Y-74227933D01*
X174256856Y-74209932D01*
X174293396Y-74198847D01*
X174337538Y-74194500D01*
X175286462Y-74194500D01*
X175330604Y-74198847D01*
X175330604Y-74198847D01*
G37*
G36*
X183338604Y-74198847D02*
G01*
X183375144Y-74209932D01*
X183408821Y-74227933D01*
X183438341Y-74252159D01*
X183462567Y-74281679D01*
X183480568Y-74315356D01*
X183491653Y-74351896D01*
X183496000Y-74396038D01*
X183496000Y-75844962D01*
X183491653Y-75889104D01*
X183480568Y-75925644D01*
X183462567Y-75959321D01*
X183438341Y-75988841D01*
X183408821Y-76013067D01*
X183375144Y-76031068D01*
X183338604Y-76042153D01*
X183294462Y-76046500D01*
X182345538Y-76046500D01*
X182301396Y-76042153D01*
X182264856Y-76031068D01*
X182231179Y-76013067D01*
X182201659Y-75988841D01*
X182177433Y-75959321D01*
X182159432Y-75925644D01*
X182148347Y-75889104D01*
X182144000Y-75844962D01*
X182144000Y-74396038D01*
X182148347Y-74351896D01*
X182159432Y-74315356D01*
X182177433Y-74281679D01*
X182201659Y-74252159D01*
X182231179Y-74227933D01*
X182264856Y-74209932D01*
X182301396Y-74198847D01*
X182345538Y-74194500D01*
X183294462Y-74194500D01*
X183338604Y-74198847D01*
X183338604Y-74198847D01*
G37*
G36*
X180538604Y-74198847D02*
G01*
X180575144Y-74209932D01*
X180608821Y-74227933D01*
X180638341Y-74252159D01*
X180662567Y-74281679D01*
X180680568Y-74315356D01*
X180691653Y-74351896D01*
X180696000Y-74396038D01*
X180696000Y-75844962D01*
X180691653Y-75889104D01*
X180680568Y-75925644D01*
X180662567Y-75959321D01*
X180638341Y-75988841D01*
X180608821Y-76013067D01*
X180575144Y-76031068D01*
X180538604Y-76042153D01*
X180494462Y-76046500D01*
X179545538Y-76046500D01*
X179501396Y-76042153D01*
X179464856Y-76031068D01*
X179431179Y-76013067D01*
X179401659Y-75988841D01*
X179377433Y-75959321D01*
X179359432Y-75925644D01*
X179348347Y-75889104D01*
X179344000Y-75844962D01*
X179344000Y-74396038D01*
X179348347Y-74351896D01*
X179359432Y-74315356D01*
X179377433Y-74281679D01*
X179401659Y-74252159D01*
X179431179Y-74227933D01*
X179464856Y-74209932D01*
X179501396Y-74198847D01*
X179545538Y-74194500D01*
X180494462Y-74194500D01*
X180538604Y-74198847D01*
X180538604Y-74198847D01*
G37*
G36*
X178130604Y-74198847D02*
G01*
X178167144Y-74209932D01*
X178200821Y-74227933D01*
X178230341Y-74252159D01*
X178254567Y-74281679D01*
X178272568Y-74315356D01*
X178283653Y-74351896D01*
X178288000Y-74396038D01*
X178288000Y-75844962D01*
X178283653Y-75889104D01*
X178272568Y-75925644D01*
X178254567Y-75959321D01*
X178230341Y-75988841D01*
X178200821Y-76013067D01*
X178167144Y-76031068D01*
X178130604Y-76042153D01*
X178086462Y-76046500D01*
X177137538Y-76046500D01*
X177093396Y-76042153D01*
X177056856Y-76031068D01*
X177023179Y-76013067D01*
X176993659Y-75988841D01*
X176969433Y-75959321D01*
X176951432Y-75925644D01*
X176940347Y-75889104D01*
X176936000Y-75844962D01*
X176936000Y-74396038D01*
X176940347Y-74351896D01*
X176951432Y-74315356D01*
X176969433Y-74281679D01*
X176993659Y-74252159D01*
X177023179Y-74227933D01*
X177056856Y-74209932D01*
X177093396Y-74198847D01*
X177137538Y-74194500D01*
X178086462Y-74194500D01*
X178130604Y-74198847D01*
X178130604Y-74198847D01*
G37*
G36*
X170124604Y-74198847D02*
G01*
X170161144Y-74209932D01*
X170194821Y-74227933D01*
X170224341Y-74252159D01*
X170248567Y-74281679D01*
X170266568Y-74315356D01*
X170277653Y-74351896D01*
X170282000Y-74396038D01*
X170282000Y-75844962D01*
X170277653Y-75889104D01*
X170266568Y-75925644D01*
X170248567Y-75959321D01*
X170224341Y-75988841D01*
X170194821Y-76013067D01*
X170161144Y-76031068D01*
X170124604Y-76042153D01*
X170080462Y-76046500D01*
X169131538Y-76046500D01*
X169087396Y-76042153D01*
X169050856Y-76031068D01*
X169017179Y-76013067D01*
X168987659Y-75988841D01*
X168963433Y-75959321D01*
X168945432Y-75925644D01*
X168934347Y-75889104D01*
X168930000Y-75844962D01*
X168930000Y-74396038D01*
X168934347Y-74351896D01*
X168945432Y-74315356D01*
X168963433Y-74281679D01*
X168987659Y-74252159D01*
X169017179Y-74227933D01*
X169050856Y-74209932D01*
X169087396Y-74198847D01*
X169131538Y-74194500D01*
X170080462Y-74194500D01*
X170124604Y-74198847D01*
X170124604Y-74198847D01*
G37*
G36*
X169453000Y-71892500D02*
G01*
X167351000Y-71892500D01*
X167351000Y-67290500D01*
X169453000Y-67290500D01*
X169453000Y-71892500D01*
X169453000Y-71892500D01*
G37*
G36*
X202890000Y-71525000D02*
G01*
X194238000Y-71525000D01*
X194238000Y-69923000D01*
X202890000Y-69923000D01*
X202890000Y-71525000D01*
X202890000Y-71525000D01*
G37*
G36*
X205065000Y-69350000D02*
G01*
X203463000Y-69350000D01*
X203463000Y-60698000D01*
X205065000Y-60698000D01*
X205065000Y-69350000D01*
X205065000Y-69350000D01*
G37*
G36*
X193665000Y-69350000D02*
G01*
X192063000Y-69350000D01*
X192063000Y-60698000D01*
X193665000Y-60698000D01*
X193665000Y-69350000D01*
X193665000Y-69350000D01*
G37*
G36*
X176068443Y-67114019D02*
G01*
X176134627Y-67120537D01*
X176304466Y-67172057D01*
X176460991Y-67255722D01*
X176496729Y-67285052D01*
X176598186Y-67368314D01*
X176681448Y-67469771D01*
X176710778Y-67505509D01*
X176794443Y-67662034D01*
X176845963Y-67831873D01*
X176863359Y-68008500D01*
X176845963Y-68185127D01*
X176794443Y-68354966D01*
X176710778Y-68511491D01*
X176681448Y-68547229D01*
X176598186Y-68648686D01*
X176496729Y-68731948D01*
X176460991Y-68761278D01*
X176304466Y-68844943D01*
X176134627Y-68896463D01*
X176068442Y-68902982D01*
X176002260Y-68909500D01*
X175913740Y-68909500D01*
X175847558Y-68902982D01*
X175781373Y-68896463D01*
X175611534Y-68844943D01*
X175455009Y-68761278D01*
X175419271Y-68731948D01*
X175317814Y-68648686D01*
X175234552Y-68547229D01*
X175205222Y-68511491D01*
X175121557Y-68354966D01*
X175070037Y-68185127D01*
X175052641Y-68008500D01*
X175070037Y-67831873D01*
X175121557Y-67662034D01*
X175205222Y-67505509D01*
X175234552Y-67469771D01*
X175317814Y-67368314D01*
X175419271Y-67285052D01*
X175455009Y-67255722D01*
X175611534Y-67172057D01*
X175781373Y-67120537D01*
X175847557Y-67114019D01*
X175913740Y-67107500D01*
X176002260Y-67107500D01*
X176068443Y-67114019D01*
X176068443Y-67114019D01*
G37*
G36*
X178608443Y-67114019D02*
G01*
X178674627Y-67120537D01*
X178844466Y-67172057D01*
X179000991Y-67255722D01*
X179036729Y-67285052D01*
X179138186Y-67368314D01*
X179221448Y-67469771D01*
X179250778Y-67505509D01*
X179334443Y-67662034D01*
X179385963Y-67831873D01*
X179403359Y-68008500D01*
X179385963Y-68185127D01*
X179334443Y-68354966D01*
X179250778Y-68511491D01*
X179221448Y-68547229D01*
X179138186Y-68648686D01*
X179036729Y-68731948D01*
X179000991Y-68761278D01*
X178844466Y-68844943D01*
X178674627Y-68896463D01*
X178608442Y-68902982D01*
X178542260Y-68909500D01*
X178453740Y-68909500D01*
X178387558Y-68902982D01*
X178321373Y-68896463D01*
X178151534Y-68844943D01*
X177995009Y-68761278D01*
X177959271Y-68731948D01*
X177857814Y-68648686D01*
X177774552Y-68547229D01*
X177745222Y-68511491D01*
X177661557Y-68354966D01*
X177610037Y-68185127D01*
X177592641Y-68008500D01*
X177610037Y-67831873D01*
X177661557Y-67662034D01*
X177745222Y-67505509D01*
X177774552Y-67469771D01*
X177857814Y-67368314D01*
X177959271Y-67285052D01*
X177995009Y-67255722D01*
X178151534Y-67172057D01*
X178321373Y-67120537D01*
X178387557Y-67114019D01*
X178453740Y-67107500D01*
X178542260Y-67107500D01*
X178608443Y-67114019D01*
X178608443Y-67114019D01*
G37*
G36*
X178608442Y-64574018D02*
G01*
X178674627Y-64580537D01*
X178844466Y-64632057D01*
X179000991Y-64715722D01*
X179036729Y-64745052D01*
X179138186Y-64828314D01*
X179221448Y-64929771D01*
X179250778Y-64965509D01*
X179334443Y-65122034D01*
X179385963Y-65291873D01*
X179403359Y-65468500D01*
X179385963Y-65645127D01*
X179334443Y-65814966D01*
X179250778Y-65971491D01*
X179221448Y-66007229D01*
X179138186Y-66108686D01*
X179036729Y-66191948D01*
X179000991Y-66221278D01*
X178844466Y-66304943D01*
X178674627Y-66356463D01*
X178608442Y-66362982D01*
X178542260Y-66369500D01*
X178453740Y-66369500D01*
X178387558Y-66362982D01*
X178321373Y-66356463D01*
X178151534Y-66304943D01*
X177995009Y-66221278D01*
X177959271Y-66191948D01*
X177857814Y-66108686D01*
X177774552Y-66007229D01*
X177745222Y-65971491D01*
X177661557Y-65814966D01*
X177610037Y-65645127D01*
X177592641Y-65468500D01*
X177610037Y-65291873D01*
X177661557Y-65122034D01*
X177745222Y-64965509D01*
X177774552Y-64929771D01*
X177857814Y-64828314D01*
X177959271Y-64745052D01*
X177995009Y-64715722D01*
X178151534Y-64632057D01*
X178321373Y-64580537D01*
X178387558Y-64574018D01*
X178453740Y-64567500D01*
X178542260Y-64567500D01*
X178608442Y-64574018D01*
X178608442Y-64574018D01*
G37*
G36*
X176068442Y-64574018D02*
G01*
X176134627Y-64580537D01*
X176304466Y-64632057D01*
X176460991Y-64715722D01*
X176496729Y-64745052D01*
X176598186Y-64828314D01*
X176681448Y-64929771D01*
X176710778Y-64965509D01*
X176794443Y-65122034D01*
X176845963Y-65291873D01*
X176863359Y-65468500D01*
X176845963Y-65645127D01*
X176794443Y-65814966D01*
X176710778Y-65971491D01*
X176681448Y-66007229D01*
X176598186Y-66108686D01*
X176496729Y-66191948D01*
X176460991Y-66221278D01*
X176304466Y-66304943D01*
X176134627Y-66356463D01*
X176068442Y-66362982D01*
X176002260Y-66369500D01*
X175913740Y-66369500D01*
X175847558Y-66362982D01*
X175781373Y-66356463D01*
X175611534Y-66304943D01*
X175455009Y-66221278D01*
X175419271Y-66191948D01*
X175317814Y-66108686D01*
X175234552Y-66007229D01*
X175205222Y-65971491D01*
X175121557Y-65814966D01*
X175070037Y-65645127D01*
X175052641Y-65468500D01*
X175070037Y-65291873D01*
X175121557Y-65122034D01*
X175205222Y-64965509D01*
X175234552Y-64929771D01*
X175317814Y-64828314D01*
X175419271Y-64745052D01*
X175455009Y-64715722D01*
X175611534Y-64632057D01*
X175781373Y-64580537D01*
X175847558Y-64574018D01*
X175913740Y-64567500D01*
X176002260Y-64567500D01*
X176068442Y-64574018D01*
X176068442Y-64574018D01*
G37*
G36*
X178608442Y-62034018D02*
G01*
X178674627Y-62040537D01*
X178844466Y-62092057D01*
X179000991Y-62175722D01*
X179036729Y-62205052D01*
X179138186Y-62288314D01*
X179221448Y-62389771D01*
X179250778Y-62425509D01*
X179334443Y-62582034D01*
X179385963Y-62751873D01*
X179403359Y-62928500D01*
X179385963Y-63105127D01*
X179334443Y-63274966D01*
X179250778Y-63431491D01*
X179221448Y-63467229D01*
X179138186Y-63568686D01*
X179036729Y-63651948D01*
X179000991Y-63681278D01*
X178844466Y-63764943D01*
X178674627Y-63816463D01*
X178608442Y-63822982D01*
X178542260Y-63829500D01*
X178453740Y-63829500D01*
X178387558Y-63822982D01*
X178321373Y-63816463D01*
X178151534Y-63764943D01*
X177995009Y-63681278D01*
X177959271Y-63651948D01*
X177857814Y-63568686D01*
X177774552Y-63467229D01*
X177745222Y-63431491D01*
X177661557Y-63274966D01*
X177610037Y-63105127D01*
X177592641Y-62928500D01*
X177610037Y-62751873D01*
X177661557Y-62582034D01*
X177745222Y-62425509D01*
X177774552Y-62389771D01*
X177857814Y-62288314D01*
X177959271Y-62205052D01*
X177995009Y-62175722D01*
X178151534Y-62092057D01*
X178321373Y-62040537D01*
X178387558Y-62034018D01*
X178453740Y-62027500D01*
X178542260Y-62027500D01*
X178608442Y-62034018D01*
X178608442Y-62034018D01*
G37*
G36*
X176859000Y-63829500D02*
G01*
X175057000Y-63829500D01*
X175057000Y-62027500D01*
X176859000Y-62027500D01*
X176859000Y-63829500D01*
X176859000Y-63829500D01*
G37*
G36*
X169453000Y-63392500D02*
G01*
X167351000Y-63392500D01*
X167351000Y-58790500D01*
X169453000Y-58790500D01*
X169453000Y-63392500D01*
X169453000Y-63392500D01*
G37*
G36*
X202890000Y-60125000D02*
G01*
X194238000Y-60125000D01*
X194238000Y-58523000D01*
X202890000Y-58523000D01*
X202890000Y-60125000D01*
X202890000Y-60125000D01*
G37*
G36*
X190483015Y-56900973D02*
G01*
X190586879Y-56932479D01*
X190614055Y-56947005D01*
X190682600Y-56983643D01*
X190766501Y-57052499D01*
X190835357Y-57136400D01*
X190863202Y-57188495D01*
X190886521Y-57232121D01*
X190918027Y-57335985D01*
X190926000Y-57416933D01*
X190926000Y-58571067D01*
X190918027Y-58652015D01*
X190886521Y-58755879D01*
X190835356Y-58851600D01*
X190766501Y-58935501D01*
X190697645Y-58992009D01*
X190682599Y-59004357D01*
X190630907Y-59031987D01*
X190586878Y-59055521D01*
X190483014Y-59087027D01*
X190375000Y-59097666D01*
X190266985Y-59087027D01*
X190163121Y-59055521D01*
X190119093Y-59031987D01*
X190067401Y-59004357D01*
X190054643Y-58993887D01*
X189983499Y-58935501D01*
X189914644Y-58851600D01*
X189891234Y-58807804D01*
X189877625Y-58787436D01*
X189860298Y-58770109D01*
X189839924Y-58756495D01*
X189817285Y-58747118D01*
X189793252Y-58742337D01*
X189768748Y-58742337D01*
X189744714Y-58747117D01*
X189722076Y-58756494D01*
X189701701Y-58770108D01*
X189684374Y-58787435D01*
X189670760Y-58807809D01*
X189661383Y-58830448D01*
X189656602Y-58854481D01*
X189656000Y-58866734D01*
X189656000Y-59685000D01*
X182454000Y-59685000D01*
X182454000Y-58866735D01*
X182451598Y-58842349D01*
X182444485Y-58818900D01*
X182432934Y-58797289D01*
X182417389Y-58778347D01*
X182398447Y-58762802D01*
X182376836Y-58751251D01*
X182353387Y-58744138D01*
X182329001Y-58741736D01*
X182304615Y-58744138D01*
X182281166Y-58751251D01*
X182259555Y-58762802D01*
X182240613Y-58778347D01*
X182225068Y-58797289D01*
X182218767Y-58807802D01*
X182212835Y-58818900D01*
X182195356Y-58851601D01*
X182164319Y-58889419D01*
X182126501Y-58935501D01*
X182057645Y-58992009D01*
X182042599Y-59004357D01*
X181990907Y-59031987D01*
X181946878Y-59055521D01*
X181843014Y-59087027D01*
X181735000Y-59097666D01*
X181626985Y-59087027D01*
X181523121Y-59055521D01*
X181479093Y-59031987D01*
X181427401Y-59004357D01*
X181414643Y-58993887D01*
X181343499Y-58935501D01*
X181274644Y-58851600D01*
X181223479Y-58755878D01*
X181191973Y-58652014D01*
X181184000Y-58571066D01*
X181184001Y-57416933D01*
X181191974Y-57335985D01*
X181223480Y-57232121D01*
X181246799Y-57188495D01*
X181274644Y-57136400D01*
X181343500Y-57052499D01*
X181427401Y-56983643D01*
X181495946Y-56947005D01*
X181523122Y-56932479D01*
X181626986Y-56900973D01*
X181735000Y-56890334D01*
X181843015Y-56900973D01*
X181946879Y-56932479D01*
X181974055Y-56947005D01*
X182042600Y-56983643D01*
X182126501Y-57052499D01*
X182195357Y-57136400D01*
X182223202Y-57188495D01*
X182246521Y-57232121D01*
X182278027Y-57335985D01*
X182286000Y-57416933D01*
X182286000Y-58008001D01*
X182288402Y-58032387D01*
X182295515Y-58055836D01*
X182307066Y-58077447D01*
X182322611Y-58096389D01*
X182341553Y-58111934D01*
X182363164Y-58123485D01*
X182386613Y-58130598D01*
X182410999Y-58133000D01*
X189699001Y-58133000D01*
X189723387Y-58130598D01*
X189746836Y-58123485D01*
X189768447Y-58111934D01*
X189787389Y-58096389D01*
X189802934Y-58077447D01*
X189814485Y-58055836D01*
X189821598Y-58032387D01*
X189824000Y-58008001D01*
X189824001Y-57416939D01*
X189824001Y-57416933D01*
X189831974Y-57335985D01*
X189863480Y-57232121D01*
X189886799Y-57188495D01*
X189914644Y-57136400D01*
X189983500Y-57052499D01*
X190067401Y-56983643D01*
X190135946Y-56947005D01*
X190163122Y-56932479D01*
X190266986Y-56900973D01*
X190375000Y-56890334D01*
X190483015Y-56900973D01*
X190483015Y-56900973D01*
G37*
G36*
X183274672Y-57102449D02*
G01*
X183274674Y-57102450D01*
X183274675Y-57102450D01*
X183343103Y-57130793D01*
X183404686Y-57171942D01*
X183457058Y-57224314D01*
X183498207Y-57285897D01*
X183526550Y-57354325D01*
X183526551Y-57354328D01*
X183541000Y-57426966D01*
X183541000Y-57501034D01*
X183531260Y-57550000D01*
X183526550Y-57573675D01*
X183498207Y-57642103D01*
X183457058Y-57703686D01*
X183404686Y-57756058D01*
X183343103Y-57797207D01*
X183274675Y-57825550D01*
X183274674Y-57825550D01*
X183274672Y-57825551D01*
X183202034Y-57840000D01*
X183127966Y-57840000D01*
X183055328Y-57825551D01*
X183055326Y-57825550D01*
X183055325Y-57825550D01*
X182986897Y-57797207D01*
X182925314Y-57756058D01*
X182872942Y-57703686D01*
X182831793Y-57642103D01*
X182803450Y-57573675D01*
X182798741Y-57550000D01*
X182789000Y-57501034D01*
X182789000Y-57426966D01*
X182803449Y-57354328D01*
X182803450Y-57354325D01*
X182831793Y-57285897D01*
X182872942Y-57224314D01*
X182925314Y-57171942D01*
X182986897Y-57130793D01*
X183055325Y-57102450D01*
X183055326Y-57102450D01*
X183055328Y-57102449D01*
X183127966Y-57088000D01*
X183202034Y-57088000D01*
X183274672Y-57102449D01*
X183274672Y-57102449D01*
G37*
G36*
X189054672Y-57102449D02*
G01*
X189054674Y-57102450D01*
X189054675Y-57102450D01*
X189123103Y-57130793D01*
X189184686Y-57171942D01*
X189237058Y-57224314D01*
X189278207Y-57285897D01*
X189306550Y-57354325D01*
X189306551Y-57354328D01*
X189321000Y-57426966D01*
X189321000Y-57501034D01*
X189311260Y-57550000D01*
X189306550Y-57573675D01*
X189278207Y-57642103D01*
X189237058Y-57703686D01*
X189184686Y-57756058D01*
X189123103Y-57797207D01*
X189054675Y-57825550D01*
X189054674Y-57825550D01*
X189054672Y-57825551D01*
X188982034Y-57840000D01*
X188907966Y-57840000D01*
X188835328Y-57825551D01*
X188835326Y-57825550D01*
X188835325Y-57825550D01*
X188766897Y-57797207D01*
X188705314Y-57756058D01*
X188652942Y-57703686D01*
X188611793Y-57642103D01*
X188583450Y-57573675D01*
X188578741Y-57550000D01*
X188569000Y-57501034D01*
X188569000Y-57426966D01*
X188583449Y-57354328D01*
X188583450Y-57354325D01*
X188611793Y-57285897D01*
X188652942Y-57224314D01*
X188705314Y-57171942D01*
X188766897Y-57130793D01*
X188835325Y-57102450D01*
X188835326Y-57102450D01*
X188835328Y-57102449D01*
X188907966Y-57088000D01*
X188982034Y-57088000D01*
X189054672Y-57102449D01*
X189054672Y-57102449D01*
G37*
G36*
X164931880Y-53322276D02*
G01*
X165312593Y-53398004D01*
X165722249Y-53567689D01*
X166090929Y-53814034D01*
X166404466Y-54127571D01*
X166650811Y-54496251D01*
X166820496Y-54905907D01*
X166907000Y-55340796D01*
X166907000Y-55784204D01*
X166820496Y-56219093D01*
X166650811Y-56628749D01*
X166404466Y-56997429D01*
X166090929Y-57310966D01*
X165722249Y-57557311D01*
X165312593Y-57726996D01*
X164959620Y-57797206D01*
X164877705Y-57813500D01*
X164434295Y-57813500D01*
X164352380Y-57797206D01*
X163999407Y-57726996D01*
X163589751Y-57557311D01*
X163221071Y-57310966D01*
X162907534Y-56997429D01*
X162661189Y-56628749D01*
X162491504Y-56219093D01*
X162405000Y-55784204D01*
X162405000Y-55340796D01*
X162491504Y-54905907D01*
X162661189Y-54496251D01*
X162907534Y-54127571D01*
X163221071Y-53814034D01*
X163589751Y-53567689D01*
X163999407Y-53398004D01*
X164380120Y-53322276D01*
X164434295Y-53311500D01*
X164877705Y-53311500D01*
X164931880Y-53322276D01*
X164931880Y-53322276D01*
G37*
G36*
X208619880Y-53258776D02*
G01*
X209000593Y-53334504D01*
X209410249Y-53504189D01*
X209778929Y-53750534D01*
X210092466Y-54064071D01*
X210338811Y-54432751D01*
X210508496Y-54842407D01*
X210595000Y-55277296D01*
X210595000Y-55720704D01*
X210508496Y-56155593D01*
X210338811Y-56565249D01*
X210092466Y-56933929D01*
X209778929Y-57247466D01*
X209410249Y-57493811D01*
X209000593Y-57663496D01*
X208619880Y-57739224D01*
X208565705Y-57750000D01*
X208122295Y-57750000D01*
X208068120Y-57739224D01*
X207687407Y-57663496D01*
X207277751Y-57493811D01*
X206909071Y-57247466D01*
X206595534Y-56933929D01*
X206349189Y-56565249D01*
X206179504Y-56155593D01*
X206093000Y-55720704D01*
X206093000Y-55277296D01*
X206179504Y-54842407D01*
X206349189Y-54432751D01*
X206595534Y-54064071D01*
X206909071Y-53750534D01*
X207277751Y-53504189D01*
X207687407Y-53334504D01*
X208068120Y-53258776D01*
X208122295Y-53248000D01*
X208565705Y-53248000D01*
X208619880Y-53258776D01*
X208619880Y-53258776D01*
G37*
G36*
X181843015Y-52970973D02*
G01*
X181946879Y-53002479D01*
X181974055Y-53017005D01*
X182042600Y-53053643D01*
X182126501Y-53122499D01*
X182195357Y-53206400D01*
X182231995Y-53274945D01*
X182246521Y-53302121D01*
X182278027Y-53405985D01*
X182286000Y-53486933D01*
X182286000Y-54141067D01*
X182278027Y-54222015D01*
X182246521Y-54325879D01*
X182195356Y-54421600D01*
X182126501Y-54505501D01*
X182057645Y-54562009D01*
X182042599Y-54574357D01*
X182021342Y-54585719D01*
X181946878Y-54625521D01*
X181843014Y-54657027D01*
X181735000Y-54667666D01*
X181626985Y-54657027D01*
X181523121Y-54625521D01*
X181448658Y-54585719D01*
X181427401Y-54574357D01*
X181414643Y-54563887D01*
X181343499Y-54505501D01*
X181274644Y-54421600D01*
X181248009Y-54371769D01*
X181239729Y-54356279D01*
X181223479Y-54325878D01*
X181191973Y-54222014D01*
X181184000Y-54141066D01*
X181184000Y-53486933D01*
X181191973Y-53405985D01*
X181223480Y-53302121D01*
X181252409Y-53248000D01*
X181274645Y-53206399D01*
X181343500Y-53122499D01*
X181427401Y-53053643D01*
X181495946Y-53017005D01*
X181523122Y-53002479D01*
X181626986Y-52970973D01*
X181735000Y-52960334D01*
X181843015Y-52970973D01*
X181843015Y-52970973D01*
G37*
G36*
X190483015Y-52970973D02*
G01*
X190586879Y-53002479D01*
X190614055Y-53017005D01*
X190682600Y-53053643D01*
X190766501Y-53122499D01*
X190835357Y-53206400D01*
X190871995Y-53274945D01*
X190886521Y-53302121D01*
X190918027Y-53405985D01*
X190926000Y-53486933D01*
X190926000Y-54141067D01*
X190918027Y-54222015D01*
X190886521Y-54325879D01*
X190835356Y-54421600D01*
X190766501Y-54505501D01*
X190697645Y-54562009D01*
X190682599Y-54574357D01*
X190661342Y-54585719D01*
X190586878Y-54625521D01*
X190483014Y-54657027D01*
X190375000Y-54667666D01*
X190266985Y-54657027D01*
X190163121Y-54625521D01*
X190088658Y-54585719D01*
X190067401Y-54574357D01*
X190054643Y-54563887D01*
X189983499Y-54505501D01*
X189914644Y-54421600D01*
X189888009Y-54371769D01*
X189879729Y-54356279D01*
X189863479Y-54325878D01*
X189831973Y-54222014D01*
X189824000Y-54141066D01*
X189824000Y-53486933D01*
X189831973Y-53405985D01*
X189863480Y-53302121D01*
X189892409Y-53248000D01*
X189914645Y-53206399D01*
X189983500Y-53122499D01*
X190067401Y-53053643D01*
X190135946Y-53017005D01*
X190163122Y-53002479D01*
X190266986Y-52970973D01*
X190375000Y-52960334D01*
X190483015Y-52970973D01*
X190483015Y-52970973D01*
G37*
M02*
