M48
; DRILL file {KiCad (5.1.4)-1} date 07/02/2023 1:37:20
; FORMAT={-:-/ absolute / metric / decimal}
; #@! TF.CreationDate,2023-02-07T01:37:20+01:00
; #@! TF.GenerationSoftware,Kicad,Pcbnew,(5.1.4)-1
; #@! TF.FileFunction,Plated,1,2,PTH
FMAT,2
METRIC
T1C0.400
T2C0.600
T3C1.000
T4C1.500
T5C2.200
%
G90
G05
T1
X179.111Y-57.315
X191.361Y-71.872
X193.007Y-71.181
X194.48Y-63.266
X195.326Y-72.898
X196.532Y-61.404
X196.786Y-63.881
X198.051Y-73.54
X198.754Y-55.138
X199.2Y-63.944
X199.438Y-62.586
X199.695Y-72.075
X199.815Y-73.082
X200.614Y-55.99
X200.659Y-68.979
X200.978Y-61.782
X201.095Y-73.632
X201.8Y-60.684
X202.057Y-65.278
X202.449Y-72.835
X203.772Y-72.136
X205.621Y-65.011
X205.63Y-67.957
X205.652Y-66.624
X208.355Y-63.086
X206.694Y-55.499
X207.177Y-54.332
X207.177Y-56.666
X208.344Y-53.849
X208.344Y-57.149
X209.511Y-54.332
X209.511Y-56.666
X209.994Y-55.499
X163.006Y-55.562
X163.489Y-54.396
X163.489Y-56.729
X164.656Y-53.912
X164.656Y-57.212
X165.823Y-54.396
X165.823Y-56.729
X166.306Y-55.562
X163.132Y-98.933
X163.615Y-97.766
X163.615Y-100.1
X164.782Y-97.283
X164.782Y-100.583
X165.949Y-97.766
X165.949Y-100.1
X166.432Y-98.933
X206.757Y-99.123
X207.24Y-97.957
X207.24Y-100.29
X208.407Y-97.474
X208.407Y-100.773
X209.574Y-97.957
X209.574Y-100.29
X210.057Y-99.123
T3
X175.958Y-62.928
X175.958Y-65.468
X175.958Y-68.008
X178.498Y-62.928
X178.498Y-65.468
X178.498Y-68.008
T4
X194.882Y-93.345
X201.232Y-90.805
X173.164Y-93.408
X179.514Y-90.868
T5
X208.344Y-55.499
X164.656Y-55.562
X164.782Y-98.933
X208.407Y-99.123
T2
G00X181.735Y-54.114
M15
G01X181.735Y-53.514
M16
G05
G00X181.735Y-58.544
M15
G01X181.735Y-57.444
M16
G05
G00X190.375Y-54.114
M15
G01X190.375Y-53.514
M16
G05
G00X190.375Y-58.544
M15
G01X190.375Y-57.444
M16
G05
T0
M30
