M48
; DRILL file {KiCad (5.1.4)-1} date 15/02/2023 19:26:06
; FORMAT={-:-/ absolute / metric / decimal}
; #@! TF.CreationDate,2023-02-15T19:26:06+01:00
; #@! TF.GenerationSoftware,Kicad,Pcbnew,(5.1.4)-1
; #@! TF.FileFunction,Plated,1,2,PTH
FMAT,2
METRIC
T1C0.400
T2C0.600
T3C1.000
T4C1.500
T5C2.200
%
G90
G05
T1
X42.547Y-144.387
X55.473Y-149.238
X55.689Y-184.785
X62.528Y-147.757
X64.96Y-187.897
X75.501Y-186.055
X80.518Y-186.88
X93.523Y-149.962
X95.753Y-181.125
X96.418Y-222.199
X98.298Y-184.81
X99.212Y-187.655
X101.803Y-185.42
X102.354Y-182.875
X102.718Y-151.384
X103.819Y-217.908
X106.208Y-131.389
X111.15Y-190.754
X112.135Y-127.144
X117.399Y-186.842
X118.732Y-217.908
X121.793Y-146.177
X125.751Y-187.338
X130.615Y-184.913
X136.195Y-153.111
X136.325Y-198.199
X140.35Y-162.473
X141.994Y-164.077
X144.519Y-147.738
X150.509Y-179.801
X152.099Y-151.064
X152.157Y-147.463
X152.208Y-221.813
X152.733Y-202.049
X153.416Y-172.11
X154.239Y-198.199
X156.781Y-143.954
X157.937Y-210.058
X158.443Y-162.473
X159.766Y-150.241
X160.02Y-146.749
X161.646Y-207.112
X165.655Y-186.756
X178.664Y-151.486
X183.509Y-187.69
X184.425Y-184.447
X185.066Y-167.365
X188.049Y-184.214
X188.214Y-164.217
X188.592Y-180.67
X193.712Y-161.618
X194.462Y-191.364
X202.231Y-218.646
X207.62Y-164.338
X210.871Y-222.606
X210.89Y-198.134
X211.074Y-162.204
X211.277Y-158.852
X213.411Y-183.083
X214.754Y-218.029
X216.154Y-208.839
X217.17Y-187.554
X217.487Y-135.445
X217.678Y-130.112
X219.164Y-161.453
X219.761Y-185.674
X226.67Y-168.199
X226.688Y-180.6
X230.314Y-198.2
X232.054Y-220.878
X233.528Y-208.788
X235.141Y-144.716
X235.153Y-186.08
X236.41Y-129.984
X236.576Y-187.858
X239.09Y-161.453
X242.909Y-180.86
X245.507Y-130.311
X246.736Y-186.995
X246.786Y-190.246
X247.165Y-137.508
X247.431Y-128.386
X249.987Y-220.015
X250.241Y-181.661
X250.761Y-191.389
X250.825Y-187.325
X253.514Y-135.063
X256.033Y-161.799
X256.438Y-219.913
X257.15Y-177.597
X260.452Y-187.35
X264.77Y-168.656
X264.77Y-172.314
X272.136Y-219.761
X274.193Y-128.969
X274.447Y-134.874
X277.673Y-219.659
X288.651Y-130.188
X289.408Y-219.405
X291.012Y-217.301
X292.252Y-189.484
X292.608Y-133.655
X298.247Y-219.304
X298.958Y-194.056
X300.838Y-166.522
X307.696Y-219.659
X310.388Y-181.61
X310.547Y-177.037
X311.048Y-146.456
X312.42Y-128.067
X312.725Y-133.96
X312.877Y-149.962
X313.072Y-144.568
X313.385Y-172.314
X314.757Y-219.354
X315.112Y-157.886
X316.128Y-175.717
X316.998Y-130.97
X319.804Y-130.52
X322.428Y-160.579
X322.677Y-165.088
X324.245Y-143.874
X325.643Y-141.607
X325.868Y-142.614
X326.043Y-139.821
X326.492Y-181.356
X326.819Y-143.188
X326.847Y-159.156
X327.219Y-144.228
X327.355Y-187.3
X327.66Y-132.376
X328.727Y-205.334
X329.641Y-168.402
X331.691Y-199.122
X331.734Y-180.934
X331.881Y-134.57
X332.371Y-130.191
X332.949Y-129.164
X333.604Y-141.173
X335.085Y-150.659
X335.801Y-133.969
X336.144Y-229.159
X337.432Y-175.385
X337.972Y-138.938
X338.202Y-191.251
X338.547Y-134.886
X339.265Y-163.045
X339.344Y-127.457
X340.223Y-196.723
X340.716Y-169.316
X341.062Y-162.253
X341.478Y-176.987
X341.479Y-144.216
X341.663Y-136.951
X343.078Y-135.528
X343.4Y-140.872
X343.738Y-142.87
X344.034Y-191.885
X344.101Y-137.635
X345.694Y-178.46
X345.969Y-124.533
X346.1Y-190.195
X346.152Y-141.04
X346.304Y-132.74
X347.269Y-172.669
X347.726Y-155.905
X347.838Y-180.934
X348.096Y-199.122
X348.59Y-137.16
X348.691Y-229.108
X349.193Y-140.35
X350.774Y-187.452
X351.841Y-127.813
X352.654Y-154.178
X353.563Y-122.314
X354.025Y-138.278
X354.025Y-173.38
X355.031Y-133.264
X355.956Y-128.676
X356.413Y-170.332
X360.162Y-168.293
X364.49Y-137.566
X365.332Y-173.463
X365.914Y-164.98
X366.928Y-230.124
X369.418Y-143.002
X369.621Y-146.609
X369.722Y-149.454
X369.722Y-185.166
X371.246Y-224.282
X374.494Y-127.267
X374.643Y-205.361
X375.006Y-212.306
X375.297Y-124.515
X377.733Y-175.707
X382.823Y-124.829
X384.365Y-149.288
X215.584Y-145.669
X216.067Y-144.502
X216.067Y-146.836
X217.234Y-144.019
X217.234Y-147.319
X218.401Y-144.502
X218.401Y-146.836
X218.884Y-145.669
X287.974Y-182.753
X288.457Y-181.586
X288.457Y-183.92
X289.624Y-181.103
X289.624Y-184.403
X290.791Y-181.586
X290.791Y-183.92
X291.274Y-182.753
X139.384Y-145.669
X139.867Y-144.502
X139.867Y-146.836
X141.034Y-144.019
X141.034Y-147.319
X142.201Y-144.502
X142.201Y-146.836
X142.684Y-145.669
X173.038Y-183.896
X173.522Y-182.729
X173.522Y-185.063
X174.689Y-182.246
X174.689Y-185.546
X175.855Y-182.729
X175.855Y-185.063
X176.338Y-183.896
X377.381Y-204.343
X377.865Y-203.176
X377.865Y-205.51
X379.031Y-202.693
X379.031Y-205.993
X380.198Y-203.176
X380.198Y-205.51
X380.681Y-204.343
X59.627Y-210.502
X60.111Y-209.335
X60.111Y-211.669
X61.277Y-208.852
X61.277Y-212.152
X62.444Y-209.335
X62.444Y-211.669
X62.927Y-210.502
X305.5Y-153.035
X305.983Y-151.868
X305.983Y-154.202
X307.15Y-151.385
X307.15Y-154.685
X308.317Y-151.868
X308.317Y-154.202
X308.8Y-153.035
X377.572Y-167.386
X378.055Y-166.219
X378.055Y-168.553
X379.222Y-165.736
X379.222Y-169.036
X380.389Y-166.219
X380.389Y-168.553
X380.872Y-167.386
X44.133Y-145.669
X44.617Y-144.502
X44.617Y-146.836
X45.783Y-144.019
X45.783Y-147.319
X46.95Y-144.502
X46.95Y-146.836
X47.433Y-145.669
X140.653Y-225.996
X141.137Y-224.83
X141.137Y-227.163
X142.303Y-224.346
X142.303Y-227.647
X143.47Y-224.83
X143.47Y-227.163
X143.953Y-225.996
T3
X362.776Y-128.397
X362.776Y-130.937
X365.316Y-128.397
X365.316Y-130.937
X367.856Y-128.397
X367.856Y-130.937
T4
X338.518Y-177.673
X344.868Y-175.133
X224.218Y-158.623
X230.568Y-156.083
X224.218Y-215.773
X230.568Y-213.233
X81.216Y-234.823
X87.566Y-232.283
X148.018Y-215.773
X154.368Y-213.233
X300.418Y-139.573
X306.768Y-137.033
X290.894Y-158.623
X297.244Y-156.083
X205.168Y-139.573
X211.518Y-137.033
X157.544Y-177.673
X163.894Y-175.133
X214.694Y-177.673
X221.044Y-175.133
X52.768Y-158.623
X59.118Y-156.083
X319.468Y-215.773
X325.818Y-213.233
X71.819Y-215.773
X78.168Y-213.233
X357.568Y-177.673
X363.918Y-175.133
X271.844Y-177.673
X278.194Y-175.133
X148.018Y-139.573
X154.368Y-137.033
X33.718Y-139.573
X40.069Y-137.033
X357.568Y-158.623
X363.918Y-156.083
X357.568Y-234.823
X363.918Y-232.283
X67.12Y-196.723
X73.469Y-194.183
X167.068Y-215.773
X173.418Y-213.233
X262.318Y-139.573
X268.668Y-137.033
X138.494Y-177.673
X144.844Y-175.133
X148.018Y-158.623
X154.368Y-156.083
X181.42Y-196.723
X187.77Y-194.183
X200.47Y-196.723
X206.82Y-194.183
X205.168Y-158.623
X211.518Y-156.083
X376.618Y-225.298
X382.968Y-222.758
X376.618Y-187.198
X382.968Y-184.658
X186.118Y-158.623
X192.468Y-156.083
X300.418Y-215.773
X306.768Y-213.233
X176.594Y-177.673
X182.944Y-175.133
X338.518Y-158.623
X344.868Y-156.083
X43.243Y-215.773
X49.593Y-213.233
X162.37Y-196.723
X168.72Y-194.183
X186.118Y-139.573
X192.468Y-137.033
X259.906Y-234.823
X266.256Y-232.283
X357.568Y-196.723
X363.918Y-194.183
X128.968Y-139.573
X135.318Y-137.033
X109.918Y-215.773
X116.268Y-213.233
X319.468Y-177.673
X325.818Y-175.133
X143.32Y-196.723
X149.67Y-194.183
X71.819Y-139.573
X78.168Y-137.033
X300.418Y-234.823
X306.768Y-232.283
X338.518Y-196.723
X344.868Y-194.183
X195.644Y-177.673
X201.994Y-175.133
X90.868Y-139.573
X97.218Y-137.033
X128.968Y-215.773
X135.318Y-213.233
X109.918Y-139.573
X116.268Y-137.033
X338.518Y-234.823
X344.868Y-232.283
X238.57Y-196.723
X244.92Y-194.183
X119.444Y-177.673
X125.794Y-175.133
X124.27Y-196.723
X130.62Y-194.183
X224.218Y-139.573
X230.568Y-137.033
X128.968Y-158.623
X135.318Y-156.083
X281.368Y-215.773
X287.718Y-213.233
X167.068Y-158.623
X173.418Y-156.083
X281.368Y-139.573
X287.718Y-137.033
X219.392Y-234.823
X225.742Y-232.283
X262.318Y-158.623
X268.668Y-156.083
X38.417Y-234.823
X44.767Y-232.283
X357.568Y-215.773
X363.918Y-213.233
X62.166Y-234.823
X68.516Y-232.283
X243.268Y-158.623
X249.618Y-156.083
X338.518Y-215.773
X344.868Y-213.233
X186.118Y-215.773
X192.468Y-213.233
X281.368Y-234.823
X287.718Y-232.283
X62.293Y-177.673
X68.644Y-175.133
X150.304Y-234.823
X156.654Y-232.283
X243.268Y-215.773
X249.618Y-213.233
X52.768Y-139.573
X59.118Y-137.033
X262.318Y-215.773
X268.668Y-213.233
X105.22Y-196.723
X111.57Y-194.183
X243.268Y-139.573
X249.618Y-137.033
X319.468Y-234.823
X325.818Y-232.283
X71.819Y-158.623
X78.168Y-156.083
X276.67Y-196.723
X283.02Y-194.183
X252.794Y-177.673
X259.144Y-175.133
X219.52Y-196.723
X225.87Y-194.183
X298.006Y-187.198
X304.356Y-184.658
X90.868Y-215.773
X97.218Y-213.233
X81.343Y-177.673
X87.694Y-175.133
X233.744Y-177.673
X240.094Y-175.133
X205.168Y-215.773
X211.518Y-213.233
X167.068Y-139.573
X173.418Y-137.033
X33.718Y-158.623
X40.069Y-156.083
X319.468Y-196.723
X325.818Y-194.183
X376.618Y-158.623
X382.968Y-156.083
X86.169Y-196.723
X92.519Y-194.183
X100.394Y-177.673
X106.744Y-175.133
X38.417Y-177.673
X44.767Y-175.133
X319.468Y-158.623
X325.818Y-156.083
X238.442Y-234.823
X244.792Y-232.283
X257.62Y-196.723
X263.97Y-194.183
X90.868Y-158.623
X97.218Y-156.083
X40.831Y-196.723
X47.18Y-194.183
X109.918Y-158.623
X116.268Y-156.083
T5
X217.234Y-145.669
X289.624Y-182.753
X141.034Y-145.669
X174.689Y-183.896
X379.031Y-204.343
X61.277Y-210.502
X307.15Y-153.035
X379.222Y-167.386
X45.783Y-145.669
X142.303Y-225.996
T2
G00X371.727Y-120.462
M15
G01X371.727Y-121.062
M16
G05
G00X371.727Y-124.392
M15
G01X371.727Y-125.492
M16
G05
G00X380.367Y-120.462
M15
G01X380.367Y-121.062
M16
G05
G00X380.367Y-124.392
M15
G01X380.367Y-125.492
M16
G05
T0
M30
