M48
; DRILL file {KiCad (5.1.4)-1} date 28/02/2023 10:46:57
; FORMAT={-:-/ absolute / metric / decimal}
; #@! TF.CreationDate,2023-02-28T10:46:57+01:00
; #@! TF.GenerationSoftware,Kicad,Pcbnew,(5.1.4)-1
; #@! TF.FileFunction,NonPlated,1,2,NPTH
FMAT,2
METRIC
T1C0.650
T2C1.700
T3C3.050
T4C4.000
%
G90
G05
T1
X373.157Y-124.412
X378.937Y-124.412
T2
X40.703Y-210.693
X50.863Y-210.693
X374.078Y-182.118
X384.238Y-182.118
X295.466Y-182.118
X305.626Y-182.118
X288.354Y-153.543
X298.514Y-153.543
X374.078Y-220.218
X384.238Y-220.218
X147.764Y-229.743
X157.924Y-229.743
T3
X33.883Y-217.693
X57.683Y-217.693
X386.158Y-170.218
X386.158Y-194.018
X307.546Y-170.218
X307.546Y-194.018
X281.534Y-160.543
X305.334Y-160.543
X386.158Y-208.318
X386.158Y-232.118
X102.844Y-236.743
X202.844Y-236.743
T4
X302.958Y-229.743
X241.11Y-191.643
X264.858Y-153.543
X183.96Y-191.643
X33.883Y-202.453
X45.783Y-210.693
X57.683Y-202.453
X160.084Y-172.593
X283.908Y-210.693
X255.334Y-172.593
X169.608Y-153.543
X226.758Y-134.493
X274.384Y-172.593
X164.91Y-191.643
X217.234Y-172.593
X370.918Y-170.218
X370.918Y-194.018
X379.158Y-182.118
X262.446Y-229.743
X150.558Y-134.493
X226.758Y-210.693
X150.558Y-210.693
X74.358Y-153.543
X131.508Y-134.493
X83.883Y-172.593
X40.957Y-229.743
X74.358Y-210.693
X198.184Y-172.593
X322.008Y-153.543
X207.708Y-153.543
X222.06Y-191.643
X203.01Y-191.643
X322.008Y-172.593
X260.16Y-191.643
X292.306Y-170.218
X292.306Y-194.018
X300.546Y-182.118
X360.108Y-191.643
X93.408Y-153.543
X360.108Y-153.543
X40.957Y-172.593
X379.158Y-153.543
X88.709Y-191.643
X341.058Y-172.593
X302.958Y-210.693
X107.76Y-191.643
X245.808Y-153.543
X240.982Y-229.743
X145.86Y-191.643
X93.408Y-134.493
X131.508Y-153.543
X245.808Y-210.693
X207.708Y-210.693
X55.308Y-153.543
X74.358Y-134.493
X102.934Y-172.593
X141.034Y-172.593
X341.058Y-153.543
X83.757Y-229.743
X341.058Y-210.693
X226.758Y-153.543
X121.984Y-172.593
X281.534Y-145.303
X293.434Y-153.543
X305.334Y-145.303
X221.932Y-229.743
X341.058Y-191.643
X341.058Y-229.743
X360.108Y-172.593
X169.608Y-134.493
X43.37Y-191.643
X55.308Y-134.493
X93.408Y-210.693
X150.558Y-153.543
X370.918Y-208.318
X370.918Y-232.118
X379.158Y-220.218
X283.908Y-134.493
X283.908Y-229.743
X188.658Y-210.693
X236.284Y-172.593
X264.858Y-134.493
X302.958Y-134.493
X179.134Y-172.593
X112.458Y-134.493
X126.81Y-191.643
X102.844Y-221.503
X152.844Y-229.743
X202.844Y-221.503
X322.008Y-210.693
X322.008Y-229.743
X131.508Y-210.693
X188.658Y-134.493
X36.258Y-134.493
X64.834Y-172.593
X112.458Y-210.693
X169.608Y-210.693
X360.108Y-229.743
X188.658Y-153.543
X279.21Y-191.643
X360.108Y-210.693
X69.659Y-191.643
X36.258Y-153.543
X245.808Y-134.493
X112.458Y-153.543
X264.858Y-210.693
X322.008Y-191.643
X64.706Y-229.743
X207.708Y-134.493
T0
M30
