G04 #@! TF.GenerationSoftware,KiCad,Pcbnew,(5.1.4)-1*
G04 #@! TF.CreationDate,2023-02-07T15:56:53+01:00*
G04 #@! TF.ProjectId,pcb,7063622e-6b69-4636-9164-5f7063625858,1.0*
G04 #@! TF.SameCoordinates,Original*
G04 #@! TF.FileFunction,Legend,Bot*
G04 #@! TF.FilePolarity,Positive*
%FSLAX46Y46*%
G04 Gerber Fmt 4.6, Leading zero omitted, Abs format (unit mm)*
G04 Created by KiCad (PCBNEW (5.1.4)-1) date 2023-02-07 15:56:53*
%MOMM*%
%LPD*%
G04 APERTURE LIST*
%ADD10C,0.120000*%
%ADD11C,0.150000*%
G04 APERTURE END LIST*
D10*
X360130000Y-138143064D02*
X360130000Y-136938936D01*
X358310000Y-138143064D02*
X358310000Y-136938936D01*
X350314000Y-180939000D02*
X348314000Y-180939000D01*
X348314000Y-180939000D02*
X348314000Y-177039000D01*
X350314000Y-180939000D02*
X350314000Y-177039000D01*
X97964500Y-199862000D02*
X95964500Y-199862000D01*
X95964500Y-199862000D02*
X95964500Y-195962000D01*
X97964500Y-199862000D02*
X97964500Y-195962000D01*
X55038500Y-218658000D02*
X53038500Y-218658000D01*
X53038500Y-218658000D02*
X53038500Y-214758000D01*
X55038500Y-218658000D02*
X55038500Y-214758000D01*
X155114000Y-199862000D02*
X153114000Y-199862000D01*
X153114000Y-199862000D02*
X153114000Y-195962000D01*
X155114000Y-199862000D02*
X155114000Y-195962000D01*
X350314000Y-199989000D02*
X348314000Y-199989000D01*
X348314000Y-199989000D02*
X348314000Y-196089000D01*
X350314000Y-199989000D02*
X350314000Y-196089000D01*
X174164000Y-199862000D02*
X172164000Y-199862000D01*
X172164000Y-199862000D02*
X172164000Y-195962000D01*
X174164000Y-199862000D02*
X174164000Y-195962000D01*
X369364000Y-200624000D02*
X367364000Y-200624000D01*
X367364000Y-200624000D02*
X367364000Y-196724000D01*
X369364000Y-200624000D02*
X369364000Y-196724000D01*
X193214000Y-199862000D02*
X191214000Y-199862000D01*
X191214000Y-199862000D02*
X191214000Y-195962000D01*
X193214000Y-199862000D02*
X193214000Y-195962000D01*
X369364000Y-180939000D02*
X367364000Y-180939000D01*
X367364000Y-180939000D02*
X367364000Y-177039000D01*
X369364000Y-180939000D02*
X369364000Y-177039000D01*
X388414000Y-190591000D02*
X386414000Y-190591000D01*
X386414000Y-190591000D02*
X386414000Y-186691000D01*
X388414000Y-190591000D02*
X388414000Y-186691000D01*
X288464000Y-199989000D02*
X286464000Y-199989000D01*
X286464000Y-199989000D02*
X286464000Y-196089000D01*
X288464000Y-199989000D02*
X288464000Y-196089000D01*
X231314000Y-199862000D02*
X229314000Y-199862000D01*
X229314000Y-199862000D02*
X229314000Y-195962000D01*
X231314000Y-199862000D02*
X231314000Y-195962000D01*
X250364000Y-199862000D02*
X248364000Y-199862000D01*
X248364000Y-199862000D02*
X248364000Y-195962000D01*
X250364000Y-199862000D02*
X250364000Y-195962000D01*
X52625500Y-199862000D02*
X50625500Y-199862000D01*
X50625500Y-199862000D02*
X50625500Y-195962000D01*
X52625500Y-199862000D02*
X52625500Y-195962000D01*
X136064000Y-199862000D02*
X134064000Y-199862000D01*
X134064000Y-199862000D02*
X134064000Y-195962000D01*
X136064000Y-199862000D02*
X136064000Y-195962000D01*
X78914500Y-199862000D02*
X76914500Y-199862000D01*
X76914500Y-199862000D02*
X76914500Y-195962000D01*
X78914500Y-199862000D02*
X78914500Y-195962000D01*
X212264000Y-199862000D02*
X210264000Y-199862000D01*
X210264000Y-199862000D02*
X210264000Y-195962000D01*
X212264000Y-199862000D02*
X212264000Y-195962000D01*
X331264000Y-237835000D02*
X329264000Y-237835000D01*
X329264000Y-237835000D02*
X329264000Y-233935000D01*
X331264000Y-237835000D02*
X331264000Y-233935000D01*
X197914000Y-161762000D02*
X195914000Y-161762000D01*
X195914000Y-161762000D02*
X195914000Y-157862000D01*
X197914000Y-161762000D02*
X197914000Y-157862000D01*
X255064000Y-161762000D02*
X253064000Y-161762000D01*
X253064000Y-161762000D02*
X253064000Y-157862000D01*
X255064000Y-161762000D02*
X255064000Y-157862000D01*
X231188000Y-237835000D02*
X229188000Y-237835000D01*
X229188000Y-237835000D02*
X229188000Y-233935000D01*
X231188000Y-237835000D02*
X231188000Y-233935000D01*
X140764000Y-218658000D02*
X138764000Y-218658000D01*
X138764000Y-218658000D02*
X138764000Y-214758000D01*
X140764000Y-218658000D02*
X140764000Y-214758000D01*
X178990000Y-161762000D02*
X176990000Y-161762000D01*
X176990000Y-161762000D02*
X176990000Y-157862000D01*
X178990000Y-161762000D02*
X178990000Y-157862000D01*
X271700000Y-237835000D02*
X269700000Y-237835000D01*
X269700000Y-237835000D02*
X269700000Y-233935000D01*
X271700000Y-237835000D02*
X271700000Y-233935000D01*
X250238000Y-237835000D02*
X248238000Y-237835000D01*
X248238000Y-237835000D02*
X248238000Y-233935000D01*
X250238000Y-237835000D02*
X250238000Y-233935000D01*
X274114000Y-218658000D02*
X272114000Y-218658000D01*
X272114000Y-218658000D02*
X272114000Y-214758000D01*
X274114000Y-218658000D02*
X274114000Y-214758000D01*
X236014000Y-161762000D02*
X234014000Y-161762000D01*
X234014000Y-161762000D02*
X234014000Y-157862000D01*
X236014000Y-161762000D02*
X236014000Y-157862000D01*
X302688000Y-161762000D02*
X300688000Y-161762000D01*
X300688000Y-161762000D02*
X300688000Y-157862000D01*
X302688000Y-161762000D02*
X302688000Y-157862000D01*
X64563500Y-161763000D02*
X62563500Y-161763000D01*
X62563500Y-161763000D02*
X62563500Y-157863000D01*
X64563500Y-161763000D02*
X64563500Y-157863000D01*
X159814000Y-161762000D02*
X157814000Y-161762000D01*
X157814000Y-161762000D02*
X157814000Y-157862000D01*
X159814000Y-161762000D02*
X159814000Y-157862000D01*
X350314000Y-161762000D02*
X348314000Y-161762000D01*
X348314000Y-161762000D02*
X348314000Y-157862000D01*
X350314000Y-161762000D02*
X350314000Y-157862000D01*
X121714000Y-161762000D02*
X119714000Y-161762000D01*
X119714000Y-161762000D02*
X119714000Y-157862000D01*
X121714000Y-161762000D02*
X121714000Y-157862000D01*
X83613500Y-161762000D02*
X81613500Y-161762000D01*
X81613500Y-161762000D02*
X81613500Y-157862000D01*
X83613500Y-161762000D02*
X83613500Y-157862000D01*
X293164000Y-237835000D02*
X291164000Y-237835000D01*
X291164000Y-237835000D02*
X291164000Y-233935000D01*
X293164000Y-237835000D02*
X293164000Y-233935000D01*
X140764000Y-161762000D02*
X138764000Y-161762000D01*
X138764000Y-161762000D02*
X138764000Y-157862000D01*
X140764000Y-161762000D02*
X140764000Y-157862000D01*
X102664000Y-161762000D02*
X100664000Y-161762000D01*
X100664000Y-161762000D02*
X100664000Y-157862000D01*
X102664000Y-161762000D02*
X102664000Y-157862000D01*
X331264000Y-161762000D02*
X329264000Y-161762000D01*
X329264000Y-161762000D02*
X329264000Y-157862000D01*
X331264000Y-161762000D02*
X331264000Y-157862000D01*
X312214000Y-237835000D02*
X310214000Y-237835000D01*
X310214000Y-237835000D02*
X310214000Y-233935000D01*
X312214000Y-237835000D02*
X312214000Y-233935000D01*
X162100000Y-237835000D02*
X160100000Y-237835000D01*
X160100000Y-237835000D02*
X160100000Y-233935000D01*
X162100000Y-237835000D02*
X162100000Y-233935000D01*
X216964000Y-161762000D02*
X214964000Y-161762000D01*
X214964000Y-161762000D02*
X214964000Y-157862000D01*
X216964000Y-161762000D02*
X216964000Y-157862000D01*
X274114000Y-161762000D02*
X272114000Y-161762000D01*
X272114000Y-161762000D02*
X272114000Y-157862000D01*
X274114000Y-161762000D02*
X274114000Y-157862000D01*
X369236000Y-162016000D02*
X367236000Y-162016000D01*
X367236000Y-162016000D02*
X367236000Y-158116000D01*
X369236000Y-162016000D02*
X369236000Y-158116000D01*
X331264000Y-180939000D02*
X329264000Y-180939000D01*
X329264000Y-180939000D02*
X329264000Y-177039000D01*
X331264000Y-180939000D02*
X331264000Y-177039000D01*
X388414000Y-162016000D02*
X386414000Y-162016000D01*
X386414000Y-162016000D02*
X386414000Y-158116000D01*
X388414000Y-162016000D02*
X388414000Y-158116000D01*
X93138500Y-180812000D02*
X91138500Y-180812000D01*
X91138500Y-180812000D02*
X91138500Y-176912000D01*
X93138500Y-180812000D02*
X93138500Y-176912000D01*
X150288000Y-180812000D02*
X148288000Y-180812000D01*
X148288000Y-180812000D02*
X148288000Y-176912000D01*
X150288000Y-180812000D02*
X150288000Y-176912000D01*
X264588000Y-180812000D02*
X262588000Y-180812000D01*
X262588000Y-180812000D02*
X262588000Y-176912000D01*
X264588000Y-180812000D02*
X264588000Y-176912000D01*
X207438000Y-180812000D02*
X205438000Y-180812000D01*
X205438000Y-180812000D02*
X205438000Y-176912000D01*
X207438000Y-180812000D02*
X207438000Y-176912000D01*
X245538000Y-180812000D02*
X243538000Y-180812000D01*
X243538000Y-180812000D02*
X243538000Y-176912000D01*
X245538000Y-180812000D02*
X245538000Y-176912000D01*
X226488000Y-180812000D02*
X224488000Y-180812000D01*
X224488000Y-180812000D02*
X224488000Y-176912000D01*
X226488000Y-180812000D02*
X226488000Y-176912000D01*
X309800000Y-190337000D02*
X307800000Y-190337000D01*
X307800000Y-190337000D02*
X307800000Y-186437000D01*
X309800000Y-190337000D02*
X309800000Y-186437000D01*
X131238000Y-180812000D02*
X129238000Y-180812000D01*
X129238000Y-180812000D02*
X129238000Y-176912000D01*
X131238000Y-180812000D02*
X131238000Y-176912000D01*
X369300000Y-238660000D02*
X369300000Y-234760000D01*
X367300000Y-238660000D02*
X367300000Y-234760000D01*
X369300000Y-238660000D02*
X367300000Y-238660000D01*
X74088500Y-180812000D02*
X72088500Y-180812000D01*
X72088500Y-180812000D02*
X72088500Y-176912000D01*
X74088500Y-180812000D02*
X74088500Y-176912000D01*
X117014000Y-199862000D02*
X115014000Y-199862000D01*
X115014000Y-199862000D02*
X115014000Y-195962000D01*
X117014000Y-199862000D02*
X117014000Y-195962000D01*
X188388000Y-180812000D02*
X186388000Y-180812000D01*
X186388000Y-180812000D02*
X186388000Y-176912000D01*
X188388000Y-180812000D02*
X188388000Y-176912000D01*
X269414000Y-199862000D02*
X267414000Y-199862000D01*
X267414000Y-199862000D02*
X267414000Y-195962000D01*
X269414000Y-199862000D02*
X269414000Y-195962000D01*
X331264000Y-199989000D02*
X329264000Y-199989000D01*
X329264000Y-199989000D02*
X329264000Y-196089000D01*
X331264000Y-199989000D02*
X331264000Y-196089000D01*
X169338000Y-180812000D02*
X167338000Y-180812000D01*
X167338000Y-180812000D02*
X167338000Y-176912000D01*
X169338000Y-180812000D02*
X169338000Y-176912000D01*
X50212500Y-180812000D02*
X48212500Y-180812000D01*
X48212500Y-180812000D02*
X48212500Y-176912000D01*
X50212500Y-180812000D02*
X50212500Y-176912000D01*
X112188000Y-180812000D02*
X110188000Y-180812000D01*
X110188000Y-180812000D02*
X110188000Y-176912000D01*
X112188000Y-180812000D02*
X112188000Y-176912000D01*
X283638000Y-180812000D02*
X281638000Y-180812000D01*
X281638000Y-180812000D02*
X281638000Y-176912000D01*
X283638000Y-180812000D02*
X283638000Y-176912000D01*
X312214000Y-218658000D02*
X310214000Y-218658000D01*
X310214000Y-218658000D02*
X310214000Y-214758000D01*
X312214000Y-218658000D02*
X312214000Y-214758000D01*
X121714000Y-218658000D02*
X119714000Y-218658000D01*
X119714000Y-218658000D02*
X119714000Y-214758000D01*
X121714000Y-218658000D02*
X121714000Y-214758000D01*
X255064000Y-218658000D02*
X253064000Y-218658000D01*
X253064000Y-218658000D02*
X253064000Y-214758000D01*
X255064000Y-218658000D02*
X255064000Y-214758000D01*
X83613500Y-218658000D02*
X81613500Y-218658000D01*
X81613500Y-218658000D02*
X81613500Y-214758000D01*
X83613500Y-218658000D02*
X83613500Y-214758000D01*
X178864000Y-218658000D02*
X176864000Y-218658000D01*
X176864000Y-218658000D02*
X176864000Y-214758000D01*
X178864000Y-218658000D02*
X178864000Y-214758000D01*
X331264000Y-218658000D02*
X329264000Y-218658000D01*
X329264000Y-218658000D02*
X329264000Y-214758000D01*
X331264000Y-218658000D02*
X331264000Y-214758000D01*
X159814000Y-218658000D02*
X157814000Y-218658000D01*
X157814000Y-218658000D02*
X157814000Y-214758000D01*
X159814000Y-218658000D02*
X159814000Y-214758000D01*
X102664000Y-218658000D02*
X100664000Y-218658000D01*
X100664000Y-218658000D02*
X100664000Y-214758000D01*
X102664000Y-218658000D02*
X102664000Y-214758000D01*
X350314000Y-237836000D02*
X348314000Y-237836000D01*
X348314000Y-237836000D02*
X348314000Y-233936000D01*
X350314000Y-237836000D02*
X350314000Y-233936000D01*
X350314000Y-218658000D02*
X348314000Y-218658000D01*
X348314000Y-218658000D02*
X348314000Y-214758000D01*
X350314000Y-218658000D02*
X350314000Y-214758000D01*
X50212500Y-237835000D02*
X48212500Y-237835000D01*
X48212500Y-237835000D02*
X48212500Y-233935000D01*
X50212500Y-237835000D02*
X50212500Y-233935000D01*
X93011500Y-237835000D02*
X91011500Y-237835000D01*
X91011500Y-237835000D02*
X91011500Y-233935000D01*
X93011500Y-237835000D02*
X93011500Y-233935000D01*
X73961500Y-237835000D02*
X71961500Y-237835000D01*
X71961500Y-237835000D02*
X71961500Y-233935000D01*
X73961500Y-237835000D02*
X73961500Y-233935000D01*
X236014000Y-218658000D02*
X234014000Y-218658000D01*
X234014000Y-218658000D02*
X234014000Y-214758000D01*
X236014000Y-218658000D02*
X236014000Y-214758000D01*
X197914000Y-218658000D02*
X195914000Y-218658000D01*
X195914000Y-218658000D02*
X195914000Y-214758000D01*
X197914000Y-218658000D02*
X197914000Y-214758000D01*
X388414000Y-228437000D02*
X386414000Y-228437000D01*
X386414000Y-228437000D02*
X386414000Y-224537000D01*
X388414000Y-228437000D02*
X388414000Y-224537000D01*
X369364000Y-218658000D02*
X367364000Y-218658000D01*
X367364000Y-218658000D02*
X367364000Y-214758000D01*
X369364000Y-218658000D02*
X369364000Y-214758000D01*
X216964000Y-218658000D02*
X214964000Y-218658000D01*
X214964000Y-218658000D02*
X214964000Y-214758000D01*
X216964000Y-218658000D02*
X216964000Y-214758000D01*
X293164000Y-218659000D02*
X291164000Y-218659000D01*
X291164000Y-218659000D02*
X291164000Y-214759000D01*
X293164000Y-218659000D02*
X293164000Y-214759000D01*
X45513500Y-161763000D02*
X43513500Y-161763000D01*
X43513500Y-161763000D02*
X43513500Y-157863000D01*
X45513500Y-161763000D02*
X45513500Y-157863000D01*
X140764000Y-142585000D02*
X138764000Y-142585000D01*
X138764000Y-142585000D02*
X138764000Y-138685000D01*
X140764000Y-142585000D02*
X140764000Y-138685000D01*
X83613500Y-142585000D02*
X81613500Y-142585000D01*
X81613500Y-142585000D02*
X81613500Y-138685000D01*
X83613500Y-142585000D02*
X83613500Y-138685000D01*
X121714000Y-142585000D02*
X119714000Y-142585000D01*
X119714000Y-142585000D02*
X119714000Y-138685000D01*
X121714000Y-142585000D02*
X121714000Y-138685000D01*
X159814000Y-142585000D02*
X157814000Y-142585000D01*
X157814000Y-142585000D02*
X157814000Y-138685000D01*
X159814000Y-142585000D02*
X159814000Y-138685000D01*
X64563500Y-142586000D02*
X62563500Y-142586000D01*
X62563500Y-142586000D02*
X62563500Y-138686000D01*
X64563500Y-142586000D02*
X64563500Y-138686000D01*
X293164000Y-142585000D02*
X291164000Y-142585000D01*
X291164000Y-142585000D02*
X291164000Y-138685000D01*
X293164000Y-142585000D02*
X293164000Y-138685000D01*
X216964000Y-142585000D02*
X214964000Y-142585000D01*
X214964000Y-142585000D02*
X214964000Y-138685000D01*
X216964000Y-142585000D02*
X216964000Y-138685000D01*
X236014000Y-142585000D02*
X234014000Y-142585000D01*
X234014000Y-142585000D02*
X234014000Y-138685000D01*
X236014000Y-142585000D02*
X236014000Y-138685000D01*
X197914000Y-142585000D02*
X195914000Y-142585000D01*
X195914000Y-142585000D02*
X195914000Y-138685000D01*
X197914000Y-142585000D02*
X197914000Y-138685000D01*
X102664000Y-142585000D02*
X100664000Y-142585000D01*
X100664000Y-142585000D02*
X100664000Y-138685000D01*
X102664000Y-142585000D02*
X102664000Y-138685000D01*
X255064000Y-142585000D02*
X253064000Y-142585000D01*
X253064000Y-142585000D02*
X253064000Y-138685000D01*
X255064000Y-142585000D02*
X255064000Y-138685000D01*
X178864000Y-142585000D02*
X176864000Y-142585000D01*
X176864000Y-142585000D02*
X176864000Y-138685000D01*
X178864000Y-142585000D02*
X178864000Y-138685000D01*
X312214000Y-142585000D02*
X310214000Y-142585000D01*
X310214000Y-142585000D02*
X310214000Y-138685000D01*
X312214000Y-142585000D02*
X312214000Y-138685000D01*
X274114000Y-142585000D02*
X272114000Y-142585000D01*
X272114000Y-142585000D02*
X272114000Y-138685000D01*
X274114000Y-142585000D02*
X274114000Y-138685000D01*
X45513500Y-142585000D02*
X45513500Y-138685000D01*
X43513500Y-142585000D02*
X43513500Y-138685000D01*
X45513500Y-142585000D02*
X43513500Y-142585000D01*
X371347000Y-119812000D02*
X371347000Y-117912000D01*
X371347000Y-123712000D02*
X371347000Y-121712000D01*
X380747000Y-119812000D02*
X380747000Y-117912000D01*
X380747000Y-123712000D02*
X380747000Y-121712000D01*
X371347000Y-117912000D02*
X380747000Y-117912000D01*
X375772000Y-138334064D02*
X375772000Y-137129936D01*
X377592000Y-138334064D02*
X377592000Y-137129936D01*
X383265000Y-138334064D02*
X383265000Y-137129936D01*
X385085000Y-138334064D02*
X385085000Y-137129936D01*
X379518000Y-138334064D02*
X379518000Y-137129936D01*
X381338000Y-138334064D02*
X381338000Y-137129936D01*
X392578000Y-138334064D02*
X392578000Y-137129936D01*
X390758000Y-138334064D02*
X390758000Y-137129936D01*
X388832000Y-138334064D02*
X388832000Y-137129936D01*
X387012000Y-138334064D02*
X387012000Y-137129936D01*
X350753000Y-124188064D02*
X350753000Y-122983936D01*
X352573000Y-124188064D02*
X352573000Y-122983936D01*
X356065000Y-124236064D02*
X356065000Y-123031936D01*
X354245000Y-124236064D02*
X354245000Y-123031936D01*
X373909000Y-138298064D02*
X373909000Y-137093936D01*
X372089000Y-138298064D02*
X372089000Y-137093936D01*
D11*
X361397142Y-137374333D02*
X361444761Y-137326714D01*
X361492380Y-137183857D01*
X361492380Y-137088619D01*
X361444761Y-136945761D01*
X361349523Y-136850523D01*
X361254285Y-136802904D01*
X361063809Y-136755285D01*
X360920952Y-136755285D01*
X360730476Y-136802904D01*
X360635238Y-136850523D01*
X360540000Y-136945761D01*
X360492380Y-137088619D01*
X360492380Y-137183857D01*
X360540000Y-137326714D01*
X360587619Y-137374333D01*
X360920952Y-137945761D02*
X360873333Y-137850523D01*
X360825714Y-137802904D01*
X360730476Y-137755285D01*
X360682857Y-137755285D01*
X360587619Y-137802904D01*
X360540000Y-137850523D01*
X360492380Y-137945761D01*
X360492380Y-138136238D01*
X360540000Y-138231476D01*
X360587619Y-138279095D01*
X360682857Y-138326714D01*
X360730476Y-138326714D01*
X360825714Y-138279095D01*
X360873333Y-138231476D01*
X360920952Y-138136238D01*
X360920952Y-137945761D01*
X360968571Y-137850523D01*
X361016190Y-137802904D01*
X361111428Y-137755285D01*
X361301904Y-137755285D01*
X361397142Y-137802904D01*
X361444761Y-137850523D01*
X361492380Y-137945761D01*
X361492380Y-138136238D01*
X361444761Y-138231476D01*
X361397142Y-138279095D01*
X361301904Y-138326714D01*
X361111428Y-138326714D01*
X361016190Y-138279095D01*
X360968571Y-138231476D01*
X360920952Y-138136238D01*
X351766380Y-177474714D02*
X350766380Y-177474714D01*
X350766380Y-177712809D01*
X350814000Y-177855666D01*
X350909238Y-177950904D01*
X351004476Y-177998523D01*
X351194952Y-178046142D01*
X351337809Y-178046142D01*
X351528285Y-177998523D01*
X351623523Y-177950904D01*
X351718761Y-177855666D01*
X351766380Y-177712809D01*
X351766380Y-177474714D01*
X351766380Y-178522333D02*
X351766380Y-178712809D01*
X351718761Y-178808047D01*
X351671142Y-178855666D01*
X351528285Y-178950904D01*
X351337809Y-178998523D01*
X350956857Y-178998523D01*
X350861619Y-178950904D01*
X350814000Y-178903285D01*
X350766380Y-178808047D01*
X350766380Y-178617571D01*
X350814000Y-178522333D01*
X350861619Y-178474714D01*
X350956857Y-178427095D01*
X351194952Y-178427095D01*
X351290190Y-178474714D01*
X351337809Y-178522333D01*
X351385428Y-178617571D01*
X351385428Y-178808047D01*
X351337809Y-178903285D01*
X351290190Y-178950904D01*
X351194952Y-178998523D01*
X351194952Y-179569952D02*
X351147333Y-179474714D01*
X351099714Y-179427095D01*
X351004476Y-179379476D01*
X350956857Y-179379476D01*
X350861619Y-179427095D01*
X350814000Y-179474714D01*
X350766380Y-179569952D01*
X350766380Y-179760428D01*
X350814000Y-179855666D01*
X350861619Y-179903285D01*
X350956857Y-179950904D01*
X351004476Y-179950904D01*
X351099714Y-179903285D01*
X351147333Y-179855666D01*
X351194952Y-179760428D01*
X351194952Y-179569952D01*
X351242571Y-179474714D01*
X351290190Y-179427095D01*
X351385428Y-179379476D01*
X351575904Y-179379476D01*
X351671142Y-179427095D01*
X351718761Y-179474714D01*
X351766380Y-179569952D01*
X351766380Y-179760428D01*
X351718761Y-179855666D01*
X351671142Y-179903285D01*
X351575904Y-179950904D01*
X351385428Y-179950904D01*
X351290190Y-179903285D01*
X351242571Y-179855666D01*
X351194952Y-179760428D01*
X99416880Y-195921523D02*
X98416880Y-195921523D01*
X98416880Y-196159619D01*
X98464500Y-196302476D01*
X98559738Y-196397714D01*
X98654976Y-196445333D01*
X98845452Y-196492952D01*
X98988309Y-196492952D01*
X99178785Y-196445333D01*
X99274023Y-196397714D01*
X99369261Y-196302476D01*
X99416880Y-196159619D01*
X99416880Y-195921523D01*
X99416880Y-197445333D02*
X99416880Y-196873904D01*
X99416880Y-197159619D02*
X98416880Y-197159619D01*
X98559738Y-197064380D01*
X98654976Y-196969142D01*
X98702595Y-196873904D01*
X98416880Y-198064380D02*
X98416880Y-198159619D01*
X98464500Y-198254857D01*
X98512119Y-198302476D01*
X98607357Y-198350095D01*
X98797833Y-198397714D01*
X99035928Y-198397714D01*
X99226404Y-198350095D01*
X99321642Y-198302476D01*
X99369261Y-198254857D01*
X99416880Y-198159619D01*
X99416880Y-198064380D01*
X99369261Y-197969142D01*
X99321642Y-197921523D01*
X99226404Y-197873904D01*
X99035928Y-197826285D01*
X98797833Y-197826285D01*
X98607357Y-197873904D01*
X98512119Y-197921523D01*
X98464500Y-197969142D01*
X98416880Y-198064380D01*
X98416880Y-198731047D02*
X98416880Y-199350095D01*
X98797833Y-199016761D01*
X98797833Y-199159619D01*
X98845452Y-199254857D01*
X98893071Y-199302476D01*
X98988309Y-199350095D01*
X99226404Y-199350095D01*
X99321642Y-199302476D01*
X99369261Y-199254857D01*
X99416880Y-199159619D01*
X99416880Y-198873904D01*
X99369261Y-198778666D01*
X99321642Y-198731047D01*
X54490880Y-210145523D02*
X53490880Y-210145523D01*
X53490880Y-210383619D01*
X53538500Y-210526476D01*
X53633738Y-210621714D01*
X53728976Y-210669333D01*
X53919452Y-210716952D01*
X54062309Y-210716952D01*
X54252785Y-210669333D01*
X54348023Y-210621714D01*
X54443261Y-210526476D01*
X54490880Y-210383619D01*
X54490880Y-210145523D01*
X54490880Y-211669333D02*
X54490880Y-211097904D01*
X54490880Y-211383619D02*
X53490880Y-211383619D01*
X53633738Y-211288380D01*
X53728976Y-211193142D01*
X53776595Y-211097904D01*
X53490880Y-212002666D02*
X53490880Y-212621714D01*
X53871833Y-212288380D01*
X53871833Y-212431238D01*
X53919452Y-212526476D01*
X53967071Y-212574095D01*
X54062309Y-212621714D01*
X54300404Y-212621714D01*
X54395642Y-212574095D01*
X54443261Y-212526476D01*
X54490880Y-212431238D01*
X54490880Y-212145523D01*
X54443261Y-212050285D01*
X54395642Y-212002666D01*
X53490880Y-212955047D02*
X53490880Y-213574095D01*
X53871833Y-213240761D01*
X53871833Y-213383619D01*
X53919452Y-213478857D01*
X53967071Y-213526476D01*
X54062309Y-213574095D01*
X54300404Y-213574095D01*
X54395642Y-213526476D01*
X54443261Y-213478857D01*
X54490880Y-213383619D01*
X54490880Y-213097904D01*
X54443261Y-213002666D01*
X54395642Y-212955047D01*
X156566380Y-195921523D02*
X155566380Y-195921523D01*
X155566380Y-196159619D01*
X155614000Y-196302476D01*
X155709238Y-196397714D01*
X155804476Y-196445333D01*
X155994952Y-196492952D01*
X156137809Y-196492952D01*
X156328285Y-196445333D01*
X156423523Y-196397714D01*
X156518761Y-196302476D01*
X156566380Y-196159619D01*
X156566380Y-195921523D01*
X156566380Y-197445333D02*
X156566380Y-196873904D01*
X156566380Y-197159619D02*
X155566380Y-197159619D01*
X155709238Y-197064380D01*
X155804476Y-196969142D01*
X155852095Y-196873904D01*
X155566380Y-198064380D02*
X155566380Y-198159619D01*
X155614000Y-198254857D01*
X155661619Y-198302476D01*
X155756857Y-198350095D01*
X155947333Y-198397714D01*
X156185428Y-198397714D01*
X156375904Y-198350095D01*
X156471142Y-198302476D01*
X156518761Y-198254857D01*
X156566380Y-198159619D01*
X156566380Y-198064380D01*
X156518761Y-197969142D01*
X156471142Y-197921523D01*
X156375904Y-197873904D01*
X156185428Y-197826285D01*
X155947333Y-197826285D01*
X155756857Y-197873904D01*
X155661619Y-197921523D01*
X155614000Y-197969142D01*
X155566380Y-198064380D01*
X155566380Y-199254857D02*
X155566380Y-199064380D01*
X155614000Y-198969142D01*
X155661619Y-198921523D01*
X155804476Y-198826285D01*
X155994952Y-198778666D01*
X156375904Y-198778666D01*
X156471142Y-198826285D01*
X156518761Y-198873904D01*
X156566380Y-198969142D01*
X156566380Y-199159619D01*
X156518761Y-199254857D01*
X156471142Y-199302476D01*
X156375904Y-199350095D01*
X156137809Y-199350095D01*
X156042571Y-199302476D01*
X155994952Y-199254857D01*
X155947333Y-199159619D01*
X155947333Y-198969142D01*
X155994952Y-198873904D01*
X156042571Y-198826285D01*
X156137809Y-198778666D01*
X351766380Y-196048523D02*
X350766380Y-196048523D01*
X350766380Y-196286619D01*
X350814000Y-196429476D01*
X350909238Y-196524714D01*
X351004476Y-196572333D01*
X351194952Y-196619952D01*
X351337809Y-196619952D01*
X351528285Y-196572333D01*
X351623523Y-196524714D01*
X351718761Y-196429476D01*
X351766380Y-196286619D01*
X351766380Y-196048523D01*
X351766380Y-197572333D02*
X351766380Y-197000904D01*
X351766380Y-197286619D02*
X350766380Y-197286619D01*
X350909238Y-197191380D01*
X351004476Y-197096142D01*
X351052095Y-197000904D01*
X350766380Y-197905666D02*
X350766380Y-198524714D01*
X351147333Y-198191380D01*
X351147333Y-198334238D01*
X351194952Y-198429476D01*
X351242571Y-198477095D01*
X351337809Y-198524714D01*
X351575904Y-198524714D01*
X351671142Y-198477095D01*
X351718761Y-198429476D01*
X351766380Y-198334238D01*
X351766380Y-198048523D01*
X351718761Y-197953285D01*
X351671142Y-197905666D01*
X351766380Y-199477095D02*
X351766380Y-198905666D01*
X351766380Y-199191380D02*
X350766380Y-199191380D01*
X350909238Y-199096142D01*
X351004476Y-199000904D01*
X351052095Y-198905666D01*
X175616380Y-195921523D02*
X174616380Y-195921523D01*
X174616380Y-196159619D01*
X174664000Y-196302476D01*
X174759238Y-196397714D01*
X174854476Y-196445333D01*
X175044952Y-196492952D01*
X175187809Y-196492952D01*
X175378285Y-196445333D01*
X175473523Y-196397714D01*
X175568761Y-196302476D01*
X175616380Y-196159619D01*
X175616380Y-195921523D01*
X175616380Y-197445333D02*
X175616380Y-196873904D01*
X175616380Y-197159619D02*
X174616380Y-197159619D01*
X174759238Y-197064380D01*
X174854476Y-196969142D01*
X174902095Y-196873904D01*
X174616380Y-198064380D02*
X174616380Y-198159619D01*
X174664000Y-198254857D01*
X174711619Y-198302476D01*
X174806857Y-198350095D01*
X174997333Y-198397714D01*
X175235428Y-198397714D01*
X175425904Y-198350095D01*
X175521142Y-198302476D01*
X175568761Y-198254857D01*
X175616380Y-198159619D01*
X175616380Y-198064380D01*
X175568761Y-197969142D01*
X175521142Y-197921523D01*
X175425904Y-197873904D01*
X175235428Y-197826285D01*
X174997333Y-197826285D01*
X174806857Y-197873904D01*
X174711619Y-197921523D01*
X174664000Y-197969142D01*
X174616380Y-198064380D01*
X174616380Y-198731047D02*
X174616380Y-199397714D01*
X175616380Y-198969142D01*
X370816380Y-196683523D02*
X369816380Y-196683523D01*
X369816380Y-196921619D01*
X369864000Y-197064476D01*
X369959238Y-197159714D01*
X370054476Y-197207333D01*
X370244952Y-197254952D01*
X370387809Y-197254952D01*
X370578285Y-197207333D01*
X370673523Y-197159714D01*
X370768761Y-197064476D01*
X370816380Y-196921619D01*
X370816380Y-196683523D01*
X370816380Y-198207333D02*
X370816380Y-197635904D01*
X370816380Y-197921619D02*
X369816380Y-197921619D01*
X369959238Y-197826380D01*
X370054476Y-197731142D01*
X370102095Y-197635904D01*
X369816380Y-198540666D02*
X369816380Y-199159714D01*
X370197333Y-198826380D01*
X370197333Y-198969238D01*
X370244952Y-199064476D01*
X370292571Y-199112095D01*
X370387809Y-199159714D01*
X370625904Y-199159714D01*
X370721142Y-199112095D01*
X370768761Y-199064476D01*
X370816380Y-198969238D01*
X370816380Y-198683523D01*
X370768761Y-198588285D01*
X370721142Y-198540666D01*
X369911619Y-199540666D02*
X369864000Y-199588285D01*
X369816380Y-199683523D01*
X369816380Y-199921619D01*
X369864000Y-200016857D01*
X369911619Y-200064476D01*
X370006857Y-200112095D01*
X370102095Y-200112095D01*
X370244952Y-200064476D01*
X370816380Y-199493047D01*
X370816380Y-200112095D01*
X194666380Y-195921523D02*
X193666380Y-195921523D01*
X193666380Y-196159619D01*
X193714000Y-196302476D01*
X193809238Y-196397714D01*
X193904476Y-196445333D01*
X194094952Y-196492952D01*
X194237809Y-196492952D01*
X194428285Y-196445333D01*
X194523523Y-196397714D01*
X194618761Y-196302476D01*
X194666380Y-196159619D01*
X194666380Y-195921523D01*
X194666380Y-197445333D02*
X194666380Y-196873904D01*
X194666380Y-197159619D02*
X193666380Y-197159619D01*
X193809238Y-197064380D01*
X193904476Y-196969142D01*
X193952095Y-196873904D01*
X193666380Y-198064380D02*
X193666380Y-198159619D01*
X193714000Y-198254857D01*
X193761619Y-198302476D01*
X193856857Y-198350095D01*
X194047333Y-198397714D01*
X194285428Y-198397714D01*
X194475904Y-198350095D01*
X194571142Y-198302476D01*
X194618761Y-198254857D01*
X194666380Y-198159619D01*
X194666380Y-198064380D01*
X194618761Y-197969142D01*
X194571142Y-197921523D01*
X194475904Y-197873904D01*
X194285428Y-197826285D01*
X194047333Y-197826285D01*
X193856857Y-197873904D01*
X193761619Y-197921523D01*
X193714000Y-197969142D01*
X193666380Y-198064380D01*
X194094952Y-198969142D02*
X194047333Y-198873904D01*
X193999714Y-198826285D01*
X193904476Y-198778666D01*
X193856857Y-198778666D01*
X193761619Y-198826285D01*
X193714000Y-198873904D01*
X193666380Y-198969142D01*
X193666380Y-199159619D01*
X193714000Y-199254857D01*
X193761619Y-199302476D01*
X193856857Y-199350095D01*
X193904476Y-199350095D01*
X193999714Y-199302476D01*
X194047333Y-199254857D01*
X194094952Y-199159619D01*
X194094952Y-198969142D01*
X194142571Y-198873904D01*
X194190190Y-198826285D01*
X194285428Y-198778666D01*
X194475904Y-198778666D01*
X194571142Y-198826285D01*
X194618761Y-198873904D01*
X194666380Y-198969142D01*
X194666380Y-199159619D01*
X194618761Y-199254857D01*
X194571142Y-199302476D01*
X194475904Y-199350095D01*
X194285428Y-199350095D01*
X194190190Y-199302476D01*
X194142571Y-199254857D01*
X194094952Y-199159619D01*
X370816380Y-177474714D02*
X369816380Y-177474714D01*
X369816380Y-177712809D01*
X369864000Y-177855666D01*
X369959238Y-177950904D01*
X370054476Y-177998523D01*
X370244952Y-178046142D01*
X370387809Y-178046142D01*
X370578285Y-177998523D01*
X370673523Y-177950904D01*
X370768761Y-177855666D01*
X370816380Y-177712809D01*
X370816380Y-177474714D01*
X370816380Y-178522333D02*
X370816380Y-178712809D01*
X370768761Y-178808047D01*
X370721142Y-178855666D01*
X370578285Y-178950904D01*
X370387809Y-178998523D01*
X370006857Y-178998523D01*
X369911619Y-178950904D01*
X369864000Y-178903285D01*
X369816380Y-178808047D01*
X369816380Y-178617571D01*
X369864000Y-178522333D01*
X369911619Y-178474714D01*
X370006857Y-178427095D01*
X370244952Y-178427095D01*
X370340190Y-178474714D01*
X370387809Y-178522333D01*
X370435428Y-178617571D01*
X370435428Y-178808047D01*
X370387809Y-178903285D01*
X370340190Y-178950904D01*
X370244952Y-178998523D01*
X370816380Y-179474714D02*
X370816380Y-179665190D01*
X370768761Y-179760428D01*
X370721142Y-179808047D01*
X370578285Y-179903285D01*
X370387809Y-179950904D01*
X370006857Y-179950904D01*
X369911619Y-179903285D01*
X369864000Y-179855666D01*
X369816380Y-179760428D01*
X369816380Y-179569952D01*
X369864000Y-179474714D01*
X369911619Y-179427095D01*
X370006857Y-179379476D01*
X370244952Y-179379476D01*
X370340190Y-179427095D01*
X370387809Y-179474714D01*
X370435428Y-179569952D01*
X370435428Y-179760428D01*
X370387809Y-179855666D01*
X370340190Y-179903285D01*
X370244952Y-179950904D01*
X387866380Y-182205523D02*
X386866380Y-182205523D01*
X386866380Y-182443619D01*
X386914000Y-182586476D01*
X387009238Y-182681714D01*
X387104476Y-182729333D01*
X387294952Y-182776952D01*
X387437809Y-182776952D01*
X387628285Y-182729333D01*
X387723523Y-182681714D01*
X387818761Y-182586476D01*
X387866380Y-182443619D01*
X387866380Y-182205523D01*
X387866380Y-183729333D02*
X387866380Y-183157904D01*
X387866380Y-183443619D02*
X386866380Y-183443619D01*
X387009238Y-183348380D01*
X387104476Y-183253142D01*
X387152095Y-183157904D01*
X386866380Y-184348380D02*
X386866380Y-184443619D01*
X386914000Y-184538857D01*
X386961619Y-184586476D01*
X387056857Y-184634095D01*
X387247333Y-184681714D01*
X387485428Y-184681714D01*
X387675904Y-184634095D01*
X387771142Y-184586476D01*
X387818761Y-184538857D01*
X387866380Y-184443619D01*
X387866380Y-184348380D01*
X387818761Y-184253142D01*
X387771142Y-184205523D01*
X387675904Y-184157904D01*
X387485428Y-184110285D01*
X387247333Y-184110285D01*
X387056857Y-184157904D01*
X386961619Y-184205523D01*
X386914000Y-184253142D01*
X386866380Y-184348380D01*
X386866380Y-185300761D02*
X386866380Y-185396000D01*
X386914000Y-185491238D01*
X386961619Y-185538857D01*
X387056857Y-185586476D01*
X387247333Y-185634095D01*
X387485428Y-185634095D01*
X387675904Y-185586476D01*
X387771142Y-185538857D01*
X387818761Y-185491238D01*
X387866380Y-185396000D01*
X387866380Y-185300761D01*
X387818761Y-185205523D01*
X387771142Y-185157904D01*
X387675904Y-185110285D01*
X387485428Y-185062666D01*
X387247333Y-185062666D01*
X387056857Y-185110285D01*
X386961619Y-185157904D01*
X386914000Y-185205523D01*
X386866380Y-185300761D01*
X289916380Y-196048523D02*
X288916380Y-196048523D01*
X288916380Y-196286619D01*
X288964000Y-196429476D01*
X289059238Y-196524714D01*
X289154476Y-196572333D01*
X289344952Y-196619952D01*
X289487809Y-196619952D01*
X289678285Y-196572333D01*
X289773523Y-196524714D01*
X289868761Y-196429476D01*
X289916380Y-196286619D01*
X289916380Y-196048523D01*
X289916380Y-197572333D02*
X289916380Y-197000904D01*
X289916380Y-197286619D02*
X288916380Y-197286619D01*
X289059238Y-197191380D01*
X289154476Y-197096142D01*
X289202095Y-197000904D01*
X289011619Y-197953285D02*
X288964000Y-198000904D01*
X288916380Y-198096142D01*
X288916380Y-198334238D01*
X288964000Y-198429476D01*
X289011619Y-198477095D01*
X289106857Y-198524714D01*
X289202095Y-198524714D01*
X289344952Y-198477095D01*
X289916380Y-197905666D01*
X289916380Y-198524714D01*
X289916380Y-199000904D02*
X289916380Y-199191380D01*
X289868761Y-199286619D01*
X289821142Y-199334238D01*
X289678285Y-199429476D01*
X289487809Y-199477095D01*
X289106857Y-199477095D01*
X289011619Y-199429476D01*
X288964000Y-199381857D01*
X288916380Y-199286619D01*
X288916380Y-199096142D01*
X288964000Y-199000904D01*
X289011619Y-198953285D01*
X289106857Y-198905666D01*
X289344952Y-198905666D01*
X289440190Y-198953285D01*
X289487809Y-199000904D01*
X289535428Y-199096142D01*
X289535428Y-199286619D01*
X289487809Y-199381857D01*
X289440190Y-199429476D01*
X289344952Y-199477095D01*
X232766380Y-195921523D02*
X231766380Y-195921523D01*
X231766380Y-196159619D01*
X231814000Y-196302476D01*
X231909238Y-196397714D01*
X232004476Y-196445333D01*
X232194952Y-196492952D01*
X232337809Y-196492952D01*
X232528285Y-196445333D01*
X232623523Y-196397714D01*
X232718761Y-196302476D01*
X232766380Y-196159619D01*
X232766380Y-195921523D01*
X232766380Y-197445333D02*
X232766380Y-196873904D01*
X232766380Y-197159619D02*
X231766380Y-197159619D01*
X231909238Y-197064380D01*
X232004476Y-196969142D01*
X232052095Y-196873904D01*
X232766380Y-198397714D02*
X232766380Y-197826285D01*
X232766380Y-198112000D02*
X231766380Y-198112000D01*
X231909238Y-198016761D01*
X232004476Y-197921523D01*
X232052095Y-197826285D01*
X231766380Y-199016761D02*
X231766380Y-199112000D01*
X231814000Y-199207238D01*
X231861619Y-199254857D01*
X231956857Y-199302476D01*
X232147333Y-199350095D01*
X232385428Y-199350095D01*
X232575904Y-199302476D01*
X232671142Y-199254857D01*
X232718761Y-199207238D01*
X232766380Y-199112000D01*
X232766380Y-199016761D01*
X232718761Y-198921523D01*
X232671142Y-198873904D01*
X232575904Y-198826285D01*
X232385428Y-198778666D01*
X232147333Y-198778666D01*
X231956857Y-198826285D01*
X231861619Y-198873904D01*
X231814000Y-198921523D01*
X231766380Y-199016761D01*
X251816380Y-195921523D02*
X250816380Y-195921523D01*
X250816380Y-196159619D01*
X250864000Y-196302476D01*
X250959238Y-196397714D01*
X251054476Y-196445333D01*
X251244952Y-196492952D01*
X251387809Y-196492952D01*
X251578285Y-196445333D01*
X251673523Y-196397714D01*
X251768761Y-196302476D01*
X251816380Y-196159619D01*
X251816380Y-195921523D01*
X251816380Y-197445333D02*
X251816380Y-196873904D01*
X251816380Y-197159619D02*
X250816380Y-197159619D01*
X250959238Y-197064380D01*
X251054476Y-196969142D01*
X251102095Y-196873904D01*
X251816380Y-198397714D02*
X251816380Y-197826285D01*
X251816380Y-198112000D02*
X250816380Y-198112000D01*
X250959238Y-198016761D01*
X251054476Y-197921523D01*
X251102095Y-197826285D01*
X251816380Y-199350095D02*
X251816380Y-198778666D01*
X251816380Y-199064380D02*
X250816380Y-199064380D01*
X250959238Y-198969142D01*
X251054476Y-198873904D01*
X251102095Y-198778666D01*
X54077880Y-195921523D02*
X53077880Y-195921523D01*
X53077880Y-196159619D01*
X53125500Y-196302476D01*
X53220738Y-196397714D01*
X53315976Y-196445333D01*
X53506452Y-196492952D01*
X53649309Y-196492952D01*
X53839785Y-196445333D01*
X53935023Y-196397714D01*
X54030261Y-196302476D01*
X54077880Y-196159619D01*
X54077880Y-195921523D01*
X54077880Y-197445333D02*
X54077880Y-196873904D01*
X54077880Y-197159619D02*
X53077880Y-197159619D01*
X53220738Y-197064380D01*
X53315976Y-196969142D01*
X53363595Y-196873904D01*
X53077880Y-198064380D02*
X53077880Y-198159619D01*
X53125500Y-198254857D01*
X53173119Y-198302476D01*
X53268357Y-198350095D01*
X53458833Y-198397714D01*
X53696928Y-198397714D01*
X53887404Y-198350095D01*
X53982642Y-198302476D01*
X54030261Y-198254857D01*
X54077880Y-198159619D01*
X54077880Y-198064380D01*
X54030261Y-197969142D01*
X53982642Y-197921523D01*
X53887404Y-197873904D01*
X53696928Y-197826285D01*
X53458833Y-197826285D01*
X53268357Y-197873904D01*
X53173119Y-197921523D01*
X53125500Y-197969142D01*
X53077880Y-198064380D01*
X54077880Y-199350095D02*
X54077880Y-198778666D01*
X54077880Y-199064380D02*
X53077880Y-199064380D01*
X53220738Y-198969142D01*
X53315976Y-198873904D01*
X53363595Y-198778666D01*
X137516380Y-195921523D02*
X136516380Y-195921523D01*
X136516380Y-196159619D01*
X136564000Y-196302476D01*
X136659238Y-196397714D01*
X136754476Y-196445333D01*
X136944952Y-196492952D01*
X137087809Y-196492952D01*
X137278285Y-196445333D01*
X137373523Y-196397714D01*
X137468761Y-196302476D01*
X137516380Y-196159619D01*
X137516380Y-195921523D01*
X137516380Y-197445333D02*
X137516380Y-196873904D01*
X137516380Y-197159619D02*
X136516380Y-197159619D01*
X136659238Y-197064380D01*
X136754476Y-196969142D01*
X136802095Y-196873904D01*
X136516380Y-198064380D02*
X136516380Y-198159619D01*
X136564000Y-198254857D01*
X136611619Y-198302476D01*
X136706857Y-198350095D01*
X136897333Y-198397714D01*
X137135428Y-198397714D01*
X137325904Y-198350095D01*
X137421142Y-198302476D01*
X137468761Y-198254857D01*
X137516380Y-198159619D01*
X137516380Y-198064380D01*
X137468761Y-197969142D01*
X137421142Y-197921523D01*
X137325904Y-197873904D01*
X137135428Y-197826285D01*
X136897333Y-197826285D01*
X136706857Y-197873904D01*
X136611619Y-197921523D01*
X136564000Y-197969142D01*
X136516380Y-198064380D01*
X136516380Y-199302476D02*
X136516380Y-198826285D01*
X136992571Y-198778666D01*
X136944952Y-198826285D01*
X136897333Y-198921523D01*
X136897333Y-199159619D01*
X136944952Y-199254857D01*
X136992571Y-199302476D01*
X137087809Y-199350095D01*
X137325904Y-199350095D01*
X137421142Y-199302476D01*
X137468761Y-199254857D01*
X137516380Y-199159619D01*
X137516380Y-198921523D01*
X137468761Y-198826285D01*
X137421142Y-198778666D01*
X80366880Y-195921523D02*
X79366880Y-195921523D01*
X79366880Y-196159619D01*
X79414500Y-196302476D01*
X79509738Y-196397714D01*
X79604976Y-196445333D01*
X79795452Y-196492952D01*
X79938309Y-196492952D01*
X80128785Y-196445333D01*
X80224023Y-196397714D01*
X80319261Y-196302476D01*
X80366880Y-196159619D01*
X80366880Y-195921523D01*
X80366880Y-197445333D02*
X80366880Y-196873904D01*
X80366880Y-197159619D02*
X79366880Y-197159619D01*
X79509738Y-197064380D01*
X79604976Y-196969142D01*
X79652595Y-196873904D01*
X79366880Y-198064380D02*
X79366880Y-198159619D01*
X79414500Y-198254857D01*
X79462119Y-198302476D01*
X79557357Y-198350095D01*
X79747833Y-198397714D01*
X79985928Y-198397714D01*
X80176404Y-198350095D01*
X80271642Y-198302476D01*
X80319261Y-198254857D01*
X80366880Y-198159619D01*
X80366880Y-198064380D01*
X80319261Y-197969142D01*
X80271642Y-197921523D01*
X80176404Y-197873904D01*
X79985928Y-197826285D01*
X79747833Y-197826285D01*
X79557357Y-197873904D01*
X79462119Y-197921523D01*
X79414500Y-197969142D01*
X79366880Y-198064380D01*
X79462119Y-198778666D02*
X79414500Y-198826285D01*
X79366880Y-198921523D01*
X79366880Y-199159619D01*
X79414500Y-199254857D01*
X79462119Y-199302476D01*
X79557357Y-199350095D01*
X79652595Y-199350095D01*
X79795452Y-199302476D01*
X80366880Y-198731047D01*
X80366880Y-199350095D01*
X213716380Y-195921523D02*
X212716380Y-195921523D01*
X212716380Y-196159619D01*
X212764000Y-196302476D01*
X212859238Y-196397714D01*
X212954476Y-196445333D01*
X213144952Y-196492952D01*
X213287809Y-196492952D01*
X213478285Y-196445333D01*
X213573523Y-196397714D01*
X213668761Y-196302476D01*
X213716380Y-196159619D01*
X213716380Y-195921523D01*
X213716380Y-197445333D02*
X213716380Y-196873904D01*
X213716380Y-197159619D02*
X212716380Y-197159619D01*
X212859238Y-197064380D01*
X212954476Y-196969142D01*
X213002095Y-196873904D01*
X212716380Y-198064380D02*
X212716380Y-198159619D01*
X212764000Y-198254857D01*
X212811619Y-198302476D01*
X212906857Y-198350095D01*
X213097333Y-198397714D01*
X213335428Y-198397714D01*
X213525904Y-198350095D01*
X213621142Y-198302476D01*
X213668761Y-198254857D01*
X213716380Y-198159619D01*
X213716380Y-198064380D01*
X213668761Y-197969142D01*
X213621142Y-197921523D01*
X213525904Y-197873904D01*
X213335428Y-197826285D01*
X213097333Y-197826285D01*
X212906857Y-197873904D01*
X212811619Y-197921523D01*
X212764000Y-197969142D01*
X212716380Y-198064380D01*
X213716380Y-198873904D02*
X213716380Y-199064380D01*
X213668761Y-199159619D01*
X213621142Y-199207238D01*
X213478285Y-199302476D01*
X213287809Y-199350095D01*
X212906857Y-199350095D01*
X212811619Y-199302476D01*
X212764000Y-199254857D01*
X212716380Y-199159619D01*
X212716380Y-198969142D01*
X212764000Y-198873904D01*
X212811619Y-198826285D01*
X212906857Y-198778666D01*
X213144952Y-198778666D01*
X213240190Y-198826285D01*
X213287809Y-198873904D01*
X213335428Y-198969142D01*
X213335428Y-199159619D01*
X213287809Y-199254857D01*
X213240190Y-199302476D01*
X213144952Y-199350095D01*
X332716380Y-233894523D02*
X331716380Y-233894523D01*
X331716380Y-234132619D01*
X331764000Y-234275476D01*
X331859238Y-234370714D01*
X331954476Y-234418333D01*
X332144952Y-234465952D01*
X332287809Y-234465952D01*
X332478285Y-234418333D01*
X332573523Y-234370714D01*
X332668761Y-234275476D01*
X332716380Y-234132619D01*
X332716380Y-233894523D01*
X332716380Y-235418333D02*
X332716380Y-234846904D01*
X332716380Y-235132619D02*
X331716380Y-235132619D01*
X331859238Y-235037380D01*
X331954476Y-234942142D01*
X332002095Y-234846904D01*
X331716380Y-235751666D02*
X331716380Y-236418333D01*
X332716380Y-235989761D01*
X331716380Y-237227857D02*
X331716380Y-237037380D01*
X331764000Y-236942142D01*
X331811619Y-236894523D01*
X331954476Y-236799285D01*
X332144952Y-236751666D01*
X332525904Y-236751666D01*
X332621142Y-236799285D01*
X332668761Y-236846904D01*
X332716380Y-236942142D01*
X332716380Y-237132619D01*
X332668761Y-237227857D01*
X332621142Y-237275476D01*
X332525904Y-237323095D01*
X332287809Y-237323095D01*
X332192571Y-237275476D01*
X332144952Y-237227857D01*
X332097333Y-237132619D01*
X332097333Y-236942142D01*
X332144952Y-236846904D01*
X332192571Y-236799285D01*
X332287809Y-236751666D01*
X199366380Y-158297714D02*
X198366380Y-158297714D01*
X198366380Y-158535809D01*
X198414000Y-158678666D01*
X198509238Y-158773904D01*
X198604476Y-158821523D01*
X198794952Y-158869142D01*
X198937809Y-158869142D01*
X199128285Y-158821523D01*
X199223523Y-158773904D01*
X199318761Y-158678666D01*
X199366380Y-158535809D01*
X199366380Y-158297714D01*
X198699714Y-159726285D02*
X199366380Y-159726285D01*
X198318761Y-159488190D02*
X199033047Y-159250095D01*
X199033047Y-159869142D01*
X199366380Y-160773904D02*
X199366380Y-160202476D01*
X199366380Y-160488190D02*
X198366380Y-160488190D01*
X198509238Y-160392952D01*
X198604476Y-160297714D01*
X198652095Y-160202476D01*
X256516380Y-158297714D02*
X255516380Y-158297714D01*
X255516380Y-158535809D01*
X255564000Y-158678666D01*
X255659238Y-158773904D01*
X255754476Y-158821523D01*
X255944952Y-158869142D01*
X256087809Y-158869142D01*
X256278285Y-158821523D01*
X256373523Y-158773904D01*
X256468761Y-158678666D01*
X256516380Y-158535809D01*
X256516380Y-158297714D01*
X255849714Y-159726285D02*
X256516380Y-159726285D01*
X255468761Y-159488190D02*
X256183047Y-159250095D01*
X256183047Y-159869142D01*
X255849714Y-160678666D02*
X256516380Y-160678666D01*
X255468761Y-160440571D02*
X256183047Y-160202476D01*
X256183047Y-160821523D01*
X232640380Y-233894523D02*
X231640380Y-233894523D01*
X231640380Y-234132619D01*
X231688000Y-234275476D01*
X231783238Y-234370714D01*
X231878476Y-234418333D01*
X232068952Y-234465952D01*
X232211809Y-234465952D01*
X232402285Y-234418333D01*
X232497523Y-234370714D01*
X232592761Y-234275476D01*
X232640380Y-234132619D01*
X232640380Y-233894523D01*
X232640380Y-235418333D02*
X232640380Y-234846904D01*
X232640380Y-235132619D02*
X231640380Y-235132619D01*
X231783238Y-235037380D01*
X231878476Y-234942142D01*
X231926095Y-234846904D01*
X231640380Y-235751666D02*
X231640380Y-236418333D01*
X232640380Y-235989761D01*
X232640380Y-237323095D02*
X232640380Y-236751666D01*
X232640380Y-237037380D02*
X231640380Y-237037380D01*
X231783238Y-236942142D01*
X231878476Y-236846904D01*
X231926095Y-236751666D01*
X142216380Y-214717523D02*
X141216380Y-214717523D01*
X141216380Y-214955619D01*
X141264000Y-215098476D01*
X141359238Y-215193714D01*
X141454476Y-215241333D01*
X141644952Y-215288952D01*
X141787809Y-215288952D01*
X141978285Y-215241333D01*
X142073523Y-215193714D01*
X142168761Y-215098476D01*
X142216380Y-214955619D01*
X142216380Y-214717523D01*
X142216380Y-216241333D02*
X142216380Y-215669904D01*
X142216380Y-215955619D02*
X141216380Y-215955619D01*
X141359238Y-215860380D01*
X141454476Y-215765142D01*
X141502095Y-215669904D01*
X141216380Y-216574666D02*
X141216380Y-217193714D01*
X141597333Y-216860380D01*
X141597333Y-217003238D01*
X141644952Y-217098476D01*
X141692571Y-217146095D01*
X141787809Y-217193714D01*
X142025904Y-217193714D01*
X142121142Y-217146095D01*
X142168761Y-217098476D01*
X142216380Y-217003238D01*
X142216380Y-216717523D01*
X142168761Y-216622285D01*
X142121142Y-216574666D01*
X141216380Y-217527047D02*
X141216380Y-218193714D01*
X142216380Y-217765142D01*
X180442380Y-158297714D02*
X179442380Y-158297714D01*
X179442380Y-158535809D01*
X179490000Y-158678666D01*
X179585238Y-158773904D01*
X179680476Y-158821523D01*
X179870952Y-158869142D01*
X180013809Y-158869142D01*
X180204285Y-158821523D01*
X180299523Y-158773904D01*
X180394761Y-158678666D01*
X180442380Y-158535809D01*
X180442380Y-158297714D01*
X179775714Y-159726285D02*
X180442380Y-159726285D01*
X179394761Y-159488190D02*
X180109047Y-159250095D01*
X180109047Y-159869142D01*
X179442380Y-160440571D02*
X179442380Y-160535809D01*
X179490000Y-160631047D01*
X179537619Y-160678666D01*
X179632857Y-160726285D01*
X179823333Y-160773904D01*
X180061428Y-160773904D01*
X180251904Y-160726285D01*
X180347142Y-160678666D01*
X180394761Y-160631047D01*
X180442380Y-160535809D01*
X180442380Y-160440571D01*
X180394761Y-160345333D01*
X180347142Y-160297714D01*
X180251904Y-160250095D01*
X180061428Y-160202476D01*
X179823333Y-160202476D01*
X179632857Y-160250095D01*
X179537619Y-160297714D01*
X179490000Y-160345333D01*
X179442380Y-160440571D01*
X273152380Y-233894523D02*
X272152380Y-233894523D01*
X272152380Y-234132619D01*
X272200000Y-234275476D01*
X272295238Y-234370714D01*
X272390476Y-234418333D01*
X272580952Y-234465952D01*
X272723809Y-234465952D01*
X272914285Y-234418333D01*
X273009523Y-234370714D01*
X273104761Y-234275476D01*
X273152380Y-234132619D01*
X273152380Y-233894523D01*
X273152380Y-235418333D02*
X273152380Y-234846904D01*
X273152380Y-235132619D02*
X272152380Y-235132619D01*
X272295238Y-235037380D01*
X272390476Y-234942142D01*
X272438095Y-234846904D01*
X272152380Y-235751666D02*
X272152380Y-236418333D01*
X273152380Y-235989761D01*
X272152380Y-236704047D02*
X272152380Y-237323095D01*
X272533333Y-236989761D01*
X272533333Y-237132619D01*
X272580952Y-237227857D01*
X272628571Y-237275476D01*
X272723809Y-237323095D01*
X272961904Y-237323095D01*
X273057142Y-237275476D01*
X273104761Y-237227857D01*
X273152380Y-237132619D01*
X273152380Y-236846904D01*
X273104761Y-236751666D01*
X273057142Y-236704047D01*
X251690380Y-233894523D02*
X250690380Y-233894523D01*
X250690380Y-234132619D01*
X250738000Y-234275476D01*
X250833238Y-234370714D01*
X250928476Y-234418333D01*
X251118952Y-234465952D01*
X251261809Y-234465952D01*
X251452285Y-234418333D01*
X251547523Y-234370714D01*
X251642761Y-234275476D01*
X251690380Y-234132619D01*
X251690380Y-233894523D01*
X251690380Y-235418333D02*
X251690380Y-234846904D01*
X251690380Y-235132619D02*
X250690380Y-235132619D01*
X250833238Y-235037380D01*
X250928476Y-234942142D01*
X250976095Y-234846904D01*
X250690380Y-235751666D02*
X250690380Y-236418333D01*
X251690380Y-235989761D01*
X250785619Y-236751666D02*
X250738000Y-236799285D01*
X250690380Y-236894523D01*
X250690380Y-237132619D01*
X250738000Y-237227857D01*
X250785619Y-237275476D01*
X250880857Y-237323095D01*
X250976095Y-237323095D01*
X251118952Y-237275476D01*
X251690380Y-236704047D01*
X251690380Y-237323095D01*
X275566380Y-214717523D02*
X274566380Y-214717523D01*
X274566380Y-214955619D01*
X274614000Y-215098476D01*
X274709238Y-215193714D01*
X274804476Y-215241333D01*
X274994952Y-215288952D01*
X275137809Y-215288952D01*
X275328285Y-215241333D01*
X275423523Y-215193714D01*
X275518761Y-215098476D01*
X275566380Y-214955619D01*
X275566380Y-214717523D01*
X275566380Y-216241333D02*
X275566380Y-215669904D01*
X275566380Y-215955619D02*
X274566380Y-215955619D01*
X274709238Y-215860380D01*
X274804476Y-215765142D01*
X274852095Y-215669904D01*
X274899714Y-217098476D02*
X275566380Y-217098476D01*
X274518761Y-216860380D02*
X275233047Y-216622285D01*
X275233047Y-217241333D01*
X274899714Y-218050857D02*
X275566380Y-218050857D01*
X274518761Y-217812761D02*
X275233047Y-217574666D01*
X275233047Y-218193714D01*
X237466380Y-158297714D02*
X236466380Y-158297714D01*
X236466380Y-158535809D01*
X236514000Y-158678666D01*
X236609238Y-158773904D01*
X236704476Y-158821523D01*
X236894952Y-158869142D01*
X237037809Y-158869142D01*
X237228285Y-158821523D01*
X237323523Y-158773904D01*
X237418761Y-158678666D01*
X237466380Y-158535809D01*
X237466380Y-158297714D01*
X236799714Y-159726285D02*
X237466380Y-159726285D01*
X236418761Y-159488190D02*
X237133047Y-159250095D01*
X237133047Y-159869142D01*
X236466380Y-160154857D02*
X236466380Y-160773904D01*
X236847333Y-160440571D01*
X236847333Y-160583428D01*
X236894952Y-160678666D01*
X236942571Y-160726285D01*
X237037809Y-160773904D01*
X237275904Y-160773904D01*
X237371142Y-160726285D01*
X237418761Y-160678666D01*
X237466380Y-160583428D01*
X237466380Y-160297714D01*
X237418761Y-160202476D01*
X237371142Y-160154857D01*
X302140380Y-154233714D02*
X301140380Y-154233714D01*
X301140380Y-154471809D01*
X301188000Y-154614666D01*
X301283238Y-154709904D01*
X301378476Y-154757523D01*
X301568952Y-154805142D01*
X301711809Y-154805142D01*
X301902285Y-154757523D01*
X301997523Y-154709904D01*
X302092761Y-154614666D01*
X302140380Y-154471809D01*
X302140380Y-154233714D01*
X301473714Y-155662285D02*
X302140380Y-155662285D01*
X301092761Y-155424190D02*
X301807047Y-155186095D01*
X301807047Y-155805142D01*
X301140380Y-156614666D02*
X301140380Y-156424190D01*
X301188000Y-156328952D01*
X301235619Y-156281333D01*
X301378476Y-156186095D01*
X301568952Y-156138476D01*
X301949904Y-156138476D01*
X302045142Y-156186095D01*
X302092761Y-156233714D01*
X302140380Y-156328952D01*
X302140380Y-156519428D01*
X302092761Y-156614666D01*
X302045142Y-156662285D01*
X301949904Y-156709904D01*
X301711809Y-156709904D01*
X301616571Y-156662285D01*
X301568952Y-156614666D01*
X301521333Y-156519428D01*
X301521333Y-156328952D01*
X301568952Y-156233714D01*
X301616571Y-156186095D01*
X301711809Y-156138476D01*
X66015880Y-158298714D02*
X65015880Y-158298714D01*
X65015880Y-158536809D01*
X65063500Y-158679666D01*
X65158738Y-158774904D01*
X65253976Y-158822523D01*
X65444452Y-158870142D01*
X65587309Y-158870142D01*
X65777785Y-158822523D01*
X65873023Y-158774904D01*
X65968261Y-158679666D01*
X66015880Y-158536809D01*
X66015880Y-158298714D01*
X65015880Y-159203476D02*
X65015880Y-159822523D01*
X65396833Y-159489190D01*
X65396833Y-159632047D01*
X65444452Y-159727285D01*
X65492071Y-159774904D01*
X65587309Y-159822523D01*
X65825404Y-159822523D01*
X65920642Y-159774904D01*
X65968261Y-159727285D01*
X66015880Y-159632047D01*
X66015880Y-159346333D01*
X65968261Y-159251095D01*
X65920642Y-159203476D01*
X65349214Y-160679666D02*
X66015880Y-160679666D01*
X64968261Y-160441571D02*
X65682547Y-160203476D01*
X65682547Y-160822523D01*
X161266380Y-158297714D02*
X160266380Y-158297714D01*
X160266380Y-158535809D01*
X160314000Y-158678666D01*
X160409238Y-158773904D01*
X160504476Y-158821523D01*
X160694952Y-158869142D01*
X160837809Y-158869142D01*
X161028285Y-158821523D01*
X161123523Y-158773904D01*
X161218761Y-158678666D01*
X161266380Y-158535809D01*
X161266380Y-158297714D01*
X160266380Y-159202476D02*
X160266380Y-159821523D01*
X160647333Y-159488190D01*
X160647333Y-159631047D01*
X160694952Y-159726285D01*
X160742571Y-159773904D01*
X160837809Y-159821523D01*
X161075904Y-159821523D01*
X161171142Y-159773904D01*
X161218761Y-159726285D01*
X161266380Y-159631047D01*
X161266380Y-159345333D01*
X161218761Y-159250095D01*
X161171142Y-159202476D01*
X161266380Y-160297714D02*
X161266380Y-160488190D01*
X161218761Y-160583428D01*
X161171142Y-160631047D01*
X161028285Y-160726285D01*
X160837809Y-160773904D01*
X160456857Y-160773904D01*
X160361619Y-160726285D01*
X160314000Y-160678666D01*
X160266380Y-160583428D01*
X160266380Y-160392952D01*
X160314000Y-160297714D01*
X160361619Y-160250095D01*
X160456857Y-160202476D01*
X160694952Y-160202476D01*
X160790190Y-160250095D01*
X160837809Y-160297714D01*
X160885428Y-160392952D01*
X160885428Y-160583428D01*
X160837809Y-160678666D01*
X160790190Y-160726285D01*
X160694952Y-160773904D01*
X351766380Y-158297714D02*
X350766380Y-158297714D01*
X350766380Y-158535809D01*
X350814000Y-158678666D01*
X350909238Y-158773904D01*
X351004476Y-158821523D01*
X351194952Y-158869142D01*
X351337809Y-158869142D01*
X351528285Y-158821523D01*
X351623523Y-158773904D01*
X351718761Y-158678666D01*
X351766380Y-158535809D01*
X351766380Y-158297714D01*
X351099714Y-159726285D02*
X351766380Y-159726285D01*
X350718761Y-159488190D02*
X351433047Y-159250095D01*
X351433047Y-159869142D01*
X351194952Y-160392952D02*
X351147333Y-160297714D01*
X351099714Y-160250095D01*
X351004476Y-160202476D01*
X350956857Y-160202476D01*
X350861619Y-160250095D01*
X350814000Y-160297714D01*
X350766380Y-160392952D01*
X350766380Y-160583428D01*
X350814000Y-160678666D01*
X350861619Y-160726285D01*
X350956857Y-160773904D01*
X351004476Y-160773904D01*
X351099714Y-160726285D01*
X351147333Y-160678666D01*
X351194952Y-160583428D01*
X351194952Y-160392952D01*
X351242571Y-160297714D01*
X351290190Y-160250095D01*
X351385428Y-160202476D01*
X351575904Y-160202476D01*
X351671142Y-160250095D01*
X351718761Y-160297714D01*
X351766380Y-160392952D01*
X351766380Y-160583428D01*
X351718761Y-160678666D01*
X351671142Y-160726285D01*
X351575904Y-160773904D01*
X351385428Y-160773904D01*
X351290190Y-160726285D01*
X351242571Y-160678666D01*
X351194952Y-160583428D01*
X123166380Y-158297714D02*
X122166380Y-158297714D01*
X122166380Y-158535809D01*
X122214000Y-158678666D01*
X122309238Y-158773904D01*
X122404476Y-158821523D01*
X122594952Y-158869142D01*
X122737809Y-158869142D01*
X122928285Y-158821523D01*
X123023523Y-158773904D01*
X123118761Y-158678666D01*
X123166380Y-158535809D01*
X123166380Y-158297714D01*
X122166380Y-159202476D02*
X122166380Y-159821523D01*
X122547333Y-159488190D01*
X122547333Y-159631047D01*
X122594952Y-159726285D01*
X122642571Y-159773904D01*
X122737809Y-159821523D01*
X122975904Y-159821523D01*
X123071142Y-159773904D01*
X123118761Y-159726285D01*
X123166380Y-159631047D01*
X123166380Y-159345333D01*
X123118761Y-159250095D01*
X123071142Y-159202476D01*
X122166380Y-160154857D02*
X122166380Y-160821523D01*
X123166380Y-160392952D01*
X85065880Y-158297714D02*
X84065880Y-158297714D01*
X84065880Y-158535809D01*
X84113500Y-158678666D01*
X84208738Y-158773904D01*
X84303976Y-158821523D01*
X84494452Y-158869142D01*
X84637309Y-158869142D01*
X84827785Y-158821523D01*
X84923023Y-158773904D01*
X85018261Y-158678666D01*
X85065880Y-158535809D01*
X85065880Y-158297714D01*
X84065880Y-159202476D02*
X84065880Y-159821523D01*
X84446833Y-159488190D01*
X84446833Y-159631047D01*
X84494452Y-159726285D01*
X84542071Y-159773904D01*
X84637309Y-159821523D01*
X84875404Y-159821523D01*
X84970642Y-159773904D01*
X85018261Y-159726285D01*
X85065880Y-159631047D01*
X85065880Y-159345333D01*
X85018261Y-159250095D01*
X84970642Y-159202476D01*
X84065880Y-160726285D02*
X84065880Y-160250095D01*
X84542071Y-160202476D01*
X84494452Y-160250095D01*
X84446833Y-160345333D01*
X84446833Y-160583428D01*
X84494452Y-160678666D01*
X84542071Y-160726285D01*
X84637309Y-160773904D01*
X84875404Y-160773904D01*
X84970642Y-160726285D01*
X85018261Y-160678666D01*
X85065880Y-160583428D01*
X85065880Y-160345333D01*
X85018261Y-160250095D01*
X84970642Y-160202476D01*
X294616380Y-233894523D02*
X293616380Y-233894523D01*
X293616380Y-234132619D01*
X293664000Y-234275476D01*
X293759238Y-234370714D01*
X293854476Y-234418333D01*
X294044952Y-234465952D01*
X294187809Y-234465952D01*
X294378285Y-234418333D01*
X294473523Y-234370714D01*
X294568761Y-234275476D01*
X294616380Y-234132619D01*
X294616380Y-233894523D01*
X294616380Y-235418333D02*
X294616380Y-234846904D01*
X294616380Y-235132619D02*
X293616380Y-235132619D01*
X293759238Y-235037380D01*
X293854476Y-234942142D01*
X293902095Y-234846904D01*
X293616380Y-235751666D02*
X293616380Y-236418333D01*
X294616380Y-235989761D01*
X293949714Y-237227857D02*
X294616380Y-237227857D01*
X293568761Y-236989761D02*
X294283047Y-236751666D01*
X294283047Y-237370714D01*
X142216380Y-158297714D02*
X141216380Y-158297714D01*
X141216380Y-158535809D01*
X141264000Y-158678666D01*
X141359238Y-158773904D01*
X141454476Y-158821523D01*
X141644952Y-158869142D01*
X141787809Y-158869142D01*
X141978285Y-158821523D01*
X142073523Y-158773904D01*
X142168761Y-158678666D01*
X142216380Y-158535809D01*
X142216380Y-158297714D01*
X141216380Y-159202476D02*
X141216380Y-159821523D01*
X141597333Y-159488190D01*
X141597333Y-159631047D01*
X141644952Y-159726285D01*
X141692571Y-159773904D01*
X141787809Y-159821523D01*
X142025904Y-159821523D01*
X142121142Y-159773904D01*
X142168761Y-159726285D01*
X142216380Y-159631047D01*
X142216380Y-159345333D01*
X142168761Y-159250095D01*
X142121142Y-159202476D01*
X141644952Y-160392952D02*
X141597333Y-160297714D01*
X141549714Y-160250095D01*
X141454476Y-160202476D01*
X141406857Y-160202476D01*
X141311619Y-160250095D01*
X141264000Y-160297714D01*
X141216380Y-160392952D01*
X141216380Y-160583428D01*
X141264000Y-160678666D01*
X141311619Y-160726285D01*
X141406857Y-160773904D01*
X141454476Y-160773904D01*
X141549714Y-160726285D01*
X141597333Y-160678666D01*
X141644952Y-160583428D01*
X141644952Y-160392952D01*
X141692571Y-160297714D01*
X141740190Y-160250095D01*
X141835428Y-160202476D01*
X142025904Y-160202476D01*
X142121142Y-160250095D01*
X142168761Y-160297714D01*
X142216380Y-160392952D01*
X142216380Y-160583428D01*
X142168761Y-160678666D01*
X142121142Y-160726285D01*
X142025904Y-160773904D01*
X141835428Y-160773904D01*
X141740190Y-160726285D01*
X141692571Y-160678666D01*
X141644952Y-160583428D01*
X104116380Y-158297714D02*
X103116380Y-158297714D01*
X103116380Y-158535809D01*
X103164000Y-158678666D01*
X103259238Y-158773904D01*
X103354476Y-158821523D01*
X103544952Y-158869142D01*
X103687809Y-158869142D01*
X103878285Y-158821523D01*
X103973523Y-158773904D01*
X104068761Y-158678666D01*
X104116380Y-158535809D01*
X104116380Y-158297714D01*
X103116380Y-159202476D02*
X103116380Y-159821523D01*
X103497333Y-159488190D01*
X103497333Y-159631047D01*
X103544952Y-159726285D01*
X103592571Y-159773904D01*
X103687809Y-159821523D01*
X103925904Y-159821523D01*
X104021142Y-159773904D01*
X104068761Y-159726285D01*
X104116380Y-159631047D01*
X104116380Y-159345333D01*
X104068761Y-159250095D01*
X104021142Y-159202476D01*
X103116380Y-160678666D02*
X103116380Y-160488190D01*
X103164000Y-160392952D01*
X103211619Y-160345333D01*
X103354476Y-160250095D01*
X103544952Y-160202476D01*
X103925904Y-160202476D01*
X104021142Y-160250095D01*
X104068761Y-160297714D01*
X104116380Y-160392952D01*
X104116380Y-160583428D01*
X104068761Y-160678666D01*
X104021142Y-160726285D01*
X103925904Y-160773904D01*
X103687809Y-160773904D01*
X103592571Y-160726285D01*
X103544952Y-160678666D01*
X103497333Y-160583428D01*
X103497333Y-160392952D01*
X103544952Y-160297714D01*
X103592571Y-160250095D01*
X103687809Y-160202476D01*
X332716380Y-158297714D02*
X331716380Y-158297714D01*
X331716380Y-158535809D01*
X331764000Y-158678666D01*
X331859238Y-158773904D01*
X331954476Y-158821523D01*
X332144952Y-158869142D01*
X332287809Y-158869142D01*
X332478285Y-158821523D01*
X332573523Y-158773904D01*
X332668761Y-158678666D01*
X332716380Y-158535809D01*
X332716380Y-158297714D01*
X332049714Y-159726285D02*
X332716380Y-159726285D01*
X331668761Y-159488190D02*
X332383047Y-159250095D01*
X332383047Y-159869142D01*
X331716380Y-160154857D02*
X331716380Y-160821523D01*
X332716380Y-160392952D01*
X313666380Y-233894523D02*
X312666380Y-233894523D01*
X312666380Y-234132619D01*
X312714000Y-234275476D01*
X312809238Y-234370714D01*
X312904476Y-234418333D01*
X313094952Y-234465952D01*
X313237809Y-234465952D01*
X313428285Y-234418333D01*
X313523523Y-234370714D01*
X313618761Y-234275476D01*
X313666380Y-234132619D01*
X313666380Y-233894523D01*
X313666380Y-235418333D02*
X313666380Y-234846904D01*
X313666380Y-235132619D02*
X312666380Y-235132619D01*
X312809238Y-235037380D01*
X312904476Y-234942142D01*
X312952095Y-234846904D01*
X312666380Y-235751666D02*
X312666380Y-236418333D01*
X313666380Y-235989761D01*
X312666380Y-237275476D02*
X312666380Y-236799285D01*
X313142571Y-236751666D01*
X313094952Y-236799285D01*
X313047333Y-236894523D01*
X313047333Y-237132619D01*
X313094952Y-237227857D01*
X313142571Y-237275476D01*
X313237809Y-237323095D01*
X313475904Y-237323095D01*
X313571142Y-237275476D01*
X313618761Y-237227857D01*
X313666380Y-237132619D01*
X313666380Y-236894523D01*
X313618761Y-236799285D01*
X313571142Y-236751666D01*
X163552380Y-233894523D02*
X162552380Y-233894523D01*
X162552380Y-234132619D01*
X162600000Y-234275476D01*
X162695238Y-234370714D01*
X162790476Y-234418333D01*
X162980952Y-234465952D01*
X163123809Y-234465952D01*
X163314285Y-234418333D01*
X163409523Y-234370714D01*
X163504761Y-234275476D01*
X163552380Y-234132619D01*
X163552380Y-233894523D01*
X163552380Y-235418333D02*
X163552380Y-234846904D01*
X163552380Y-235132619D02*
X162552380Y-235132619D01*
X162695238Y-235037380D01*
X162790476Y-234942142D01*
X162838095Y-234846904D01*
X162552380Y-235751666D02*
X162552380Y-236418333D01*
X163552380Y-235989761D01*
X162552380Y-236989761D02*
X162552380Y-237085000D01*
X162600000Y-237180238D01*
X162647619Y-237227857D01*
X162742857Y-237275476D01*
X162933333Y-237323095D01*
X163171428Y-237323095D01*
X163361904Y-237275476D01*
X163457142Y-237227857D01*
X163504761Y-237180238D01*
X163552380Y-237085000D01*
X163552380Y-236989761D01*
X163504761Y-236894523D01*
X163457142Y-236846904D01*
X163361904Y-236799285D01*
X163171428Y-236751666D01*
X162933333Y-236751666D01*
X162742857Y-236799285D01*
X162647619Y-236846904D01*
X162600000Y-236894523D01*
X162552380Y-236989761D01*
X218416380Y-158297714D02*
X217416380Y-158297714D01*
X217416380Y-158535809D01*
X217464000Y-158678666D01*
X217559238Y-158773904D01*
X217654476Y-158821523D01*
X217844952Y-158869142D01*
X217987809Y-158869142D01*
X218178285Y-158821523D01*
X218273523Y-158773904D01*
X218368761Y-158678666D01*
X218416380Y-158535809D01*
X218416380Y-158297714D01*
X217749714Y-159726285D02*
X218416380Y-159726285D01*
X217368761Y-159488190D02*
X218083047Y-159250095D01*
X218083047Y-159869142D01*
X217511619Y-160202476D02*
X217464000Y-160250095D01*
X217416380Y-160345333D01*
X217416380Y-160583428D01*
X217464000Y-160678666D01*
X217511619Y-160726285D01*
X217606857Y-160773904D01*
X217702095Y-160773904D01*
X217844952Y-160726285D01*
X218416380Y-160154857D01*
X218416380Y-160773904D01*
X275566380Y-158297714D02*
X274566380Y-158297714D01*
X274566380Y-158535809D01*
X274614000Y-158678666D01*
X274709238Y-158773904D01*
X274804476Y-158821523D01*
X274994952Y-158869142D01*
X275137809Y-158869142D01*
X275328285Y-158821523D01*
X275423523Y-158773904D01*
X275518761Y-158678666D01*
X275566380Y-158535809D01*
X275566380Y-158297714D01*
X274899714Y-159726285D02*
X275566380Y-159726285D01*
X274518761Y-159488190D02*
X275233047Y-159250095D01*
X275233047Y-159869142D01*
X274566380Y-160726285D02*
X274566380Y-160250095D01*
X275042571Y-160202476D01*
X274994952Y-160250095D01*
X274947333Y-160345333D01*
X274947333Y-160583428D01*
X274994952Y-160678666D01*
X275042571Y-160726285D01*
X275137809Y-160773904D01*
X275375904Y-160773904D01*
X275471142Y-160726285D01*
X275518761Y-160678666D01*
X275566380Y-160583428D01*
X275566380Y-160345333D01*
X275518761Y-160250095D01*
X275471142Y-160202476D01*
X370688380Y-158551714D02*
X369688380Y-158551714D01*
X369688380Y-158789809D01*
X369736000Y-158932666D01*
X369831238Y-159027904D01*
X369926476Y-159075523D01*
X370116952Y-159123142D01*
X370259809Y-159123142D01*
X370450285Y-159075523D01*
X370545523Y-159027904D01*
X370640761Y-158932666D01*
X370688380Y-158789809D01*
X370688380Y-158551714D01*
X369688380Y-159980285D02*
X369688380Y-159789809D01*
X369736000Y-159694571D01*
X369783619Y-159646952D01*
X369926476Y-159551714D01*
X370116952Y-159504095D01*
X370497904Y-159504095D01*
X370593142Y-159551714D01*
X370640761Y-159599333D01*
X370688380Y-159694571D01*
X370688380Y-159885047D01*
X370640761Y-159980285D01*
X370593142Y-160027904D01*
X370497904Y-160075523D01*
X370259809Y-160075523D01*
X370164571Y-160027904D01*
X370116952Y-159980285D01*
X370069333Y-159885047D01*
X370069333Y-159694571D01*
X370116952Y-159599333D01*
X370164571Y-159551714D01*
X370259809Y-159504095D01*
X369688380Y-160980285D02*
X369688380Y-160504095D01*
X370164571Y-160456476D01*
X370116952Y-160504095D01*
X370069333Y-160599333D01*
X370069333Y-160837428D01*
X370116952Y-160932666D01*
X370164571Y-160980285D01*
X370259809Y-161027904D01*
X370497904Y-161027904D01*
X370593142Y-160980285D01*
X370640761Y-160932666D01*
X370688380Y-160837428D01*
X370688380Y-160599333D01*
X370640761Y-160504095D01*
X370593142Y-160456476D01*
X332716380Y-177474714D02*
X331716380Y-177474714D01*
X331716380Y-177712809D01*
X331764000Y-177855666D01*
X331859238Y-177950904D01*
X331954476Y-177998523D01*
X332144952Y-178046142D01*
X332287809Y-178046142D01*
X332478285Y-177998523D01*
X332573523Y-177950904D01*
X332668761Y-177855666D01*
X332716380Y-177712809D01*
X332716380Y-177474714D01*
X332716380Y-178522333D02*
X332716380Y-178712809D01*
X332668761Y-178808047D01*
X332621142Y-178855666D01*
X332478285Y-178950904D01*
X332287809Y-178998523D01*
X331906857Y-178998523D01*
X331811619Y-178950904D01*
X331764000Y-178903285D01*
X331716380Y-178808047D01*
X331716380Y-178617571D01*
X331764000Y-178522333D01*
X331811619Y-178474714D01*
X331906857Y-178427095D01*
X332144952Y-178427095D01*
X332240190Y-178474714D01*
X332287809Y-178522333D01*
X332335428Y-178617571D01*
X332335428Y-178808047D01*
X332287809Y-178903285D01*
X332240190Y-178950904D01*
X332144952Y-178998523D01*
X331716380Y-179331857D02*
X331716380Y-179998523D01*
X332716380Y-179569952D01*
X387866380Y-154487714D02*
X386866380Y-154487714D01*
X386866380Y-154725809D01*
X386914000Y-154868666D01*
X387009238Y-154963904D01*
X387104476Y-155011523D01*
X387294952Y-155059142D01*
X387437809Y-155059142D01*
X387628285Y-155011523D01*
X387723523Y-154963904D01*
X387818761Y-154868666D01*
X387866380Y-154725809D01*
X387866380Y-154487714D01*
X386866380Y-155916285D02*
X386866380Y-155725809D01*
X386914000Y-155630571D01*
X386961619Y-155582952D01*
X387104476Y-155487714D01*
X387294952Y-155440095D01*
X387675904Y-155440095D01*
X387771142Y-155487714D01*
X387818761Y-155535333D01*
X387866380Y-155630571D01*
X387866380Y-155821047D01*
X387818761Y-155916285D01*
X387771142Y-155963904D01*
X387675904Y-156011523D01*
X387437809Y-156011523D01*
X387342571Y-155963904D01*
X387294952Y-155916285D01*
X387247333Y-155821047D01*
X387247333Y-155630571D01*
X387294952Y-155535333D01*
X387342571Y-155487714D01*
X387437809Y-155440095D01*
X386866380Y-156868666D02*
X386866380Y-156678190D01*
X386914000Y-156582952D01*
X386961619Y-156535333D01*
X387104476Y-156440095D01*
X387294952Y-156392476D01*
X387675904Y-156392476D01*
X387771142Y-156440095D01*
X387818761Y-156487714D01*
X387866380Y-156582952D01*
X387866380Y-156773428D01*
X387818761Y-156868666D01*
X387771142Y-156916285D01*
X387675904Y-156963904D01*
X387437809Y-156963904D01*
X387342571Y-156916285D01*
X387294952Y-156868666D01*
X387247333Y-156773428D01*
X387247333Y-156582952D01*
X387294952Y-156487714D01*
X387342571Y-156440095D01*
X387437809Y-156392476D01*
X94590880Y-177347714D02*
X93590880Y-177347714D01*
X93590880Y-177585809D01*
X93638500Y-177728666D01*
X93733738Y-177823904D01*
X93828976Y-177871523D01*
X94019452Y-177919142D01*
X94162309Y-177919142D01*
X94352785Y-177871523D01*
X94448023Y-177823904D01*
X94543261Y-177728666D01*
X94590880Y-177585809D01*
X94590880Y-177347714D01*
X93590880Y-178776285D02*
X93590880Y-178585809D01*
X93638500Y-178490571D01*
X93686119Y-178442952D01*
X93828976Y-178347714D01*
X94019452Y-178300095D01*
X94400404Y-178300095D01*
X94495642Y-178347714D01*
X94543261Y-178395333D01*
X94590880Y-178490571D01*
X94590880Y-178681047D01*
X94543261Y-178776285D01*
X94495642Y-178823904D01*
X94400404Y-178871523D01*
X94162309Y-178871523D01*
X94067071Y-178823904D01*
X94019452Y-178776285D01*
X93971833Y-178681047D01*
X93971833Y-178490571D01*
X94019452Y-178395333D01*
X94067071Y-178347714D01*
X94162309Y-178300095D01*
X94590880Y-179347714D02*
X94590880Y-179538190D01*
X94543261Y-179633428D01*
X94495642Y-179681047D01*
X94352785Y-179776285D01*
X94162309Y-179823904D01*
X93781357Y-179823904D01*
X93686119Y-179776285D01*
X93638500Y-179728666D01*
X93590880Y-179633428D01*
X93590880Y-179442952D01*
X93638500Y-179347714D01*
X93686119Y-179300095D01*
X93781357Y-179252476D01*
X94019452Y-179252476D01*
X94114690Y-179300095D01*
X94162309Y-179347714D01*
X94209928Y-179442952D01*
X94209928Y-179633428D01*
X94162309Y-179728666D01*
X94114690Y-179776285D01*
X94019452Y-179823904D01*
X151740380Y-177347714D02*
X150740380Y-177347714D01*
X150740380Y-177585809D01*
X150788000Y-177728666D01*
X150883238Y-177823904D01*
X150978476Y-177871523D01*
X151168952Y-177919142D01*
X151311809Y-177919142D01*
X151502285Y-177871523D01*
X151597523Y-177823904D01*
X151692761Y-177728666D01*
X151740380Y-177585809D01*
X151740380Y-177347714D01*
X150740380Y-178252476D02*
X150740380Y-178919142D01*
X151740380Y-178490571D01*
X150835619Y-179252476D02*
X150788000Y-179300095D01*
X150740380Y-179395333D01*
X150740380Y-179633428D01*
X150788000Y-179728666D01*
X150835619Y-179776285D01*
X150930857Y-179823904D01*
X151026095Y-179823904D01*
X151168952Y-179776285D01*
X151740380Y-179204857D01*
X151740380Y-179823904D01*
X266040380Y-177347714D02*
X265040380Y-177347714D01*
X265040380Y-177585809D01*
X265088000Y-177728666D01*
X265183238Y-177823904D01*
X265278476Y-177871523D01*
X265468952Y-177919142D01*
X265611809Y-177919142D01*
X265802285Y-177871523D01*
X265897523Y-177823904D01*
X265992761Y-177728666D01*
X266040380Y-177585809D01*
X266040380Y-177347714D01*
X265040380Y-178252476D02*
X265040380Y-178919142D01*
X266040380Y-178490571D01*
X265468952Y-179442952D02*
X265421333Y-179347714D01*
X265373714Y-179300095D01*
X265278476Y-179252476D01*
X265230857Y-179252476D01*
X265135619Y-179300095D01*
X265088000Y-179347714D01*
X265040380Y-179442952D01*
X265040380Y-179633428D01*
X265088000Y-179728666D01*
X265135619Y-179776285D01*
X265230857Y-179823904D01*
X265278476Y-179823904D01*
X265373714Y-179776285D01*
X265421333Y-179728666D01*
X265468952Y-179633428D01*
X265468952Y-179442952D01*
X265516571Y-179347714D01*
X265564190Y-179300095D01*
X265659428Y-179252476D01*
X265849904Y-179252476D01*
X265945142Y-179300095D01*
X265992761Y-179347714D01*
X266040380Y-179442952D01*
X266040380Y-179633428D01*
X265992761Y-179728666D01*
X265945142Y-179776285D01*
X265849904Y-179823904D01*
X265659428Y-179823904D01*
X265564190Y-179776285D01*
X265516571Y-179728666D01*
X265468952Y-179633428D01*
X208890380Y-177347714D02*
X207890380Y-177347714D01*
X207890380Y-177585809D01*
X207938000Y-177728666D01*
X208033238Y-177823904D01*
X208128476Y-177871523D01*
X208318952Y-177919142D01*
X208461809Y-177919142D01*
X208652285Y-177871523D01*
X208747523Y-177823904D01*
X208842761Y-177728666D01*
X208890380Y-177585809D01*
X208890380Y-177347714D01*
X207890380Y-178252476D02*
X207890380Y-178919142D01*
X208890380Y-178490571D01*
X207890380Y-179776285D02*
X207890380Y-179300095D01*
X208366571Y-179252476D01*
X208318952Y-179300095D01*
X208271333Y-179395333D01*
X208271333Y-179633428D01*
X208318952Y-179728666D01*
X208366571Y-179776285D01*
X208461809Y-179823904D01*
X208699904Y-179823904D01*
X208795142Y-179776285D01*
X208842761Y-179728666D01*
X208890380Y-179633428D01*
X208890380Y-179395333D01*
X208842761Y-179300095D01*
X208795142Y-179252476D01*
X246990380Y-177347714D02*
X245990380Y-177347714D01*
X245990380Y-177585809D01*
X246038000Y-177728666D01*
X246133238Y-177823904D01*
X246228476Y-177871523D01*
X246418952Y-177919142D01*
X246561809Y-177919142D01*
X246752285Y-177871523D01*
X246847523Y-177823904D01*
X246942761Y-177728666D01*
X246990380Y-177585809D01*
X246990380Y-177347714D01*
X245990380Y-178252476D02*
X245990380Y-178919142D01*
X246990380Y-178490571D01*
X245990380Y-179204857D02*
X245990380Y-179871523D01*
X246990380Y-179442952D01*
X227940380Y-177347714D02*
X226940380Y-177347714D01*
X226940380Y-177585809D01*
X226988000Y-177728666D01*
X227083238Y-177823904D01*
X227178476Y-177871523D01*
X227368952Y-177919142D01*
X227511809Y-177919142D01*
X227702285Y-177871523D01*
X227797523Y-177823904D01*
X227892761Y-177728666D01*
X227940380Y-177585809D01*
X227940380Y-177347714D01*
X226940380Y-178252476D02*
X226940380Y-178919142D01*
X227940380Y-178490571D01*
X226940380Y-179728666D02*
X226940380Y-179538190D01*
X226988000Y-179442952D01*
X227035619Y-179395333D01*
X227178476Y-179300095D01*
X227368952Y-179252476D01*
X227749904Y-179252476D01*
X227845142Y-179300095D01*
X227892761Y-179347714D01*
X227940380Y-179442952D01*
X227940380Y-179633428D01*
X227892761Y-179728666D01*
X227845142Y-179776285D01*
X227749904Y-179823904D01*
X227511809Y-179823904D01*
X227416571Y-179776285D01*
X227368952Y-179728666D01*
X227321333Y-179633428D01*
X227321333Y-179442952D01*
X227368952Y-179347714D01*
X227416571Y-179300095D01*
X227511809Y-179252476D01*
X311252380Y-186872714D02*
X310252380Y-186872714D01*
X310252380Y-187110809D01*
X310300000Y-187253666D01*
X310395238Y-187348904D01*
X310490476Y-187396523D01*
X310680952Y-187444142D01*
X310823809Y-187444142D01*
X311014285Y-187396523D01*
X311109523Y-187348904D01*
X311204761Y-187253666D01*
X311252380Y-187110809D01*
X311252380Y-186872714D01*
X310680952Y-188015571D02*
X310633333Y-187920333D01*
X310585714Y-187872714D01*
X310490476Y-187825095D01*
X310442857Y-187825095D01*
X310347619Y-187872714D01*
X310300000Y-187920333D01*
X310252380Y-188015571D01*
X310252380Y-188206047D01*
X310300000Y-188301285D01*
X310347619Y-188348904D01*
X310442857Y-188396523D01*
X310490476Y-188396523D01*
X310585714Y-188348904D01*
X310633333Y-188301285D01*
X310680952Y-188206047D01*
X310680952Y-188015571D01*
X310728571Y-187920333D01*
X310776190Y-187872714D01*
X310871428Y-187825095D01*
X311061904Y-187825095D01*
X311157142Y-187872714D01*
X311204761Y-187920333D01*
X311252380Y-188015571D01*
X311252380Y-188206047D01*
X311204761Y-188301285D01*
X311157142Y-188348904D01*
X311061904Y-188396523D01*
X310871428Y-188396523D01*
X310776190Y-188348904D01*
X310728571Y-188301285D01*
X310680952Y-188206047D01*
X310252380Y-189015571D02*
X310252380Y-189110809D01*
X310300000Y-189206047D01*
X310347619Y-189253666D01*
X310442857Y-189301285D01*
X310633333Y-189348904D01*
X310871428Y-189348904D01*
X311061904Y-189301285D01*
X311157142Y-189253666D01*
X311204761Y-189206047D01*
X311252380Y-189110809D01*
X311252380Y-189015571D01*
X311204761Y-188920333D01*
X311157142Y-188872714D01*
X311061904Y-188825095D01*
X310871428Y-188777476D01*
X310633333Y-188777476D01*
X310442857Y-188825095D01*
X310347619Y-188872714D01*
X310300000Y-188920333D01*
X310252380Y-189015571D01*
X132690380Y-177347714D02*
X131690380Y-177347714D01*
X131690380Y-177585809D01*
X131738000Y-177728666D01*
X131833238Y-177823904D01*
X131928476Y-177871523D01*
X132118952Y-177919142D01*
X132261809Y-177919142D01*
X132452285Y-177871523D01*
X132547523Y-177823904D01*
X132642761Y-177728666D01*
X132690380Y-177585809D01*
X132690380Y-177347714D01*
X131690380Y-178252476D02*
X131690380Y-178919142D01*
X132690380Y-178490571D01*
X132690380Y-179823904D02*
X132690380Y-179252476D01*
X132690380Y-179538190D02*
X131690380Y-179538190D01*
X131833238Y-179442952D01*
X131928476Y-179347714D01*
X131976095Y-179252476D01*
X370752380Y-235195714D02*
X369752380Y-235195714D01*
X369752380Y-235433809D01*
X369800000Y-235576666D01*
X369895238Y-235671904D01*
X369990476Y-235719523D01*
X370180952Y-235767142D01*
X370323809Y-235767142D01*
X370514285Y-235719523D01*
X370609523Y-235671904D01*
X370704761Y-235576666D01*
X370752380Y-235433809D01*
X370752380Y-235195714D01*
X370752380Y-236719523D02*
X370752380Y-236148095D01*
X370752380Y-236433809D02*
X369752380Y-236433809D01*
X369895238Y-236338571D01*
X369990476Y-236243333D01*
X370038095Y-236148095D01*
X369752380Y-237576666D02*
X369752380Y-237386190D01*
X369800000Y-237290952D01*
X369847619Y-237243333D01*
X369990476Y-237148095D01*
X370180952Y-237100476D01*
X370561904Y-237100476D01*
X370657142Y-237148095D01*
X370704761Y-237195714D01*
X370752380Y-237290952D01*
X370752380Y-237481428D01*
X370704761Y-237576666D01*
X370657142Y-237624285D01*
X370561904Y-237671904D01*
X370323809Y-237671904D01*
X370228571Y-237624285D01*
X370180952Y-237576666D01*
X370133333Y-237481428D01*
X370133333Y-237290952D01*
X370180952Y-237195714D01*
X370228571Y-237148095D01*
X370323809Y-237100476D01*
X75540880Y-177347714D02*
X74540880Y-177347714D01*
X74540880Y-177585809D01*
X74588500Y-177728666D01*
X74683738Y-177823904D01*
X74778976Y-177871523D01*
X74969452Y-177919142D01*
X75112309Y-177919142D01*
X75302785Y-177871523D01*
X75398023Y-177823904D01*
X75493261Y-177728666D01*
X75540880Y-177585809D01*
X75540880Y-177347714D01*
X74540880Y-178776285D02*
X74540880Y-178585809D01*
X74588500Y-178490571D01*
X74636119Y-178442952D01*
X74778976Y-178347714D01*
X74969452Y-178300095D01*
X75350404Y-178300095D01*
X75445642Y-178347714D01*
X75493261Y-178395333D01*
X75540880Y-178490571D01*
X75540880Y-178681047D01*
X75493261Y-178776285D01*
X75445642Y-178823904D01*
X75350404Y-178871523D01*
X75112309Y-178871523D01*
X75017071Y-178823904D01*
X74969452Y-178776285D01*
X74921833Y-178681047D01*
X74921833Y-178490571D01*
X74969452Y-178395333D01*
X75017071Y-178347714D01*
X75112309Y-178300095D01*
X74969452Y-179442952D02*
X74921833Y-179347714D01*
X74874214Y-179300095D01*
X74778976Y-179252476D01*
X74731357Y-179252476D01*
X74636119Y-179300095D01*
X74588500Y-179347714D01*
X74540880Y-179442952D01*
X74540880Y-179633428D01*
X74588500Y-179728666D01*
X74636119Y-179776285D01*
X74731357Y-179823904D01*
X74778976Y-179823904D01*
X74874214Y-179776285D01*
X74921833Y-179728666D01*
X74969452Y-179633428D01*
X74969452Y-179442952D01*
X75017071Y-179347714D01*
X75064690Y-179300095D01*
X75159928Y-179252476D01*
X75350404Y-179252476D01*
X75445642Y-179300095D01*
X75493261Y-179347714D01*
X75540880Y-179442952D01*
X75540880Y-179633428D01*
X75493261Y-179728666D01*
X75445642Y-179776285D01*
X75350404Y-179823904D01*
X75159928Y-179823904D01*
X75064690Y-179776285D01*
X75017071Y-179728666D01*
X74969452Y-179633428D01*
X118466380Y-195921523D02*
X117466380Y-195921523D01*
X117466380Y-196159619D01*
X117514000Y-196302476D01*
X117609238Y-196397714D01*
X117704476Y-196445333D01*
X117894952Y-196492952D01*
X118037809Y-196492952D01*
X118228285Y-196445333D01*
X118323523Y-196397714D01*
X118418761Y-196302476D01*
X118466380Y-196159619D01*
X118466380Y-195921523D01*
X118466380Y-197445333D02*
X118466380Y-196873904D01*
X118466380Y-197159619D02*
X117466380Y-197159619D01*
X117609238Y-197064380D01*
X117704476Y-196969142D01*
X117752095Y-196873904D01*
X117466380Y-198064380D02*
X117466380Y-198159619D01*
X117514000Y-198254857D01*
X117561619Y-198302476D01*
X117656857Y-198350095D01*
X117847333Y-198397714D01*
X118085428Y-198397714D01*
X118275904Y-198350095D01*
X118371142Y-198302476D01*
X118418761Y-198254857D01*
X118466380Y-198159619D01*
X118466380Y-198064380D01*
X118418761Y-197969142D01*
X118371142Y-197921523D01*
X118275904Y-197873904D01*
X118085428Y-197826285D01*
X117847333Y-197826285D01*
X117656857Y-197873904D01*
X117561619Y-197921523D01*
X117514000Y-197969142D01*
X117466380Y-198064380D01*
X117799714Y-199254857D02*
X118466380Y-199254857D01*
X117418761Y-199016761D02*
X118133047Y-198778666D01*
X118133047Y-199397714D01*
X189840380Y-177347714D02*
X188840380Y-177347714D01*
X188840380Y-177585809D01*
X188888000Y-177728666D01*
X188983238Y-177823904D01*
X189078476Y-177871523D01*
X189268952Y-177919142D01*
X189411809Y-177919142D01*
X189602285Y-177871523D01*
X189697523Y-177823904D01*
X189792761Y-177728666D01*
X189840380Y-177585809D01*
X189840380Y-177347714D01*
X188840380Y-178252476D02*
X188840380Y-178919142D01*
X189840380Y-178490571D01*
X189173714Y-179728666D02*
X189840380Y-179728666D01*
X188792761Y-179490571D02*
X189507047Y-179252476D01*
X189507047Y-179871523D01*
X270866380Y-195921523D02*
X269866380Y-195921523D01*
X269866380Y-196159619D01*
X269914000Y-196302476D01*
X270009238Y-196397714D01*
X270104476Y-196445333D01*
X270294952Y-196492952D01*
X270437809Y-196492952D01*
X270628285Y-196445333D01*
X270723523Y-196397714D01*
X270818761Y-196302476D01*
X270866380Y-196159619D01*
X270866380Y-195921523D01*
X270866380Y-197445333D02*
X270866380Y-196873904D01*
X270866380Y-197159619D02*
X269866380Y-197159619D01*
X270009238Y-197064380D01*
X270104476Y-196969142D01*
X270152095Y-196873904D01*
X270866380Y-198397714D02*
X270866380Y-197826285D01*
X270866380Y-198112000D02*
X269866380Y-198112000D01*
X270009238Y-198016761D01*
X270104476Y-197921523D01*
X270152095Y-197826285D01*
X269961619Y-198778666D02*
X269914000Y-198826285D01*
X269866380Y-198921523D01*
X269866380Y-199159619D01*
X269914000Y-199254857D01*
X269961619Y-199302476D01*
X270056857Y-199350095D01*
X270152095Y-199350095D01*
X270294952Y-199302476D01*
X270866380Y-198731047D01*
X270866380Y-199350095D01*
X332716380Y-196048523D02*
X331716380Y-196048523D01*
X331716380Y-196286619D01*
X331764000Y-196429476D01*
X331859238Y-196524714D01*
X331954476Y-196572333D01*
X332144952Y-196619952D01*
X332287809Y-196619952D01*
X332478285Y-196572333D01*
X332573523Y-196524714D01*
X332668761Y-196429476D01*
X332716380Y-196286619D01*
X332716380Y-196048523D01*
X332716380Y-197572333D02*
X332716380Y-197000904D01*
X332716380Y-197286619D02*
X331716380Y-197286619D01*
X331859238Y-197191380D01*
X331954476Y-197096142D01*
X332002095Y-197000904D01*
X331716380Y-197905666D02*
X331716380Y-198524714D01*
X332097333Y-198191380D01*
X332097333Y-198334238D01*
X332144952Y-198429476D01*
X332192571Y-198477095D01*
X332287809Y-198524714D01*
X332525904Y-198524714D01*
X332621142Y-198477095D01*
X332668761Y-198429476D01*
X332716380Y-198334238D01*
X332716380Y-198048523D01*
X332668761Y-197953285D01*
X332621142Y-197905666D01*
X331716380Y-199143761D02*
X331716380Y-199239000D01*
X331764000Y-199334238D01*
X331811619Y-199381857D01*
X331906857Y-199429476D01*
X332097333Y-199477095D01*
X332335428Y-199477095D01*
X332525904Y-199429476D01*
X332621142Y-199381857D01*
X332668761Y-199334238D01*
X332716380Y-199239000D01*
X332716380Y-199143761D01*
X332668761Y-199048523D01*
X332621142Y-199000904D01*
X332525904Y-198953285D01*
X332335428Y-198905666D01*
X332097333Y-198905666D01*
X331906857Y-198953285D01*
X331811619Y-199000904D01*
X331764000Y-199048523D01*
X331716380Y-199143761D01*
X170790380Y-177347714D02*
X169790380Y-177347714D01*
X169790380Y-177585809D01*
X169838000Y-177728666D01*
X169933238Y-177823904D01*
X170028476Y-177871523D01*
X170218952Y-177919142D01*
X170361809Y-177919142D01*
X170552285Y-177871523D01*
X170647523Y-177823904D01*
X170742761Y-177728666D01*
X170790380Y-177585809D01*
X170790380Y-177347714D01*
X169790380Y-178252476D02*
X169790380Y-178919142D01*
X170790380Y-178490571D01*
X169790380Y-179204857D02*
X169790380Y-179823904D01*
X170171333Y-179490571D01*
X170171333Y-179633428D01*
X170218952Y-179728666D01*
X170266571Y-179776285D01*
X170361809Y-179823904D01*
X170599904Y-179823904D01*
X170695142Y-179776285D01*
X170742761Y-179728666D01*
X170790380Y-179633428D01*
X170790380Y-179347714D01*
X170742761Y-179252476D01*
X170695142Y-179204857D01*
X51664880Y-177347714D02*
X50664880Y-177347714D01*
X50664880Y-177585809D01*
X50712500Y-177728666D01*
X50807738Y-177823904D01*
X50902976Y-177871523D01*
X51093452Y-177919142D01*
X51236309Y-177919142D01*
X51426785Y-177871523D01*
X51522023Y-177823904D01*
X51617261Y-177728666D01*
X51664880Y-177585809D01*
X51664880Y-177347714D01*
X50664880Y-178776285D02*
X50664880Y-178585809D01*
X50712500Y-178490571D01*
X50760119Y-178442952D01*
X50902976Y-178347714D01*
X51093452Y-178300095D01*
X51474404Y-178300095D01*
X51569642Y-178347714D01*
X51617261Y-178395333D01*
X51664880Y-178490571D01*
X51664880Y-178681047D01*
X51617261Y-178776285D01*
X51569642Y-178823904D01*
X51474404Y-178871523D01*
X51236309Y-178871523D01*
X51141071Y-178823904D01*
X51093452Y-178776285D01*
X51045833Y-178681047D01*
X51045833Y-178490571D01*
X51093452Y-178395333D01*
X51141071Y-178347714D01*
X51236309Y-178300095D01*
X50664880Y-179204857D02*
X50664880Y-179871523D01*
X51664880Y-179442952D01*
X113640380Y-177347714D02*
X112640380Y-177347714D01*
X112640380Y-177585809D01*
X112688000Y-177728666D01*
X112783238Y-177823904D01*
X112878476Y-177871523D01*
X113068952Y-177919142D01*
X113211809Y-177919142D01*
X113402285Y-177871523D01*
X113497523Y-177823904D01*
X113592761Y-177728666D01*
X113640380Y-177585809D01*
X113640380Y-177347714D01*
X112640380Y-178252476D02*
X112640380Y-178919142D01*
X113640380Y-178490571D01*
X112640380Y-179490571D02*
X112640380Y-179585809D01*
X112688000Y-179681047D01*
X112735619Y-179728666D01*
X112830857Y-179776285D01*
X113021333Y-179823904D01*
X113259428Y-179823904D01*
X113449904Y-179776285D01*
X113545142Y-179728666D01*
X113592761Y-179681047D01*
X113640380Y-179585809D01*
X113640380Y-179490571D01*
X113592761Y-179395333D01*
X113545142Y-179347714D01*
X113449904Y-179300095D01*
X113259428Y-179252476D01*
X113021333Y-179252476D01*
X112830857Y-179300095D01*
X112735619Y-179347714D01*
X112688000Y-179395333D01*
X112640380Y-179490571D01*
X285090380Y-177347714D02*
X284090380Y-177347714D01*
X284090380Y-177585809D01*
X284138000Y-177728666D01*
X284233238Y-177823904D01*
X284328476Y-177871523D01*
X284518952Y-177919142D01*
X284661809Y-177919142D01*
X284852285Y-177871523D01*
X284947523Y-177823904D01*
X285042761Y-177728666D01*
X285090380Y-177585809D01*
X285090380Y-177347714D01*
X284090380Y-178252476D02*
X284090380Y-178919142D01*
X285090380Y-178490571D01*
X285090380Y-179347714D02*
X285090380Y-179538190D01*
X285042761Y-179633428D01*
X284995142Y-179681047D01*
X284852285Y-179776285D01*
X284661809Y-179823904D01*
X284280857Y-179823904D01*
X284185619Y-179776285D01*
X284138000Y-179728666D01*
X284090380Y-179633428D01*
X284090380Y-179442952D01*
X284138000Y-179347714D01*
X284185619Y-179300095D01*
X284280857Y-179252476D01*
X284518952Y-179252476D01*
X284614190Y-179300095D01*
X284661809Y-179347714D01*
X284709428Y-179442952D01*
X284709428Y-179633428D01*
X284661809Y-179728666D01*
X284614190Y-179776285D01*
X284518952Y-179823904D01*
X313666380Y-214717523D02*
X312666380Y-214717523D01*
X312666380Y-214955619D01*
X312714000Y-215098476D01*
X312809238Y-215193714D01*
X312904476Y-215241333D01*
X313094952Y-215288952D01*
X313237809Y-215288952D01*
X313428285Y-215241333D01*
X313523523Y-215193714D01*
X313618761Y-215098476D01*
X313666380Y-214955619D01*
X313666380Y-214717523D01*
X313666380Y-216241333D02*
X313666380Y-215669904D01*
X313666380Y-215955619D02*
X312666380Y-215955619D01*
X312809238Y-215860380D01*
X312904476Y-215765142D01*
X312952095Y-215669904D01*
X312666380Y-217098476D02*
X312666380Y-216908000D01*
X312714000Y-216812761D01*
X312761619Y-216765142D01*
X312904476Y-216669904D01*
X313094952Y-216622285D01*
X313475904Y-216622285D01*
X313571142Y-216669904D01*
X313618761Y-216717523D01*
X313666380Y-216812761D01*
X313666380Y-217003238D01*
X313618761Y-217098476D01*
X313571142Y-217146095D01*
X313475904Y-217193714D01*
X313237809Y-217193714D01*
X313142571Y-217146095D01*
X313094952Y-217098476D01*
X313047333Y-217003238D01*
X313047333Y-216812761D01*
X313094952Y-216717523D01*
X313142571Y-216669904D01*
X313237809Y-216622285D01*
X312761619Y-217574666D02*
X312714000Y-217622285D01*
X312666380Y-217717523D01*
X312666380Y-217955619D01*
X312714000Y-218050857D01*
X312761619Y-218098476D01*
X312856857Y-218146095D01*
X312952095Y-218146095D01*
X313094952Y-218098476D01*
X313666380Y-217527047D01*
X313666380Y-218146095D01*
X123166380Y-214717523D02*
X122166380Y-214717523D01*
X122166380Y-214955619D01*
X122214000Y-215098476D01*
X122309238Y-215193714D01*
X122404476Y-215241333D01*
X122594952Y-215288952D01*
X122737809Y-215288952D01*
X122928285Y-215241333D01*
X123023523Y-215193714D01*
X123118761Y-215098476D01*
X123166380Y-214955619D01*
X123166380Y-214717523D01*
X123166380Y-216241333D02*
X123166380Y-215669904D01*
X123166380Y-215955619D02*
X122166380Y-215955619D01*
X122309238Y-215860380D01*
X122404476Y-215765142D01*
X122452095Y-215669904D01*
X122166380Y-216574666D02*
X122166380Y-217193714D01*
X122547333Y-216860380D01*
X122547333Y-217003238D01*
X122594952Y-217098476D01*
X122642571Y-217146095D01*
X122737809Y-217193714D01*
X122975904Y-217193714D01*
X123071142Y-217146095D01*
X123118761Y-217098476D01*
X123166380Y-217003238D01*
X123166380Y-216717523D01*
X123118761Y-216622285D01*
X123071142Y-216574666D01*
X122166380Y-218050857D02*
X122166380Y-217860380D01*
X122214000Y-217765142D01*
X122261619Y-217717523D01*
X122404476Y-217622285D01*
X122594952Y-217574666D01*
X122975904Y-217574666D01*
X123071142Y-217622285D01*
X123118761Y-217669904D01*
X123166380Y-217765142D01*
X123166380Y-217955619D01*
X123118761Y-218050857D01*
X123071142Y-218098476D01*
X122975904Y-218146095D01*
X122737809Y-218146095D01*
X122642571Y-218098476D01*
X122594952Y-218050857D01*
X122547333Y-217955619D01*
X122547333Y-217765142D01*
X122594952Y-217669904D01*
X122642571Y-217622285D01*
X122737809Y-217574666D01*
X256516380Y-214717523D02*
X255516380Y-214717523D01*
X255516380Y-214955619D01*
X255564000Y-215098476D01*
X255659238Y-215193714D01*
X255754476Y-215241333D01*
X255944952Y-215288952D01*
X256087809Y-215288952D01*
X256278285Y-215241333D01*
X256373523Y-215193714D01*
X256468761Y-215098476D01*
X256516380Y-214955619D01*
X256516380Y-214717523D01*
X256516380Y-216241333D02*
X256516380Y-215669904D01*
X256516380Y-215955619D02*
X255516380Y-215955619D01*
X255659238Y-215860380D01*
X255754476Y-215765142D01*
X255802095Y-215669904D01*
X255849714Y-217098476D02*
X256516380Y-217098476D01*
X255468761Y-216860380D02*
X256183047Y-216622285D01*
X256183047Y-217241333D01*
X255516380Y-217527047D02*
X255516380Y-218146095D01*
X255897333Y-217812761D01*
X255897333Y-217955619D01*
X255944952Y-218050857D01*
X255992571Y-218098476D01*
X256087809Y-218146095D01*
X256325904Y-218146095D01*
X256421142Y-218098476D01*
X256468761Y-218050857D01*
X256516380Y-217955619D01*
X256516380Y-217669904D01*
X256468761Y-217574666D01*
X256421142Y-217527047D01*
X85065880Y-214717523D02*
X84065880Y-214717523D01*
X84065880Y-214955619D01*
X84113500Y-215098476D01*
X84208738Y-215193714D01*
X84303976Y-215241333D01*
X84494452Y-215288952D01*
X84637309Y-215288952D01*
X84827785Y-215241333D01*
X84923023Y-215193714D01*
X85018261Y-215098476D01*
X85065880Y-214955619D01*
X85065880Y-214717523D01*
X85065880Y-216241333D02*
X85065880Y-215669904D01*
X85065880Y-215955619D02*
X84065880Y-215955619D01*
X84208738Y-215860380D01*
X84303976Y-215765142D01*
X84351595Y-215669904D01*
X84065880Y-216574666D02*
X84065880Y-217193714D01*
X84446833Y-216860380D01*
X84446833Y-217003238D01*
X84494452Y-217098476D01*
X84542071Y-217146095D01*
X84637309Y-217193714D01*
X84875404Y-217193714D01*
X84970642Y-217146095D01*
X85018261Y-217098476D01*
X85065880Y-217003238D01*
X85065880Y-216717523D01*
X85018261Y-216622285D01*
X84970642Y-216574666D01*
X84399214Y-218050857D02*
X85065880Y-218050857D01*
X84018261Y-217812761D02*
X84732547Y-217574666D01*
X84732547Y-218193714D01*
X180316380Y-214717523D02*
X179316380Y-214717523D01*
X179316380Y-214955619D01*
X179364000Y-215098476D01*
X179459238Y-215193714D01*
X179554476Y-215241333D01*
X179744952Y-215288952D01*
X179887809Y-215288952D01*
X180078285Y-215241333D01*
X180173523Y-215193714D01*
X180268761Y-215098476D01*
X180316380Y-214955619D01*
X180316380Y-214717523D01*
X180316380Y-216241333D02*
X180316380Y-215669904D01*
X180316380Y-215955619D02*
X179316380Y-215955619D01*
X179459238Y-215860380D01*
X179554476Y-215765142D01*
X179602095Y-215669904D01*
X179316380Y-216574666D02*
X179316380Y-217193714D01*
X179697333Y-216860380D01*
X179697333Y-217003238D01*
X179744952Y-217098476D01*
X179792571Y-217146095D01*
X179887809Y-217193714D01*
X180125904Y-217193714D01*
X180221142Y-217146095D01*
X180268761Y-217098476D01*
X180316380Y-217003238D01*
X180316380Y-216717523D01*
X180268761Y-216622285D01*
X180221142Y-216574666D01*
X180316380Y-217669904D02*
X180316380Y-217860380D01*
X180268761Y-217955619D01*
X180221142Y-218003238D01*
X180078285Y-218098476D01*
X179887809Y-218146095D01*
X179506857Y-218146095D01*
X179411619Y-218098476D01*
X179364000Y-218050857D01*
X179316380Y-217955619D01*
X179316380Y-217765142D01*
X179364000Y-217669904D01*
X179411619Y-217622285D01*
X179506857Y-217574666D01*
X179744952Y-217574666D01*
X179840190Y-217622285D01*
X179887809Y-217669904D01*
X179935428Y-217765142D01*
X179935428Y-217955619D01*
X179887809Y-218050857D01*
X179840190Y-218098476D01*
X179744952Y-218146095D01*
X332716380Y-214717523D02*
X331716380Y-214717523D01*
X331716380Y-214955619D01*
X331764000Y-215098476D01*
X331859238Y-215193714D01*
X331954476Y-215241333D01*
X332144952Y-215288952D01*
X332287809Y-215288952D01*
X332478285Y-215241333D01*
X332573523Y-215193714D01*
X332668761Y-215098476D01*
X332716380Y-214955619D01*
X332716380Y-214717523D01*
X332716380Y-216241333D02*
X332716380Y-215669904D01*
X332716380Y-215955619D02*
X331716380Y-215955619D01*
X331859238Y-215860380D01*
X331954476Y-215765142D01*
X332002095Y-215669904D01*
X331716380Y-217098476D02*
X331716380Y-216908000D01*
X331764000Y-216812761D01*
X331811619Y-216765142D01*
X331954476Y-216669904D01*
X332144952Y-216622285D01*
X332525904Y-216622285D01*
X332621142Y-216669904D01*
X332668761Y-216717523D01*
X332716380Y-216812761D01*
X332716380Y-217003238D01*
X332668761Y-217098476D01*
X332621142Y-217146095D01*
X332525904Y-217193714D01*
X332287809Y-217193714D01*
X332192571Y-217146095D01*
X332144952Y-217098476D01*
X332097333Y-217003238D01*
X332097333Y-216812761D01*
X332144952Y-216717523D01*
X332192571Y-216669904D01*
X332287809Y-216622285D01*
X331716380Y-217527047D02*
X331716380Y-218146095D01*
X332097333Y-217812761D01*
X332097333Y-217955619D01*
X332144952Y-218050857D01*
X332192571Y-218098476D01*
X332287809Y-218146095D01*
X332525904Y-218146095D01*
X332621142Y-218098476D01*
X332668761Y-218050857D01*
X332716380Y-217955619D01*
X332716380Y-217669904D01*
X332668761Y-217574666D01*
X332621142Y-217527047D01*
X161266380Y-214717523D02*
X160266380Y-214717523D01*
X160266380Y-214955619D01*
X160314000Y-215098476D01*
X160409238Y-215193714D01*
X160504476Y-215241333D01*
X160694952Y-215288952D01*
X160837809Y-215288952D01*
X161028285Y-215241333D01*
X161123523Y-215193714D01*
X161218761Y-215098476D01*
X161266380Y-214955619D01*
X161266380Y-214717523D01*
X161266380Y-216241333D02*
X161266380Y-215669904D01*
X161266380Y-215955619D02*
X160266380Y-215955619D01*
X160409238Y-215860380D01*
X160504476Y-215765142D01*
X160552095Y-215669904D01*
X160266380Y-216574666D02*
X160266380Y-217193714D01*
X160647333Y-216860380D01*
X160647333Y-217003238D01*
X160694952Y-217098476D01*
X160742571Y-217146095D01*
X160837809Y-217193714D01*
X161075904Y-217193714D01*
X161171142Y-217146095D01*
X161218761Y-217098476D01*
X161266380Y-217003238D01*
X161266380Y-216717523D01*
X161218761Y-216622285D01*
X161171142Y-216574666D01*
X160694952Y-217765142D02*
X160647333Y-217669904D01*
X160599714Y-217622285D01*
X160504476Y-217574666D01*
X160456857Y-217574666D01*
X160361619Y-217622285D01*
X160314000Y-217669904D01*
X160266380Y-217765142D01*
X160266380Y-217955619D01*
X160314000Y-218050857D01*
X160361619Y-218098476D01*
X160456857Y-218146095D01*
X160504476Y-218146095D01*
X160599714Y-218098476D01*
X160647333Y-218050857D01*
X160694952Y-217955619D01*
X160694952Y-217765142D01*
X160742571Y-217669904D01*
X160790190Y-217622285D01*
X160885428Y-217574666D01*
X161075904Y-217574666D01*
X161171142Y-217622285D01*
X161218761Y-217669904D01*
X161266380Y-217765142D01*
X161266380Y-217955619D01*
X161218761Y-218050857D01*
X161171142Y-218098476D01*
X161075904Y-218146095D01*
X160885428Y-218146095D01*
X160790190Y-218098476D01*
X160742571Y-218050857D01*
X160694952Y-217955619D01*
X104116380Y-214717523D02*
X103116380Y-214717523D01*
X103116380Y-214955619D01*
X103164000Y-215098476D01*
X103259238Y-215193714D01*
X103354476Y-215241333D01*
X103544952Y-215288952D01*
X103687809Y-215288952D01*
X103878285Y-215241333D01*
X103973523Y-215193714D01*
X104068761Y-215098476D01*
X104116380Y-214955619D01*
X104116380Y-214717523D01*
X104116380Y-216241333D02*
X104116380Y-215669904D01*
X104116380Y-215955619D02*
X103116380Y-215955619D01*
X103259238Y-215860380D01*
X103354476Y-215765142D01*
X103402095Y-215669904D01*
X103116380Y-216574666D02*
X103116380Y-217193714D01*
X103497333Y-216860380D01*
X103497333Y-217003238D01*
X103544952Y-217098476D01*
X103592571Y-217146095D01*
X103687809Y-217193714D01*
X103925904Y-217193714D01*
X104021142Y-217146095D01*
X104068761Y-217098476D01*
X104116380Y-217003238D01*
X104116380Y-216717523D01*
X104068761Y-216622285D01*
X104021142Y-216574666D01*
X103116380Y-218098476D02*
X103116380Y-217622285D01*
X103592571Y-217574666D01*
X103544952Y-217622285D01*
X103497333Y-217717523D01*
X103497333Y-217955619D01*
X103544952Y-218050857D01*
X103592571Y-218098476D01*
X103687809Y-218146095D01*
X103925904Y-218146095D01*
X104021142Y-218098476D01*
X104068761Y-218050857D01*
X104116380Y-217955619D01*
X104116380Y-217717523D01*
X104068761Y-217622285D01*
X104021142Y-217574666D01*
X351766380Y-233895523D02*
X350766380Y-233895523D01*
X350766380Y-234133619D01*
X350814000Y-234276476D01*
X350909238Y-234371714D01*
X351004476Y-234419333D01*
X351194952Y-234466952D01*
X351337809Y-234466952D01*
X351528285Y-234419333D01*
X351623523Y-234371714D01*
X351718761Y-234276476D01*
X351766380Y-234133619D01*
X351766380Y-233895523D01*
X351766380Y-235419333D02*
X351766380Y-234847904D01*
X351766380Y-235133619D02*
X350766380Y-235133619D01*
X350909238Y-235038380D01*
X351004476Y-234943142D01*
X351052095Y-234847904D01*
X351766380Y-235895523D02*
X351766380Y-236086000D01*
X351718761Y-236181238D01*
X351671142Y-236228857D01*
X351528285Y-236324095D01*
X351337809Y-236371714D01*
X350956857Y-236371714D01*
X350861619Y-236324095D01*
X350814000Y-236276476D01*
X350766380Y-236181238D01*
X350766380Y-235990761D01*
X350814000Y-235895523D01*
X350861619Y-235847904D01*
X350956857Y-235800285D01*
X351194952Y-235800285D01*
X351290190Y-235847904D01*
X351337809Y-235895523D01*
X351385428Y-235990761D01*
X351385428Y-236181238D01*
X351337809Y-236276476D01*
X351290190Y-236324095D01*
X351194952Y-236371714D01*
X350766380Y-236705047D02*
X350766380Y-237324095D01*
X351147333Y-236990761D01*
X351147333Y-237133619D01*
X351194952Y-237228857D01*
X351242571Y-237276476D01*
X351337809Y-237324095D01*
X351575904Y-237324095D01*
X351671142Y-237276476D01*
X351718761Y-237228857D01*
X351766380Y-237133619D01*
X351766380Y-236847904D01*
X351718761Y-236752666D01*
X351671142Y-236705047D01*
X351766380Y-214717523D02*
X350766380Y-214717523D01*
X350766380Y-214955619D01*
X350814000Y-215098476D01*
X350909238Y-215193714D01*
X351004476Y-215241333D01*
X351194952Y-215288952D01*
X351337809Y-215288952D01*
X351528285Y-215241333D01*
X351623523Y-215193714D01*
X351718761Y-215098476D01*
X351766380Y-214955619D01*
X351766380Y-214717523D01*
X351766380Y-216241333D02*
X351766380Y-215669904D01*
X351766380Y-215955619D02*
X350766380Y-215955619D01*
X350909238Y-215860380D01*
X351004476Y-215765142D01*
X351052095Y-215669904D01*
X350766380Y-217098476D02*
X350766380Y-216908000D01*
X350814000Y-216812761D01*
X350861619Y-216765142D01*
X351004476Y-216669904D01*
X351194952Y-216622285D01*
X351575904Y-216622285D01*
X351671142Y-216669904D01*
X351718761Y-216717523D01*
X351766380Y-216812761D01*
X351766380Y-217003238D01*
X351718761Y-217098476D01*
X351671142Y-217146095D01*
X351575904Y-217193714D01*
X351337809Y-217193714D01*
X351242571Y-217146095D01*
X351194952Y-217098476D01*
X351147333Y-217003238D01*
X351147333Y-216812761D01*
X351194952Y-216717523D01*
X351242571Y-216669904D01*
X351337809Y-216622285D01*
X351099714Y-218050857D02*
X351766380Y-218050857D01*
X350718761Y-217812761D02*
X351433047Y-217574666D01*
X351433047Y-218193714D01*
X51664880Y-233894523D02*
X50664880Y-233894523D01*
X50664880Y-234132619D01*
X50712500Y-234275476D01*
X50807738Y-234370714D01*
X50902976Y-234418333D01*
X51093452Y-234465952D01*
X51236309Y-234465952D01*
X51426785Y-234418333D01*
X51522023Y-234370714D01*
X51617261Y-234275476D01*
X51664880Y-234132619D01*
X51664880Y-233894523D01*
X51664880Y-235418333D02*
X51664880Y-234846904D01*
X51664880Y-235132619D02*
X50664880Y-235132619D01*
X50807738Y-235037380D01*
X50902976Y-234942142D01*
X50950595Y-234846904D01*
X50664880Y-236275476D02*
X50664880Y-236085000D01*
X50712500Y-235989761D01*
X50760119Y-235942142D01*
X50902976Y-235846904D01*
X51093452Y-235799285D01*
X51474404Y-235799285D01*
X51569642Y-235846904D01*
X51617261Y-235894523D01*
X51664880Y-235989761D01*
X51664880Y-236180238D01*
X51617261Y-236275476D01*
X51569642Y-236323095D01*
X51474404Y-236370714D01*
X51236309Y-236370714D01*
X51141071Y-236323095D01*
X51093452Y-236275476D01*
X51045833Y-236180238D01*
X51045833Y-235989761D01*
X51093452Y-235894523D01*
X51141071Y-235846904D01*
X51236309Y-235799285D01*
X50664880Y-236704047D02*
X50664880Y-237370714D01*
X51664880Y-236942142D01*
X94463880Y-233894523D02*
X93463880Y-233894523D01*
X93463880Y-234132619D01*
X93511500Y-234275476D01*
X93606738Y-234370714D01*
X93701976Y-234418333D01*
X93892452Y-234465952D01*
X94035309Y-234465952D01*
X94225785Y-234418333D01*
X94321023Y-234370714D01*
X94416261Y-234275476D01*
X94463880Y-234132619D01*
X94463880Y-233894523D01*
X94463880Y-235418333D02*
X94463880Y-234846904D01*
X94463880Y-235132619D02*
X93463880Y-235132619D01*
X93606738Y-235037380D01*
X93701976Y-234942142D01*
X93749595Y-234846904D01*
X93463880Y-236275476D02*
X93463880Y-236085000D01*
X93511500Y-235989761D01*
X93559119Y-235942142D01*
X93701976Y-235846904D01*
X93892452Y-235799285D01*
X94273404Y-235799285D01*
X94368642Y-235846904D01*
X94416261Y-235894523D01*
X94463880Y-235989761D01*
X94463880Y-236180238D01*
X94416261Y-236275476D01*
X94368642Y-236323095D01*
X94273404Y-236370714D01*
X94035309Y-236370714D01*
X93940071Y-236323095D01*
X93892452Y-236275476D01*
X93844833Y-236180238D01*
X93844833Y-235989761D01*
X93892452Y-235894523D01*
X93940071Y-235846904D01*
X94035309Y-235799285D01*
X94463880Y-236846904D02*
X94463880Y-237037380D01*
X94416261Y-237132619D01*
X94368642Y-237180238D01*
X94225785Y-237275476D01*
X94035309Y-237323095D01*
X93654357Y-237323095D01*
X93559119Y-237275476D01*
X93511500Y-237227857D01*
X93463880Y-237132619D01*
X93463880Y-236942142D01*
X93511500Y-236846904D01*
X93559119Y-236799285D01*
X93654357Y-236751666D01*
X93892452Y-236751666D01*
X93987690Y-236799285D01*
X94035309Y-236846904D01*
X94082928Y-236942142D01*
X94082928Y-237132619D01*
X94035309Y-237227857D01*
X93987690Y-237275476D01*
X93892452Y-237323095D01*
X75413880Y-233894523D02*
X74413880Y-233894523D01*
X74413880Y-234132619D01*
X74461500Y-234275476D01*
X74556738Y-234370714D01*
X74651976Y-234418333D01*
X74842452Y-234465952D01*
X74985309Y-234465952D01*
X75175785Y-234418333D01*
X75271023Y-234370714D01*
X75366261Y-234275476D01*
X75413880Y-234132619D01*
X75413880Y-233894523D01*
X75413880Y-235418333D02*
X75413880Y-234846904D01*
X75413880Y-235132619D02*
X74413880Y-235132619D01*
X74556738Y-235037380D01*
X74651976Y-234942142D01*
X74699595Y-234846904D01*
X74413880Y-236275476D02*
X74413880Y-236085000D01*
X74461500Y-235989761D01*
X74509119Y-235942142D01*
X74651976Y-235846904D01*
X74842452Y-235799285D01*
X75223404Y-235799285D01*
X75318642Y-235846904D01*
X75366261Y-235894523D01*
X75413880Y-235989761D01*
X75413880Y-236180238D01*
X75366261Y-236275476D01*
X75318642Y-236323095D01*
X75223404Y-236370714D01*
X74985309Y-236370714D01*
X74890071Y-236323095D01*
X74842452Y-236275476D01*
X74794833Y-236180238D01*
X74794833Y-235989761D01*
X74842452Y-235894523D01*
X74890071Y-235846904D01*
X74985309Y-235799285D01*
X74842452Y-236942142D02*
X74794833Y-236846904D01*
X74747214Y-236799285D01*
X74651976Y-236751666D01*
X74604357Y-236751666D01*
X74509119Y-236799285D01*
X74461500Y-236846904D01*
X74413880Y-236942142D01*
X74413880Y-237132619D01*
X74461500Y-237227857D01*
X74509119Y-237275476D01*
X74604357Y-237323095D01*
X74651976Y-237323095D01*
X74747214Y-237275476D01*
X74794833Y-237227857D01*
X74842452Y-237132619D01*
X74842452Y-236942142D01*
X74890071Y-236846904D01*
X74937690Y-236799285D01*
X75032928Y-236751666D01*
X75223404Y-236751666D01*
X75318642Y-236799285D01*
X75366261Y-236846904D01*
X75413880Y-236942142D01*
X75413880Y-237132619D01*
X75366261Y-237227857D01*
X75318642Y-237275476D01*
X75223404Y-237323095D01*
X75032928Y-237323095D01*
X74937690Y-237275476D01*
X74890071Y-237227857D01*
X74842452Y-237132619D01*
X237466380Y-214717523D02*
X236466380Y-214717523D01*
X236466380Y-214955619D01*
X236514000Y-215098476D01*
X236609238Y-215193714D01*
X236704476Y-215241333D01*
X236894952Y-215288952D01*
X237037809Y-215288952D01*
X237228285Y-215241333D01*
X237323523Y-215193714D01*
X237418761Y-215098476D01*
X237466380Y-214955619D01*
X237466380Y-214717523D01*
X237466380Y-216241333D02*
X237466380Y-215669904D01*
X237466380Y-215955619D02*
X236466380Y-215955619D01*
X236609238Y-215860380D01*
X236704476Y-215765142D01*
X236752095Y-215669904D01*
X236799714Y-217098476D02*
X237466380Y-217098476D01*
X236418761Y-216860380D02*
X237133047Y-216622285D01*
X237133047Y-217241333D01*
X236561619Y-217574666D02*
X236514000Y-217622285D01*
X236466380Y-217717523D01*
X236466380Y-217955619D01*
X236514000Y-218050857D01*
X236561619Y-218098476D01*
X236656857Y-218146095D01*
X236752095Y-218146095D01*
X236894952Y-218098476D01*
X237466380Y-217527047D01*
X237466380Y-218146095D01*
X199366380Y-214717523D02*
X198366380Y-214717523D01*
X198366380Y-214955619D01*
X198414000Y-215098476D01*
X198509238Y-215193714D01*
X198604476Y-215241333D01*
X198794952Y-215288952D01*
X198937809Y-215288952D01*
X199128285Y-215241333D01*
X199223523Y-215193714D01*
X199318761Y-215098476D01*
X199366380Y-214955619D01*
X199366380Y-214717523D01*
X199366380Y-216241333D02*
X199366380Y-215669904D01*
X199366380Y-215955619D02*
X198366380Y-215955619D01*
X198509238Y-215860380D01*
X198604476Y-215765142D01*
X198652095Y-215669904D01*
X198699714Y-217098476D02*
X199366380Y-217098476D01*
X198318761Y-216860380D02*
X199033047Y-216622285D01*
X199033047Y-217241333D01*
X198366380Y-217812761D02*
X198366380Y-217908000D01*
X198414000Y-218003238D01*
X198461619Y-218050857D01*
X198556857Y-218098476D01*
X198747333Y-218146095D01*
X198985428Y-218146095D01*
X199175904Y-218098476D01*
X199271142Y-218050857D01*
X199318761Y-218003238D01*
X199366380Y-217908000D01*
X199366380Y-217812761D01*
X199318761Y-217717523D01*
X199271142Y-217669904D01*
X199175904Y-217622285D01*
X198985428Y-217574666D01*
X198747333Y-217574666D01*
X198556857Y-217622285D01*
X198461619Y-217669904D01*
X198414000Y-217717523D01*
X198366380Y-217812761D01*
X387866380Y-220051523D02*
X386866380Y-220051523D01*
X386866380Y-220289619D01*
X386914000Y-220432476D01*
X387009238Y-220527714D01*
X387104476Y-220575333D01*
X387294952Y-220622952D01*
X387437809Y-220622952D01*
X387628285Y-220575333D01*
X387723523Y-220527714D01*
X387818761Y-220432476D01*
X387866380Y-220289619D01*
X387866380Y-220051523D01*
X387866380Y-221575333D02*
X387866380Y-221003904D01*
X387866380Y-221289619D02*
X386866380Y-221289619D01*
X387009238Y-221194380D01*
X387104476Y-221099142D01*
X387152095Y-221003904D01*
X386866380Y-222432476D02*
X386866380Y-222242000D01*
X386914000Y-222146761D01*
X386961619Y-222099142D01*
X387104476Y-222003904D01*
X387294952Y-221956285D01*
X387675904Y-221956285D01*
X387771142Y-222003904D01*
X387818761Y-222051523D01*
X387866380Y-222146761D01*
X387866380Y-222337238D01*
X387818761Y-222432476D01*
X387771142Y-222480095D01*
X387675904Y-222527714D01*
X387437809Y-222527714D01*
X387342571Y-222480095D01*
X387294952Y-222432476D01*
X387247333Y-222337238D01*
X387247333Y-222146761D01*
X387294952Y-222051523D01*
X387342571Y-222003904D01*
X387437809Y-221956285D01*
X386866380Y-223384857D02*
X386866380Y-223194380D01*
X386914000Y-223099142D01*
X386961619Y-223051523D01*
X387104476Y-222956285D01*
X387294952Y-222908666D01*
X387675904Y-222908666D01*
X387771142Y-222956285D01*
X387818761Y-223003904D01*
X387866380Y-223099142D01*
X387866380Y-223289619D01*
X387818761Y-223384857D01*
X387771142Y-223432476D01*
X387675904Y-223480095D01*
X387437809Y-223480095D01*
X387342571Y-223432476D01*
X387294952Y-223384857D01*
X387247333Y-223289619D01*
X387247333Y-223099142D01*
X387294952Y-223003904D01*
X387342571Y-222956285D01*
X387437809Y-222908666D01*
X370816380Y-214717523D02*
X369816380Y-214717523D01*
X369816380Y-214955619D01*
X369864000Y-215098476D01*
X369959238Y-215193714D01*
X370054476Y-215241333D01*
X370244952Y-215288952D01*
X370387809Y-215288952D01*
X370578285Y-215241333D01*
X370673523Y-215193714D01*
X370768761Y-215098476D01*
X370816380Y-214955619D01*
X370816380Y-214717523D01*
X370816380Y-216241333D02*
X370816380Y-215669904D01*
X370816380Y-215955619D02*
X369816380Y-215955619D01*
X369959238Y-215860380D01*
X370054476Y-215765142D01*
X370102095Y-215669904D01*
X369816380Y-217098476D02*
X369816380Y-216908000D01*
X369864000Y-216812761D01*
X369911619Y-216765142D01*
X370054476Y-216669904D01*
X370244952Y-216622285D01*
X370625904Y-216622285D01*
X370721142Y-216669904D01*
X370768761Y-216717523D01*
X370816380Y-216812761D01*
X370816380Y-217003238D01*
X370768761Y-217098476D01*
X370721142Y-217146095D01*
X370625904Y-217193714D01*
X370387809Y-217193714D01*
X370292571Y-217146095D01*
X370244952Y-217098476D01*
X370197333Y-217003238D01*
X370197333Y-216812761D01*
X370244952Y-216717523D01*
X370292571Y-216669904D01*
X370387809Y-216622285D01*
X369816380Y-218098476D02*
X369816380Y-217622285D01*
X370292571Y-217574666D01*
X370244952Y-217622285D01*
X370197333Y-217717523D01*
X370197333Y-217955619D01*
X370244952Y-218050857D01*
X370292571Y-218098476D01*
X370387809Y-218146095D01*
X370625904Y-218146095D01*
X370721142Y-218098476D01*
X370768761Y-218050857D01*
X370816380Y-217955619D01*
X370816380Y-217717523D01*
X370768761Y-217622285D01*
X370721142Y-217574666D01*
X218416380Y-214717523D02*
X217416380Y-214717523D01*
X217416380Y-214955619D01*
X217464000Y-215098476D01*
X217559238Y-215193714D01*
X217654476Y-215241333D01*
X217844952Y-215288952D01*
X217987809Y-215288952D01*
X218178285Y-215241333D01*
X218273523Y-215193714D01*
X218368761Y-215098476D01*
X218416380Y-214955619D01*
X218416380Y-214717523D01*
X218416380Y-216241333D02*
X218416380Y-215669904D01*
X218416380Y-215955619D02*
X217416380Y-215955619D01*
X217559238Y-215860380D01*
X217654476Y-215765142D01*
X217702095Y-215669904D01*
X217749714Y-217098476D02*
X218416380Y-217098476D01*
X217368761Y-216860380D02*
X218083047Y-216622285D01*
X218083047Y-217241333D01*
X218416380Y-218146095D02*
X218416380Y-217574666D01*
X218416380Y-217860380D02*
X217416380Y-217860380D01*
X217559238Y-217765142D01*
X217654476Y-217669904D01*
X217702095Y-217574666D01*
X294616380Y-214718523D02*
X293616380Y-214718523D01*
X293616380Y-214956619D01*
X293664000Y-215099476D01*
X293759238Y-215194714D01*
X293854476Y-215242333D01*
X294044952Y-215289952D01*
X294187809Y-215289952D01*
X294378285Y-215242333D01*
X294473523Y-215194714D01*
X294568761Y-215099476D01*
X294616380Y-214956619D01*
X294616380Y-214718523D01*
X294616380Y-216242333D02*
X294616380Y-215670904D01*
X294616380Y-215956619D02*
X293616380Y-215956619D01*
X293759238Y-215861380D01*
X293854476Y-215766142D01*
X293902095Y-215670904D01*
X293616380Y-217099476D02*
X293616380Y-216909000D01*
X293664000Y-216813761D01*
X293711619Y-216766142D01*
X293854476Y-216670904D01*
X294044952Y-216623285D01*
X294425904Y-216623285D01*
X294521142Y-216670904D01*
X294568761Y-216718523D01*
X294616380Y-216813761D01*
X294616380Y-217004238D01*
X294568761Y-217099476D01*
X294521142Y-217147095D01*
X294425904Y-217194714D01*
X294187809Y-217194714D01*
X294092571Y-217147095D01*
X294044952Y-217099476D01*
X293997333Y-217004238D01*
X293997333Y-216813761D01*
X294044952Y-216718523D01*
X294092571Y-216670904D01*
X294187809Y-216623285D01*
X294616380Y-218147095D02*
X294616380Y-217575666D01*
X294616380Y-217861380D02*
X293616380Y-217861380D01*
X293759238Y-217766142D01*
X293854476Y-217670904D01*
X293902095Y-217575666D01*
X46965880Y-158298714D02*
X45965880Y-158298714D01*
X45965880Y-158536809D01*
X46013500Y-158679666D01*
X46108738Y-158774904D01*
X46203976Y-158822523D01*
X46394452Y-158870142D01*
X46537309Y-158870142D01*
X46727785Y-158822523D01*
X46823023Y-158774904D01*
X46918261Y-158679666D01*
X46965880Y-158536809D01*
X46965880Y-158298714D01*
X45965880Y-159203476D02*
X45965880Y-159822523D01*
X46346833Y-159489190D01*
X46346833Y-159632047D01*
X46394452Y-159727285D01*
X46442071Y-159774904D01*
X46537309Y-159822523D01*
X46775404Y-159822523D01*
X46870642Y-159774904D01*
X46918261Y-159727285D01*
X46965880Y-159632047D01*
X46965880Y-159346333D01*
X46918261Y-159251095D01*
X46870642Y-159203476D01*
X45965880Y-160155857D02*
X45965880Y-160774904D01*
X46346833Y-160441571D01*
X46346833Y-160584428D01*
X46394452Y-160679666D01*
X46442071Y-160727285D01*
X46537309Y-160774904D01*
X46775404Y-160774904D01*
X46870642Y-160727285D01*
X46918261Y-160679666D01*
X46965880Y-160584428D01*
X46965880Y-160298714D01*
X46918261Y-160203476D01*
X46870642Y-160155857D01*
X142216380Y-139596904D02*
X141216380Y-139596904D01*
X141216380Y-139835000D01*
X141264000Y-139977857D01*
X141359238Y-140073095D01*
X141454476Y-140120714D01*
X141644952Y-140168333D01*
X141787809Y-140168333D01*
X141978285Y-140120714D01*
X142073523Y-140073095D01*
X142168761Y-139977857D01*
X142216380Y-139835000D01*
X142216380Y-139596904D01*
X141216380Y-141025476D02*
X141216380Y-140835000D01*
X141264000Y-140739761D01*
X141311619Y-140692142D01*
X141454476Y-140596904D01*
X141644952Y-140549285D01*
X142025904Y-140549285D01*
X142121142Y-140596904D01*
X142168761Y-140644523D01*
X142216380Y-140739761D01*
X142216380Y-140930238D01*
X142168761Y-141025476D01*
X142121142Y-141073095D01*
X142025904Y-141120714D01*
X141787809Y-141120714D01*
X141692571Y-141073095D01*
X141644952Y-141025476D01*
X141597333Y-140930238D01*
X141597333Y-140739761D01*
X141644952Y-140644523D01*
X141692571Y-140596904D01*
X141787809Y-140549285D01*
X85065880Y-139596904D02*
X84065880Y-139596904D01*
X84065880Y-139835000D01*
X84113500Y-139977857D01*
X84208738Y-140073095D01*
X84303976Y-140120714D01*
X84494452Y-140168333D01*
X84637309Y-140168333D01*
X84827785Y-140120714D01*
X84923023Y-140073095D01*
X85018261Y-139977857D01*
X85065880Y-139835000D01*
X85065880Y-139596904D01*
X84065880Y-140501666D02*
X84065880Y-141120714D01*
X84446833Y-140787380D01*
X84446833Y-140930238D01*
X84494452Y-141025476D01*
X84542071Y-141073095D01*
X84637309Y-141120714D01*
X84875404Y-141120714D01*
X84970642Y-141073095D01*
X85018261Y-141025476D01*
X85065880Y-140930238D01*
X85065880Y-140644523D01*
X85018261Y-140549285D01*
X84970642Y-140501666D01*
X123166380Y-139596904D02*
X122166380Y-139596904D01*
X122166380Y-139835000D01*
X122214000Y-139977857D01*
X122309238Y-140073095D01*
X122404476Y-140120714D01*
X122594952Y-140168333D01*
X122737809Y-140168333D01*
X122928285Y-140120714D01*
X123023523Y-140073095D01*
X123118761Y-139977857D01*
X123166380Y-139835000D01*
X123166380Y-139596904D01*
X122166380Y-141073095D02*
X122166380Y-140596904D01*
X122642571Y-140549285D01*
X122594952Y-140596904D01*
X122547333Y-140692142D01*
X122547333Y-140930238D01*
X122594952Y-141025476D01*
X122642571Y-141073095D01*
X122737809Y-141120714D01*
X122975904Y-141120714D01*
X123071142Y-141073095D01*
X123118761Y-141025476D01*
X123166380Y-140930238D01*
X123166380Y-140692142D01*
X123118761Y-140596904D01*
X123071142Y-140549285D01*
X161266380Y-139596904D02*
X160266380Y-139596904D01*
X160266380Y-139835000D01*
X160314000Y-139977857D01*
X160409238Y-140073095D01*
X160504476Y-140120714D01*
X160694952Y-140168333D01*
X160837809Y-140168333D01*
X161028285Y-140120714D01*
X161123523Y-140073095D01*
X161218761Y-139977857D01*
X161266380Y-139835000D01*
X161266380Y-139596904D01*
X160266380Y-140501666D02*
X160266380Y-141168333D01*
X161266380Y-140739761D01*
X66015880Y-139597904D02*
X65015880Y-139597904D01*
X65015880Y-139836000D01*
X65063500Y-139978857D01*
X65158738Y-140074095D01*
X65253976Y-140121714D01*
X65444452Y-140169333D01*
X65587309Y-140169333D01*
X65777785Y-140121714D01*
X65873023Y-140074095D01*
X65968261Y-139978857D01*
X66015880Y-139836000D01*
X66015880Y-139597904D01*
X65111119Y-140550285D02*
X65063500Y-140597904D01*
X65015880Y-140693142D01*
X65015880Y-140931238D01*
X65063500Y-141026476D01*
X65111119Y-141074095D01*
X65206357Y-141121714D01*
X65301595Y-141121714D01*
X65444452Y-141074095D01*
X66015880Y-140502666D01*
X66015880Y-141121714D01*
X294616380Y-139120714D02*
X293616380Y-139120714D01*
X293616380Y-139358809D01*
X293664000Y-139501666D01*
X293759238Y-139596904D01*
X293854476Y-139644523D01*
X294044952Y-139692142D01*
X294187809Y-139692142D01*
X294378285Y-139644523D01*
X294473523Y-139596904D01*
X294568761Y-139501666D01*
X294616380Y-139358809D01*
X294616380Y-139120714D01*
X294616380Y-140644523D02*
X294616380Y-140073095D01*
X294616380Y-140358809D02*
X293616380Y-140358809D01*
X293759238Y-140263571D01*
X293854476Y-140168333D01*
X293902095Y-140073095D01*
X293949714Y-141501666D02*
X294616380Y-141501666D01*
X293568761Y-141263571D02*
X294283047Y-141025476D01*
X294283047Y-141644523D01*
X218416380Y-139120714D02*
X217416380Y-139120714D01*
X217416380Y-139358809D01*
X217464000Y-139501666D01*
X217559238Y-139596904D01*
X217654476Y-139644523D01*
X217844952Y-139692142D01*
X217987809Y-139692142D01*
X218178285Y-139644523D01*
X218273523Y-139596904D01*
X218368761Y-139501666D01*
X218416380Y-139358809D01*
X218416380Y-139120714D01*
X218416380Y-140644523D02*
X218416380Y-140073095D01*
X218416380Y-140358809D02*
X217416380Y-140358809D01*
X217559238Y-140263571D01*
X217654476Y-140168333D01*
X217702095Y-140073095D01*
X217416380Y-141263571D02*
X217416380Y-141358809D01*
X217464000Y-141454047D01*
X217511619Y-141501666D01*
X217606857Y-141549285D01*
X217797333Y-141596904D01*
X218035428Y-141596904D01*
X218225904Y-141549285D01*
X218321142Y-141501666D01*
X218368761Y-141454047D01*
X218416380Y-141358809D01*
X218416380Y-141263571D01*
X218368761Y-141168333D01*
X218321142Y-141120714D01*
X218225904Y-141073095D01*
X218035428Y-141025476D01*
X217797333Y-141025476D01*
X217606857Y-141073095D01*
X217511619Y-141120714D01*
X217464000Y-141168333D01*
X217416380Y-141263571D01*
X237466380Y-139120714D02*
X236466380Y-139120714D01*
X236466380Y-139358809D01*
X236514000Y-139501666D01*
X236609238Y-139596904D01*
X236704476Y-139644523D01*
X236894952Y-139692142D01*
X237037809Y-139692142D01*
X237228285Y-139644523D01*
X237323523Y-139596904D01*
X237418761Y-139501666D01*
X237466380Y-139358809D01*
X237466380Y-139120714D01*
X237466380Y-140644523D02*
X237466380Y-140073095D01*
X237466380Y-140358809D02*
X236466380Y-140358809D01*
X236609238Y-140263571D01*
X236704476Y-140168333D01*
X236752095Y-140073095D01*
X237466380Y-141596904D02*
X237466380Y-141025476D01*
X237466380Y-141311190D02*
X236466380Y-141311190D01*
X236609238Y-141215952D01*
X236704476Y-141120714D01*
X236752095Y-141025476D01*
X199366380Y-139596904D02*
X198366380Y-139596904D01*
X198366380Y-139835000D01*
X198414000Y-139977857D01*
X198509238Y-140073095D01*
X198604476Y-140120714D01*
X198794952Y-140168333D01*
X198937809Y-140168333D01*
X199128285Y-140120714D01*
X199223523Y-140073095D01*
X199318761Y-139977857D01*
X199366380Y-139835000D01*
X199366380Y-139596904D01*
X199366380Y-140644523D02*
X199366380Y-140835000D01*
X199318761Y-140930238D01*
X199271142Y-140977857D01*
X199128285Y-141073095D01*
X198937809Y-141120714D01*
X198556857Y-141120714D01*
X198461619Y-141073095D01*
X198414000Y-141025476D01*
X198366380Y-140930238D01*
X198366380Y-140739761D01*
X198414000Y-140644523D01*
X198461619Y-140596904D01*
X198556857Y-140549285D01*
X198794952Y-140549285D01*
X198890190Y-140596904D01*
X198937809Y-140644523D01*
X198985428Y-140739761D01*
X198985428Y-140930238D01*
X198937809Y-141025476D01*
X198890190Y-141073095D01*
X198794952Y-141120714D01*
X104116380Y-139596904D02*
X103116380Y-139596904D01*
X103116380Y-139835000D01*
X103164000Y-139977857D01*
X103259238Y-140073095D01*
X103354476Y-140120714D01*
X103544952Y-140168333D01*
X103687809Y-140168333D01*
X103878285Y-140120714D01*
X103973523Y-140073095D01*
X104068761Y-139977857D01*
X104116380Y-139835000D01*
X104116380Y-139596904D01*
X103449714Y-141025476D02*
X104116380Y-141025476D01*
X103068761Y-140787380D02*
X103783047Y-140549285D01*
X103783047Y-141168333D01*
X255611619Y-141549285D02*
X256611619Y-141549285D01*
X256611619Y-141311190D01*
X256564000Y-141168333D01*
X256468761Y-141073095D01*
X256373523Y-141025476D01*
X256183047Y-140977857D01*
X256040190Y-140977857D01*
X255849714Y-141025476D01*
X255754476Y-141073095D01*
X255659238Y-141168333D01*
X255611619Y-141311190D01*
X255611619Y-141549285D01*
X255611619Y-140025476D02*
X255611619Y-140596904D01*
X255611619Y-140311190D02*
X256611619Y-140311190D01*
X256468761Y-140406428D01*
X256373523Y-140501666D01*
X256325904Y-140596904D01*
X256516380Y-139644523D02*
X256564000Y-139596904D01*
X256611619Y-139501666D01*
X256611619Y-139263571D01*
X256564000Y-139168333D01*
X256516380Y-139120714D01*
X256421142Y-139073095D01*
X256325904Y-139073095D01*
X256183047Y-139120714D01*
X255611619Y-139692142D01*
X255611619Y-139073095D01*
X180316380Y-139596904D02*
X179316380Y-139596904D01*
X179316380Y-139835000D01*
X179364000Y-139977857D01*
X179459238Y-140073095D01*
X179554476Y-140120714D01*
X179744952Y-140168333D01*
X179887809Y-140168333D01*
X180078285Y-140120714D01*
X180173523Y-140073095D01*
X180268761Y-139977857D01*
X180316380Y-139835000D01*
X180316380Y-139596904D01*
X179744952Y-140739761D02*
X179697333Y-140644523D01*
X179649714Y-140596904D01*
X179554476Y-140549285D01*
X179506857Y-140549285D01*
X179411619Y-140596904D01*
X179364000Y-140644523D01*
X179316380Y-140739761D01*
X179316380Y-140930238D01*
X179364000Y-141025476D01*
X179411619Y-141073095D01*
X179506857Y-141120714D01*
X179554476Y-141120714D01*
X179649714Y-141073095D01*
X179697333Y-141025476D01*
X179744952Y-140930238D01*
X179744952Y-140739761D01*
X179792571Y-140644523D01*
X179840190Y-140596904D01*
X179935428Y-140549285D01*
X180125904Y-140549285D01*
X180221142Y-140596904D01*
X180268761Y-140644523D01*
X180316380Y-140739761D01*
X180316380Y-140930238D01*
X180268761Y-141025476D01*
X180221142Y-141073095D01*
X180125904Y-141120714D01*
X179935428Y-141120714D01*
X179840190Y-141073095D01*
X179792571Y-141025476D01*
X179744952Y-140930238D01*
X313666380Y-139120714D02*
X312666380Y-139120714D01*
X312666380Y-139358809D01*
X312714000Y-139501666D01*
X312809238Y-139596904D01*
X312904476Y-139644523D01*
X313094952Y-139692142D01*
X313237809Y-139692142D01*
X313428285Y-139644523D01*
X313523523Y-139596904D01*
X313618761Y-139501666D01*
X313666380Y-139358809D01*
X313666380Y-139120714D01*
X313666380Y-140644523D02*
X313666380Y-140073095D01*
X313666380Y-140358809D02*
X312666380Y-140358809D01*
X312809238Y-140263571D01*
X312904476Y-140168333D01*
X312952095Y-140073095D01*
X312666380Y-141549285D02*
X312666380Y-141073095D01*
X313142571Y-141025476D01*
X313094952Y-141073095D01*
X313047333Y-141168333D01*
X313047333Y-141406428D01*
X313094952Y-141501666D01*
X313142571Y-141549285D01*
X313237809Y-141596904D01*
X313475904Y-141596904D01*
X313571142Y-141549285D01*
X313618761Y-141501666D01*
X313666380Y-141406428D01*
X313666380Y-141168333D01*
X313618761Y-141073095D01*
X313571142Y-141025476D01*
X275566380Y-139120714D02*
X274566380Y-139120714D01*
X274566380Y-139358809D01*
X274614000Y-139501666D01*
X274709238Y-139596904D01*
X274804476Y-139644523D01*
X274994952Y-139692142D01*
X275137809Y-139692142D01*
X275328285Y-139644523D01*
X275423523Y-139596904D01*
X275518761Y-139501666D01*
X275566380Y-139358809D01*
X275566380Y-139120714D01*
X275566380Y-140644523D02*
X275566380Y-140073095D01*
X275566380Y-140358809D02*
X274566380Y-140358809D01*
X274709238Y-140263571D01*
X274804476Y-140168333D01*
X274852095Y-140073095D01*
X274566380Y-140977857D02*
X274566380Y-141596904D01*
X274947333Y-141263571D01*
X274947333Y-141406428D01*
X274994952Y-141501666D01*
X275042571Y-141549285D01*
X275137809Y-141596904D01*
X275375904Y-141596904D01*
X275471142Y-141549285D01*
X275518761Y-141501666D01*
X275566380Y-141406428D01*
X275566380Y-141120714D01*
X275518761Y-141025476D01*
X275471142Y-140977857D01*
X46965880Y-139596904D02*
X45965880Y-139596904D01*
X45965880Y-139835000D01*
X46013500Y-139977857D01*
X46108738Y-140073095D01*
X46203976Y-140120714D01*
X46394452Y-140168333D01*
X46537309Y-140168333D01*
X46727785Y-140120714D01*
X46823023Y-140073095D01*
X46918261Y-139977857D01*
X46965880Y-139835000D01*
X46965880Y-139596904D01*
X46965880Y-141120714D02*
X46965880Y-140549285D01*
X46965880Y-140835000D02*
X45965880Y-140835000D01*
X46108738Y-140739761D01*
X46203976Y-140644523D01*
X46251595Y-140549285D01*
X376380333Y-126909380D02*
X376380333Y-127623666D01*
X376427952Y-127766523D01*
X376523190Y-127861761D01*
X376666047Y-127909380D01*
X376761285Y-127909380D01*
X375380333Y-127909380D02*
X375951761Y-127909380D01*
X375666047Y-127909380D02*
X375666047Y-126909380D01*
X375761285Y-127052238D01*
X375856523Y-127147476D01*
X375951761Y-127195095D01*
X378859142Y-137565333D02*
X378906761Y-137517714D01*
X378954380Y-137374857D01*
X378954380Y-137279619D01*
X378906761Y-137136761D01*
X378811523Y-137041523D01*
X378716285Y-136993904D01*
X378525809Y-136946285D01*
X378382952Y-136946285D01*
X378192476Y-136993904D01*
X378097238Y-137041523D01*
X378002000Y-137136761D01*
X377954380Y-137279619D01*
X377954380Y-137374857D01*
X378002000Y-137517714D01*
X378049619Y-137565333D01*
X378954380Y-138517714D02*
X378954380Y-137946285D01*
X378954380Y-138232000D02*
X377954380Y-138232000D01*
X378097238Y-138136761D01*
X378192476Y-138041523D01*
X378240095Y-137946285D01*
X386352142Y-137565333D02*
X386399761Y-137517714D01*
X386447380Y-137374857D01*
X386447380Y-137279619D01*
X386399761Y-137136761D01*
X386304523Y-137041523D01*
X386209285Y-136993904D01*
X386018809Y-136946285D01*
X385875952Y-136946285D01*
X385685476Y-136993904D01*
X385590238Y-137041523D01*
X385495000Y-137136761D01*
X385447380Y-137279619D01*
X385447380Y-137374857D01*
X385495000Y-137517714D01*
X385542619Y-137565333D01*
X385542619Y-137946285D02*
X385495000Y-137993904D01*
X385447380Y-138089142D01*
X385447380Y-138327238D01*
X385495000Y-138422476D01*
X385542619Y-138470095D01*
X385637857Y-138517714D01*
X385733095Y-138517714D01*
X385875952Y-138470095D01*
X386447380Y-137898666D01*
X386447380Y-138517714D01*
X382605142Y-137565333D02*
X382652761Y-137517714D01*
X382700380Y-137374857D01*
X382700380Y-137279619D01*
X382652761Y-137136761D01*
X382557523Y-137041523D01*
X382462285Y-136993904D01*
X382271809Y-136946285D01*
X382128952Y-136946285D01*
X381938476Y-136993904D01*
X381843238Y-137041523D01*
X381748000Y-137136761D01*
X381700380Y-137279619D01*
X381700380Y-137374857D01*
X381748000Y-137517714D01*
X381795619Y-137565333D01*
X381700380Y-137898666D02*
X381700380Y-138517714D01*
X382081333Y-138184380D01*
X382081333Y-138327238D01*
X382128952Y-138422476D01*
X382176571Y-138470095D01*
X382271809Y-138517714D01*
X382509904Y-138517714D01*
X382605142Y-138470095D01*
X382652761Y-138422476D01*
X382700380Y-138327238D01*
X382700380Y-138041523D01*
X382652761Y-137946285D01*
X382605142Y-137898666D01*
X393845142Y-137565333D02*
X393892761Y-137517714D01*
X393940380Y-137374857D01*
X393940380Y-137279619D01*
X393892761Y-137136761D01*
X393797523Y-137041523D01*
X393702285Y-136993904D01*
X393511809Y-136946285D01*
X393368952Y-136946285D01*
X393178476Y-136993904D01*
X393083238Y-137041523D01*
X392988000Y-137136761D01*
X392940380Y-137279619D01*
X392940380Y-137374857D01*
X392988000Y-137517714D01*
X393035619Y-137565333D01*
X393273714Y-138422476D02*
X393940380Y-138422476D01*
X392892761Y-138184380D02*
X393607047Y-137946285D01*
X393607047Y-138565333D01*
X390099142Y-137565333D02*
X390146761Y-137517714D01*
X390194380Y-137374857D01*
X390194380Y-137279619D01*
X390146761Y-137136761D01*
X390051523Y-137041523D01*
X389956285Y-136993904D01*
X389765809Y-136946285D01*
X389622952Y-136946285D01*
X389432476Y-136993904D01*
X389337238Y-137041523D01*
X389242000Y-137136761D01*
X389194380Y-137279619D01*
X389194380Y-137374857D01*
X389242000Y-137517714D01*
X389289619Y-137565333D01*
X389194380Y-138470095D02*
X389194380Y-137993904D01*
X389670571Y-137946285D01*
X389622952Y-137993904D01*
X389575333Y-138089142D01*
X389575333Y-138327238D01*
X389622952Y-138422476D01*
X389670571Y-138470095D01*
X389765809Y-138517714D01*
X390003904Y-138517714D01*
X390099142Y-138470095D01*
X390146761Y-138422476D01*
X390194380Y-138327238D01*
X390194380Y-138089142D01*
X390146761Y-137993904D01*
X390099142Y-137946285D01*
X353840142Y-123419333D02*
X353887761Y-123371714D01*
X353935380Y-123228857D01*
X353935380Y-123133619D01*
X353887761Y-122990761D01*
X353792523Y-122895523D01*
X353697285Y-122847904D01*
X353506809Y-122800285D01*
X353363952Y-122800285D01*
X353173476Y-122847904D01*
X353078238Y-122895523D01*
X352983000Y-122990761D01*
X352935380Y-123133619D01*
X352935380Y-123228857D01*
X352983000Y-123371714D01*
X353030619Y-123419333D01*
X352935380Y-124276476D02*
X352935380Y-124086000D01*
X352983000Y-123990761D01*
X353030619Y-123943142D01*
X353173476Y-123847904D01*
X353363952Y-123800285D01*
X353744904Y-123800285D01*
X353840142Y-123847904D01*
X353887761Y-123895523D01*
X353935380Y-123990761D01*
X353935380Y-124181238D01*
X353887761Y-124276476D01*
X353840142Y-124324095D01*
X353744904Y-124371714D01*
X353506809Y-124371714D01*
X353411571Y-124324095D01*
X353363952Y-124276476D01*
X353316333Y-124181238D01*
X353316333Y-123990761D01*
X353363952Y-123895523D01*
X353411571Y-123847904D01*
X353506809Y-123800285D01*
X357332142Y-123467333D02*
X357379761Y-123419714D01*
X357427380Y-123276857D01*
X357427380Y-123181619D01*
X357379761Y-123038761D01*
X357284523Y-122943523D01*
X357189285Y-122895904D01*
X356998809Y-122848285D01*
X356855952Y-122848285D01*
X356665476Y-122895904D01*
X356570238Y-122943523D01*
X356475000Y-123038761D01*
X356427380Y-123181619D01*
X356427380Y-123276857D01*
X356475000Y-123419714D01*
X356522619Y-123467333D01*
X356427380Y-123800666D02*
X356427380Y-124467333D01*
X357427380Y-124038761D01*
X375176142Y-137529333D02*
X375223761Y-137481714D01*
X375271380Y-137338857D01*
X375271380Y-137243619D01*
X375223761Y-137100761D01*
X375128523Y-137005523D01*
X375033285Y-136957904D01*
X374842809Y-136910285D01*
X374699952Y-136910285D01*
X374509476Y-136957904D01*
X374414238Y-137005523D01*
X374319000Y-137100761D01*
X374271380Y-137243619D01*
X374271380Y-137338857D01*
X374319000Y-137481714D01*
X374366619Y-137529333D01*
X375271380Y-138005523D02*
X375271380Y-138196000D01*
X375223761Y-138291238D01*
X375176142Y-138338857D01*
X375033285Y-138434095D01*
X374842809Y-138481714D01*
X374461857Y-138481714D01*
X374366619Y-138434095D01*
X374319000Y-138386476D01*
X374271380Y-138291238D01*
X374271380Y-138100761D01*
X374319000Y-138005523D01*
X374366619Y-137957904D01*
X374461857Y-137910285D01*
X374699952Y-137910285D01*
X374795190Y-137957904D01*
X374842809Y-138005523D01*
X374890428Y-138100761D01*
X374890428Y-138291238D01*
X374842809Y-138386476D01*
X374795190Y-138434095D01*
X374699952Y-138481714D01*
M02*
