G04 #@! TF.GenerationSoftware,KiCad,Pcbnew,(5.1.4)-1*
G04 #@! TF.CreationDate,2023-02-02T16:14:58+01:00*
G04 #@! TF.ProjectId,pcb,7063622e-6b69-4636-9164-5f7063625858,1.0*
G04 #@! TF.SameCoordinates,Original*
G04 #@! TF.FileFunction,Paste,Bot*
G04 #@! TF.FilePolarity,Positive*
%FSLAX46Y46*%
G04 Gerber Fmt 4.6, Leading zero omitted, Abs format (unit mm)*
G04 Created by KiCad (PCBNEW (5.1.4)-1) date 2023-02-02 16:14:58*
%MOMM*%
%LPD*%
G04 APERTURE LIST*
%ADD10R,1.200000X0.900000*%
%ADD11C,0.100000*%
%ADD12C,0.975000*%
%ADD13R,0.300000X1.450000*%
%ADD14R,0.600000X1.450000*%
G04 APERTURE END LIST*
D10*
X168338000Y-180212000D03*
X168338000Y-176912000D03*
X206438000Y-180212000D03*
X206438000Y-176912000D03*
X282638000Y-180212000D03*
X282638000Y-176912000D03*
X225488000Y-180212000D03*
X225488000Y-176912000D03*
X244538000Y-180212000D03*
X244538000Y-176912000D03*
X73088500Y-180212000D03*
X73088500Y-176912000D03*
X263588000Y-180212000D03*
X263588000Y-176912000D03*
X368236000Y-161416000D03*
X368236000Y-158116000D03*
X330264000Y-180339000D03*
X330264000Y-177039000D03*
X49212500Y-180212000D03*
X49212500Y-176912000D03*
X308800000Y-189737000D03*
X308800000Y-186437000D03*
X111188000Y-180212000D03*
X111188000Y-176912000D03*
X187388000Y-180212000D03*
X187388000Y-176912000D03*
X149288000Y-180212000D03*
X149288000Y-176912000D03*
X387414000Y-161416000D03*
X387414000Y-158116000D03*
X92138500Y-180212000D03*
X92138500Y-176912000D03*
X130238000Y-180212000D03*
X130238000Y-176912000D03*
X368300000Y-234760000D03*
X368300000Y-238060000D03*
X116014000Y-199262000D03*
X116014000Y-195962000D03*
X268414000Y-199262000D03*
X268414000Y-195962000D03*
X330264000Y-199389000D03*
X330264000Y-196089000D03*
X211264000Y-199262000D03*
X211264000Y-195962000D03*
X287464000Y-199389000D03*
X287464000Y-196089000D03*
X154114000Y-199262000D03*
X154114000Y-195962000D03*
X192214000Y-199262000D03*
X192214000Y-195962000D03*
X230314000Y-199262000D03*
X230314000Y-195962000D03*
X368364000Y-200024000D03*
X368364000Y-196724000D03*
X349314000Y-199389000D03*
X349314000Y-196089000D03*
X54038500Y-218058000D03*
X54038500Y-214758000D03*
X368364000Y-180339000D03*
X368364000Y-177039000D03*
X135064000Y-199262000D03*
X135064000Y-195962000D03*
X173164000Y-199262000D03*
X173164000Y-195962000D03*
X349314000Y-180339000D03*
X349314000Y-177039000D03*
X249364000Y-199262000D03*
X249364000Y-195962000D03*
X387414000Y-189991000D03*
X387414000Y-186691000D03*
X51625500Y-199262000D03*
X51625500Y-195962000D03*
X77914500Y-199262000D03*
X77914500Y-195962000D03*
X96964500Y-199262000D03*
X96964500Y-195962000D03*
D11*
G36*
X391767142Y-138183174D02*
G01*
X391790803Y-138186684D01*
X391814007Y-138192496D01*
X391836529Y-138200554D01*
X391858153Y-138210782D01*
X391878670Y-138223079D01*
X391897883Y-138237329D01*
X391915607Y-138253393D01*
X391931671Y-138271117D01*
X391945921Y-138290330D01*
X391958218Y-138310847D01*
X391968446Y-138332471D01*
X391976504Y-138354993D01*
X391982316Y-138378197D01*
X391985826Y-138401858D01*
X391987000Y-138425750D01*
X391987000Y-138913250D01*
X391985826Y-138937142D01*
X391982316Y-138960803D01*
X391976504Y-138984007D01*
X391968446Y-139006529D01*
X391958218Y-139028153D01*
X391945921Y-139048670D01*
X391931671Y-139067883D01*
X391915607Y-139085607D01*
X391897883Y-139101671D01*
X391878670Y-139115921D01*
X391858153Y-139128218D01*
X391836529Y-139138446D01*
X391814007Y-139146504D01*
X391790803Y-139152316D01*
X391767142Y-139155826D01*
X391743250Y-139157000D01*
X390830750Y-139157000D01*
X390806858Y-139155826D01*
X390783197Y-139152316D01*
X390759993Y-139146504D01*
X390737471Y-139138446D01*
X390715847Y-139128218D01*
X390695330Y-139115921D01*
X390676117Y-139101671D01*
X390658393Y-139085607D01*
X390642329Y-139067883D01*
X390628079Y-139048670D01*
X390615782Y-139028153D01*
X390605554Y-139006529D01*
X390597496Y-138984007D01*
X390591684Y-138960803D01*
X390588174Y-138937142D01*
X390587000Y-138913250D01*
X390587000Y-138425750D01*
X390588174Y-138401858D01*
X390591684Y-138378197D01*
X390597496Y-138354993D01*
X390605554Y-138332471D01*
X390615782Y-138310847D01*
X390628079Y-138290330D01*
X390642329Y-138271117D01*
X390658393Y-138253393D01*
X390676117Y-138237329D01*
X390695330Y-138223079D01*
X390715847Y-138210782D01*
X390737471Y-138200554D01*
X390759993Y-138192496D01*
X390783197Y-138186684D01*
X390806858Y-138183174D01*
X390830750Y-138182000D01*
X391743250Y-138182000D01*
X391767142Y-138183174D01*
X391767142Y-138183174D01*
G37*
D12*
X391287000Y-138669500D03*
D11*
G36*
X391767142Y-136308174D02*
G01*
X391790803Y-136311684D01*
X391814007Y-136317496D01*
X391836529Y-136325554D01*
X391858153Y-136335782D01*
X391878670Y-136348079D01*
X391897883Y-136362329D01*
X391915607Y-136378393D01*
X391931671Y-136396117D01*
X391945921Y-136415330D01*
X391958218Y-136435847D01*
X391968446Y-136457471D01*
X391976504Y-136479993D01*
X391982316Y-136503197D01*
X391985826Y-136526858D01*
X391987000Y-136550750D01*
X391987000Y-137038250D01*
X391985826Y-137062142D01*
X391982316Y-137085803D01*
X391976504Y-137109007D01*
X391968446Y-137131529D01*
X391958218Y-137153153D01*
X391945921Y-137173670D01*
X391931671Y-137192883D01*
X391915607Y-137210607D01*
X391897883Y-137226671D01*
X391878670Y-137240921D01*
X391858153Y-137253218D01*
X391836529Y-137263446D01*
X391814007Y-137271504D01*
X391790803Y-137277316D01*
X391767142Y-137280826D01*
X391743250Y-137282000D01*
X390830750Y-137282000D01*
X390806858Y-137280826D01*
X390783197Y-137277316D01*
X390759993Y-137271504D01*
X390737471Y-137263446D01*
X390715847Y-137253218D01*
X390695330Y-137240921D01*
X390676117Y-137226671D01*
X390658393Y-137210607D01*
X390642329Y-137192883D01*
X390628079Y-137173670D01*
X390615782Y-137153153D01*
X390605554Y-137131529D01*
X390597496Y-137109007D01*
X390591684Y-137085803D01*
X390588174Y-137062142D01*
X390587000Y-137038250D01*
X390587000Y-136550750D01*
X390588174Y-136526858D01*
X390591684Y-136503197D01*
X390597496Y-136479993D01*
X390605554Y-136457471D01*
X390615782Y-136435847D01*
X390628079Y-136415330D01*
X390642329Y-136396117D01*
X390658393Y-136378393D01*
X390676117Y-136362329D01*
X390695330Y-136348079D01*
X390715847Y-136335782D01*
X390737471Y-136325554D01*
X390759993Y-136317496D01*
X390783197Y-136311684D01*
X390806858Y-136308174D01*
X390830750Y-136307000D01*
X391743250Y-136307000D01*
X391767142Y-136308174D01*
X391767142Y-136308174D01*
G37*
D12*
X391287000Y-136794500D03*
D11*
G36*
X347952142Y-124291174D02*
G01*
X347975803Y-124294684D01*
X347999007Y-124300496D01*
X348021529Y-124308554D01*
X348043153Y-124318782D01*
X348063670Y-124331079D01*
X348082883Y-124345329D01*
X348100607Y-124361393D01*
X348116671Y-124379117D01*
X348130921Y-124398330D01*
X348143218Y-124418847D01*
X348153446Y-124440471D01*
X348161504Y-124462993D01*
X348167316Y-124486197D01*
X348170826Y-124509858D01*
X348172000Y-124533750D01*
X348172000Y-125021250D01*
X348170826Y-125045142D01*
X348167316Y-125068803D01*
X348161504Y-125092007D01*
X348153446Y-125114529D01*
X348143218Y-125136153D01*
X348130921Y-125156670D01*
X348116671Y-125175883D01*
X348100607Y-125193607D01*
X348082883Y-125209671D01*
X348063670Y-125223921D01*
X348043153Y-125236218D01*
X348021529Y-125246446D01*
X347999007Y-125254504D01*
X347975803Y-125260316D01*
X347952142Y-125263826D01*
X347928250Y-125265000D01*
X347015750Y-125265000D01*
X346991858Y-125263826D01*
X346968197Y-125260316D01*
X346944993Y-125254504D01*
X346922471Y-125246446D01*
X346900847Y-125236218D01*
X346880330Y-125223921D01*
X346861117Y-125209671D01*
X346843393Y-125193607D01*
X346827329Y-125175883D01*
X346813079Y-125156670D01*
X346800782Y-125136153D01*
X346790554Y-125114529D01*
X346782496Y-125092007D01*
X346776684Y-125068803D01*
X346773174Y-125045142D01*
X346772000Y-125021250D01*
X346772000Y-124533750D01*
X346773174Y-124509858D01*
X346776684Y-124486197D01*
X346782496Y-124462993D01*
X346790554Y-124440471D01*
X346800782Y-124418847D01*
X346813079Y-124398330D01*
X346827329Y-124379117D01*
X346843393Y-124361393D01*
X346861117Y-124345329D01*
X346880330Y-124331079D01*
X346900847Y-124318782D01*
X346922471Y-124308554D01*
X346944993Y-124300496D01*
X346968197Y-124294684D01*
X346991858Y-124291174D01*
X347015750Y-124290000D01*
X347928250Y-124290000D01*
X347952142Y-124291174D01*
X347952142Y-124291174D01*
G37*
D12*
X347472000Y-124777500D03*
D11*
G36*
X347952142Y-122416174D02*
G01*
X347975803Y-122419684D01*
X347999007Y-122425496D01*
X348021529Y-122433554D01*
X348043153Y-122443782D01*
X348063670Y-122456079D01*
X348082883Y-122470329D01*
X348100607Y-122486393D01*
X348116671Y-122504117D01*
X348130921Y-122523330D01*
X348143218Y-122543847D01*
X348153446Y-122565471D01*
X348161504Y-122587993D01*
X348167316Y-122611197D01*
X348170826Y-122634858D01*
X348172000Y-122658750D01*
X348172000Y-123146250D01*
X348170826Y-123170142D01*
X348167316Y-123193803D01*
X348161504Y-123217007D01*
X348153446Y-123239529D01*
X348143218Y-123261153D01*
X348130921Y-123281670D01*
X348116671Y-123300883D01*
X348100607Y-123318607D01*
X348082883Y-123334671D01*
X348063670Y-123348921D01*
X348043153Y-123361218D01*
X348021529Y-123371446D01*
X347999007Y-123379504D01*
X347975803Y-123385316D01*
X347952142Y-123388826D01*
X347928250Y-123390000D01*
X347015750Y-123390000D01*
X346991858Y-123388826D01*
X346968197Y-123385316D01*
X346944993Y-123379504D01*
X346922471Y-123371446D01*
X346900847Y-123361218D01*
X346880330Y-123348921D01*
X346861117Y-123334671D01*
X346843393Y-123318607D01*
X346827329Y-123300883D01*
X346813079Y-123281670D01*
X346800782Y-123261153D01*
X346790554Y-123239529D01*
X346782496Y-123217007D01*
X346776684Y-123193803D01*
X346773174Y-123170142D01*
X346772000Y-123146250D01*
X346772000Y-122658750D01*
X346773174Y-122634858D01*
X346776684Y-122611197D01*
X346782496Y-122587993D01*
X346790554Y-122565471D01*
X346800782Y-122543847D01*
X346813079Y-122523330D01*
X346827329Y-122504117D01*
X346843393Y-122486393D01*
X346861117Y-122470329D01*
X346880330Y-122456079D01*
X346900847Y-122443782D01*
X346922471Y-122433554D01*
X346944993Y-122425496D01*
X346968197Y-122419684D01*
X346991858Y-122416174D01*
X347015750Y-122415000D01*
X347928250Y-122415000D01*
X347952142Y-122416174D01*
X347952142Y-122416174D01*
G37*
D12*
X347472000Y-122902500D03*
D10*
X139764000Y-141985000D03*
X139764000Y-138685000D03*
X235014000Y-141985000D03*
X235014000Y-138685000D03*
X196914000Y-141985000D03*
X196914000Y-138685000D03*
D11*
G36*
X359572142Y-136419174D02*
G01*
X359595803Y-136422684D01*
X359619007Y-136428496D01*
X359641529Y-136436554D01*
X359663153Y-136446782D01*
X359683670Y-136459079D01*
X359702883Y-136473329D01*
X359720607Y-136489393D01*
X359736671Y-136507117D01*
X359750921Y-136526330D01*
X359763218Y-136546847D01*
X359773446Y-136568471D01*
X359781504Y-136590993D01*
X359787316Y-136614197D01*
X359790826Y-136637858D01*
X359792000Y-136661750D01*
X359792000Y-137149250D01*
X359790826Y-137173142D01*
X359787316Y-137196803D01*
X359781504Y-137220007D01*
X359773446Y-137242529D01*
X359763218Y-137264153D01*
X359750921Y-137284670D01*
X359736671Y-137303883D01*
X359720607Y-137321607D01*
X359702883Y-137337671D01*
X359683670Y-137351921D01*
X359663153Y-137364218D01*
X359641529Y-137374446D01*
X359619007Y-137382504D01*
X359595803Y-137388316D01*
X359572142Y-137391826D01*
X359548250Y-137393000D01*
X358635750Y-137393000D01*
X358611858Y-137391826D01*
X358588197Y-137388316D01*
X358564993Y-137382504D01*
X358542471Y-137374446D01*
X358520847Y-137364218D01*
X358500330Y-137351921D01*
X358481117Y-137337671D01*
X358463393Y-137321607D01*
X358447329Y-137303883D01*
X358433079Y-137284670D01*
X358420782Y-137264153D01*
X358410554Y-137242529D01*
X358402496Y-137220007D01*
X358396684Y-137196803D01*
X358393174Y-137173142D01*
X358392000Y-137149250D01*
X358392000Y-136661750D01*
X358393174Y-136637858D01*
X358396684Y-136614197D01*
X358402496Y-136590993D01*
X358410554Y-136568471D01*
X358420782Y-136546847D01*
X358433079Y-136526330D01*
X358447329Y-136507117D01*
X358463393Y-136489393D01*
X358481117Y-136473329D01*
X358500330Y-136459079D01*
X358520847Y-136446782D01*
X358542471Y-136436554D01*
X358564993Y-136428496D01*
X358588197Y-136422684D01*
X358611858Y-136419174D01*
X358635750Y-136418000D01*
X359548250Y-136418000D01*
X359572142Y-136419174D01*
X359572142Y-136419174D01*
G37*
D12*
X359092000Y-136905500D03*
D11*
G36*
X359572142Y-134544174D02*
G01*
X359595803Y-134547684D01*
X359619007Y-134553496D01*
X359641529Y-134561554D01*
X359663153Y-134571782D01*
X359683670Y-134584079D01*
X359702883Y-134598329D01*
X359720607Y-134614393D01*
X359736671Y-134632117D01*
X359750921Y-134651330D01*
X359763218Y-134671847D01*
X359773446Y-134693471D01*
X359781504Y-134715993D01*
X359787316Y-134739197D01*
X359790826Y-134762858D01*
X359792000Y-134786750D01*
X359792000Y-135274250D01*
X359790826Y-135298142D01*
X359787316Y-135321803D01*
X359781504Y-135345007D01*
X359773446Y-135367529D01*
X359763218Y-135389153D01*
X359750921Y-135409670D01*
X359736671Y-135428883D01*
X359720607Y-135446607D01*
X359702883Y-135462671D01*
X359683670Y-135476921D01*
X359663153Y-135489218D01*
X359641529Y-135499446D01*
X359619007Y-135507504D01*
X359595803Y-135513316D01*
X359572142Y-135516826D01*
X359548250Y-135518000D01*
X358635750Y-135518000D01*
X358611858Y-135516826D01*
X358588197Y-135513316D01*
X358564993Y-135507504D01*
X358542471Y-135499446D01*
X358520847Y-135489218D01*
X358500330Y-135476921D01*
X358481117Y-135462671D01*
X358463393Y-135446607D01*
X358447329Y-135428883D01*
X358433079Y-135409670D01*
X358420782Y-135389153D01*
X358410554Y-135367529D01*
X358402496Y-135345007D01*
X358396684Y-135321803D01*
X358393174Y-135298142D01*
X358392000Y-135274250D01*
X358392000Y-134786750D01*
X358393174Y-134762858D01*
X358396684Y-134739197D01*
X358402496Y-134715993D01*
X358410554Y-134693471D01*
X358420782Y-134671847D01*
X358433079Y-134651330D01*
X358447329Y-134632117D01*
X358463393Y-134614393D01*
X358481117Y-134598329D01*
X358500330Y-134584079D01*
X358520847Y-134571782D01*
X358542471Y-134561554D01*
X358564993Y-134553496D01*
X358588197Y-134547684D01*
X358611858Y-134544174D01*
X358635750Y-134543000D01*
X359548250Y-134543000D01*
X359572142Y-134544174D01*
X359572142Y-134544174D01*
G37*
D12*
X359092000Y-135030500D03*
D10*
X82613500Y-141985000D03*
X82613500Y-138685000D03*
X120714000Y-141985000D03*
X120714000Y-138685000D03*
X63563500Y-141986000D03*
X63563500Y-138686000D03*
D11*
G36*
X380337142Y-138183174D02*
G01*
X380360803Y-138186684D01*
X380384007Y-138192496D01*
X380406529Y-138200554D01*
X380428153Y-138210782D01*
X380448670Y-138223079D01*
X380467883Y-138237329D01*
X380485607Y-138253393D01*
X380501671Y-138271117D01*
X380515921Y-138290330D01*
X380528218Y-138310847D01*
X380538446Y-138332471D01*
X380546504Y-138354993D01*
X380552316Y-138378197D01*
X380555826Y-138401858D01*
X380557000Y-138425750D01*
X380557000Y-138913250D01*
X380555826Y-138937142D01*
X380552316Y-138960803D01*
X380546504Y-138984007D01*
X380538446Y-139006529D01*
X380528218Y-139028153D01*
X380515921Y-139048670D01*
X380501671Y-139067883D01*
X380485607Y-139085607D01*
X380467883Y-139101671D01*
X380448670Y-139115921D01*
X380428153Y-139128218D01*
X380406529Y-139138446D01*
X380384007Y-139146504D01*
X380360803Y-139152316D01*
X380337142Y-139155826D01*
X380313250Y-139157000D01*
X379400750Y-139157000D01*
X379376858Y-139155826D01*
X379353197Y-139152316D01*
X379329993Y-139146504D01*
X379307471Y-139138446D01*
X379285847Y-139128218D01*
X379265330Y-139115921D01*
X379246117Y-139101671D01*
X379228393Y-139085607D01*
X379212329Y-139067883D01*
X379198079Y-139048670D01*
X379185782Y-139028153D01*
X379175554Y-139006529D01*
X379167496Y-138984007D01*
X379161684Y-138960803D01*
X379158174Y-138937142D01*
X379157000Y-138913250D01*
X379157000Y-138425750D01*
X379158174Y-138401858D01*
X379161684Y-138378197D01*
X379167496Y-138354993D01*
X379175554Y-138332471D01*
X379185782Y-138310847D01*
X379198079Y-138290330D01*
X379212329Y-138271117D01*
X379228393Y-138253393D01*
X379246117Y-138237329D01*
X379265330Y-138223079D01*
X379285847Y-138210782D01*
X379307471Y-138200554D01*
X379329993Y-138192496D01*
X379353197Y-138186684D01*
X379376858Y-138183174D01*
X379400750Y-138182000D01*
X380313250Y-138182000D01*
X380337142Y-138183174D01*
X380337142Y-138183174D01*
G37*
D12*
X379857000Y-138669500D03*
D11*
G36*
X380337142Y-136308174D02*
G01*
X380360803Y-136311684D01*
X380384007Y-136317496D01*
X380406529Y-136325554D01*
X380428153Y-136335782D01*
X380448670Y-136348079D01*
X380467883Y-136362329D01*
X380485607Y-136378393D01*
X380501671Y-136396117D01*
X380515921Y-136415330D01*
X380528218Y-136435847D01*
X380538446Y-136457471D01*
X380546504Y-136479993D01*
X380552316Y-136503197D01*
X380555826Y-136526858D01*
X380557000Y-136550750D01*
X380557000Y-137038250D01*
X380555826Y-137062142D01*
X380552316Y-137085803D01*
X380546504Y-137109007D01*
X380538446Y-137131529D01*
X380528218Y-137153153D01*
X380515921Y-137173670D01*
X380501671Y-137192883D01*
X380485607Y-137210607D01*
X380467883Y-137226671D01*
X380448670Y-137240921D01*
X380428153Y-137253218D01*
X380406529Y-137263446D01*
X380384007Y-137271504D01*
X380360803Y-137277316D01*
X380337142Y-137280826D01*
X380313250Y-137282000D01*
X379400750Y-137282000D01*
X379376858Y-137280826D01*
X379353197Y-137277316D01*
X379329993Y-137271504D01*
X379307471Y-137263446D01*
X379285847Y-137253218D01*
X379265330Y-137240921D01*
X379246117Y-137226671D01*
X379228393Y-137210607D01*
X379212329Y-137192883D01*
X379198079Y-137173670D01*
X379185782Y-137153153D01*
X379175554Y-137131529D01*
X379167496Y-137109007D01*
X379161684Y-137085803D01*
X379158174Y-137062142D01*
X379157000Y-137038250D01*
X379157000Y-136550750D01*
X379158174Y-136526858D01*
X379161684Y-136503197D01*
X379167496Y-136479993D01*
X379175554Y-136457471D01*
X379185782Y-136435847D01*
X379198079Y-136415330D01*
X379212329Y-136396117D01*
X379228393Y-136378393D01*
X379246117Y-136362329D01*
X379265330Y-136348079D01*
X379285847Y-136335782D01*
X379307471Y-136325554D01*
X379329993Y-136317496D01*
X379353197Y-136311684D01*
X379376858Y-136308174D01*
X379400750Y-136307000D01*
X380313250Y-136307000D01*
X380337142Y-136308174D01*
X380337142Y-136308174D01*
G37*
D12*
X379857000Y-136794500D03*
D10*
X158814000Y-141985000D03*
X158814000Y-138685000D03*
X292164000Y-141985000D03*
X292164000Y-138685000D03*
D11*
G36*
X351444142Y-124339174D02*
G01*
X351467803Y-124342684D01*
X351491007Y-124348496D01*
X351513529Y-124356554D01*
X351535153Y-124366782D01*
X351555670Y-124379079D01*
X351574883Y-124393329D01*
X351592607Y-124409393D01*
X351608671Y-124427117D01*
X351622921Y-124446330D01*
X351635218Y-124466847D01*
X351645446Y-124488471D01*
X351653504Y-124510993D01*
X351659316Y-124534197D01*
X351662826Y-124557858D01*
X351664000Y-124581750D01*
X351664000Y-125069250D01*
X351662826Y-125093142D01*
X351659316Y-125116803D01*
X351653504Y-125140007D01*
X351645446Y-125162529D01*
X351635218Y-125184153D01*
X351622921Y-125204670D01*
X351608671Y-125223883D01*
X351592607Y-125241607D01*
X351574883Y-125257671D01*
X351555670Y-125271921D01*
X351535153Y-125284218D01*
X351513529Y-125294446D01*
X351491007Y-125302504D01*
X351467803Y-125308316D01*
X351444142Y-125311826D01*
X351420250Y-125313000D01*
X350507750Y-125313000D01*
X350483858Y-125311826D01*
X350460197Y-125308316D01*
X350436993Y-125302504D01*
X350414471Y-125294446D01*
X350392847Y-125284218D01*
X350372330Y-125271921D01*
X350353117Y-125257671D01*
X350335393Y-125241607D01*
X350319329Y-125223883D01*
X350305079Y-125204670D01*
X350292782Y-125184153D01*
X350282554Y-125162529D01*
X350274496Y-125140007D01*
X350268684Y-125116803D01*
X350265174Y-125093142D01*
X350264000Y-125069250D01*
X350264000Y-124581750D01*
X350265174Y-124557858D01*
X350268684Y-124534197D01*
X350274496Y-124510993D01*
X350282554Y-124488471D01*
X350292782Y-124466847D01*
X350305079Y-124446330D01*
X350319329Y-124427117D01*
X350335393Y-124409393D01*
X350353117Y-124393329D01*
X350372330Y-124379079D01*
X350392847Y-124366782D01*
X350414471Y-124356554D01*
X350436993Y-124348496D01*
X350460197Y-124342684D01*
X350483858Y-124339174D01*
X350507750Y-124338000D01*
X351420250Y-124338000D01*
X351444142Y-124339174D01*
X351444142Y-124339174D01*
G37*
D12*
X350964000Y-124825500D03*
D11*
G36*
X351444142Y-122464174D02*
G01*
X351467803Y-122467684D01*
X351491007Y-122473496D01*
X351513529Y-122481554D01*
X351535153Y-122491782D01*
X351555670Y-122504079D01*
X351574883Y-122518329D01*
X351592607Y-122534393D01*
X351608671Y-122552117D01*
X351622921Y-122571330D01*
X351635218Y-122591847D01*
X351645446Y-122613471D01*
X351653504Y-122635993D01*
X351659316Y-122659197D01*
X351662826Y-122682858D01*
X351664000Y-122706750D01*
X351664000Y-123194250D01*
X351662826Y-123218142D01*
X351659316Y-123241803D01*
X351653504Y-123265007D01*
X351645446Y-123287529D01*
X351635218Y-123309153D01*
X351622921Y-123329670D01*
X351608671Y-123348883D01*
X351592607Y-123366607D01*
X351574883Y-123382671D01*
X351555670Y-123396921D01*
X351535153Y-123409218D01*
X351513529Y-123419446D01*
X351491007Y-123427504D01*
X351467803Y-123433316D01*
X351444142Y-123436826D01*
X351420250Y-123438000D01*
X350507750Y-123438000D01*
X350483858Y-123436826D01*
X350460197Y-123433316D01*
X350436993Y-123427504D01*
X350414471Y-123419446D01*
X350392847Y-123409218D01*
X350372330Y-123396921D01*
X350353117Y-123382671D01*
X350335393Y-123366607D01*
X350319329Y-123348883D01*
X350305079Y-123329670D01*
X350292782Y-123309153D01*
X350282554Y-123287529D01*
X350274496Y-123265007D01*
X350268684Y-123241803D01*
X350265174Y-123218142D01*
X350264000Y-123194250D01*
X350264000Y-122706750D01*
X350265174Y-122682858D01*
X350268684Y-122659197D01*
X350274496Y-122635993D01*
X350282554Y-122613471D01*
X350292782Y-122591847D01*
X350305079Y-122571330D01*
X350319329Y-122552117D01*
X350335393Y-122534393D01*
X350353117Y-122518329D01*
X350372330Y-122504079D01*
X350392847Y-122491782D01*
X350414471Y-122481554D01*
X350436993Y-122473496D01*
X350460197Y-122467684D01*
X350483858Y-122464174D01*
X350507750Y-122463000D01*
X351420250Y-122463000D01*
X351444142Y-122464174D01*
X351444142Y-122464174D01*
G37*
D12*
X350964000Y-122950500D03*
D10*
X215964000Y-141985000D03*
X215964000Y-138685000D03*
X44513500Y-138685000D03*
X44513500Y-141985000D03*
D11*
G36*
X387830142Y-138183174D02*
G01*
X387853803Y-138186684D01*
X387877007Y-138192496D01*
X387899529Y-138200554D01*
X387921153Y-138210782D01*
X387941670Y-138223079D01*
X387960883Y-138237329D01*
X387978607Y-138253393D01*
X387994671Y-138271117D01*
X388008921Y-138290330D01*
X388021218Y-138310847D01*
X388031446Y-138332471D01*
X388039504Y-138354993D01*
X388045316Y-138378197D01*
X388048826Y-138401858D01*
X388050000Y-138425750D01*
X388050000Y-138913250D01*
X388048826Y-138937142D01*
X388045316Y-138960803D01*
X388039504Y-138984007D01*
X388031446Y-139006529D01*
X388021218Y-139028153D01*
X388008921Y-139048670D01*
X387994671Y-139067883D01*
X387978607Y-139085607D01*
X387960883Y-139101671D01*
X387941670Y-139115921D01*
X387921153Y-139128218D01*
X387899529Y-139138446D01*
X387877007Y-139146504D01*
X387853803Y-139152316D01*
X387830142Y-139155826D01*
X387806250Y-139157000D01*
X386893750Y-139157000D01*
X386869858Y-139155826D01*
X386846197Y-139152316D01*
X386822993Y-139146504D01*
X386800471Y-139138446D01*
X386778847Y-139128218D01*
X386758330Y-139115921D01*
X386739117Y-139101671D01*
X386721393Y-139085607D01*
X386705329Y-139067883D01*
X386691079Y-139048670D01*
X386678782Y-139028153D01*
X386668554Y-139006529D01*
X386660496Y-138984007D01*
X386654684Y-138960803D01*
X386651174Y-138937142D01*
X386650000Y-138913250D01*
X386650000Y-138425750D01*
X386651174Y-138401858D01*
X386654684Y-138378197D01*
X386660496Y-138354993D01*
X386668554Y-138332471D01*
X386678782Y-138310847D01*
X386691079Y-138290330D01*
X386705329Y-138271117D01*
X386721393Y-138253393D01*
X386739117Y-138237329D01*
X386758330Y-138223079D01*
X386778847Y-138210782D01*
X386800471Y-138200554D01*
X386822993Y-138192496D01*
X386846197Y-138186684D01*
X386869858Y-138183174D01*
X386893750Y-138182000D01*
X387806250Y-138182000D01*
X387830142Y-138183174D01*
X387830142Y-138183174D01*
G37*
D12*
X387350000Y-138669500D03*
D11*
G36*
X387830142Y-136308174D02*
G01*
X387853803Y-136311684D01*
X387877007Y-136317496D01*
X387899529Y-136325554D01*
X387921153Y-136335782D01*
X387941670Y-136348079D01*
X387960883Y-136362329D01*
X387978607Y-136378393D01*
X387994671Y-136396117D01*
X388008921Y-136415330D01*
X388021218Y-136435847D01*
X388031446Y-136457471D01*
X388039504Y-136479993D01*
X388045316Y-136503197D01*
X388048826Y-136526858D01*
X388050000Y-136550750D01*
X388050000Y-137038250D01*
X388048826Y-137062142D01*
X388045316Y-137085803D01*
X388039504Y-137109007D01*
X388031446Y-137131529D01*
X388021218Y-137153153D01*
X388008921Y-137173670D01*
X387994671Y-137192883D01*
X387978607Y-137210607D01*
X387960883Y-137226671D01*
X387941670Y-137240921D01*
X387921153Y-137253218D01*
X387899529Y-137263446D01*
X387877007Y-137271504D01*
X387853803Y-137277316D01*
X387830142Y-137280826D01*
X387806250Y-137282000D01*
X386893750Y-137282000D01*
X386869858Y-137280826D01*
X386846197Y-137277316D01*
X386822993Y-137271504D01*
X386800471Y-137263446D01*
X386778847Y-137253218D01*
X386758330Y-137240921D01*
X386739117Y-137226671D01*
X386721393Y-137210607D01*
X386705329Y-137192883D01*
X386691079Y-137173670D01*
X386678782Y-137153153D01*
X386668554Y-137131529D01*
X386660496Y-137109007D01*
X386654684Y-137085803D01*
X386651174Y-137062142D01*
X386650000Y-137038250D01*
X386650000Y-136550750D01*
X386651174Y-136526858D01*
X386654684Y-136503197D01*
X386660496Y-136479993D01*
X386668554Y-136457471D01*
X386678782Y-136435847D01*
X386691079Y-136415330D01*
X386705329Y-136396117D01*
X386721393Y-136378393D01*
X386739117Y-136362329D01*
X386758330Y-136348079D01*
X386778847Y-136335782D01*
X386800471Y-136325554D01*
X386822993Y-136317496D01*
X386846197Y-136311684D01*
X386869858Y-136308174D01*
X386893750Y-136307000D01*
X387806250Y-136307000D01*
X387830142Y-136308174D01*
X387830142Y-136308174D01*
G37*
D12*
X387350000Y-136794500D03*
D11*
G36*
X376718142Y-138183174D02*
G01*
X376741803Y-138186684D01*
X376765007Y-138192496D01*
X376787529Y-138200554D01*
X376809153Y-138210782D01*
X376829670Y-138223079D01*
X376848883Y-138237329D01*
X376866607Y-138253393D01*
X376882671Y-138271117D01*
X376896921Y-138290330D01*
X376909218Y-138310847D01*
X376919446Y-138332471D01*
X376927504Y-138354993D01*
X376933316Y-138378197D01*
X376936826Y-138401858D01*
X376938000Y-138425750D01*
X376938000Y-138913250D01*
X376936826Y-138937142D01*
X376933316Y-138960803D01*
X376927504Y-138984007D01*
X376919446Y-139006529D01*
X376909218Y-139028153D01*
X376896921Y-139048670D01*
X376882671Y-139067883D01*
X376866607Y-139085607D01*
X376848883Y-139101671D01*
X376829670Y-139115921D01*
X376809153Y-139128218D01*
X376787529Y-139138446D01*
X376765007Y-139146504D01*
X376741803Y-139152316D01*
X376718142Y-139155826D01*
X376694250Y-139157000D01*
X375781750Y-139157000D01*
X375757858Y-139155826D01*
X375734197Y-139152316D01*
X375710993Y-139146504D01*
X375688471Y-139138446D01*
X375666847Y-139128218D01*
X375646330Y-139115921D01*
X375627117Y-139101671D01*
X375609393Y-139085607D01*
X375593329Y-139067883D01*
X375579079Y-139048670D01*
X375566782Y-139028153D01*
X375556554Y-139006529D01*
X375548496Y-138984007D01*
X375542684Y-138960803D01*
X375539174Y-138937142D01*
X375538000Y-138913250D01*
X375538000Y-138425750D01*
X375539174Y-138401858D01*
X375542684Y-138378197D01*
X375548496Y-138354993D01*
X375556554Y-138332471D01*
X375566782Y-138310847D01*
X375579079Y-138290330D01*
X375593329Y-138271117D01*
X375609393Y-138253393D01*
X375627117Y-138237329D01*
X375646330Y-138223079D01*
X375666847Y-138210782D01*
X375688471Y-138200554D01*
X375710993Y-138192496D01*
X375734197Y-138186684D01*
X375757858Y-138183174D01*
X375781750Y-138182000D01*
X376694250Y-138182000D01*
X376718142Y-138183174D01*
X376718142Y-138183174D01*
G37*
D12*
X376238000Y-138669500D03*
D11*
G36*
X376718142Y-136308174D02*
G01*
X376741803Y-136311684D01*
X376765007Y-136317496D01*
X376787529Y-136325554D01*
X376809153Y-136335782D01*
X376829670Y-136348079D01*
X376848883Y-136362329D01*
X376866607Y-136378393D01*
X376882671Y-136396117D01*
X376896921Y-136415330D01*
X376909218Y-136435847D01*
X376919446Y-136457471D01*
X376927504Y-136479993D01*
X376933316Y-136503197D01*
X376936826Y-136526858D01*
X376938000Y-136550750D01*
X376938000Y-137038250D01*
X376936826Y-137062142D01*
X376933316Y-137085803D01*
X376927504Y-137109007D01*
X376919446Y-137131529D01*
X376909218Y-137153153D01*
X376896921Y-137173670D01*
X376882671Y-137192883D01*
X376866607Y-137210607D01*
X376848883Y-137226671D01*
X376829670Y-137240921D01*
X376809153Y-137253218D01*
X376787529Y-137263446D01*
X376765007Y-137271504D01*
X376741803Y-137277316D01*
X376718142Y-137280826D01*
X376694250Y-137282000D01*
X375781750Y-137282000D01*
X375757858Y-137280826D01*
X375734197Y-137277316D01*
X375710993Y-137271504D01*
X375688471Y-137263446D01*
X375666847Y-137253218D01*
X375646330Y-137240921D01*
X375627117Y-137226671D01*
X375609393Y-137210607D01*
X375593329Y-137192883D01*
X375579079Y-137173670D01*
X375566782Y-137153153D01*
X375556554Y-137131529D01*
X375548496Y-137109007D01*
X375542684Y-137085803D01*
X375539174Y-137062142D01*
X375538000Y-137038250D01*
X375538000Y-136550750D01*
X375539174Y-136526858D01*
X375542684Y-136503197D01*
X375548496Y-136479993D01*
X375556554Y-136457471D01*
X375566782Y-136435847D01*
X375579079Y-136415330D01*
X375593329Y-136396117D01*
X375609393Y-136378393D01*
X375627117Y-136362329D01*
X375646330Y-136348079D01*
X375666847Y-136335782D01*
X375688471Y-136325554D01*
X375710993Y-136317496D01*
X375734197Y-136311684D01*
X375757858Y-136308174D01*
X375781750Y-136307000D01*
X376694250Y-136307000D01*
X376718142Y-136308174D01*
X376718142Y-136308174D01*
G37*
D12*
X376238000Y-136794500D03*
D10*
X101664000Y-141985000D03*
X101664000Y-138685000D03*
X254064000Y-141985000D03*
X254064000Y-138685000D03*
X311214000Y-141985000D03*
X311214000Y-138685000D03*
D11*
G36*
X384084142Y-138183174D02*
G01*
X384107803Y-138186684D01*
X384131007Y-138192496D01*
X384153529Y-138200554D01*
X384175153Y-138210782D01*
X384195670Y-138223079D01*
X384214883Y-138237329D01*
X384232607Y-138253393D01*
X384248671Y-138271117D01*
X384262921Y-138290330D01*
X384275218Y-138310847D01*
X384285446Y-138332471D01*
X384293504Y-138354993D01*
X384299316Y-138378197D01*
X384302826Y-138401858D01*
X384304000Y-138425750D01*
X384304000Y-138913250D01*
X384302826Y-138937142D01*
X384299316Y-138960803D01*
X384293504Y-138984007D01*
X384285446Y-139006529D01*
X384275218Y-139028153D01*
X384262921Y-139048670D01*
X384248671Y-139067883D01*
X384232607Y-139085607D01*
X384214883Y-139101671D01*
X384195670Y-139115921D01*
X384175153Y-139128218D01*
X384153529Y-139138446D01*
X384131007Y-139146504D01*
X384107803Y-139152316D01*
X384084142Y-139155826D01*
X384060250Y-139157000D01*
X383147750Y-139157000D01*
X383123858Y-139155826D01*
X383100197Y-139152316D01*
X383076993Y-139146504D01*
X383054471Y-139138446D01*
X383032847Y-139128218D01*
X383012330Y-139115921D01*
X382993117Y-139101671D01*
X382975393Y-139085607D01*
X382959329Y-139067883D01*
X382945079Y-139048670D01*
X382932782Y-139028153D01*
X382922554Y-139006529D01*
X382914496Y-138984007D01*
X382908684Y-138960803D01*
X382905174Y-138937142D01*
X382904000Y-138913250D01*
X382904000Y-138425750D01*
X382905174Y-138401858D01*
X382908684Y-138378197D01*
X382914496Y-138354993D01*
X382922554Y-138332471D01*
X382932782Y-138310847D01*
X382945079Y-138290330D01*
X382959329Y-138271117D01*
X382975393Y-138253393D01*
X382993117Y-138237329D01*
X383012330Y-138223079D01*
X383032847Y-138210782D01*
X383054471Y-138200554D01*
X383076993Y-138192496D01*
X383100197Y-138186684D01*
X383123858Y-138183174D01*
X383147750Y-138182000D01*
X384060250Y-138182000D01*
X384084142Y-138183174D01*
X384084142Y-138183174D01*
G37*
D12*
X383604000Y-138669500D03*
D11*
G36*
X384084142Y-136308174D02*
G01*
X384107803Y-136311684D01*
X384131007Y-136317496D01*
X384153529Y-136325554D01*
X384175153Y-136335782D01*
X384195670Y-136348079D01*
X384214883Y-136362329D01*
X384232607Y-136378393D01*
X384248671Y-136396117D01*
X384262921Y-136415330D01*
X384275218Y-136435847D01*
X384285446Y-136457471D01*
X384293504Y-136479993D01*
X384299316Y-136503197D01*
X384302826Y-136526858D01*
X384304000Y-136550750D01*
X384304000Y-137038250D01*
X384302826Y-137062142D01*
X384299316Y-137085803D01*
X384293504Y-137109007D01*
X384285446Y-137131529D01*
X384275218Y-137153153D01*
X384262921Y-137173670D01*
X384248671Y-137192883D01*
X384232607Y-137210607D01*
X384214883Y-137226671D01*
X384195670Y-137240921D01*
X384175153Y-137253218D01*
X384153529Y-137263446D01*
X384131007Y-137271504D01*
X384107803Y-137277316D01*
X384084142Y-137280826D01*
X384060250Y-137282000D01*
X383147750Y-137282000D01*
X383123858Y-137280826D01*
X383100197Y-137277316D01*
X383076993Y-137271504D01*
X383054471Y-137263446D01*
X383032847Y-137253218D01*
X383012330Y-137240921D01*
X382993117Y-137226671D01*
X382975393Y-137210607D01*
X382959329Y-137192883D01*
X382945079Y-137173670D01*
X382932782Y-137153153D01*
X382922554Y-137131529D01*
X382914496Y-137109007D01*
X382908684Y-137085803D01*
X382905174Y-137062142D01*
X382904000Y-137038250D01*
X382904000Y-136550750D01*
X382905174Y-136526858D01*
X382908684Y-136503197D01*
X382914496Y-136479993D01*
X382922554Y-136457471D01*
X382932782Y-136435847D01*
X382945079Y-136415330D01*
X382959329Y-136396117D01*
X382975393Y-136378393D01*
X382993117Y-136362329D01*
X383012330Y-136348079D01*
X383032847Y-136335782D01*
X383054471Y-136325554D01*
X383076993Y-136317496D01*
X383100197Y-136311684D01*
X383123858Y-136308174D01*
X383147750Y-136307000D01*
X384060250Y-136307000D01*
X384084142Y-136308174D01*
X384084142Y-136308174D01*
G37*
D12*
X383604000Y-136794500D03*
D10*
X177864000Y-141985000D03*
X177864000Y-138685000D03*
X273114000Y-141985000D03*
X273114000Y-138685000D03*
X139764000Y-161162000D03*
X139764000Y-157862000D03*
X196914000Y-161162000D03*
X196914000Y-157862000D03*
X254064000Y-161162000D03*
X254064000Y-157862000D03*
X330264000Y-161162000D03*
X330264000Y-157862000D03*
X349314000Y-161162000D03*
X349314000Y-157862000D03*
X82613500Y-161162000D03*
X82613500Y-157862000D03*
X235014000Y-161162000D03*
X235014000Y-157862000D03*
X273114000Y-161162000D03*
X273114000Y-157862000D03*
X215964000Y-161162000D03*
X215964000Y-157862000D03*
X101664000Y-161162000D03*
X101664000Y-157862000D03*
X120714000Y-161162000D03*
X120714000Y-157862000D03*
X158814000Y-161162000D03*
X158814000Y-157862000D03*
X301688000Y-161162000D03*
X301688000Y-157862000D03*
X177990000Y-161162000D03*
X177990000Y-157862000D03*
X44513500Y-161163000D03*
X44513500Y-157863000D03*
X63563500Y-161163000D03*
X63563500Y-157863000D03*
X292164000Y-237235000D03*
X292164000Y-233935000D03*
X330264000Y-237235000D03*
X330264000Y-233935000D03*
X311214000Y-237235000D03*
X311214000Y-233935000D03*
X249238000Y-237235000D03*
X249238000Y-233935000D03*
X161100000Y-237235000D03*
X161100000Y-233935000D03*
X230188000Y-237235000D03*
X230188000Y-233935000D03*
X270700000Y-237235000D03*
X270700000Y-233935000D03*
X139764000Y-218058000D03*
X139764000Y-214758000D03*
X273114000Y-218058000D03*
X273114000Y-214758000D03*
X254064000Y-218058000D03*
X254064000Y-214758000D03*
X82613500Y-218058000D03*
X82613500Y-214758000D03*
X101664000Y-218058000D03*
X101664000Y-214758000D03*
X120714000Y-218058000D03*
X120714000Y-214758000D03*
X215964000Y-218058000D03*
X215964000Y-214758000D03*
X177864000Y-218058000D03*
X177864000Y-214758000D03*
X235014000Y-218058000D03*
X235014000Y-214758000D03*
X196914000Y-218058000D03*
X196914000Y-214758000D03*
X158814000Y-218058000D03*
X158814000Y-214758000D03*
X311214000Y-218058000D03*
X311214000Y-214758000D03*
X49212500Y-237235000D03*
X49212500Y-233935000D03*
X368364000Y-218058000D03*
X368364000Y-214758000D03*
X349314000Y-218058000D03*
X349314000Y-214758000D03*
X387414000Y-227837000D03*
X387414000Y-224537000D03*
X292164000Y-218059000D03*
X292164000Y-214759000D03*
X330264000Y-218058000D03*
X330264000Y-214758000D03*
X72961500Y-237235000D03*
X72961500Y-233935000D03*
X92011500Y-237235000D03*
X92011500Y-233935000D03*
D13*
X375797000Y-125857000D03*
X377797000Y-125857000D03*
X377297000Y-125857000D03*
X376797000Y-125857000D03*
X376297000Y-125857000D03*
X375297000Y-125857000D03*
X374797000Y-125857000D03*
X374297000Y-125857000D03*
D14*
X379297000Y-125857000D03*
X378497000Y-125857000D03*
X373597000Y-125857000D03*
X372797000Y-125857000D03*
X372797000Y-125857000D03*
X373597000Y-125857000D03*
X378497000Y-125857000D03*
X379297000Y-125857000D03*
D10*
X349314000Y-237236000D03*
X349314000Y-233936000D03*
D11*
G36*
X372996142Y-136272174D02*
G01*
X373019803Y-136275684D01*
X373043007Y-136281496D01*
X373065529Y-136289554D01*
X373087153Y-136299782D01*
X373107670Y-136312079D01*
X373126883Y-136326329D01*
X373144607Y-136342393D01*
X373160671Y-136360117D01*
X373174921Y-136379330D01*
X373187218Y-136399847D01*
X373197446Y-136421471D01*
X373205504Y-136443993D01*
X373211316Y-136467197D01*
X373214826Y-136490858D01*
X373216000Y-136514750D01*
X373216000Y-137002250D01*
X373214826Y-137026142D01*
X373211316Y-137049803D01*
X373205504Y-137073007D01*
X373197446Y-137095529D01*
X373187218Y-137117153D01*
X373174921Y-137137670D01*
X373160671Y-137156883D01*
X373144607Y-137174607D01*
X373126883Y-137190671D01*
X373107670Y-137204921D01*
X373087153Y-137217218D01*
X373065529Y-137227446D01*
X373043007Y-137235504D01*
X373019803Y-137241316D01*
X372996142Y-137244826D01*
X372972250Y-137246000D01*
X372059750Y-137246000D01*
X372035858Y-137244826D01*
X372012197Y-137241316D01*
X371988993Y-137235504D01*
X371966471Y-137227446D01*
X371944847Y-137217218D01*
X371924330Y-137204921D01*
X371905117Y-137190671D01*
X371887393Y-137174607D01*
X371871329Y-137156883D01*
X371857079Y-137137670D01*
X371844782Y-137117153D01*
X371834554Y-137095529D01*
X371826496Y-137073007D01*
X371820684Y-137049803D01*
X371817174Y-137026142D01*
X371816000Y-137002250D01*
X371816000Y-136514750D01*
X371817174Y-136490858D01*
X371820684Y-136467197D01*
X371826496Y-136443993D01*
X371834554Y-136421471D01*
X371844782Y-136399847D01*
X371857079Y-136379330D01*
X371871329Y-136360117D01*
X371887393Y-136342393D01*
X371905117Y-136326329D01*
X371924330Y-136312079D01*
X371944847Y-136299782D01*
X371966471Y-136289554D01*
X371988993Y-136281496D01*
X372012197Y-136275684D01*
X372035858Y-136272174D01*
X372059750Y-136271000D01*
X372972250Y-136271000D01*
X372996142Y-136272174D01*
X372996142Y-136272174D01*
G37*
D12*
X372516000Y-136758500D03*
D11*
G36*
X372996142Y-138147174D02*
G01*
X373019803Y-138150684D01*
X373043007Y-138156496D01*
X373065529Y-138164554D01*
X373087153Y-138174782D01*
X373107670Y-138187079D01*
X373126883Y-138201329D01*
X373144607Y-138217393D01*
X373160671Y-138235117D01*
X373174921Y-138254330D01*
X373187218Y-138274847D01*
X373197446Y-138296471D01*
X373205504Y-138318993D01*
X373211316Y-138342197D01*
X373214826Y-138365858D01*
X373216000Y-138389750D01*
X373216000Y-138877250D01*
X373214826Y-138901142D01*
X373211316Y-138924803D01*
X373205504Y-138948007D01*
X373197446Y-138970529D01*
X373187218Y-138992153D01*
X373174921Y-139012670D01*
X373160671Y-139031883D01*
X373144607Y-139049607D01*
X373126883Y-139065671D01*
X373107670Y-139079921D01*
X373087153Y-139092218D01*
X373065529Y-139102446D01*
X373043007Y-139110504D01*
X373019803Y-139116316D01*
X372996142Y-139119826D01*
X372972250Y-139121000D01*
X372059750Y-139121000D01*
X372035858Y-139119826D01*
X372012197Y-139116316D01*
X371988993Y-139110504D01*
X371966471Y-139102446D01*
X371944847Y-139092218D01*
X371924330Y-139079921D01*
X371905117Y-139065671D01*
X371887393Y-139049607D01*
X371871329Y-139031883D01*
X371857079Y-139012670D01*
X371844782Y-138992153D01*
X371834554Y-138970529D01*
X371826496Y-138948007D01*
X371820684Y-138924803D01*
X371817174Y-138901142D01*
X371816000Y-138877250D01*
X371816000Y-138389750D01*
X371817174Y-138365858D01*
X371820684Y-138342197D01*
X371826496Y-138318993D01*
X371834554Y-138296471D01*
X371844782Y-138274847D01*
X371857079Y-138254330D01*
X371871329Y-138235117D01*
X371887393Y-138217393D01*
X371905117Y-138201329D01*
X371924330Y-138187079D01*
X371944847Y-138174782D01*
X371966471Y-138164554D01*
X371988993Y-138156496D01*
X372012197Y-138150684D01*
X372035858Y-138147174D01*
X372059750Y-138146000D01*
X372972250Y-138146000D01*
X372996142Y-138147174D01*
X372996142Y-138147174D01*
G37*
D12*
X372516000Y-138633500D03*
M02*
